<?xml version="1.0" encoding="utf-8"?>
<!-- Generator: Adobe Illustrator 16.0.0, SVG Export Plug-In . SVG Version: 6.00 Build 0)  -->
<!DOCTYPE svg PUBLIC "-//W3C//DTD SVG 1.1//EN" "http://www.w3.org/Graphics/SVG/1.1/DTD/svg11.dtd">
<svg version="1.1" id="Layer_1" xmlns="http://www.w3.org/2000/svg" xmlns:xlink="http://www.w3.org/1999/xlink" x="0px" y="0px"
	 width="308.9px" height="411.2px" viewBox="0 0 308.9 411.2" style="enable-background:new 0 0 308.9 411.2;" xml:space="preserve"
	>
<g>
	<g>
		<path d="M1000.6-158.6c8.9-7,14.3-16.5,18.7-26.8c4.6-10.5,7.6-21.2,8.1-32.6c0.9-23-11.5-43-28.9-57.1
			c-30.1-24.4-73.8-27.9-107.7-9.5c-1.7,0.9-0.2,3.5,1.5,2.6c32.4-17.6,72.8-14.2,102.3,7.6c17.7,13.1,29.7,32.4,29.9,54.7
			c0.1,11.4-3.2,22.4-7.7,32.8c-4.3,10-9.6,19.4-18.3,26.1C996.9-159.5,999-157.4,1000.6-158.6L1000.6-158.6z"/>
	</g>
</g>
<g>
	<g>
		<path d="M896-284.8c-32.2,3.9-34.9,45-33.4,70.1c1.1,17.8,5,38.1,15.7,52.8c9.4,13,25.1,20.1,40.4,23.1c1.9,0.4,2.7-2.5,0.8-2.9
			c-14.9-2.9-29.2-9.5-38.6-21.7c-10.4-13.4-13.8-33.2-15.2-49.6c-2-23.2-0.3-65.2,30.2-68.8C897.9-282,897.9-285,896-284.8
			L896-284.8z"/>
	</g>
</g>
<g>
	<g>
		<path d="M920-138.3c-17.4,3.8-26.7,25.6-33.3,40c-9.4,20.6-22.5,43.1-13.6,66c8.3,21.5,29.4,36.9,49.3,46.7
			c19.8,9.7,41.6,14.9,63.3,18.3c41.9,6.7,90.9,4,117.3-34c14-20,19.5-45.8,16.5-69.9c-2.6-21-12.3-39-29.8-51.1
			c-26.8-18.4-61.2-20.7-88.6-38c-1.6-1-3.1,1.6-1.5,2.6c17.2,10.8,37.1,16,56.1,22.7c19.5,6.8,39.4,15.8,50.8,33.9
			c13.7,21.5,13.3,50.9,5.7,74.5c-7.7,23.9-24.6,43.2-48.1,52.2c-21.3,8.1-45,8.1-67.3,5.6c-22.5-2.5-45.4-7.6-66.3-16.4
			c-22.7-9.6-45.9-25.9-55.2-49.7c-5.9-15.1-0.2-30.2,6.1-44c3.9-8.5,7.4-17.2,11.5-25.7c5.7-11.7,13.9-27.8,27.8-30.8
			C922.7-135.8,921.9-138.7,920-138.3L920-138.3z"/>
	</g>
</g>
<g>
	<g>
		<path d="M1042.1,35.9c3.6,6.9,3,14.7,3.8,22.2c0.2,1.9,3.2,1.9,3,0c-0.9-8.1-0.3-16.3-4.2-23.8
			C1043.8,32.7,1041.2,34.2,1042.1,35.9L1042.1,35.9z"/>
	</g>
</g>
<g>
	<g>
		<path d="M1037.4,61.6c10.3,0,20.7,0,31,0c1.9,0,1.9-3,0-3c-10.3,0-20.7,0-31,0C1035.5,58.6,1035.5,61.6,1037.4,61.6L1037.4,61.6z"
			/>
	</g>
</g>
<g>
	<g>
		<path d="M1035.9,64.1c1.2,14.4,4.8,28.5,4,43c-0.1,1.9,2.9,1.9,3,0c0.8-14.5-2.8-28.6-4-43C1038.8,62.2,1035.8,62.2,1035.9,64.1
			L1035.9,64.1z"/>
	</g>
</g>
<g>
	<g>
		<path d="M1068,61.7c-2.7,11.9-1.1,24.4-5,36c-0.4,1.2,0.8,2.1,1.8,1.8c11.7-2.4,25.4-7,33.6,4.8c5.4,7.7-13.1,10.1-17.4,10.6
			c-10,1.1-34.9,6.8-38.2-7.2c-0.5-1.9-3.3-1.1-2.9,0.8c2.1,8.5,10.7,10.6,18.5,11.1c9.7,0.6,20.4-0.7,29.9-2.7
			c6.8-1.4,17.7-5.1,12.8-14c-7.7-13.8-24.9-8.7-37-6.2c0.6,0.6,1.2,1.2,1.8,1.8c3.9-11.6,2.3-24.1,5-36
			C1071.3,60.6,1068.4,59.8,1068,61.7L1068,61.7z"/>
	</g>
</g>
<g>
	<g>
		<path d="M963.9,30.1c-0.1,11.7-1,23.3-1,35c0,1.9,3,1.9,3,0c0-11.7,0.9-23.3,1-35C966.9,28.2,963.9,28.2,963.9,30.1L963.9,30.1z"
			/>
	</g>
</g>
<g>
	<g>
		<path d="M952.4,69.6c8.7,0.9,17.5-0.8,26.2-0.5c4.5,0.1,8.9,0.5,10.3,5.4c1.3,4.6,0.3,10.2-0.3,14.9c-1,8.6-0.4,18.9-7.3,25.2
			c-6.1,5.6-16.8,4.3-24.4,4.2c-8.6-0.2-17.2,1-25.8,0.7c-5-0.1-9.5-6.1-5.4-10.2c3.1-3.1,8.3-4.2,12.4-5.1
			c4.1-0.9,8.2-0.7,12.3-0.6c2.2,0,4.2-0.5,5.7-2.2c7.1-7.6,3.9-20.1,3.7-29.2c0-1.9-3-1.9-3,0c0.1,6.4,1.6,12.9,0.4,19.3
			c-0.7,3.9-2.3,9-6.8,9.1c-8.3,0.2-15.8,0.4-23.4,4.3c-7.2,3.7-7.5,10-1.9,15.4c5.1,4.9,15.7,1.8,22,1.5c14-0.8,33.9,4.4,41.1-11.8
			c3.5-7.9,3.4-18.2,4.1-26.7c0.6-7.3,0-14.8-8.2-16.6c-10.4-2.2-21.2,1-31.7-0.1C950.5,66.4,950.5,69.4,952.4,69.6L952.4,69.6z"/>
	</g>
</g>
<g>
	<g>
		<path d="M872.9-63.3c-2.3-9.3-11.8-13.6-18.9-18.7c-10.8-7.8-17.3-22.8-22.2-34.7c-5.6-13.6-9.4-27.6-11.2-42.3
			c-1.7-14.2-1.6-28.6-1.6-42.9c0-1.9-3-1.9-3,0c0,14.3,0,28.6,1.6,42.9c1.6,14.4,5.5,28.1,10.7,41.6c4.5,11.5,10.2,22.6,18,32.2
			c6.7,8.3,21,11.7,23.7,22.8C870.4-60.6,873.3-61.4,872.9-63.3L872.9-63.3z"/>
	</g>
</g>
<g>
	<g>
		<path d="M1114.9-88.9c-1.1-35.6,22-65.3,33-97.7c5.3-15.7,7.7-33.1,2.5-49.2c-5.9-18.1-19.5-32.4-25.5-50.5
			c-0.6-1.8-3.5-1-2.9,0.8c5.7,17.2,17.8,31,24.5,47.7c6.9,17.2,3.5,36.2-2.4,53.1c-11.1,31.8-33.3,60.7-32.2,95.8
			C1112-86.9,1115-86.9,1114.9-88.9L1114.9-88.9z"/>
	</g>
</g>
<g>
	<g>
		<path d="M813.4-200.4c-8.9-1.1-14.5-7.5-16.6-15.9c-0.5-1.9-3.3-1.1-2.9,0.8c2.4,9.9,9.2,16.9,19.4,18.1
			C815.3-197.1,815.3-200.1,813.4-200.4L813.4-200.4z"/>
	</g>
</g>
<g>
	<g>
		<path d="M815.2-200.6c5.4-2.3,9.5-7.3,9.7-13.3c0.1-1.9-2.9-1.9-3,0c-0.2,5-3.9,8.8-8.3,10.7C811.9-202.4,813.4-199.8,815.2-200.6
			L815.2-200.6z"/>
	</g>
</g>
<g>
	<g>
		<path d="M815.9-200.9c-1-8.7-1.9-17.3-2-26c0-1.9-3-1.9-3,0c0.1,8.7,1,17.3,2,26C813.1-199,816.1-198.9,815.9-200.9L815.9-200.9z"
			/>
	</g>
</g>
<g>
	<g>
		<path d="M1118.1-284.6c-4,6.8-10,13-18.1,14.3c-1.9,0.3-1.1,3.2,0.8,2.9c8.8-1.4,15.5-8.3,19.9-15.7
			C1121.7-284.8,1119.1-286.3,1118.1-284.6L1118.1-284.6z"/>
	</g>
</g>
<g>
	<g>
		<path d="M1114.9-282.3c-1.1-6.6-3.8-12.7-6-19c-0.6-1.8-3.5-1-2.9,0.8c2.2,6.3,4.9,12.4,6,19
			C1112.3-279.6,1115.2-280.4,1114.9-282.3L1114.9-282.3z"/>
	</g>
</g>
<g>
	<g>
		<path d="M1117.2-280.6c3.5-2.4,5.6-5.8,6.7-9.9c0.5-1.9-2.4-2.7-2.9-0.8c-0.9,3.3-2.5,6.1-5.3,8.1
			C1114.1-282.1,1115.6-279.5,1117.2-280.6L1117.2-280.6z"/>
	</g>
</g>
<g>
	<g>
		<path d="M868.9-258.9c-2.6,23.6-5.9,50.3,14.2,67.4c13.4,11.4,34.2,14.2,47.3,0.9c7.5-7.7,11.5-20.1,12.1-30.6
			c0.5-11.3-5-21.5-11.8-30.1c-5.5-6.9-13.1-12.1-20.9-16.3c-7.7-4.2-16.7-7.6-25.6-6.9c-5.5,0.4-10.1,3.3-13.1,7.9
			c-1.1,1.6,1.5,3.1,2.6,1.5c10.1-15.4,34.8-0.8,45.3,6.9c8.2,6,14.8,14.5,18.4,24c4.4,11.7,1.2,23.9-4.3,34.6
			c-9.7,19.1-32.9,18-47.8,6c-19.8-15.9-15.9-43-13.4-65.2C872.1-260.8,869.1-260.8,868.9-258.9L868.9-258.9z"/>
	</g>
</g>
<g>
	<g>
		<path d="M950.1-265.6c-8,14.6-3.6,30.7,8.5,41.5c10,8.9,26.4,14.2,38.1,5.4c13.4-10.1,13.7-31.8,3.6-43.9
			c-11.3-13.6-32.4-15.9-47.6-8.1c-0.3,0.2-0.7,0.4-1,0.6c-1.7,0.9-0.2,3.5,1.5,2.6c14-7.8,32.1-5.8,43.6,5.5
			c10.9,10.7,10.3,31.9-2.2,41.3c-10.3,7.8-25.1,2-33.8-5.4c-11.3-9.6-15.3-24.6-8-37.9C953.6-265.8,951.1-267.3,950.1-265.6
			L950.1-265.6z"/>
	</g>
</g>
<g>
	<g>
		<path d="M980.2-240.6c-0.2,0.1,0.7-0.1,0.4-0.1c0.3,0,0.6,0,0.9-0.1c0.7,0,1.3-0.1,2-0.3c2-0.8,2.4-2.8,2.5-4.8
			c0-0.9-1-1.8-1.9-1.4c-1.3,0.4-2.7,0.9-4,1.4c-0.9,0.3-1.9,0.6-2.2,1.6c-0.1,0.5,0,1.1,0.4,1.5c0.4,0.4,0.8,0.5,1.3,0.5
			c1.9,0.1,1.9-2.9,0-3c0.3,0.1,0.6,0.3,0.9,0.4c0.1,0.5,0.3,1,0.4,1.5c-0.3,0.9-0.9,0.9-0.3,0.6c0.4-0.2,0.9-0.3,1.3-0.5
			c1-0.4,2.1-0.7,3.2-1.1c-0.6-0.5-1.3-1-1.9-1.4c0,0.7,0,1.4-0.4,2c0.1-0.1-0.2,0.1,0,0c-0.1,0-0.7,0.2-0.4,0.1
			c-1.2,0.1-2.3,0.1-3.4,0.6C976.9-242.4,978.4-239.8,980.2-240.6L980.2-240.6z"/>
	</g>
</g>
<g>
	<g>
		<path d="M910.9-207.9c0-1.8-0.2-3.6-1.4-5.1c-0.4,0.9-0.7,1.7-1.1,2.6c1,0,2,0,3,0c0-1,0-2,0-3c-2.6,0-4.9,0.2-7.4,1.1
			c-1.1,0.3-1.5,1.7-0.7,2.5c1,1,2,1.8,3.2,2.5c0.8,0.4,1.7,0.7,2.6,0.9c0.1,0,1.3,0.3,0.6,0c0.1,0,0.1,0.1,0.2,0.1
			c0.5-0.9,1-1.7,1.5-2.6c-1.5-0.8-3.1-1.5-4.6-2.3c-1.7-0.9-3.2,1.7-1.5,2.6c0.1,0.1,0.2,0.1,0.3,0.2c-0.2-0.7-0.4-1.4-0.5-2.1
			c-0.4,0.7-0.8,1.3-0.9,2c-0.1,1,1.1,1.8,2,1.5c0.9-0.3,1.6-1.1,2.3-1.7c1.4-1.4-0.7-3.5-2.1-2.1c-0.2,0.2-0.3,0.3-0.5,0.5
			c-0.1,0.1-0.3,0.3-0.4,0.4c-0.3,0.3-0.2,0,0.3,0c0.4,0.2,0.9,0.5,1.3,0.7c-0.1,1.1,0,1.4,0.2,0.8c0.1-0.2,0.3-0.4,0.4-0.7
			c0.4-0.7,0.2-1.7-0.5-2.1c-0.1-0.1-0.2-0.1-0.3-0.2c-0.5,0.9-1,1.7-1.5,2.6c1.5,0.8,3.1,1.5,4.6,2.3c1.7,0.9,3.2-1.7,1.5-2.6
			c-1-0.5-2.1-0.4-3.1-0.8c-1.1-0.4-2.1-1.3-2.9-2.2c-0.2,0.8-0.4,1.7-0.7,2.5c2.2-0.7,4.3-0.9,6.6-0.9c1.9,0,1.9-3,0-3
			c-1,0-2,0-3,0c-1.4,0-1.9,1.6-1.1,2.6c0.6,0.8,0.6,2,0.6,2.9C907.9-205.9,910.9-205.9,910.9-207.9L910.9-207.9z"/>
	</g>
</g>
<g>
	<g>
		<path d="M872.9-270.9c0.1-37.4,7.8-83.4,39.6-107.4c17-12.8,39-15.1,59.4-11.3c20.5,3.8,38.3,15.5,52.5,30.5
			c18.4,19.3,30.9,43.8,40.7,68.4c4.6,11.6,8.6,23.5,12.2,35.5c4.8,16.1,8.2,32.2,5.6,49c0.9-0.1,1.8-0.2,2.7-0.4
			c-10-15.6-18.1-32.4-28.2-48c-9.7-14.9-21.6-27.5-36.1-37.8c-22.4-16-58-32.3-79.1-5.5c-1.2,1.5,0.9,3.6,2.1,2.1
			c21.1-26.9,56.7-7.9,78.4,8.1c14.2,10.5,25.2,23.7,34.6,38.5c9.1,14.4,16.5,29.7,25.7,44.1c0.6,1,2.5,1,2.7-0.4
			c3.6-23.3-3.6-45.7-10.9-67.5c-6.6-19.7-14.8-38.9-25.2-56.8c-10.1-17.3-22.7-33.3-38.7-45.5c-16.2-12.3-35.7-18.7-56-19.1
			c-28.6-0.5-52.3,14.9-66.3,39.3c-14.4,25.1-18.8,55.6-18.8,84.2C869.9-268.9,872.9-268.9,872.9-270.9L872.9-270.9z"/>
	</g>
</g>
<g>
	<g>
		<path d="M1078.7-208.2c-7.4,4.4-13.3,10.5-15.7,18.9c-0.2,0.6,0.1,1.4,0.7,1.7c6.3,3.2,13.1,1,18.5-3c-0.7-0.6-1.5-1.1-2.2-1.7
			c-0.6,3.6-0.9,7.9,2.7,10c3.6,2,7.8-1.9,9.8-4.5c-0.6,0.1-1.2,0.2-1.8,0.2c11.9,7.9,18.6-6.5,12.1-16.1c-1.1-1.6-3.7-0.1-2.6,1.5
			c3.2,4.8,7.4,6.6,12.9,7.7c0.8,0.2,1.6-0.2,1.8-1c5.3-16.9-28.8-17.9-38.4-18.9c-1.9-0.2-1.9,2.8,0,3c7.6,0.8,39.7,1.9,35.6,15.1
			c0.6-0.3,1.2-0.7,1.8-1c-4.6-0.9-8.4-2.2-11.1-6.3c-0.9,0.5-1.7,1-2.6,1.5c4.6,6.8,1.5,18.2-7.9,11.9c-0.5-0.3-1.4-0.3-1.8,0.2
			c-1.1,1.4-2.3,2.7-3.9,3.6c-4.3,2.5-4-4.1-3.6-6.2c0.2-1.1-1-2.6-2.2-1.7c-4.5,3.3-10.1,5.7-15.5,3c0.2,0.6,0.5,1.1,0.7,1.7
			c2.2-7.7,7.6-13.1,14.3-17.1C1081.8-206.6,1080.3-209.2,1078.7-208.2L1078.7-208.2z"/>
	</g>
</g>
<g>
	<g>
		<path d="M965.8-195.6c-11.2,3.4-29.5,8-34.4,20.2c-5.2,12.8,9.2,16.1,18.8,16c12.8-0.2,26.1-5.2,34.9-14.7
			c4.4-4.8,6-11.5,2.3-17.1c-3.9-5.9-13.9-8-20.3-6.1c-1.8,0.5-1.1,3.4,0.8,2.9c7-2.1,18.2,1.4,18.7,9.8c0.4,6.4-6.4,11.5-11.1,14.6
			c-8.2,5.3-17.4,7.7-27.1,7.7c-4.2,0-8.6-0.5-12.2-2.7c-5-3.1-2.3-9.6,0.7-13.1c7.1-8.1,19.8-11.5,29.8-14.5
			C968.4-193.2,967.6-196.1,965.8-195.6L965.8-195.6z"/>
	</g>
</g>
<g>
	<g>
		<path d="M938-181c0.5,2,1.3,5.3,3.1,6.5c3.3,2.1,4.8-0.4,8-1.3c2.5-0.7,5-1.3,5.1-4.4c0.1-2.6-2.2-5.4-3.2-7.6
			c-0.8-1.8-3.4-0.2-2.6,1.5c0.7,1.5,1.5,2.9,2.2,4.3c1.1,2.4-0.1,2.8-2.3,3.3c-1.5,0.4-3.9,2.7-5.3,1.8c-1.3-0.8-1.8-3.5-2.1-4.9
			C940.4-183.7,937.5-182.9,938-181L938-181z"/>
	</g>
</g>
<g>
	<g>
		<path d="M955.2-189c0.9,5.1,3.5,11,9.7,8.4c5.7-2.4,1.7-8.9-0.2-12.6c-0.9-1.7-3.5-0.2-2.6,1.5c1,1.9,4.6,7,1.5,8.4
			c-4.1,1.7-5-3.7-5.5-6.5C957.8-191.7,954.9-190.9,955.2-189L955.2-189z"/>
	</g>
</g>
<g>
	<g>
		<path d="M973.6-167.8c-0.2-1.1-0.8-2.2-1.3-3.3c-0.4-0.8-1.9-3.1-1.5-4.1c0.4-1,3.2-1.5,4.1-1.8c1.2-0.4,2.5-0.7,3.7-1.1
			c-0.6-0.2-1.1-0.5-1.7-0.7c0.8,1.1,1.5,2.3,2.3,3.5c1,1.7,3.6,0.1,2.6-1.5c-0.7-1.2-1.4-2.4-2.3-3.5c-0.4-0.5-1-0.9-1.7-0.7
			c-2.9,0.9-7.4,1.4-9.4,4c-2.2,2.9,1.7,7.1,2.3,9.9C971.1-165.1,974-165.9,973.6-167.8L973.6-167.8z"/>
	</g>
</g>
<g>
	<g>
		<path d="M892.4-159.9c2.6,4.6,3.6,10.5,8.4,13.6c4.7,3,10.4-3.7,14.2-5.5c-0.7-0.2-1.4-0.4-2.1-0.5c1.9,4.2,1.8,8.8,4.3,12.8
			c0.4,0.6,1.4,1,2.1,0.5c1.1-0.8,2.2-1.7,3.3-2.5c-0.7-0.3-1.5-0.6-2.2-0.9c0.8,4,0,8,0.8,12c0.2,0.9,1.1,1.1,1.8,1
			c1.5-0.2,1.7,13.4,2.4,15.2c0.3,0.7,1,1.3,1.8,1c1.2-0.4,2.5-0.6,3.8-1c-0.6-0.3-1.2-0.7-1.8-1c1.8,6.3,0.6,12.7,0.9,19.1
			c0.1,1.2,1.2,1.8,2.3,1.3c7.2-3.5,10-12.9,17.9-15.1c-0.6-0.3-1.2-0.7-1.8-1c3,10.2,2.3,20.9,3.4,31.4c0.1,1.1,1.6,2.2,2.6,1.1
			c1.6-2,3-3.8,5.6-4.6c-0.6-0.2-1.1-0.5-1.7-0.7c3.9,8.5,0.1,19,6,26.8c0.6,0.8,1.6,1,2.4,0.3c2.8-2.7,4.9-6.1,7.8-8.8
			c3.8-3.5,5.7,7.2,7.3,9.7c0.6,0.9,2,1,2.6,0c2.9-5.4,5.3-10.9,7.2-16.7c1.9-5.8,1.8-11.9,4-17.7c-0.9,0.1-1.8,0.2-2.7,0.4
			c2.8,5.7,1.6,12.4,5,18c0.7,1.1,2.3,0.9,2.7-0.4c1.7-5.5,1.7-11.1,1.9-16.8c0.4-7.5,1.8-14.9,2.4-22.3c-1,0.1-2,0.3-2.9,0.4
			c0.3,1.6,0.6,3.2,1,4.8c0.4,1.4,2.6,1.5,2.9,0c2.4-12.2-3-24.1-1.3-36.3c-1,0-1.9,0-2.9,0c0.6,2.2,1,4.3,1.9,6.4
			c0.7,1.5,2.7,0.5,2.8-0.8c0.9-8.3-3.1-15.8-4.7-23.7c-1.9-9.1,3.9-18.4,6.2-26.9c-1-0.1-2-0.3-2.9-0.4c0.3,3.3,0.8,6.5,1.8,9.6
			c0.4,1.1,2.2,1.6,2.7,0.4c2.7-6,2.6-12.7,3.7-19.1c-0.9,0.1-1.8,0.2-2.7,0.4c1.7,3.1,3.2,6.2,6,8.6c0.7,0.6,1.9,0.6,2.4-0.3
			c2.8-5.6,0.5-12.2-0.8-17.9c-0.2-1-1.8-1.6-2.5-0.7c-2.2,2.8-6,10.9-10,4.3c-2-3.3-3.9-6.5-6.9-8.9c-6.4-5.2-8.5,3.7-11.1,7.4
			c0.8-0.1,1.6-0.2,2.4-0.3c-2.6-2.3-4.1-4.3-7.7-3.1c-4.4,1.4-4.2,7.7-10.1,3.8c-2.6-1.8-4.4-1.7-7.2-0.4c-2.1,0.9-3.4,4.1-6.1,3.2
			c-1.4-0.5-2.7,0.3-3.9,1c-2.7,1.6-8.1,7.9-10.9,3.4c-1.5-2.4-5.2,0.6-6.6,1.4c-4.5,2.5-8.6,6.1-12.1,9.9c-4,4.3-6.8,9.6-11.6,13.1
			c0.7,0.2,1.4,0.4,2.1,0.5c-3.6-7.7-9.9-6.8-15.1-1.1c0.8,0.1,1.6,0.2,2.4,0.3c-1.7-2.3-3.9-6-7.3-5c-3.1,0.9-3.7,6.5-4.2,8.9
			c0.8-0.2,1.7-0.4,2.5-0.7c-0.3-0.3-0.5-0.5-0.8-0.8c-0.4-0.4-1.3-0.6-1.8-0.2c-7,5,1.6,7.9,4.2,12.1c1,1.6,3.6,0.1,2.6-1.5
			c-1.1-1.8-8.4-5.7-5.3-7.9c-0.6-0.1-1.2-0.2-1.8-0.2c0.3,0.3,0.5,0.5,0.8,0.8c0.8,0.8,2.3,0.5,2.5-0.7c0.3-1.4,0.6-2.7,1-4
			c1.2-4.5,3.4-1.5,5.1,0.9c0.5,0.7,1.7,1.1,2.4,0.3c3.7-4.1,7.6-5.5,10.4,0.4c0.3,0.7,1.4,1,2.1,0.5c7.7-5.7,12.1-14.6,19.8-20.4
			c2.1-1.6,4.4-2.8,6.6-4.2c0-0.7,0.1-0.7,0.3,0c0.3,0.6,0.7,1,1.1,1.4c1.8,1.8,4.5,1.1,6.5,0.2c3.7-1.6,5.7-5.4,10-5.1
			c4.2,0.3,6.8-6.6,11.2-3.5c1.9,1.4,5.4,3,7.7,1.5c0.9-0.6,1.7-1.3,2.3-2.3c2.2-3.1,4.6-2.6,7.2-0.3c0.8,0.7,1.8,0.5,2.4-0.3
			c0.8-1.1,1.3-2.4,1.8-3.6c1.5-3.5,4.9-3.2,7.2-0.6c2.4,2.7,3.6,6.2,6.1,8.8c5,5.3,10-3.8,12.4-6.8c-0.8-0.2-1.7-0.4-2.5-0.7
			c1.1,4.7,3.5,10.9,1.2,15.6c0.8-0.1,1.6-0.2,2.4-0.3c-2.6-2.2-4-5.1-5.5-7.9c-0.6-1.1-2.5-0.9-2.7,0.4c-1,6.1-0.8,12.7-3.3,18.4
			c0.9,0.1,1.8,0.2,2.7,0.4c-0.9-2.9-1.4-5.8-1.7-8.9c-0.1-1.6-2.5-2.1-2.9-0.4c-2.2,8.3-6.8,16.3-6.6,25c0.2,9.1,6,17.1,5.1,26.4
			c0.9-0.3,1.9-0.5,2.8-0.8c-0.8-1.8-1.1-3.8-1.6-5.6c-0.4-1.3-2.7-1.6-2.9,0c-1.7,12.2,3.7,24.2,1.3,36.3c1,0,1.9,0,2.9,0
			c-0.4-1.6-0.7-3.1-1-4.8c-0.3-1.8-2.8-1.2-2.9,0.4c-0.5,6.3-1.5,12.6-2.1,18.8c-0.6,6.5-0.1,13.2-2.1,19.5
			c0.9-0.1,1.8-0.2,2.7-0.4c-3.3-5.5-2.2-12.3-5-18c-0.6-1.3-2.3-0.7-2.7,0.4c-1.9,5.2-2.4,10.7-3.6,16.1c-1.4,6.2-4.3,12-7.3,17.6
			c0.9,0,1.7,0,2.6,0c-1.5-2.4-3.2-13.1-7.4-12.6c-5.7,0.7-8.8,7.4-12.5,11c0.8,0.1,1.6,0.2,2.4,0.3c-5.7-7.6-2.1-18.3-6-26.8
			c-0.3-0.6-1.1-0.9-1.7-0.7c-3,1-4.9,2.9-6.9,5.4c0.9,0.4,1.7,0.7,2.6,1.1c-1.2-10.8-0.5-21.7-3.6-32.1c-0.2-0.8-1-1.3-1.8-1
			c-8.5,2.4-11.1,11.7-18.6,15.4c0.8,0.4,1.5,0.9,2.3,1.3c-0.4-6.7,0.8-13.4-1.1-19.9c-0.2-0.8-1.1-1.3-1.8-1
			c-1.3,0.4-2.5,0.6-3.8,1c0.6,0.3,1.2,0.7,1.8,1c-1.6-4,1.4-18.3-6.1-17.3c0.6,0.3,1.2,0.7,1.8,1c-0.8-4,0-8-0.8-12
			c-0.2-0.9-1.5-1.5-2.2-0.9c-1.1,0.8-2.2,1.7-3.3,2.5c0.7,0.2,1.4,0.4,2.1,0.5c-2.4-3.9-2.4-8.6-4.3-12.8c-0.3-0.8-1.4-0.9-2.1-0.5
			c-4.1,2.1-9.4,8.8-13.4,3.4c-2.3-3.1-3.2-7-5.1-10.3C894-163.1,891.4-161.5,892.4-159.9L892.4-159.9z"/>
	</g>
</g>
<g>
	<g>
		<path d="M905.7-206.5c0.7,1.4,2.1,2.3,3.7,2.3c1.1,0.1,1.9-1.3,1.3-2.3c-0.6-0.9-0.9-1.8-1.3-2.8c-0.4-1-1.3-1.7-2.2-2.4
			c-1-0.7-2.3-0.4-2.7,0.8c-0.3,0.9,0.4,1.6,1.1,2c1.2,0.6,2.6,1,4,1.2c1.9,0.2,3-1.6,1.6-3.1c0.1,0.4,0.3,0.7,0.4,1.1
			c0-1.9-0.4-4.4-2.4-5.2c-1.6-0.7-3.4-0.2-4.5,1.1c-1.2,1.3-1.5,3.2-0.6,4.8c1.3,2.3,4.5,2.9,6.9,3.2c0.8,0.1,1.5-0.8,1.5-1.5
			c0-0.9-0.7-1.4-1.5-1.5c-1-0.1-2.1-0.3-2.9-0.7c-0.4-0.2-0.7-0.4-1-0.6c0.2,0.2-0.2-0.2-0.2-0.2c-0.2-0.2,0.1,0.2-0.1-0.2
			c0-0.1-0.2-0.4,0,0c-0.1-0.1-0.1-0.3-0.1-0.4c0.1,0.4,0,0,0-0.1c0-0.3-0.1,0.3,0-0.1c0-0.1,0.1-0.2,0.1-0.3c-0.1,0.4,0,0,0.1-0.1
			c0-0.1,0.3-0.4,0.1-0.1c0.1-0.1,0.2-0.2,0.3-0.3c0.1-0.1,0.3-0.3,0,0c0.1-0.1,0.2-0.1,0.3-0.2c0.1,0,0.4-0.2,0,0
			c0.1,0,0.2-0.1,0.4-0.1c0.3-0.1-0.4,0,0,0c0.1,0,0.5,0,0.1,0c0.1,0,0.5,0.2,0.1,0c0.1,0,0.2,0.1,0.3,0.2c-0.3-0.2-0.1,0,0,0
			c0.1,0.2-0.1-0.2,0.1,0.2c0.1,0.2,0.2,0.4,0.3,0.8c0.1,0.4,0.1,0.7,0.1,1.1c0,0.5,0.1,0.9,0.4,1.3c0.1,0.1,0.1,0.1-0.1-0.1
			c-0.1-0.2-0.1-0.4-0.2-0.6c0.1-0.3,0.1-0.5,0.2-0.8c0.8-0.5,1.1-0.7,0.7-0.6c0.3,0,0.3,0,0.2,0c-0.1,0-0.1,0-0.2,0
			c-0.4,0,0.4,0.1,0,0c-0.5-0.1-0.9-0.2-1.3-0.3c-0.4-0.1-0.8-0.3-1.2-0.4c-0.4-0.2,0.1,0.1-0.2-0.1c0,0-0.1,0-0.1-0.1
			c0,0,0.4,0.5,0.5,0.7c0,0.3,0,0.5,0,0.8c0,0,0,0,0,0c-0.1,0.2-0.3,0.4-0.4,0.7c0,0,0,0,0,0c-0.2,0.1-0.4,0.3-0.7,0.4
			c0.2-0.1-0.5,0-0.2,0c-0.3-0.1-0.5-0.1-0.8-0.2c1.5,1.1,1.6,2.7,2.7,4.3c0.4-0.8,0.9-1.5,1.3-2.3c-0.6,0-0.9-0.5-1.1-0.9
			C907.4-209.7,904.8-208.2,905.7-206.5L905.7-206.5z"/>
	</g>
</g>
<g>
	<g>
		<path d="M976.8-244.5c0.4,1.1,1,2.9,2.5,2.9c1.5,0,1.9-1.3,2-2.5c0.1-0.8,0.1-1.9-0.5-2.6c-0.8-0.8-2-0.5-2.5,0.4
			c-0.6,1.2-0.8,2.6-0.9,3.9c-0.1,0.5-0.1,1.2,0.2,1.6c0.8,1,2.2,1,2.8-0.2c-0.8,0.1-1.6,0.2-2.4,0.3c0.9,0.8,2,1.3,3.3,0.8
			c1-0.4,1.8-1.2,1.7-2.3c-0.2-1.7-0.7-3.4-0.8-5.2c0-0.9-1-1.8-1.9-1.4c-1.4,0.5-2.7,1.5-1.9,3.1c0.5,1,2.1,1.4,3.1,1.4
			c1.9,0.1,1.9-2.9,0-3c-0.2,0-0.3-0.1-0.6-0.1c-0.8-0.2-0.8,1.8,0.2,1.5c-0.6-0.5-1.3-1-1.9-1.4c0,1.9,0.7,3.9,0.8,5.6
			c0.1-0.4,0.3-0.7,0.4-1.1c-0.1,0.2-0.2,0.2-0.3,0c-0.7-0.6-1.9-0.6-2.4,0.3c-0.4,0.7,0.2-0.9,1.5-0.5c0.3,0.2,0.6,0.5,0.9,0.7
			c0.1,0.2,0.1,0.9,0.2,0.3c0-0.1,0-0.2,0-0.3c0-0.4,0,0.3,0-0.1c0.1-0.6,0.2-1.2,0.4-1.8c0.1-0.2,0.1-0.4,0.2-0.6
			c0-0.1,0.2-0.4,0,0c0.4-0.9-2.8-1.3-2.5-0.4c-0.1-0.5,0-0.1,0,0c0,0.3,0,0.6,0,0.9c-0.1,0.8,2.1,0.3,1.8-0.2
			c-0.2-0.3-0.3-0.6-0.4-0.9C979-247.1,976.1-246.3,976.8-244.5L976.8-244.5z"/>
	</g>
</g>
<g>
	<g>
		<path d="M1121.9-286.5c1.6-3.2,3.2-6.5,4.2-10c0.5-1.9-2.4-2.7-2.9-0.8c-0.9,3.3-2.4,6.2-3.8,9.2
			C1118.5-286.3,1121-284.8,1121.9-286.5L1121.9-286.5z"/>
	</g>
</g>
<g>
	<g>
		<path d="M903.4-278.6c7.6,1.6,14.6,4.6,21.2,8.6c1.7,1,3.2-1.6,1.5-2.6c-6.8-4.2-14.1-7.3-22-9C902.3-281.9,901.5-279,903.4-278.6
			L903.4-278.6z"/>
	</g>
</g>
<g>
	<g>
		<path d="M940.5-274.9c1.6-5.1,4.9-9.4,9.7-11.9c1.7-0.9,0.2-3.5-1.5-2.6c-5.4,2.9-9.3,7.9-11.1,13.7
			C937-273.8,939.9-273,940.5-274.9L940.5-274.9z"/>
	</g>
</g>
<g>
	<g>
		<path d="M980-46.1c-1.3,4.2,0.3,8.5,4.3,10.5c4.2,2.1,8.7,0.2,11.7-2.9c2.7-2.8,1.5-6.1-1.5-7.9c-3.5-2.1-8.3-2.7-12.3-2.3
			c-1.9,0.2-1.9,3.2,0,3c2.1-0.2,14.4,0.5,12,4.7c-1.5,2.6-5.1,3.8-7.9,3.1c-3.3-0.9-4.3-4.3-3.5-7.3
			C983.4-47.1,980.5-47.9,980-46.1L980-46.1z"/>
	</g>
</g>
<g>
	<g>
		<path d="M984-26.9c-1.8,8.6,9.3,19.5,15.9,10.3c6-8.4-9.4-13.6-15.3-13c-1.9,0.2-1.9,3.2,0,3c3.6-0.4,14.3,1.6,13.4,6.9
			c-0.7,3.8-4.7,4.5-7.4,2.4c-2.5-1.9-4.4-5.6-3.7-8.8C987.3-28,984.4-28.8,984-26.9L984-26.9z"/>
	</g>
</g>
<g>
	<g>
		<path d="M991.2-5.3c-0.3,1.9-0.4,3.7-0.1,5.6c0.2,1.1,0.7,2.3,1.6,3.1c1.9,1.5,4.4,0.9,6.4-0.3c2.1-1.2,3.9-3.1,5.1-5.1
			c1.1-1.8,1.9-4.4,0.6-6.3c-1-1.5-2.7-2-4.3-2.1c-2.5-0.3-5,0.3-7.4,0.9c-1.9,0.5-1.1,3.4,0.8,2.9c1.1-0.3,2.3-0.5,3.4-0.7
			c0.4-0.1-0.3,0,0.1,0c0.1,0,0.2,0,0.3,0c0.2,0,0.4,0,0.7-0.1c0.4,0,0.9,0,1.3,0c0.3,0,0.7,0,1,0.1c-0.5-0.1,0,0,0.1,0
			c0.2,0,0.3,0.1,0.5,0.1c0.1,0,0.2,0.1,0.4,0.1c0.4,0.1-0.3-0.1,0,0c0.1,0,0.2,0.1,0.3,0.2c0.1,0.1,0.5,0.4,0,0
			c0.2,0.1,0.3,0.3,0.4,0.4c-0.4-0.5-0.1-0.2-0.1,0c0.1,0.1,0.2,0.5,0,0c0.1,0.2,0.1,0.3,0.1,0.5c0.1,0.3,0-0.5,0-0.1
			c0,0.1,0,0.2,0,0.3c0,0.1,0,0.2,0,0.3c0,0.1,0.1-0.4,0,0c0,0.2-0.1,0.5-0.2,0.7c0,0.1-0.1,0.2-0.1,0.3c0,0.1,0,0.1-0.1,0.2
			c-0.1,0.2,0.2-0.4,0.1-0.1c-0.1,0.2-0.2,0.5-0.4,0.7c-0.3,0.5-0.6,0.9-0.9,1.4c-0.3,0.4,0.2-0.2-0.1,0.1c-0.1,0.1-0.2,0.2-0.3,0.3
			c-0.2,0.2-0.4,0.4-0.6,0.7c-0.4,0.4-0.8,0.8-1.2,1.2c-0.1,0.1-0.2,0.2-0.3,0.3c0.4-0.3,0,0-0.1,0c-0.2,0.2-0.5,0.3-0.7,0.5
			c-0.2,0.1-0.4,0.3-0.6,0.4c-0.1,0.1-0.2,0.1-0.3,0.2c-0.1,0-0.1,0-0.2,0.1c-0.2,0.1,0.4-0.2,0.1,0c-0.2,0.1-0.4,0.1-0.6,0.2
			c-0.1,0-0.2,0.1-0.3,0.1c0,0-0.1,0-0.2,0c-0.3,0.1,0.4,0,0.2,0c-0.2,0-0.4,0-0.6,0c-0.4,0,0.4,0.1,0.1,0c-0.1,0-0.2,0-0.3-0.1
			c-0.4-0.1,0.1,0.1,0.1,0c-0.1,0-0.2-0.1-0.2-0.1c-0.1-0.1-0.4-0.3,0,0.1c-0.1-0.1-0.2-0.1-0.2-0.2c-0.1-0.1-0.3-0.4,0,0.1
			c-0.1-0.1-0.1-0.1-0.1-0.2c-0.1-0.1-0.4-0.8-0.2-0.3c-0.2-0.4-0.3-0.9-0.4-1.4c0.1,0.5,0,0,0-0.1c0-0.1,0-0.3,0-0.4
			c0-0.4,0-0.7,0-1.1c0-0.4,0-0.7,0.1-1.1c0-0.2,0-0.4,0.1-0.6c0-0.1,0-0.2,0-0.4c0,0.4,0,0,0-0.1c0.1-0.8-0.2-1.6-1-1.8
			C992.3-6.5,991.3-6.1,991.2-5.3L991.2-5.3z"/>
	</g>
</g>
<g>
	<g>
		<path d="M908.7-211.3c0,1,0.3,2,0.6,2.9c0.3,1,0.2,2.3,1.3,2.9c2.4,1.2,2.6-2,3.3-3.4c0.3-0.7,0.2-1.6-0.5-2.1
			c-0.7-0.4-1.7-0.2-2.1,0.5c-0.3,0.6-0.5,1.2-0.7,1.8c-0.1,0.3-0.1,0.5-0.2,0.8c-0.2,0.6-0.1,0,0.3-0.2c0.3-0.1,0.5-0.1,0.8-0.2
			c0,0,0,0-0.1,0c0.3,0.1,0.5,0.1,0.8,0.2c0.1,0.1,0.3,0.4,0.1,0c0.1,0.3,0.1,0.5,0.2,0.8c0-1.4-0.8-2.6-0.8-4
			C911.7-213.2,908.7-213.2,908.7-211.3L908.7-211.3z"/>
	</g>
</g>
<g>
	<g>
		<path d="M978.8-245.4c0.9,0.9,2.2,1.8,3.5,1c1.4-0.8,1-2.5,0.4-3.7c-0.4-0.7-1.4-0.9-2.1-0.5c-0.7,0.4-0.9,1.3-0.5,2.1
			c0.1,0.2,0.1,0.2,0,0c0,0.1,0.1,0.2,0.1,0.4c-0.1-0.4,0-0.1,0,0c0-0.3,0.1-0.5,0.3-0.7c0.3-0.3,0.6-0.4,1-0.3
			c-0.3-0.1,0.3,0.2,0,0c0,0-0.4-0.2-0.2-0.1c-0.1-0.1-0.3-0.2-0.4-0.4c-0.6-0.6-1.5-0.6-2.1,0C978.2-247,978.2-246,978.8-245.4
			L978.8-245.4z"/>
	</g>
</g>
<g>
	<g>
		<path d="M-48.5-296.7c2.1,16,1.8,32.1,3.5,48.1c1,9.2,0.5,18.5,1.9,27.7c1.1,6.9,3.9,11.5,11.2,11.9c9,0.5,18.6-2.4,27.3-4.4
			c12.2-2.8,24.4-3.2,36.9-3.4c9.8-0.2,19.6-1.3,29.3-2.8c5-0.8,15.6-1.6,17.5-7.5c2.1-6.5-1.2-15.8-2.7-22.1
			c-1.7-6.7-3.7-13.3-5.4-19.9c-2.8-10.7-7.4-20.6-10.8-31.1c-1.9-6-1.1-14.4-5.1-19.4c-4.9-6-15.1-5.9-22-5.7
			c-20.1,0.8-39.7,8.6-59.4,12.1c-6.2,1.1-12.8,2-17.8,6.1c-5.4,4.5-4.9,12.6-4.1,18.9c0.3,1.9,3.2,1.1,2.9-0.8
			c-0.7-4.9-1.1-10.7,2.2-14.8c2.6-3.3,7.2-4.3,11.1-5.2c10.7-2.5,21.6-4.2,32.3-7c12.5-3.2,25.4-6.7,38.5-6.3
			c4.8,0.2,11.6,0.8,14.5,5.2c2.3,3.4,2.2,8.8,2.9,12.7c2.4,12.5,8.9,23.9,12,36.2c2.1,8.2,4.6,16.2,6.5,24.4
			c0.9,4.1,1.8,8.2,1.9,12.4c0.2,4.5-1.8,5.6-5.9,6.9c-7.9,2.5-16.4,2.9-24.6,4c-15.7,2.2-31.6,0.1-47.3,3.4
			c-10.3,2.2-22.7,7.1-33.2,4.9c-5.3-1.1-5.6-9.4-6-13.6c-0.5-5.5-0.4-11.1-0.6-16.6c-0.4-8.4-1.6-16.9-2-25.4
			c-0.5-9.6-0.9-19.3-2.1-28.9C-45.7-298.6-48.7-298.6-48.5-296.7L-48.5-296.7z"/>
	</g>
</g>
<g>
	<g>
		<path d="M-8.5-314.3c0.2,7.5,3.6,14.8,6,21.8c2.2,6.3,6.2,15.7-0.8,20.1c-5.7,3.7-13.5,4.5-20,5.5c-6.2,0.9-12.5,1.4-18.5,3.1
			c-1.9,0.5-1.1,3.4,0.8,2.9c6.7-2,13.9-2.4,20.9-3.5c6.6-1,14.7-2.2,20.1-6.6c5-4.1,3.9-10.4,2.5-16.1c-2.3-9-7.6-17.9-7.9-27.3
			C-5.5-316.2-8.5-316.2-8.5-314.3L-8.5-314.3z"/>
	</g>
</g>
<g>
	<g>
		<path d="M-43-243.2c8.8-0.1,17.5-0.9,26.2-1.9c6.9-0.7,13.8-0.9,20.6-2.1c4.4-0.8,7,6,8.3,9.4c2,5.7,2.7,11.9,3.5,17.9
			c0.2,1.9,3.2,1.9,3,0c-0.8-6.7-1.7-13.4-4-19.8c-1.1-3.1-4-9.3-7.5-10.5c-1.3-0.4-2.7-0.2-4.1,0.1c-4.7,0.8-9.6,1-14.4,1.5
			c-10.5,1-21,2.4-31.6,2.5C-44.9-246.2-44.9-243.2-43-243.2L-43-243.2z"/>
	</g>
</g>
<g>
	<g>
		<path d="M34.5-219.9c-0.3-11.5-5.2-22.2-8.1-33.2c-0.3,0.6-0.7,1.2-1,1.8c12.9-5.1,26.5-9.3,40.4-10.3c1.9-0.1,1.9-3.1,0-3
			c-14.2,1-28,5.3-41.2,10.5c-0.8,0.3-1.3,1-1,1.8c2.8,10.7,7.7,21.2,7.9,32.4C31.6-217.9,34.6-217.9,34.5-219.9L34.5-219.9z"/>
	</g>
</g>
<g>
	<g>
		<path d="M7.5-317.5c-0.6,6.3,1.8,13.3,3.3,19.3c1.8,7.2,3.8,14.7,7.1,21.4c2.6,5.1,8.3,4.1,13.2,3.4c9-1.3,17.7-4.6,26.7-5.8
			c1.9-0.2,1.9-3.2,0-3c-7,0.9-13.8,3.1-20.6,4.6c-3.8,0.8-7.6,1.6-11.5,1.7c-3.1,0.1-4.2-0.4-5.5-3c-3.1-6.2-4.8-13.4-6.6-20.1
			c-1.5-5.7-3.7-12.5-3.2-18.5C10.7-319.4,7.7-319.4,7.5-317.5L7.5-317.5z"/>
	</g>
</g>
<g>
	<g>
		<path d="M64.2-261.6c1.1,0,2.1,0,3.2,0c1.9,0,1.9-3,0-3c-1.1,0-2.1,0-3.2,0C62.3-264.6,62.3-261.6,64.2-261.6L64.2-261.6z"/>
	</g>
</g>
<g>
	<g>
		<path d="M54.6-279.2c1.9,0,3.7,0,5.6,0c1.9,0,1.9-3,0-3c-1.9,0-3.7,0-5.6,0C52.7-282.2,52.7-279.2,54.6-279.2L54.6-279.2z"/>
	</g>
</g>
<g>
	<g>
		<path d="M64.2-283.8c-1.1,0-2.1,0-3.2,0c-1.9,0-1.9,3,0,3c1.1,0,2.1,0,3.2,0C66.2-280.8,66.2-283.8,64.2-283.8L64.2-283.8z"/>
	</g>
</g>
<g>
	<g>
		<path d="M8.9-320.3c6.3-15.2-12.6-31-26.9-24.5c-14.8,6.6,5.5,19.5,8.9,26.5c0.9,1.7,3.5,0.2,2.6-1.5c-2.5-5-16.5-13.8-13.6-19.8
			c1.3-2.8,6.4-3.6,9.1-3.8c3.4-0.2,6.7,1.3,9.6,3c6.5,4,10.4,12,7.4,19.4C5.2-319.3,8.1-318.5,8.9-320.3L8.9-320.3z"/>
	</g>
</g>
<g>
	<g>
		<path d="M-4.2-342.4c2.9-0.5,5.7-3,8.1-4.6c4.6-3.2,9.1-6.5,13.8-9.7c5-3.4,10.1-6.6,15.6-9.3c4-1.9,9.8-4.5,14.2-2.4
			c5.1,2.4,4.3,10.8,3.9,15.3c-0.6,8-5.9,13.2-13.1,16c-10,3.9-24.4,3.8-29.2,15.2c-0.7,1.8,2.2,2.6,2.9,0.8
			c2.8-6.6,10.5-8.4,16.7-10.1c6.1-1.6,12.8-3.1,17.9-7c5.8-4.6,7.6-11.1,8-18.2c0.2-5-0.5-10.8-4.8-14c-7.9-6-22,3.6-28.5,7.7
			c-5.5,3.5-10.8,7.3-16.1,11.1c-2.8,2-6.7,5.7-10.3,6.3C-6.9-345-6.1-342.1-4.2-342.4L-4.2-342.4z"/>
	</g>
</g>
<g>
	<g>
		<path d="M-18.5-342.2c-6.5-9.1-17.6-16-27.1-21.4c-6.5-3.7-21.3-11.8-26.9-2.7c-3,4.9-0.9,12.6,0.8,17.5c2.5,7.2,7.8,12.9,14,17.3
			c13.4,9.5,31.5,12.4,47.5,12.5c1.9,0,1.9-3,0-3c-14-0.1-28.6-2.5-41.1-9.1c-6.5-3.4-12.1-8.3-15.7-14.7c-2.8-4.8-5.6-13.5-2.9-19
			c4-7.9,20.9,2.6,25.3,5.3c8.2,4.9,17.9,11,23.5,18.9C-20-339.2-17.4-340.6-18.5-342.2L-18.5-342.2z"/>
	</g>
</g>
<g>
	<g>
		<path d="M807,525.2c-1.1,30,21,54.1,49.2,61.5c12,3.2,25.3,3,36.7-2.3c11.7-5.5,18.5-16.8,20.3-29.3c3.9-27.2-10.9-53.6-38.4-59.5
			c-26.8-5.7-55.5,8.4-69,31.8c-1,1.7,1.6,3.2,2.6,1.5c16.7-28.9,60.9-43.8,87.8-19.5c13.2,11.9,17.2,32.4,13.4,49.2
			c-3,13.3-13,22.7-26,25.9c-16.5,4-34.6-1.4-48.3-10.7c-16.2-11-25.9-29-25.1-48.7C810.1,523.3,807.1,523.3,807,525.2L807,525.2z"
			/>
	</g>
</g>
<g>
	<g>
		<path d="M841.1,580.8c-19.4,6.4-34.9,24.2-44.3,41.7c-8.9,16.5-11.9,36.1,0.9,51.4c12.1,14.4,32.9,20.7,50.9,22.4
			c17.1,1.6,34.5-2.7,50.4-8.5c12.8-4.6,26.3-10.9,35.3-21.4c3.1-3.6,6-8.4,6.2-13.3c0.2-5.1-1.5-10.4-3.1-15.2
			c-4.3-13.3-10.8-26.1-18.1-38.1c-4.5-7.4-11.3-19.7-20.5-22.1c-1.9-0.5-2.7,2.4-0.8,2.9c6,1.6,10.7,8.9,14,13.5
			c5.5,7.7,10.1,16,14.2,24.5c4,8.1,7.5,16.6,9.9,25.4c2.1,7.8,1.4,13.7-3.9,20.2c-12.1,14.7-34,21.6-51.7,26
			c-18.1,4.5-36.2,4.2-54-1.7c-10.4-3.5-20.4-9.2-27.5-17.7c-7.8-9.3-8.5-21.4-5.5-32.7c3.3-12.4,10.7-23.7,19.1-33.3
			c7.8-9,17.7-17.5,29.3-21.2C843.8,583.1,843,580.2,841.1,580.8L841.1,580.8z"/>
	</g>
</g>
<g>
	<g>
		<path d="M879.1,694.3c-2.6,13.3-4.4,26.9-5.2,40.4c-0.4,7-0.6,14.1,0.5,21c0.6,4.2,1.6,9.3,5.1,12c1.5,1.2,3.6-0.9,2.1-2.1
			c-3.7-2.9-4.2-8.9-4.6-13.2c-0.7-6.7-0.4-13.5,0.1-20.2c0.8-12.5,2.5-25,4.9-37.2C882.3,693.2,879.4,692.4,879.1,694.3
			L879.1,694.3z"/>
	</g>
</g>
<g>
	<g>
		<path d="M881.3,772.5c4.1-2.6,8.5-4.3,13.1-5.8c1.8-0.6,1-3.5-0.8-2.9c-4.8,1.6-9.6,3.4-13.9,6.2
			C878.1,771,879.6,773.6,881.3,772.5L881.3,772.5z"/>
	</g>
</g>
<g>
	<g>
		<path d="M838.7,698.5c-11.1,24-20.6,49.3-25.6,75.4c-0.4,1.9,2.5,2.7,2.9,0.8c5-25.8,14.3-50.9,25.3-74.6
			C842.1,698.2,839.5,696.7,838.7,698.5L838.7,698.5z"/>
	</g>
</g>
<g>
	<g>
		<path d="M788.6,768.2c7.6,1.5,15.2,3.2,22.5,6c1.8,0.7,2.6-2.2,0.8-2.9c-7.3-2.8-14.9-4.5-22.5-6
			C787.5,764.9,786.7,767.8,788.6,768.2L788.6,768.2z"/>
	</g>
</g>
<g>
	<g>
		<path d="M931.5,623.1c9-23.5,23.7-44.8,22.6-70.9c-0.1-1.9-3.1-1.9-3,0c1.1,25.8-13.6,46.9-22.4,70.1
			C927.9,624.1,930.8,624.9,931.5,623.1L931.5,623.1z"/>
	</g>
</g>
<g>
	<g>
		<path d="M788.8,635.5c-14.2-26.8-29.7-53.6-51.2-75.3c-1.4-1.4-3.5,0.7-2.1,2.1c21.3,21.5,36.7,48.1,50.8,74.7
			C787.1,638.7,789.7,637.2,788.8,635.5L788.8,635.5z"/>
	</g>
</g>
<g>
	<g>
		<path d="M735.1,565.3c-1.8,5.2-4.4,10.1-7.3,14.6c-1.1,1.6,1.5,3.1,2.6,1.5c3.1-4.8,5.8-9.9,7.7-15.4
			C738.6,564.3,735.7,563.5,735.1,565.3L735.1,565.3z"/>
	</g>
</g>
<g>
	<g>
		<path d="M739.5,565.7c0-2.8,0.1-5.6,1.3-8.2c0.8-1.7-1.8-3.3-2.6-1.5c-1.5,3.1-1.7,6.3-1.7,9.8
			C736.5,567.7,739.5,567.7,739.5,565.7L739.5,565.7z"/>
	</g>
</g>
<g>
	<g>
		<path d="M737.3,568.5c4,1.7,8.3,0.3,12-1.5c1.7-0.8,0.2-3.4-1.5-2.6c-2.6,1.2-6.2,2.7-9,1.5C737,565.2,735.5,567.8,737.3,568.5
			L737.3,568.5z"/>
	</g>
</g>
<g>
	<g>
		<path d="M732,569.8c-1.6-4.5-4.6-7.8-7.9-11.2c-1.4-1.4-3.5,0.8-2.1,2.1c2.9,2.9,5.7,5.9,7.1,9.8
			C729.7,572.4,732.6,571.7,732,569.8L732,569.8z"/>
	</g>
</g>
<g>
	<g>
		<path d="M949.1,557.8c1.5-1.4,3.9-1.9,5.7-2.8c1.7-0.8,0.2-3.4-1.5-2.6c-2.1,1-4.5,1.6-6.3,3.2C945.6,557,947.7,559.1,949.1,557.8
			L949.1,557.8z"/>
	</g>
</g>
<g>
	<g>
		<path d="M952.3,554.5c-1.7-3.4-3.6-6.6-6.2-9.3c-1.4-1.4-3.5,0.7-2.1,2.1c2.5,2.6,4.2,5.5,5.8,8.7
			C950.6,557.7,953.2,556.2,952.3,554.5L952.3,554.5z"/>
	</g>
</g>
<g>
	<g>
		<path d="M946.5,556.7c-2.5,0-5.1,0.2-7.1,1.9c-1.4,1.3,0.7,3.4,2.1,2.1c1.3-1.1,3.3-1.1,4.9-1.1
			C948.5,559.7,948.5,556.7,946.5,556.7L946.5,556.7z"/>
	</g>
</g>
<g>
	<g>
		<path d="M947.3,561c4.5-2.9,9.6-4.2,14.6-5.8c1.8-0.6,1-3.5-0.8-2.9c-5.3,1.7-10.6,3.2-15.4,6.2
			C944.1,559.5,945.6,562.1,947.3,561L947.3,561z"/>
	</g>
</g>
<g>
	<g>
		<path d="M947.3,558c4.7-3.3,7.9-7.8,11-12.5c1.1-1.6-1.5-3.1-2.6-1.5c-2.8,4.2-5.7,8.5-10,11.5C944.2,556.5,945.7,559.1,947.3,558
			L947.3,558z"/>
	</g>
</g>
<g>
	<g>
		<path d="M810,519.2c-1.6-22.2,16.9-39.9,32.6-52.9c8.7-7.1,18-13.5,27.5-19.6c9.9-6.4,19.6-13.2,30.2-18.2
			c26.5-12.4,56.7-12.9,84-2.9c22.6,8.4,44.6,24.6,59,44c6.1,8.2,10.7,17.4,14,27c4,11.7,5,24,7.6,36c5.9,26.9,16,53.1,15,81
			c0.9-0.4,1.7-0.7,2.6-1.1c-36-33.6-48.3-84.7-85.7-117.2c-13.4-11.6-29.2-20-46.2-24.9c-15.5-4.4-33.7-5.7-47.9,3.3
			c-8.1,5.1-13.2,13.5-16.2,22.5c-0.6,1.8,2.3,2.6,2.9,0.8c14-41.6,65.8-26.6,93.2-8.7c41.5,27.1,55.2,76.8,85.6,113.5
			c3.8,4.6,7.9,8.8,12.2,12.9c1,0.9,2.5,0.3,2.6-1.1c1.1-30-10.4-58.2-16.2-87.1c-2.6-12.7-4-25-8.9-37.1
			c-3.9-9.7-9.5-18.6-16.2-26.7c-14.5-17.6-35.4-31.7-56.5-39.9c-25.1-9.7-53.1-9.4-78.3-0.2c-12.8,4.7-23.9,12.2-35.3,19.6
			c-10.3,6.6-20.4,13.5-30,21.2c-16.8,13.4-36.2,32.5-34.6,55.8C807.2,521.1,810.2,521.2,810,519.2L810,519.2z"/>
	</g>
</g>
<g>
	<g>
		<path d="M1076,609.7c-3.4,3.7-5.6,8.3-9,12c-0.6,0.7-0.6,1.9,0.3,2.4c3.7,1.8,7.5,3.2,11.4,4.4c1.5,0.5,5.4,2.6,6.9,1.5
			c3.5-2.7,4.7-7.4,7.5-10.6c0.6-0.6,0.7-2-0.3-2.4c-4.1-1.7-5.8-5.6-8.7-8.8c-1.3-1.4-3.4,0.7-2.1,2.1c3.1,3.4,4.9,7.4,9.3,9.2
			c-0.1-0.8-0.2-1.6-0.3-2.4c-2,2.4-3.4,5.3-5.1,7.9c-1.8,2.8-3.5,1.4-6.4,0.5c-3.7-1.1-7.2-2.5-10.7-4.1c0.1,0.8,0.2,1.6,0.3,2.4
			c3.4-3.7,5.6-8.3,9-12C1079.4,610.4,1077.3,608.2,1076,609.7L1076,609.7z"/>
	</g>
</g>
<g>
	<g>
		<path d="M797.3,627c21.2-14,44.3-24.3,67.5-34.5c1.8-0.8,0.2-3.4-1.5-2.6c-23.2,10.2-46.3,20.5-67.5,34.5
			C794.2,625.5,795.7,628.1,797.3,627L797.3,627z"/>
	</g>
</g>
<g>
	<g>
		<path d="M790.9,652.7c41.2-16.8,83.2-31.9,123.4-51.1c1.7-0.8,0.2-3.4-1.5-2.6c-39.9,19.2-81.6,34.2-122.6,50.8
			C788.4,650.5,789.1,653.4,790.9,652.7L790.9,652.7z"/>
	</g>
</g>
<g>
	<g>
		<path d="M801.4,676.7c42.2-15.3,79.6-43.2,124.5-51c1.9-0.3,1.1-3.2-0.8-2.9c-44.9,7.8-82.2,35.7-124.5,51
			C798.8,674.4,799.6,677.3,801.4,676.7L801.4,676.7z"/>
	</g>
</g>
<g>
	<g>
		<path d="M830.3,694.5c33.2-17.2,70-25.4,104.6-38.8c1.8-0.7,1-3.6-0.8-2.9c-34.9,13.6-72,21.8-105.4,39.1
			C827,692.8,828.6,695.4,830.3,694.5L830.3,694.5z"/>
	</g>
</g>
<g>
	<g>
		<path d="M820.1,686.8c32.1-25.9,73.1-31.6,111.8-41.6c1.9-0.5,1.1-3.4-0.8-2.9c-39.4,10.1-80.5,16.1-113.2,42.4
			C816.5,685.9,818.6,688,820.1,686.8L820.1,686.8z"/>
	</g>
</g>
<g>
	<g>
		<path d="M813.1,532.3c-6.2,31.1,51.1,54.3,61.5,20.9c4.3-13.8-9.8-25.3-20.5-30.6c-11.5-5.7-28.5-9.3-39.2-0.3
			c-2.2,1.8-3.7,4.3-4.7,7c-0.7,1.8,2.2,2.6,2.9,0.8c5.3-12.7,22.1-11,32.7-7.6c11,3.5,25.5,12.2,26.5,25c0.5,6.8-4.2,12.8-9.8,16.1
			c-6.5,3.8-14.6,3.2-21.6,1.3c-13.5-3.8-28-16.4-24.9-31.8C816.3,531.2,813.5,530.4,813.1,532.3L813.1,532.3z"/>
	</g>
</g>
<g>
	<g>
		<path d="M880.6,520.3c-2.2,6.9-2.9,15-0.6,21.9c2.4,7.2,10.2,9.3,16.8,6.1c7.2-3.5,8.3-11.4,5.4-18.4
			c-3.1-7.5-10.5-12.7-18.7-12.2c-1.9,0.1-1.9,3.1,0,3c6.9-0.4,12.4,3.6,15.6,9.5c3.1,5.8,2.2,13.1-4.4,15.7
			c-15.2,6-13.9-16.4-11.2-24.8C884.1,519.3,881.2,518.5,880.6,520.3L880.6,520.3z"/>
	</g>
</g>
<g>
	<g>
		<path d="M855.4,576.2c16.8-4.5,33.9-7.4,51-10.5c1.9-0.3,1.1-3.2-0.8-2.9c-17.1,3.1-34.2,6-51,10.5
			C852.8,573.8,853.5,576.7,855.4,576.2L855.4,576.2z"/>
	</g>
</g>
<g>
	<g>
		<path d="M842.3,550.5c0.5-0.2,0.9-0.5,1.4-0.8c0.2-0.1,0.9-0.4,0.3-0.2c-0.6,0.2-1.2-0.2-1.5-0.6c0.1,0.1,0.1,0.2,0.2,0.2
			c0.2,0.4,0.5,0.7,0.9,1.1c1.4,1.4,3.5-0.7,2.1-2.1c-0.1-0.1-0.5-0.6-0.2-0.2c-0.1-0.1-0.2-0.2-0.2-0.4c-0.4-0.6-0.8-0.9-1.5-0.9
			c-0.4,0-0.8,0.2-1.2,0.4c-0.5,0.3-1.1,0.6-1.6,0.9c-0.7,0.4-0.9,1.4-0.5,2.1C840.7,550.7,841.5,550.9,842.3,550.5L842.3,550.5z"/>
	</g>
</g>
<g>
	<g>
		<path d="M894,538.7c1.9,0,1.9-3,0-3S892.1,538.7,894,538.7L894,538.7z"/>
	</g>
</g>
<g>
	<g>
		<path d="M894,538.7c1.9,0,1.9-3,0-3S892.1,538.7,894,538.7L894,538.7z"/>
	</g>
</g>
<g>
	<g>
		<path d="M892.5,538.7c1.9,0,1.9-3,0-3S890.6,538.7,892.5,538.7L892.5,538.7z"/>
	</g>
</g>
<g>
	<g>
		<path d="M892.5,538.7c1.9,0,1.9-3,0-3S890.6,538.7,892.5,538.7L892.5,538.7z"/>
	</g>
</g>
<g>
	<g>
		<path d="M892.5,538.7c1.9,0,1.9-3,0-3S890.6,538.7,892.5,538.7L892.5,538.7z"/>
	</g>
</g>
<g>
	<g>
		<path d="M-382.5,455.2c-27.7,1.2-54.6,13.2-64.1,40.9c-7.8,23-1.4,49.7,12.4,69.1c14.6,20.4,38.5,31.4,63.4,26
			c17.4-3.8,36-14.9,43.1-31.8c7.6-18.1-3.3-38.4-12.1-53.8c-3.1-5.3-6.5-10.5-9.2-16c-2.8-5.7-5-11.6-7.9-17.2
			c-5-9.8-12.4-18.4-24.1-18.7c-1.9,0-1.9,3,0,3c20.6,0.5,24.3,27.5,33.2,41.3c10.5,16.3,24.1,38.4,18,58.5
			c-5.7,18.8-28.4,30-46.6,32.7c-12.8,1.9-25.8-1.2-36.7-8c-21.3-13.3-33.6-39.4-33.7-64.1c-0.1-12.3,3.4-24.4,10.5-34.5
			c8.2-11.6,21.2-18.5,34.7-21.9c6.3-1.6,12.8-2.3,19.2-2.6C-380.6,458.1-380.5,455.1-382.5,455.2L-382.5,455.2z"/>
	</g>
</g>
<g>
	<g>
		<path d="M-436.5,477.7c0-33.9,3.5-72,22-101.3c9.6-15.1,24.4-25.1,42.4-26.2c19.1-1.1,33,9.9,41.3,26.3
			c12.4,24.4,13.1,52.8,18.8,79.1c1-0.3,1.9-0.5,2.9-0.8c-9.1-23.1-31-46.8-58.2-43.3c-8.7,1.1-15.1,7.2-16.8,15.8
			c-2.2,10.7,3,21.9,9.3,30.2c1.2,1.5,3.8,0,2.6-1.5c-5.6-7.3-9.6-16-9.3-25.3c0.3-9.6,7.4-15.6,16.6-16.4
			c24.9-2.1,44.7,20.3,53,41.3c0.7,1.8,3.3,1.1,2.9-0.8c-3.6-16.8-5.3-33.9-9.2-50.6c-3.7-16.2-9.3-33.5-21.5-45.4
			c-11.9-11.8-29.5-13.7-45.1-9.4c-15.5,4.3-27.1,16.3-34.9,29.9c-16.6,29-19.8,65.7-19.8,98.4
			C-439.5,479.7-436.5,479.7-436.5,477.7L-436.5,477.7z"/>
	</g>
</g>
<g>
	<g>
		<path d="M-315.4,450.8c-7.5,3.1-14.4,7.9-13,16.8c0.1,0.7,0.8,1.1,1.4,1.1c4.5,0.1,8.9,1.4,13.5,1.5c-0.5-0.6-1-1.3-1.4-1.9
			c-0.5,1.8-3.7,4.5-0.8,6.2c2.9,1.7,7.1,2.3,10.4,2.7c4.2,0.5,9.1-0.4,11.5-4.3c2.1-3.5,0.5-7.9-1.6-10.9
			c-3.7-5.3-10.1-8.2-16.1-9.8c-1.9-0.5-2.7,2.4-0.8,2.9c6.1,1.6,17.7,6.6,16.5,14.8c-0.5,3.3-4.1,4.2-6.9,4.3
			c-2.4,0.1-4.8-0.4-7.1-1c-0.8-0.2-4.4-0.6-3.2-2.1c0.6-0.7,0.9-1.3,1.1-2.2c0.3-1-0.5-1.9-1.4-1.9c-4.6-0.1-9-1.4-13.5-1.5
			c0.5,0.4,1,0.7,1.4,1.1c-1.1-7.1,5.3-10.8,11-13.2C-312.8,452.9-313.6,450-315.4,450.8L-315.4,450.8z"/>
	</g>
</g>
<g>
	<g>
		<path d="M-439.3,492c-6.9,9.7-6.6,23.1,3.1,30.8c10,8,24.2,2.4,31.7-6.3c6.9-8,3.6-18.2-3.7-24.4c-8.8-7.5-21.8-8.8-32-3.6
			c-1.7,0.9-0.2,3.5,1.5,2.6c8.5-4.3,18.2-3.3,26.2,1.6c7.1,4.3,11.5,12.6,6.9,20.3c-5.3,9.1-18.8,13.8-27.9,8.1
			c-9.7-6-9.1-19.2-3.2-27.5C-435.6,491.9-438.2,490.4-439.3,492L-439.3,492z"/>
	</g>
</g>
<g>
	<g>
		<path d="M-389.5,490.2c-9.1,10.5-11.4,24,0.7,33c9.6,7.2,25.8,8.3,35.4,0.5c10.9-8.9,11.7-25.6,0.1-34.2
			c-11.1-8.1-28.5-10.1-40.4-2.6c-1.6,1-0.1,3.6,1.5,2.6c10.1-6.4,24.1-5.1,34.3,0.5c12,6.7,13.3,21.8,3,31
			c-8.1,7.2-21.5,5.9-30.3,0.9c-4.5-2.5-8-6.6-9.1-11.7c-1.5-6.7,2.8-13.2,6.9-18C-386.2,490.8-388.3,488.7-389.5,490.2
			L-389.5,490.2z"/>
	</g>
</g>
<g>
	<g>
		<path d="M-410.6,572.2c29-7.8,56.4-20.7,82.9-34.7c1.7-0.9,0.2-3.5-1.5-2.6c-26.3,13.9-53.3,26.6-82.1,34.3
			C-413.2,569.8-412.5,572.7-410.6,572.2L-410.6,572.2z"/>
	</g>
</g>
<g>
	<g>
		<path d="M-423,509.2c1.9,0,1.9-3,0-3S-424.9,509.2-423,509.2L-423,509.2z"/>
	</g>
</g>
<g>
	<g>
		<path d="M-423,509.2c1.9,0,1.9-3,0-3S-424.9,509.2-423,509.2L-423,509.2z"/>
	</g>
</g>
<g>
	<g>
		<path d="M-366,513.7c1.9,0,1.9-3,0-3S-367.9,513.7-366,513.7L-366,513.7z"/>
	</g>
</g>
<g>
	<g>
		<path d="M-366,513.7c1.9,0,1.9-3,0-3S-367.9,513.7-366,513.7L-366,513.7z"/>
	</g>
</g>
<g>
	<g>
		<path d="M-380.8,592.5c-12.4,22.1-10.7,49-9.2,73.4c0.8,12.5,2,25.1,1.2,37.6c-0.6,9.2-2.2,20,4.3,27.5c4.6,5.2,11.9,4.5,18.1,3.8
			c9.4-1,18.7-3.2,27.8-5.5c14-3.5,30.3-6.8,40.7-17.5c18.8-19.4,14.8-52.9,9.3-76.7c-6.3-27.2-18-56.8-37.4-77.3
			c-1.3-1.4-3.4,0.7-2.1,2.1c11.2,11.9,19.1,26.9,25.5,41.8c7.6,17.7,12.9,36.6,14.8,55.7c1.6,15.9,0.7,33.6-8.2,47.3
			c-8.7,13.4-25.3,16.9-39.8,20.8c-11.9,3.2-24.5,6.5-36.9,6.7c-17.3,0.4-13.3-21.4-12.8-32.8c1.5-34.6-10.7-73.3,7.3-105.4
			C-377.2,592.3-379.8,590.8-380.8,592.5L-380.8,592.5z"/>
	</g>
</g>
<g>
	<g>
		<path d="M-385,712.8c6,5.9,13.1,10.3,19.8,15.2c1.6,1.2,3.1-1.5,1.5-2.6c-6.5-4.8-13.4-9.1-19.2-14.8
			C-384.3,709.3-386.4,711.4-385,712.8L-385,712.8z"/>
	</g>
</g>
<g>
	<g>
		<path d="M-385.3,681c11.5,15.4,28.4,25.8,39,42c1.1,1.6,3.7,0.1,2.6-1.5c-10.6-16.2-27.5-26.6-39-42
			C-383.8,677.9-386.4,679.4-385.3,681L-385.3,681z"/>
	</g>
</g>
<g>
	<g>
		<path d="M-388.3,642c13.4,29.6,36.9,53.3,55.5,79.5c1.1,1.6,3.7,0.1,2.6-1.5c-18.6-26.2-42.1-49.9-55.5-79.5
			C-386.5,638.7-389.1,640.2-388.3,642L-388.3,642z"/>
	</g>
</g>
<g>
	<g>
		<path d="M-388.3,616.5c17,40,50.5,71.2,78.2,103.8c1.3,1.5,3.4-0.7,2.1-2.1c-27.6-32.4-60.9-63.4-77.8-103.2
			C-386.4,613.2-389,614.7-388.3,616.5L-388.3,616.5z"/>
	</g>
</g>
<g>
	<g>
		<path d="M-383.9,602.6c5.7,20.8,21.4,38.3,36.5,53.1c16.3,16,34.7,30.5,54.2,42.3c1.7,1,3.2-1.6,1.5-2.6
			c-18.6-11.2-35.8-24.8-51.5-39.8c-15.5-14.8-32-32.6-37.8-53.8C-381.5,600-384.4,600.8-383.9,602.6L-383.9,602.6z"/>
	</g>
</g>
<g>
	<g>
		<path d="M-370.3,591c19.5,32.1,48.6,57.9,78.5,80c1.6,1.2,3.1-1.5,1.5-2.6c-29.5-21.8-58.3-47.3-77.5-79
			C-368.7,587.8-371.3,589.3-370.3,591L-370.3,591z"/>
	</g>
</g>
<g>
	<g>
		<path d="M-356.5,589.8c8.6,11,17.8,21.3,28.5,30.4c10.4,8.8,22,16.3,33.3,23.9c1.6,1.1,3.1-1.5,1.5-2.6
			c-11.1-7.4-22.4-14.8-32.7-23.4c-10.7-8.9-19.9-19.4-28.5-30.4C-355.6,586.1-357.7,588.3-356.5,589.8L-356.5,589.8z"/>
	</g>
</g>
<g>
	<g>
		<path d="M-340,580.8c12.3,10.9,21.6,25.5,38.2,30.4c1.9,0.5,2.6-2.3,0.8-2.9c-15.9-4.7-25-19.1-36.8-29.6
			C-339.4,577.4-341.5,579.5-340,580.8L-340,580.8z"/>
	</g>
</g>
<g>
	<g>
		<path d="M-359.9,736.1c5.7,19.4,4.5,39.6,4.4,59.6c0,1.9,3,1.9,3,0c0-20.3,1.3-40.7-4.6-60.4
			C-357.6,733.5-360.5,734.3-359.9,736.1L-359.9,736.1z"/>
	</g>
</g>
<g>
	<g>
		<path d="M-352.5,797.2c-6.5,0-13,0-19.5,0c-1.9,0-1.9,3,0,3c6.5,0,13,0,19.5,0C-350.5,800.2-350.5,797.2-352.5,797.2L-352.5,797.2
			z"/>
	</g>
</g>
<g>
	<g>
		<path d="M-314.9,725.6c5.9,22.8,5.9,47.1,15,69c0.7,1.8,3.6,1,2.9-0.8c-9.1-21.9-9.1-46.2-15-69
			C-312.5,722.9-315.4,723.7-314.9,725.6L-314.9,725.6z"/>
	</g>
</g>
<g>
	<g>
		<path d="M-298.5,795.7c-6,0.2-11.3,2.6-16.9,4.6c-1.8,0.6-1,3.5,0.8,2.9c5.3-1.8,10.4-4.3,16.1-4.4
			C-296.6,798.7-296.5,795.7-298.5,795.7L-298.5,795.7z"/>
	</g>
</g>
<g>
	<g>
		<path d="M-394.9,641.3c-27.7,6.6-40.8,34.3-57.7,54.4c-1.2,1.5,0.9,3.6,2.1,2.1c16.4-19.6,29.3-47.2,56.3-53.6
			C-392.2,643.7-393,640.8-394.9,641.3L-394.9,641.3z"/>
	</g>
</g>
<g>
	<g>
		<path d="M-296.2,618.5c33.9,20.3,54.6,55.9,76,88c1.1,1.6,3.7,0.1,2.6-1.5c-21.6-32.5-42.7-68.4-77-89
			C-296.4,614.9-297.9,617.5-296.2,618.5L-296.2,618.5z"/>
	</g>
</g>
<g>
	<g>
		<path d="M-226.5,707.2c-0.1,3.8-1.4,6.7-4.1,9.4c-1.4,1.4,0.8,3.5,2.1,2.1c3.2-3.3,4.9-7,4.9-11.6
			C-223.5,705.3-226.5,705.3-226.5,707.2L-226.5,707.2z"/>
	</g>
</g>
<g>
	<g>
		<path d="M-224.8,705c3,4.3,7.1,7.2,10.7,10.8c1.4,1.4,3.5-0.8,2.1-2.1c-3.5-3.4-7.5-6.2-10.3-10.2
			C-223.3,701.9-225.9,703.4-224.8,705L-224.8,705z"/>
	</g>
</g>
<g>
	<g>
		<path d="M-223.5,707.2c4.1-0.1,7.6-1.4,11.3-3.2c1.7-0.9,0.2-3.5-1.5-2.6c-3.2,1.6-6.2,2.7-9.7,2.8
			C-225.4,704.3-225.4,707.3-223.5,707.2L-223.5,707.2z"/>
	</g>
</g>
<g>
	<g>
		<path d="M-447,695.2c0.1,4.1,1.4,7.6,3.2,11.3c0.9,1.7,3.5,0.2,2.6-1.5c-1.6-3.2-2.7-6.2-2.8-9.7C-444,693.3-447,693.3-447,695.2
			L-447,695.2z"/>
	</g>
</g>
<g>
	<g>
		<path d="M-451.5,696.7c-4.9,0.1-9.5,1.6-13.1,4.9c-1.4,1.3,0.7,3.4,2.1,2.1c3-2.8,6.9-4,10.9-4.1
			C-449.5,699.7-449.5,696.7-451.5,696.7L-451.5,696.7z"/>
	</g>
</g>
<g>
	<g>
		<path d="M-453,695.2c0-4.2-0.5-8.3-3.4-11.6c-1.3-1.4-3.4,0.7-2.1,2.1c2.4,2.6,2.6,6.1,2.6,9.4C-456,697.2-453,697.2-453,695.2
			L-453,695.2z"/>
	</g>
</g>
<g>
	<g>
		<path d="M-222,702.7c0-2.5,0-5,0-7.5c0-1.9-3-1.9-3,0c0,2.5,0,5,0,7.5C-225,704.7-222,704.7-222,702.7L-222,702.7z"/>
	</g>
</g>
<g>
	<g>
		<path d="M-453,698.2c0.1,3.5,1.7,6.7,3.2,9.8c0.9,1.7,3.5,0.2,2.6-1.5c-1.3-2.6-2.7-5.3-2.8-8.2C-450,696.3-453,696.3-453,698.2
			L-453,698.2z"/>
	</g>
</g>
<g>
	<g>
		<path d="M165.8,106.9c-19,8.3-29.9,27.6-35.6,46.7c-5.2,17.8-7.6,39.5,2.8,55.8c9.7,15.2,28.4,21.4,45.6,22.6
			c17.5,1.2,38-2,51.5-14c19.4-17.3,21.6-48.1,15-71.7c-3.6-13-10.9-25.6-21.6-33.9c-14.1-10.9-34.2-8.7-50.6-13.2
			c-1.9-0.5-2.7,2.4-0.8,2.9c11.9,3.3,24.3,3.4,36.2,6.5c11.9,3.1,20.5,11.4,26.7,21.7c9.9,16.4,12.6,37.4,8.8,56
			c-3.9,19.2-15.9,34.2-35,39.6c-19,5.4-41.4,5-58.9-4.8c-9-5-15.7-13.1-18.9-22.9c-3.4-10.3-2.3-22-0.5-32.5
			c3.8-22.3,15-46.6,36.8-56.2C169,108.8,167.5,106.2,165.8,106.9L165.8,106.9z"/>
	</g>
</g>
<g>
	<g>
		<path d="M158.6,228.3c-18.3,2.9-33,12.3-36.7,31.3c-3.7,19.3,1.2,41.9,12.2,58c10.8,15.9,28.4,25.3,46.8,29.3
			c19.3,4.2,41.7,3.5,59.7-5.3c21.7-10.6,23.9-33.9,18.3-55c-6.4-24.1-20.2-46.3-34.1-66.7c-1.1-1.6-3.7-0.1-2.6,1.5
			c9.4,13.8,18.1,28,25.2,43.1c6.9,14.7,13.3,31.9,11,48.5c-2.5,18.2-17.8,27.4-34.4,31.2c-21,4.8-45.4,1.9-64.5-8.1
			c-22.2-11.7-33.1-33.8-35.2-58.1c-0.9-10.8-0.1-22.2,5.9-31.5c6.4-9.8,18.3-13.7,29.2-15.4C161.3,230.9,160.5,228,158.6,228.3
			L158.6,228.3z"/>
	</g>
</g>
<g>
	<g>
		<path d="M219,348.2c1.5,16.3,4.4,32.4,7.6,48.4c0.4,1.9,3.3,1.1,2.9-0.8c-3.1-15.8-5.9-31.6-7.4-47.6
			C221.8,346.3,218.8,346.3,219,348.2L219,348.2z"/>
	</g>
</g>
<g>
	<g>
		<path d="M231.4,400.7c11.1-1.6,22.1-3.3,33-6c1.9-0.5,1.1-3.4-0.8-2.9c-10.9,2.7-21.9,4.4-33,6C228.7,398,229.5,400.9,231.4,400.7
			L231.4,400.7z"/>
	</g>
</g>
<g>
	<g>
		<path d="M169.5,345.2c0,19.5,1.5,39,1.5,58.5c0,1.9,3,1.9,3,0c0-19.5-1.5-39-1.5-58.5C172.5,343.3,169.5,343.3,169.5,345.2
			L169.5,345.2z"/>
	</g>
</g>
<g>
	<g>
		<path d="M171,402.2c-12.7,1.6-25.4,3-37.9,6.1c-1.9,0.5-1.1,3.3,0.8,2.9c12.2-3,24.7-4.4,37.1-5.9C172.9,405,172.9,402,171,402.2
			L171,402.2z"/>
	</g>
</g>
<g>
	<g>
		<path d="M241.9,253.3c21.6,23.5,36.1,52.4,57,76.5c1.3,1.5,3.4-0.7,2.1-2.1c-20.9-24.1-35.3-53-57-76.5
			C242.8,249.7,240.6,251.9,241.9,253.3L241.9,253.3z"/>
	</g>
</g>
<g>
	<g>
		<path d="M120.8,255.4c-30.5,21.8-42.5,58.7-54.7,92.4c-0.7,1.8,2.2,2.6,2.9,0.8c11.9-32.9,23.5-69.4,53.3-90.6
			C123.8,256.9,122.3,254.3,120.8,255.4L120.8,255.4z"/>
	</g>
</g>
<g>
	<g>
		<path d="M68.3,349.5c2.2,1.1,4,2.5,5.7,4.3c1.4,1.4,3.5-0.8,2.1-2.1c-1.9-1.9-3.9-3.5-6.3-4.7C68.1,346,66.5,348.6,68.3,349.5
			L68.3,349.5z"/>
	</g>
</g>
<g>
	<g>
		<path d="M64.5,351.2c-0.1,3.2-1.9,5.7-4.1,7.9c-1.3,1.4,0.8,3.5,2.1,2.1c2.7-2.8,4.8-6.1,4.9-10.1
			C67.6,349.3,64.6,349.3,64.5,351.2L64.5,351.2z"/>
	</g>
</g>
<g>
	<g>
		<path d="M68.6,350.2c-3.2-3.1-6.9-5.7-10.8-7.7c-1.7-0.9-3.2,1.7-1.5,2.6c3.7,1.9,7.2,4.3,10.2,7.3
			C67.8,353.6,70,351.5,68.6,350.2L68.6,350.2z"/>
	</g>
</g>
<g>
	<g>
		<path d="M66,351.2c4.9-0.1,8.8-2.1,12.8-4.7c1.6-1.1,0.1-3.7-1.5-2.6c-3.5,2.3-6.9,4.2-11.2,4.3C64.1,348.3,64.1,351.3,66,351.2
			L66,351.2z"/>
	</g>
</g>
<g>
	<g>
		<path d="M295.7,326.5c-3.3,4.9-7.6,9-11.8,13.2c-1.4,1.4,0.8,3.5,2.1,2.1c4.3-4.4,8.7-8.7,12.2-13.8
			C299.4,326.4,296.8,324.9,295.7,326.5L295.7,326.5z"/>
	</g>
</g>
<g>
	<g>
		<path d="M292.5,333.2c2.9,0.1,5,2.9,6.2,5.3c0.9,1.7,3.5,0.2,2.6-1.5c-1.7-3.3-4.8-6.6-8.8-6.7
			C290.6,330.1,290.6,333.1,292.5,333.2L292.5,333.2z"/>
	</g>
</g>
<g>
	<g>
		<path d="M294,330.2c3.8-0.1,7.3-1.8,10.9-3.1c1.8-0.6,1-3.5-0.8-2.9c-3.2,1.1-6.6,2.8-10.1,2.9C292.1,327.3,292.1,330.3,294,330.2
			L294,330.2z"/>
	</g>
</g>
<g>
	<g>
		<path d="M294,331.7c4.8-0.1,9.4-1.5,13.9-3.1c1.8-0.6,1-3.5-0.8-2.9c-4.3,1.4-8.6,2.8-13.1,2.9C292.1,328.8,292.1,331.8,294,331.7
			L294,331.7z"/>
	</g>
</g>
<g>
	<g>
		<path d="M171,100.7c-4.9,0.1-9.5,1.6-13.1,4.9c-1.4,1.3,0.7,3.4,2.1,2.1c3-2.8,6.9-4,10.9-4.1C172.9,103.7,172.9,100.7,171,100.7
			L171,100.7z"/>
	</g>
</g>
<g>
	<g>
		<path d="M226.5,117.2c5.9-44.7-30.4-86.4-67.6-105.7c-19.5-10.1-41.3-14-63-10C77.2,5,61.3,15.9,50.2,31.2
			c-13.3,18.3-19,41.4-21.7,63.6c-0.2,1.6,2.1,1.9,2.8,0.8C37.5,85.2,45,75.8,55.9,70.3c11.4-5.7,24.9-5.2,37.2-3.9
			c13.4,1.4,24.4,7.8,33.9,17.2c8.9,8.8,16.7,18.3,26.7,25.9c1.5,1.2,3-1.4,1.5-2.6c-11-8.4-19.4-19.4-29.6-28.8
			c-10.1-9.3-22.1-13.8-35.7-15.1c-12.1-1.1-24.5-0.5-35.6,4.7C43,73.1,35,83.5,28.7,94c0.9,0.3,1.9,0.5,2.8,0.8
			C34,74,39.4,53.2,50.8,35.5C62.2,18,80,6.9,100.6,3.8c47.9-7.2,95.7,28.3,115.5,70c6.4,13.5,9.4,28.6,7.4,43.4
			C223.3,119.1,226.3,119.1,226.5,117.2L226.5,117.2z"/>
	</g>
</g>
<g>
	<g>
		<path d="M27.2,95.5c4.3,5.8,8.7,11.6,12,18c0.2-0.7,0.4-1.4,0.5-2.1c-4.6,2.3-9.1,4.8-13.5,7.5c0.7,0.2,1.4,0.4,2.1,0.5
			c-1.9-3.6-4.1-6.9-6-10.5c-0.3-0.6-1.1-0.9-1.7-0.7c-0.7,0.3-1.4,0.6-1.8,1.4c-0.2,0.3-0.3,0.7-0.5,1c-0.6,1.5,1.4,1.2-1.2-0.1
			c-5.1-2.5-10.1-5.1-14.9-8.2c-1.4-0.9-3.1,1.2-1.8,2.4c4.1,3.5,9.1,7.2,14.1,3.3c4.9-3.8,5.7-10.7,11.7-13.6
			c1.7-0.8,0.2-3.4-1.5-2.6c-4.1,2-6.5,5.7-8.8,9.5c-1.2,1.9-2.3,3.9-4.2,5.1c-2.9,1.8-7.2-2.2-9.1-3.9c-0.6,0.8-1.2,1.6-1.8,2.4
			c5.3,3.4,10.9,6.2,16.5,9c0.9,0.4,1.5,0.7,2.4,0.2c0.9-0.5,1.1-2.8,1.8-3c-0.6-0.2-1.1-0.5-1.7-0.7c1.9,3.6,4.1,6.9,6,10.5
			c0.4,0.7,1.4,0.9,2.1,0.5c4.4-2.7,8.9-5.2,13.5-7.5c0.8-0.4,0.9-1.4,0.5-2.1c-3.3-6.4-7.7-12.2-12-18
			C28.7,92.4,26.1,93.9,27.2,95.5L27.2,95.5z"/>
	</g>
</g>
<g>
	<g>
		<path d="M146,143.2c-10.4,13-8.5,29.6,1.6,42.2c8.9,11.1,25.2,17.3,37.6,8c31.9-23.8-16.3-56.8-41.1-53.7c-1.9,0.2-1.9,3.2,0,3
			c21.4-2.7,64.5,22.3,41.9,46c-10.5,11-25.7,5.7-34.8-3.9c-10.3-10.9-12.6-27.5-3-39.5C149.3,143.8,147.2,141.7,146,143.2
			L146,143.2z"/>
	</g>
</g>
<g>
	<g>
		<path d="M213.8,148.9c-16.6,8.2-8,37,10.2,35.3c9.9-0.9,15.3-8.6,12.5-17.9c-2.8-9.5-12-18.3-21.6-20.5c-1.9-0.4-2.7,2.5-0.8,2.9
			c7.9,1.8,14.2,8,18,15c1.8,3.3,2.8,7.1,1.9,10.8c-1.2,4.6-6.8,6.5-11,6.9c-15.1,1.4-20.8-23.4-7.7-29.8
			C217,150.7,215.5,148.1,213.8,148.9L213.8,148.9z"/>
	</g>
</g>
<g>
	<g>
		<path d="M192,171.2c4.5,0,9,0,13.5,0c1.9,0,1.9-3,0-3c-4.5,0-9,0-13.5,0C190.1,168.2,190.1,171.2,192,171.2L192,171.2z"/>
	</g>
</g>
<g>
	<g>
		<path d="M234,164.1c1.6-6,4.3-11.4,8.6-15.8c1.3-1.4-0.8-3.5-2.1-2.1c-4.6,4.8-7.7,10.7-9.4,17.2C230.6,165.2,233.5,166,234,164.1
			L234,164.1z"/>
	</g>
</g>
<g>
	<g>
		<path d="M139.1,170.2c-3-3-6-6-9-9c-1.4-1.4-3.5,0.8-2.1,2.1c3,3,6,6,9,9C138.3,173.7,140.4,171.5,139.1,170.2L139.1,170.2z"/>
	</g>
</g>
<g>
	<g>
		<path d="M150,213.2c26.2,0,52.9-1.3,78.4-7.6c1.9-0.5,1.1-3.4-0.8-2.9c-25.2,6.2-51.7,7.4-77.6,7.4
			C148.1,210.2,148.1,213.2,150,213.2L150,213.2z"/>
	</g>
</g>
<g>
	<g>
		<path d="M169.5,174.2c1.9,0,1.9-3,0-3S167.6,174.2,169.5,174.2L169.5,174.2z"/>
	</g>
</g>
<g>
	<g>
		<path d="M219,172.7c1.9,0,1.9-3,0-3S217.1,172.7,219,172.7L219,172.7z"/>
	</g>
</g>
<g>
	<g>
		<path d="M128.3,294c28.1,21.7,60.7,36.3,93.4,49.6c1.8,0.7,2.6-2.2,0.8-2.9c-32.4-13.3-64.8-27.8-92.6-49.3
			C128.2,290.2,126.7,292.9,128.3,294L128.3,294z"/>
	</g>
</g>
<g>
	<g>
		<path d="M123.5,266.8c16.6,15.4,38.3,25.1,59,33.8c22.6,9.5,45.9,17.3,69.2,25c1.8,0.6,2.6-2.3,0.8-2.9
			c-21.9-7.3-43.7-14.6-65.1-23.3c-21.5-8.8-44.6-18.8-61.8-34.8C124.2,263.3,122,265.5,123.5,266.8L123.5,266.8z"/>
	</g>
</g>
<g>
	<g>
		<path d="M130.1,243.2c40.3,9.6,74.3,37.1,115.9,42.1c1.9,0.2,1.9-2.8,0-3c-41.3-4.9-75.1-32.5-115.1-41.9
			C129,239.8,128.2,242.7,130.1,243.2L130.1,243.2z"/>
	</g>
</g>
<g>
	<g>
		<path d="M177.8,231c18.4,11.4,40.3,15.1,60.4,22.6c1.8,0.7,2.6-2.2,0.8-2.9c-19.8-7.5-41.5-11.1-59.6-22.3
			C177.6,227.4,176.1,230,177.8,231L177.8,231z"/>
	</g>
</g>
</svg>
