<?xml version="1.0" encoding="utf-8"?>
<!-- Generator: Adobe Illustrator 16.0.0, SVG Export Plug-In . SVG Version: 6.00 Build 0)  -->
<!DOCTYPE svg PUBLIC "-//W3C//DTD SVG 1.1//EN" "http://www.w3.org/Graphics/SVG/1.1/DTD/svg11.dtd">
<svg version="1.1" id="Layer_1" xmlns="http://www.w3.org/2000/svg" xmlns:xlink="http://www.w3.org/1999/xlink" x="0px" y="0px"
	 width="359.4px" height="517.3px" viewBox="0 0 359.4 517.3" style="enable-background:new 0 0 359.4 517.3;" xml:space="preserve"
	>
<g>
	<g>
		<path d="M206.6,235.7c8.9-7,14.3-16.5,18.7-26.8c4.6-10.5,7.6-21.2,8.1-32.6c0.9-23-11.5-43-28.9-57.1
			c-30.1-24.4-73.8-27.9-107.7-9.5c-1.7,0.9-0.2,3.5,1.5,2.6c32.4-17.6,72.8-14.2,102.3,7.6c17.7,13.1,29.7,32.4,29.9,54.7
			c0.1,11.4-3.2,22.4-7.7,32.8c-4.3,10-9.6,19.4-18.3,26.1C203,234.8,205.1,236.9,206.6,235.7L206.6,235.7z"/>
	</g>
</g>
<g>
	<g>
		<path d="M102.1,109.6c-32.2,3.9-34.9,45-33.4,70.1c1.1,17.8,5,38.1,15.7,52.8c9.4,13,25.1,20.1,40.4,23.1c1.9,0.4,2.7-2.5,0.8-2.9
			c-14.9-2.9-29.2-9.5-38.6-21.7c-10.4-13.4-13.8-33.2-15.2-49.6c-2-23.2-0.3-65.2,30.2-68.8C104,112.3,104,109.3,102.1,109.6
			L102.1,109.6z"/>
	</g>
</g>
<g>
	<g>
		<path d="M126.1,256c-17.4,3.8-26.7,25.5-33.3,40c-9.4,20.6-22.5,43.1-13.6,66c8.3,21.5,29.4,36.9,49.3,46.7
			c19.8,9.7,41.6,14.9,63.3,18.3c41.9,6.7,90.9,4,117.3-34c14-20,19.5-45.8,16.5-69.9c-2.6-21-12.3-39-29.8-51.1
			c-26.8-18.4-61.2-20.7-88.6-38c-1.6-1-3.1,1.6-1.5,2.6c17.2,10.8,37.1,16,56.1,22.7c19.5,6.8,39.4,15.8,50.8,33.9
			c13.7,21.5,13.3,50.9,5.7,74.5c-7.7,23.9-24.6,43.2-48.1,52.2c-21.3,8.1-45,8.1-67.3,5.6c-22.5-2.5-45.4-7.6-66.3-16.4
			c-22.7-9.6-45.9-25.9-55.2-49.7c-5.9-15.1-0.2-30.2,6.1-44c3.9-8.5,7.4-17.2,11.5-25.7c5.7-11.7,13.9-27.8,27.8-30.8
			C128.8,258.5,128,255.6,126.1,256L126.1,256z"/>
	</g>
</g>
<g>
	<g>
		<path d="M248.2,430.2c3.6,6.9,3,14.7,3.8,22.2c0.2,1.9,3.2,1.9,3,0c-0.9-8.1-0.3-16.3-4.2-23.8C249.9,427,247.3,428.5,248.2,430.2
			L248.2,430.2z"/>
	</g>
</g>
<g>
	<g>
		<path d="M243.5,456c10.3,0,20.7,0,31,0c1.9,0,1.9-3,0-3c-10.3,0-20.7,0-31,0C241.6,453,241.6,456,243.5,456L243.5,456z"/>
	</g>
</g>
<g>
	<g>
		<path d="M242,458.5c1.2,14.4,4.8,28.5,4,43c-0.1,1.9,2.9,1.9,3,0c0.8-14.5-2.8-28.6-4-43C244.8,456.5,241.8,456.5,242,458.5
			L242,458.5z"/>
	</g>
</g>
<g>
	<g>
		<path d="M274,456.1c-2.7,11.9-1.1,24.4-5,36c-0.4,1.2,0.8,2.1,1.8,1.8c11.7-2.4,25.4-7,33.6,4.8c5.4,7.7-13.1,10.1-17.4,10.6
			c-10,1.1-34.9,6.8-38.2-7.2c-0.5-1.9-3.3-1.1-2.9,0.8c2.1,8.5,10.7,10.6,18.5,11.1c9.7,0.6,20.4-0.7,29.9-2.7
			c6.8-1.4,17.7-5.1,12.8-14c-7.7-13.8-24.9-8.7-37-6.2c0.6,0.6,1.2,1.2,1.8,1.8c3.9-11.6,2.3-24.1,5-36
			C277.4,455,274.5,454.2,274,456.1L274,456.1z"/>
	</g>
</g>
<g>
	<g>
		<path d="M170,424.5c-0.1,11.7-1,23.3-1,35c0,1.9,3,1.9,3,0c0-11.7,0.9-23.3,1-35C173,422.5,170,422.5,170,424.5L170,424.5z"/>
	</g>
</g>
<g>
	<g>
		<path d="M158.5,464c8.7,0.9,17.5-0.8,26.2-0.5c4.5,0.1,8.9,0.5,10.3,5.4c1.3,4.6,0.3,10.2-0.3,14.9c-1,8.6-0.4,18.9-7.3,25.2
			c-6.1,5.6-16.8,4.3-24.4,4.2c-8.6-0.2-17.2,1-25.8,0.7c-5-0.1-9.5-6.1-5.4-10.2c3.1-3.1,8.3-4.2,12.4-5.1
			c4.1-0.9,8.2-0.7,12.3-0.6c2.2,0,4.2-0.5,5.7-2.2c7.1-7.6,3.9-20.1,3.7-29.2c0-1.9-3-1.9-3,0c0.1,6.4,1.6,12.9,0.4,19.3
			c-0.7,3.9-2.3,9-6.8,9.1c-8.3,0.2-15.8,0.4-23.4,4.3c-7.2,3.7-7.5,10-1.9,15.4c5.1,4.9,15.7,1.8,22,1.5c14-0.8,33.9,4.4,41.1-11.8
			c3.5-7.9,3.4-18.2,4.1-26.7c0.6-7.3,0-14.8-8.2-16.6c-10.4-2.2-21.2,1-31.7-0.1C156.6,460.8,156.6,463.8,158.5,464L158.5,464z"/>
	</g>
</g>
<g>
	<g>
		<path d="M78.9,331.1c-2.3-9.3-11.8-13.6-18.9-18.7c-10.8-7.8-17.3-22.8-22.2-34.7c-5.6-13.6-9.4-27.6-11.2-42.3
			c-1.7-14.2-1.6-28.6-1.6-42.9c0-1.9-3-1.9-3,0c0,14.3,0,28.6,1.6,42.9c1.6,14.4,5.5,28.1,10.7,41.6c4.5,11.5,10.2,22.6,18,32.2
			c6.7,8.3,21,11.7,23.7,22.8C76.5,333.7,79.4,332.9,78.9,331.1L78.9,331.1z"/>
	</g>
</g>
<g>
	<g>
		<path d="M321,305.5c-1.1-35.6,22-65.3,33-97.7c5.3-15.7,7.7-33.1,2.5-49.2c-5.9-18.1-19.5-32.4-25.5-50.5c-0.6-1.8-3.5-1-2.9,0.8
			c5.7,17.2,17.8,31,24.5,47.7c6.9,17.2,3.5,36.2-2.4,53.1c-11.1,31.8-33.3,60.7-32.2,95.8C318.1,307.4,321.1,307.4,321,305.5
			L321,305.5z"/>
	</g>
</g>
<g>
	<g>
		<path d="M19.5,194c-8.9-1.1-14.5-7.5-16.6-15.9c-0.5-1.9-3.3-1.1-2.9,0.8c2.4,9.9,9.2,16.9,19.4,18.1
			C21.4,197.2,21.4,194.2,19.5,194L19.5,194z"/>
	</g>
</g>
<g>
	<g>
		<path d="M21.3,193.8c5.4-2.3,9.5-7.3,9.7-13.3c0.1-1.9-2.9-1.9-3,0c-0.2,5-3.9,8.8-8.3,10.7C18,191.9,19.5,194.5,21.3,193.8
			L21.3,193.8z"/>
	</g>
</g>
<g>
	<g>
		<path d="M22,193.5c-1-8.7-1.9-17.3-2-26c0-1.9-3-1.9-3,0c0.1,8.7,1,17.3,2,26C19.2,195.4,22.2,195.4,22,193.5L22,193.5z"/>
	</g>
</g>
<g>
	<g>
		<path d="M324.2,109.7c-4,6.8-10,13-18.1,14.3c-1.9,0.3-1.1,3.2,0.8,2.9c8.8-1.4,15.5-8.3,19.9-15.7
			C327.8,109.5,325.2,108,324.2,109.7L324.2,109.7z"/>
	</g>
</g>
<g>
	<g>
		<path d="M320.9,112.1c-1.1-6.6-3.8-12.7-6-19c-0.6-1.8-3.5-1-2.9,0.8c2.2,6.3,4.9,12.4,6,19C318.4,114.8,321.2,113.9,320.9,112.1
			L320.9,112.1z"/>
	</g>
</g>
<g>
	<g>
		<path d="M323.3,113.8c3.5-2.4,5.6-5.8,6.7-9.9c0.5-1.9-2.4-2.7-2.9-0.8c-0.9,3.3-2.5,6.1-5.3,8.1
			C320.2,112.3,321.7,114.9,323.3,113.8L323.3,113.8z"/>
	</g>
</g>
<g>
	<g>
		<path d="M75,135.5c-2.6,23.6-5.9,50.3,14.2,67.4c13.4,11.4,34.2,14.2,47.3,0.9c7.5-7.7,11.5-20.1,12.1-30.6
			c0.5-11.3-5-21.5-11.8-30.1c-5.5-6.9-13.1-12.1-20.9-16.3c-7.7-4.2-16.7-7.6-25.6-6.9c-5.5,0.4-10.1,3.3-13.1,7.9
			c-1.1,1.6,1.5,3.1,2.6,1.5c10.1-15.4,34.8-0.8,45.3,6.9c8.2,6,14.8,14.5,18.4,24c4.4,11.7,1.2,23.9-4.3,34.6
			c-9.7,19.1-32.9,18-47.8,6c-19.8-15.9-15.9-43-13.4-65.2C78.2,133.5,75.2,133.6,75,135.5L75,135.5z"/>
	</g>
</g>
<g>
	<g>
		<path d="M156.2,128.7c-8,14.6-3.6,30.7,8.5,41.5c10,8.9,26.4,14.2,38.1,5.4c13.4-10.1,13.7-31.8,3.6-43.9
			c-11.3-13.6-32.4-15.9-47.6-8.1c-0.3,0.2-0.7,0.4-1,0.6c-1.7,0.9-0.2,3.5,1.5,2.6c14-7.8,32.1-5.8,43.6,5.5
			c10.9,10.7,10.3,31.9-2.2,41.3c-10.3,7.8-25.1,2-33.8-5.4c-11.3-9.6-15.3-24.6-8-37.9C159.7,128.5,157.1,127,156.2,128.7
			L156.2,128.7z"/>
	</g>
</g>
<g>
	<g>
		<path d="M186.3,153.8c-0.2,0.1,0.7-0.1,0.4-0.1c0.3,0,0.6,0,0.9-0.1c0.7,0,1.3-0.1,2-0.3c2-0.8,2.4-2.8,2.5-4.8
			c0-0.9-1-1.8-1.9-1.4c-1.3,0.4-2.7,0.9-4,1.4c-0.9,0.3-1.9,0.6-2.2,1.6c-0.1,0.5,0,1.1,0.4,1.5c0.4,0.4,0.8,0.5,1.3,0.5
			c1.9,0.1,1.9-2.9,0-3c0.3,0.1,0.6,0.3,0.9,0.4c0.1,0.5,0.3,1,0.4,1.5c-0.3,0.9-0.9,0.9-0.3,0.6c0.4-0.2,0.9-0.3,1.3-0.5
			c1-0.4,2.1-0.7,3.2-1.1c-0.6-0.5-1.3-1-1.9-1.4c0,0.7,0,1.4-0.4,2c0.1-0.1-0.2,0.1,0,0c-0.1,0-0.7,0.2-0.4,0.1
			c-1.2,0.1-2.3,0.1-3.4,0.6C183,152,184.5,154.6,186.3,153.8L186.3,153.8z"/>
	</g>
</g>
<g>
	<g>
		<path d="M117,186.5c0-1.8-0.2-3.6-1.4-5.1c-0.4,0.9-0.7,1.7-1.1,2.6c1,0,2,0,3,0c0-1,0-2,0-3c-2.6,0-4.9,0.2-7.4,1.1
			c-1.1,0.3-1.5,1.7-0.7,2.5c1,1,2,1.8,3.2,2.5c0.8,0.4,1.7,0.7,2.6,0.9c0.1,0,1.3,0.3,0.6,0c0.1,0,0.1,0.1,0.2,0.1
			c1.7,0.9,3.2-1.7,1.5-2.6c-1.5-0.8-3.1-1.5-4.6-2.3c-1.7-0.9-3.2,1.7-1.5,2.6c0.1,0.1,0.2,0.1,0.3,0.2c-0.2-0.7-0.4-1.4-0.5-2.1
			c-0.4,0.7-0.8,1.3-0.9,2c-0.1,1,1.1,1.8,2,1.5c0.9-0.3,1.6-1.1,2.3-1.7c1.4-1.4-0.7-3.5-2.1-2.1c-0.2,0.2-0.3,0.3-0.5,0.5
			c-0.1,0.1-0.3,0.3-0.4,0.4c-0.3,0.3-0.2,0,0.3,0c0.4,0.2,0.9,0.5,1.3,0.7c-0.1,1.1,0,1.4,0.2,0.8c0.1-0.2,0.3-0.4,0.4-0.7
			c0.4-0.7,0.2-1.7-0.5-2.1c-0.1-0.1-0.2-0.1-0.3-0.2c-1.7-0.9-3.2,1.7-1.5,2.6c1.5,0.8,3.1,1.5,4.6,2.3c1.7,0.9,3.2-1.7,1.5-2.6
			c-1-0.5-2.1-0.4-3.1-0.8c-1.1-0.4-2.1-1.3-2.9-2.2c-0.2,0.8-0.4,1.7-0.7,2.5c2.2-0.7,4.3-0.9,6.6-0.9c1.9,0,1.9-3,0-3
			c-1,0-2,0-3,0c-1.4,0-1.9,1.6-1.1,2.6c0.6,0.8,0.6,2,0.6,2.9C114,188.4,117,188.4,117,186.5L117,186.5z"/>
	</g>
</g>
<g>
	<g>
		<path d="M79,123.5c0.1-37.4,7.8-83.4,39.6-107.4c17-12.8,39-15.1,59.4-11.3c20.5,3.8,38.3,15.5,52.5,30.5
			c18.4,19.3,30.9,43.8,40.7,68.4c4.6,11.6,8.6,23.5,12.2,35.5c4.8,16.1,8.2,32.2,5.6,49c0.9-0.1,1.8-0.2,2.7-0.4
			c-10-15.6-18.1-32.4-28.2-48c-9.7-14.9-21.6-27.5-36.1-37.8c-22.4-16-58-32.3-79.1-5.5c-1.2,1.5,0.9,3.6,2.1,2.1
			c21.1-26.9,56.7-7.9,78.4,8.1c14.2,10.5,25.2,23.7,34.6,38.5c9.1,14.4,16.5,29.7,25.7,44.1c0.6,1,2.5,1,2.7-0.4
			c3.6-23.3-3.6-45.7-10.9-67.5c-6.6-19.7-14.8-38.9-25.2-56.8c-10.1-17.3-22.7-33.3-38.7-45.5C200.9,6.8,181.4,0.4,161.1,0
			c-28.6-0.5-52.3,14.9-66.3,39.3C80.4,64.4,76.1,94.9,76,123.5C76,125.4,79,125.4,79,123.5L79,123.5z"/>
	</g>
</g>
<g>
	<g>
		<path d="M284.7,186.2c-7.4,4.4-13.3,10.5-15.7,18.9c-0.2,0.6,0.1,1.4,0.7,1.7c6.3,3.2,13.1,1,18.5-3c-0.7-0.6-1.5-1.1-2.2-1.7
			c-0.6,3.6-0.9,7.9,2.7,10c3.6,2,7.8-1.9,9.8-4.5c-0.6,0.1-1.2,0.2-1.8,0.2c11.9,7.9,18.6-6.5,12.1-16.1c-1.1-1.6-3.7-0.1-2.6,1.5
			c3.2,4.8,7.4,6.6,12.9,7.7c0.8,0.2,1.6-0.2,1.8-1c5.3-16.9-28.8-17.9-38.4-18.9c-1.9-0.2-1.9,2.8,0,3c7.6,0.8,39.7,1.9,35.6,15.1
			c0.6-0.3,1.2-0.7,1.8-1c-4.6-0.9-8.4-2.2-11.1-6.3c-0.9,0.5-1.7,1-2.6,1.5c4.6,6.8,1.5,18.2-7.9,11.9c-0.5-0.3-1.4-0.3-1.8,0.2
			c-1.1,1.4-2.3,2.7-3.9,3.6c-4.3,2.5-4-4.1-3.6-6.2c0.2-1.1-1-2.6-2.2-1.7c-4.5,3.3-10.1,5.7-15.5,3c0.2,0.6,0.5,1.1,0.7,1.7
			c2.2-7.7,7.6-13.1,14.3-17.1C287.9,187.8,286.4,185.2,284.7,186.2L284.7,186.2z"/>
	</g>
</g>
<g>
	<g>
		<path d="M171.8,198.8c-11.2,3.4-29.5,8-34.4,20.2c-5.2,12.8,9.2,16.1,18.8,16c12.8-0.2,26.1-5.2,34.9-14.7
			c4.4-4.8,6-11.5,2.3-17.1c-3.9-5.9-13.9-8-20.3-6.1c-1.8,0.5-1.1,3.4,0.8,2.9c7-2.1,18.2,1.4,18.7,9.8c0.4,6.4-6.4,11.5-11.1,14.6
			c-8.2,5.3-17.4,7.7-27.1,7.7c-4.2,0-8.6-0.5-12.2-2.7c-5-3.1-2.3-9.6,0.7-13.1c7.1-8.1,19.8-11.5,29.8-14.5
			C174.5,201.1,173.7,198.2,171.8,198.8L171.8,198.8z"/>
	</g>
</g>
<g>
	<g>
		<path d="M144,213.4c0.4,2,1.3,5.3,3.1,6.5c3.3,2.1,4.8-0.4,8-1.3c2.5-0.7,5-1.3,5.1-4.4c0.1-2.6-2.2-5.4-3.2-7.6
			c-0.8-1.8-3.4-0.2-2.6,1.5c0.7,1.5,1.5,2.9,2.2,4.3c1.1,2.4-0.1,2.8-2.3,3.3c-1.5,0.4-3.9,2.7-5.3,1.8c-1.3-0.8-1.8-3.5-2.1-4.9
			C146.5,210.7,143.6,211.5,144,213.4L144,213.4z"/>
	</g>
</g>
<g>
	<g>
		<path d="M161.3,205.4c0.9,5.1,3.5,11,9.7,8.4c5.7-2.4,1.7-8.9-0.2-12.6c-0.9-1.7-3.5-0.2-2.6,1.5c1,1.9,4.6,7,1.5,8.4
			c-4.1,1.7-5-3.7-5.5-6.5C163.8,202.7,161,203.5,161.3,205.4L161.3,205.4z"/>
	</g>
</g>
<g>
	<g>
		<path d="M179.7,226.6c-0.2-1.1-0.8-2.2-1.3-3.3c-0.4-0.8-1.9-3.1-1.5-4.1c0.4-1,3.2-1.5,4.1-1.8c1.2-0.4,2.5-0.7,3.7-1.1
			c-0.6-0.2-1.1-0.5-1.7-0.7c0.8,1.1,1.5,2.3,2.3,3.5c1,1.7,3.6,0.1,2.6-1.5c-0.7-1.2-1.4-2.4-2.3-3.5c-0.4-0.5-1-0.9-1.7-0.7
			c-2.9,0.9-7.4,1.4-9.4,4c-2.2,2.9,1.7,7.1,2.3,9.9C177.2,229.2,180.1,228.4,179.7,226.6L179.7,226.6z"/>
	</g>
</g>
<g>
	<g>
		<path d="M98.4,234.5c2.6,4.6,3.6,10.5,8.4,13.6c4.7,3,10.4-3.7,14.2-5.5c-0.7-0.2-1.4-0.4-2.1-0.5c1.9,4.2,1.8,8.8,4.3,12.8
			c0.4,0.6,1.4,1,2.1,0.5c1.1-0.8,2.2-1.7,3.3-2.5c-0.7-0.3-1.5-0.6-2.2-0.9c0.8,4,0,8,0.8,12c0.2,0.9,1.1,1.1,1.8,1
			c1.5-0.2,1.7,13.4,2.4,15.2c0.3,0.7,1,1.3,1.8,1c1.2-0.4,2.5-0.6,3.8-1c-0.6-0.3-1.2-0.7-1.8-1c1.8,6.3,0.6,12.7,0.9,19.1
			c0.1,1.2,1.2,1.8,2.3,1.3c7.2-3.5,10-12.9,17.9-15.1c-0.6-0.3-1.2-0.7-1.8-1c3,10.2,2.3,20.9,3.4,31.4c0.1,1.1,1.6,2.2,2.6,1.1
			c1.6-2,3-3.8,5.6-4.6c-0.6-0.2-1.1-0.5-1.7-0.7c3.9,8.5,0.1,19,6,26.8c0.6,0.8,1.6,1,2.4,0.3c2.8-2.7,4.9-6.1,7.8-8.8
			c3.8-3.5,5.7,7.2,7.3,9.7c0.6,0.9,2,1,2.6,0c2.9-5.4,5.3-10.9,7.2-16.7c1.9-5.8,1.8-11.9,4-17.7c-0.9,0.1-1.8,0.2-2.7,0.4
			c2.8,5.7,1.6,12.4,5,18c0.7,1.1,2.4,0.9,2.7-0.4c1.7-5.5,1.7-11.1,1.9-16.8c0.4-7.5,1.8-14.9,2.4-22.3c-1,0.1-2,0.3-2.9,0.4
			c0.3,1.6,0.6,3.2,1,4.8c0.4,1.4,2.6,1.5,2.9,0c2.4-12.2-3-24.1-1.3-36.2c-1,0-1.9,0-2.9,0c0.6,2.2,1,4.3,1.9,6.4
			c0.7,1.5,2.7,0.5,2.8-0.8c0.9-8.3-3.1-15.8-4.7-23.7c-1.9-9.1,3.9-18.4,6.2-26.9c-1-0.1-2-0.3-2.9-0.4c0.3,3.3,0.8,6.5,1.8,9.6
			c0.4,1.1,2.2,1.6,2.7,0.4c2.7-6,2.6-12.7,3.7-19.1c-0.9,0.1-1.8,0.2-2.7,0.4c1.7,3.1,3.2,6.2,6,8.6c0.7,0.6,1.9,0.6,2.4-0.3
			c2.8-5.6,0.5-12.2-0.8-17.9c-0.2-1-1.8-1.6-2.5-0.7c-2.2,2.8-6,10.9-10,4.3c-2-3.3-3.9-6.5-6.9-8.9c-6.4-5.2-8.5,3.7-11.1,7.4
			c0.8-0.1,1.6-0.2,2.4-0.3c-2.6-2.3-4.1-4.3-7.7-3.1c-4.4,1.4-4.2,7.7-10.1,3.8c-2.6-1.8-4.4-1.7-7.2-0.4c-2.1,0.9-3.4,4.1-6.1,3.2
			c-1.4-0.5-2.7,0.3-3.9,1c-2.7,1.6-8.1,7.9-10.9,3.4c-1.5-2.4-5.2,0.6-6.6,1.4c-4.5,2.5-8.6,6.1-12.1,9.9c-4,4.3-6.8,9.6-11.6,13.1
			c0.7,0.2,1.4,0.4,2.1,0.5c-3.6-7.7-9.9-6.8-15.1-1.1c0.8,0.1,1.6,0.2,2.4,0.3c-1.7-2.3-3.9-6-7.3-5c-3.1,0.9-3.7,6.5-4.2,8.9
			c0.8-0.2,1.7-0.4,2.5-0.7c-0.3-0.3-0.5-0.5-0.8-0.8c-0.4-0.4-1.3-0.6-1.8-0.2c-7,5,1.6,7.9,4.2,12.1c1,1.6,3.6,0.1,2.6-1.5
			c-1.1-1.8-8.4-5.7-5.3-7.9c-0.6-0.1-1.2-0.2-1.8-0.2c0.3,0.3,0.5,0.5,0.8,0.8c0.8,0.8,2.3,0.5,2.5-0.7c0.3-1.4,0.6-2.7,1-4
			c1.2-4.5,3.4-1.5,5.1,0.9c0.5,0.7,1.7,1.1,2.4,0.3c3.7-4.1,7.6-5.5,10.4,0.4c0.3,0.7,1.4,1,2.1,0.5c7.7-5.7,12.1-14.6,19.8-20.4
			c2.1-1.6,4.4-2.8,6.6-4.2c0-0.7,0.1-0.7,0.3,0c0.3,0.6,0.7,1,1.1,1.4c1.8,1.8,4.5,1.1,6.5,0.2c3.7-1.6,5.7-5.4,10-5.1
			c4.2,0.3,6.8-6.6,11.2-3.5c1.9,1.4,5.4,3,7.7,1.5c0.9-0.6,1.7-1.3,2.3-2.3c2.2-3.1,4.6-2.6,7.2-0.3c0.8,0.7,1.8,0.5,2.4-0.3
			c0.8-1.1,1.3-2.4,1.8-3.6c1.5-3.5,4.9-3.2,7.2-0.6c2.4,2.7,3.6,6.2,6.1,8.8c5,5.3,10-3.8,12.4-6.8c-0.8-0.2-1.7-0.4-2.5-0.7
			c1.1,4.7,3.5,10.9,1.2,15.6c0.8-0.1,1.6-0.2,2.4-0.3c-2.6-2.2-4-5.1-5.5-7.9c-0.6-1.1-2.5-0.9-2.7,0.4c-1,6.1-0.8,12.7-3.3,18.4
			c0.9,0.1,1.8,0.2,2.7,0.4c-0.9-2.9-1.4-5.8-1.7-8.9c-0.1-1.6-2.5-2.1-2.9-0.4c-2.2,8.3-6.8,16.3-6.6,25c0.2,9.1,6,17.1,5.1,26.4
			c0.9-0.3,1.9-0.5,2.8-0.8c-0.8-1.8-1.1-3.8-1.6-5.6c-0.4-1.3-2.7-1.6-2.9,0c-1.7,12.2,3.7,24.2,1.3,36.3c1,0,1.9,0,2.9,0
			c-0.4-1.6-0.7-3.1-1-4.8c-0.3-1.8-2.8-1.2-2.9,0.4c-0.5,6.3-1.5,12.6-2.1,18.8c-0.6,6.5-0.1,13.2-2.1,19.5
			c0.9-0.1,1.8-0.2,2.7-0.4c-3.3-5.5-2.2-12.3-5-18c-0.6-1.3-2.3-0.7-2.7,0.4c-1.9,5.2-2.4,10.7-3.6,16.1c-1.4,6.2-4.3,12-7.3,17.6
			c0.9,0,1.7,0,2.6,0c-1.5-2.4-3.2-13.1-7.4-12.6c-5.7,0.7-8.8,7.4-12.5,11c0.8,0.1,1.6,0.2,2.4,0.3c-5.7-7.6-2.1-18.3-6-26.8
			c-0.3-0.6-1.1-0.9-1.7-0.7c-3,1-4.9,2.9-6.9,5.4c0.9,0.4,1.7,0.7,2.6,1.1c-1.2-10.8-0.5-21.7-3.6-32.1c-0.2-0.8-1-1.3-1.8-1
			c-8.5,2.4-11.1,11.7-18.6,15.4c0.8,0.4,1.5,0.9,2.3,1.3c-0.4-6.7,0.8-13.4-1.1-19.9c-0.2-0.8-1.1-1.3-1.8-1
			c-1.3,0.4-2.5,0.6-3.8,1c0.6,0.3,1.2,0.7,1.8,1c-1.6-4,1.4-18.3-6.1-17.3c0.6,0.3,1.2,0.7,1.8,1c-0.8-4,0-8-0.8-12
			c-0.2-0.9-1.5-1.5-2.2-0.9c-1.1,0.8-2.2,1.7-3.3,2.5c0.7,0.2,1.4,0.4,2.1,0.5c-2.4-3.9-2.4-8.6-4.3-12.8c-0.3-0.8-1.4-0.9-2.1-0.5
			c-4.1,2.1-9.4,8.8-13.4,3.4c-2.3-3.1-3.2-7-5.1-10.3C100.1,231.3,97.5,232.8,98.4,234.5L98.4,234.5z"/>
	</g>
</g>
<g>
	<g>
		<path d="M111.8,187.8c0.7,1.4,2.1,2.3,3.7,2.3c1.1,0.1,1.9-1.3,1.3-2.3c-0.6-0.9-0.9-1.8-1.3-2.8c-0.4-1-1.3-1.7-2.2-2.4
			c-1-0.7-2.3-0.4-2.7,0.8c-0.3,0.9,0.4,1.6,1.1,2c1.2,0.6,2.6,1,4,1.2c1.9,0.2,3-1.6,1.6-3.1c0.1,0.4,0.3,0.7,0.4,1.1
			c0-1.9-0.4-4.4-2.4-5.2c-1.6-0.7-3.4-0.2-4.5,1.1c-1.2,1.3-1.5,3.2-0.6,4.8c1.3,2.3,4.5,2.9,6.9,3.2c0.8,0.1,1.5-0.8,1.5-1.5
			c0-0.9-0.7-1.4-1.5-1.5c-1-0.1-2.1-0.3-2.9-0.7c-0.4-0.2-0.7-0.4-1-0.6c0.2,0.2-0.2-0.2-0.2-0.2c-0.2-0.2,0.1,0.2-0.1-0.2
			c0-0.1-0.2-0.4,0,0c-0.1-0.1-0.1-0.3-0.1-0.4c0.1,0.4,0,0,0-0.1c0-0.3-0.1,0.3,0-0.1c0-0.1,0.1-0.2,0.1-0.3c-0.1,0.4,0,0,0.1-0.1
			c0-0.1,0.3-0.4,0.1-0.1c0.1-0.1,0.2-0.2,0.3-0.3c0.1-0.1,0.3-0.3,0,0c0.1-0.1,0.2-0.1,0.3-0.2c0.1,0,0.4-0.2,0,0
			c0.1,0,0.2-0.1,0.4-0.1c0.3-0.1-0.4,0,0,0c0.1,0,0.5,0,0.1,0c0.1,0,0.5,0.2,0.1,0c0.1,0,0.2,0.1,0.3,0.2c-0.3-0.2-0.1,0,0,0
			c0.1,0.2-0.1-0.2,0.1,0.2c0.1,0.2,0.2,0.4,0.3,0.8c0.1,0.4,0.1,0.7,0.1,1.1c0,0.5,0.1,0.9,0.4,1.3c0.1,0.1,0.1,0.1-0.1-0.1
			c-0.1-0.2-0.1-0.4-0.2-0.6c0.1-0.3,0.1-0.5,0.2-0.8c0.8-0.5,1.1-0.7,0.7-0.6c0.3,0,0.3,0,0.2,0c-0.1,0-0.1,0-0.2,0
			c-0.4,0,0.4,0.1,0,0c-0.5-0.1-0.9-0.2-1.3-0.3c-0.4-0.1-0.8-0.3-1.2-0.4c-0.4-0.2,0.1,0.1-0.2-0.1c0,0-0.1,0-0.1-0.1
			c0,0,0.4,0.5,0.5,0.7c0,0.3,0,0.5,0,0.8c0,0,0,0,0,0c-0.1,0.2-0.3,0.4-0.4,0.7c0,0,0,0,0,0c-0.2,0.1-0.4,0.3-0.7,0.4
			c0.2-0.1-0.5,0-0.2,0c-0.3-0.1-0.5-0.1-0.8-0.2c1.5,1.1,1.6,2.7,2.7,4.3c0.4-0.8,0.9-1.5,1.3-2.3c-0.6,0-0.9-0.5-1.1-0.9
			C113.5,184.6,110.9,186.1,111.8,187.8L111.8,187.8z"/>
	</g>
</g>
<g>
	<g>
		<path d="M182.8,149.9c0.4,1.1,1,2.9,2.5,2.9c1.5,0,1.9-1.3,2-2.5c0.1-0.8,0.1-1.9-0.5-2.6c-0.8-0.8-2-0.5-2.5,0.4
			c-0.6,1.2-0.8,2.6-0.9,3.9c-0.1,0.5-0.1,1.2,0.2,1.6c0.8,1,2.2,1,2.8-0.2c-0.8,0.1-1.6,0.2-2.4,0.3c0.9,0.8,2,1.3,3.3,0.8
			c1-0.4,1.8-1.2,1.7-2.3c-0.2-1.7-0.7-3.4-0.8-5.2c0-0.9-1-1.8-1.9-1.4c-1.4,0.5-2.7,1.5-1.9,3.1c0.5,1,2.1,1.4,3.1,1.4
			c1.9,0.1,1.9-2.9,0-3c-0.2,0-0.3-0.1-0.6-0.1c-0.8-0.2-0.8,1.8,0.2,1.5c-0.6-0.5-1.3-1-1.9-1.4c0,1.9,0.7,3.9,0.8,5.6
			c0.1-0.4,0.3-0.7,0.4-1.1c-0.1,0.2-0.2,0.2-0.3,0c-0.7-0.6-1.9-0.6-2.4,0.3c-0.4,0.7,0.2-0.9,1.5-0.5c0.3,0.2,0.6,0.5,0.9,0.7
			c0.1,0.2,0.1,0.9,0.2,0.3c0-0.1,0-0.2,0-0.3c0-0.4-0.1,0.3,0-0.1c0.1-0.6,0.2-1.2,0.4-1.8c0.1-0.2,0.1-0.4,0.2-0.6
			c0-0.1,0.2-0.4,0,0c0.4-0.9-2.8-1.3-2.5-0.4c-0.1-0.5,0-0.1,0,0c0,0.3,0,0.6,0,0.9c-0.1,0.8,2.1,0.3,1.8-0.2
			c-0.2-0.3-0.3-0.6-0.4-0.9C185.1,147.2,182.2,148,182.8,149.9L182.8,149.9z"/>
	</g>
</g>
<g>
	<g>
		<path d="M328,107.8c1.6-3.2,3.2-6.5,4.2-10c0.5-1.9-2.4-2.7-2.9-0.8c-0.9,3.3-2.4,6.2-3.8,9.2C324.5,108,327.1,109.5,328,107.8
			L328,107.8z"/>
	</g>
</g>
<g>
	<g>
		<path d="M109.5,115.7c7.6,1.6,14.6,4.6,21.2,8.6c1.7,1,3.2-1.6,1.5-2.6c-6.8-4.2-14.1-7.3-22-9
			C108.4,112.4,107.6,115.3,109.5,115.7L109.5,115.7z"/>
	</g>
</g>
<g>
	<g>
		<path d="M146.5,119.5c1.6-5.1,4.9-9.4,9.7-11.9c1.7-0.9,0.2-3.5-1.5-2.6c-5.4,2.9-9.3,7.9-11.1,13.7
			C143.1,120.5,146,121.3,146.5,119.5L146.5,119.5z"/>
	</g>
</g>
<g>
	<g>
		<path d="M186,348.3c-1.3,4.2,0.3,8.5,4.3,10.5c4.2,2.1,8.7,0.2,11.7-2.9c2.7-2.8,1.5-6.1-1.5-7.9c-3.5-2.1-8.3-2.7-12.3-2.3
			c-1.9,0.2-1.9,3.2,0,3c2.1-0.2,14.4,0.5,12,4.7c-1.5,2.6-5.1,3.8-7.9,3.1c-3.3-0.9-4.3-4.3-3.5-7.3
			C189.5,347.2,186.6,346.4,186,348.3L186,348.3z"/>
	</g>
</g>
<g>
	<g>
		<path d="M190,367.5c-1.8,8.6,9.3,19.5,15.9,10.3c6-8.4-9.4-13.6-15.3-13c-1.9,0.2-1.9,3.2,0,3c3.6-0.4,14.3,1.6,13.4,6.9
			c-0.7,3.8-4.7,4.5-7.4,2.4c-2.5-1.9-4.4-5.6-3.7-8.8C193.3,366.4,190.4,365.6,190,367.5L190,367.5z"/>
	</g>
</g>
<g>
	<g>
		<path d="M197.2,389.1c-0.3,1.9-0.4,3.7-0.1,5.6c0.2,1.1,0.7,2.3,1.6,3.1c1.9,1.5,4.4,0.9,6.4-0.3c2.1-1.2,3.9-3.1,5.1-5.1
			c1.1-1.8,1.9-4.4,0.6-6.3c-1-1.5-2.7-2-4.3-2.1c-2.5-0.3-5,0.3-7.4,0.9c-1.9,0.5-1.1,3.4,0.8,2.9c1.1-0.3,2.3-0.5,3.4-0.7
			c0.4-0.1-0.3,0,0.1,0c0.1,0,0.2,0,0.3,0c0.2,0,0.4,0,0.7-0.1c0.4,0,0.9,0,1.3,0c0.3,0,0.7,0,1,0.1c-0.5-0.1,0,0,0.1,0
			c0.2,0,0.3,0.1,0.5,0.1c0.1,0,0.2,0.1,0.4,0.1c0.4,0.1-0.3-0.1,0,0c0.1,0,0.2,0.1,0.3,0.2c0.1,0.1,0.5,0.4,0,0
			c0.2,0.1,0.3,0.3,0.4,0.4c-0.4-0.5-0.1-0.2-0.1,0c0.1,0.1,0.2,0.5,0,0c0.1,0.2,0.1,0.3,0.1,0.5c0.1,0.3,0-0.5,0-0.1
			c0,0.1,0,0.2,0,0.3c0,0.1,0,0.2,0,0.3c0,0.1,0.1-0.4,0,0c0,0.2-0.1,0.5-0.2,0.7c0,0.1-0.1,0.2-0.1,0.3c0,0.1,0,0.1-0.1,0.2
			c-0.1,0.2,0.2-0.4,0.1-0.1c-0.1,0.2-0.2,0.5-0.4,0.7c-0.3,0.5-0.6,0.9-0.9,1.4c-0.3,0.4,0.2-0.2-0.1,0.1c-0.1,0.1-0.2,0.2-0.3,0.3
			c-0.2,0.2-0.4,0.4-0.6,0.7c-0.4,0.4-0.8,0.8-1.2,1.2c-0.1,0.1-0.2,0.2-0.3,0.3c0.4-0.3,0,0-0.1,0c-0.2,0.2-0.5,0.3-0.7,0.5
			c-0.2,0.1-0.4,0.3-0.6,0.4c-0.1,0.1-0.2,0.1-0.3,0.2c-0.1,0-0.1,0-0.2,0.1c-0.2,0.1,0.4-0.2,0.1,0c-0.2,0.1-0.4,0.1-0.6,0.2
			c-0.1,0-0.2,0.1-0.3,0.1c-0.1,0-0.1,0-0.2,0c-0.3,0.1,0.4,0,0.2,0c-0.2,0-0.4,0-0.6,0c-0.4,0,0.4,0.1,0.1,0c-0.1,0-0.2,0-0.3-0.1
			c-0.4-0.1,0.1,0.1,0.1,0c-0.1,0-0.2-0.1-0.2-0.1c-0.1-0.1-0.4-0.3,0,0.1c-0.1-0.1-0.2-0.1-0.2-0.2c-0.1-0.1-0.3-0.4,0,0.1
			c-0.1-0.1-0.1-0.1-0.1-0.2c-0.1-0.1-0.4-0.8-0.2-0.3c-0.2-0.4-0.3-0.9-0.4-1.4c0.1,0.5,0,0,0-0.1c0-0.1,0-0.3,0-0.4
			c0-0.4,0-0.7,0-1.1c0-0.4,0-0.7,0.1-1.1c0-0.2,0-0.4,0.1-0.6c0-0.1,0-0.2,0-0.4c0,0.4,0,0,0-0.1c0.1-0.8-0.2-1.6-1-1.8
			C198.4,387.8,197.4,388.2,197.2,389.1L197.2,389.1z"/>
	</g>
</g>
<g>
	<g>
		<path d="M114.8,183.1c0,1,0.3,2,0.6,2.9c0.3,1,0.2,2.3,1.3,2.9c2.4,1.2,2.6-2,3.3-3.4c0.3-0.7,0.2-1.6-0.5-2.1
			c-0.7-0.4-1.7-0.2-2.1,0.5c-0.3,0.6-0.5,1.2-0.7,1.8c-0.1,0.3-0.1,0.5-0.2,0.8c-0.2,0.6-0.1,0,0.3-0.2c0.3-0.1,0.5-0.1,0.8-0.2
			c0,0,0,0-0.1,0c0.3,0.1,0.5,0.1,0.8,0.2c0.1,0.1,0.3,0.4,0.1,0c0.1,0.3,0.1,0.5,0.2,0.8c0-1.4-0.8-2.6-0.8-4
			C117.7,181.1,114.7,181.1,114.8,183.1L114.8,183.1z"/>
	</g>
</g>
<g>
	<g>
		<path d="M184.8,148.9c0.9,0.9,2.2,1.8,3.5,1c1.4-0.8,1-2.5,0.4-3.7c-0.4-0.7-1.4-0.9-2.1-0.5c-0.7,0.4-0.9,1.3-0.5,2.1
			c0.1,0.2,0.1,0.2,0,0c0,0.1,0.1,0.2,0.1,0.4c-0.1-0.4,0-0.1,0,0c0-0.3,0.1-0.5,0.3-0.7c0.3-0.3,0.6-0.4,1-0.3
			c-0.3-0.1,0.3,0.2,0,0c0,0-0.4-0.2-0.2-0.1c-0.1-0.1-0.3-0.2-0.4-0.4c-0.6-0.6-1.5-0.6-2.1,0C184.3,147.4,184.2,148.3,184.8,148.9
			L184.8,148.9z"/>
	</g>
</g>
<g>
	<g>
		<path d="M-34.4-259.3c2.1,16,1.8,32.1,3.5,48.1c1,9.2,0.5,18.5,1.9,27.7c1.1,6.9,3.9,11.5,11.2,11.9c9,0.5,18.6-2.4,27.3-4.4
			c12.2-2.8,24.4-3.2,36.9-3.4c9.8-0.2,19.6-1.3,29.3-2.8c5-0.8,15.6-1.6,17.5-7.5c2.1-6.5-1.2-15.8-2.7-22.1
			c-1.7-6.7-3.7-13.3-5.4-19.9c-2.8-10.7-7.4-20.6-10.8-31.1c-1.9-6-1.1-14.4-5.1-19.4c-4.9-6-15.1-5.9-22-5.7
			c-20.1,0.8-39.7,8.6-59.4,12.1c-6.2,1.1-12.8,2-17.8,6.1c-5.4,4.5-4.9,12.6-4.1,18.9c0.3,1.9,3.2,1.1,2.9-0.8
			c-0.7-4.9-1.1-10.7,2.2-14.8c2.6-3.3,7.2-4.3,11.1-5.2c10.7-2.5,21.6-4.2,32.3-7c12.5-3.2,25.4-6.7,38.5-6.3
			c4.8,0.2,11.6,0.8,14.5,5.2c2.3,3.4,2.2,8.8,2.9,12.7c2.4,12.5,8.9,23.9,12,36.2c2.1,8.2,4.6,16.2,6.5,24.4
			c0.9,4.1,1.8,8.2,1.9,12.4c0.2,4.5-1.8,5.6-5.9,6.9c-7.9,2.5-16.4,2.9-24.6,4c-15.7,2.2-31.6,0.1-47.3,3.4
			c-10.3,2.2-22.7,7.1-33.2,4.9c-5.3-1.1-5.6-9.4-6-13.6c-0.5-5.5-0.4-11.1-0.6-16.6c-0.4-8.4-1.6-16.9-2-25.4
			c-0.5-9.6-0.9-19.3-2.1-28.9C-31.7-261.2-34.7-261.3-34.4-259.3L-34.4-259.3z"/>
	</g>
</g>
<g>
	<g>
		<path d="M5.6-276.9c0.2,7.5,3.6,14.8,6,21.8c2.2,6.3,6.2,15.7-0.8,20.1c-5.7,3.7-13.5,4.5-20,5.5c-6.2,0.9-12.5,1.4-18.5,3.1
			c-1.9,0.5-1.1,3.4,0.8,2.9c6.7-2,13.9-2.4,20.9-3.5c6.6-1,14.7-2.2,20.1-6.6c5-4.1,3.9-10.4,2.5-16.1c-2.3-9-7.6-17.9-7.9-27.3
			C8.5-278.9,5.5-278.9,5.6-276.9L5.6-276.9z"/>
	</g>
</g>
<g>
	<g>
		<path d="M-28.9-205.8c8.8-0.1,17.5-0.9,26.2-1.9c6.9-0.7,13.8-0.9,20.6-2.1c4.4-0.8,7,6,8.3,9.4c2,5.7,2.7,11.9,3.5,17.9
			c0.2,1.9,3.2,1.9,3,0c-0.8-6.7-1.7-13.4-4-19.8c-1.1-3.1-4-9.3-7.5-10.5c-1.3-0.4-2.7-0.2-4.1,0.1c-4.7,0.8-9.6,1-14.4,1.5
			c-10.5,1-21,2.4-31.6,2.5C-30.8-208.8-30.8-205.8-28.9-205.8L-28.9-205.8z"/>
	</g>
</g>
<g>
	<g>
		<path d="M48.6-182.5c-0.3-11.5-5.2-22.2-8.1-33.2c-0.3,0.6-0.7,1.2-1,1.8c12.9-5.1,26.5-9.3,40.4-10.3c1.9-0.1,1.9-3.1,0-3
			c-14.2,1-28,5.3-41.2,10.5c-0.8,0.3-1.3,1-1,1.8c2.8,10.7,7.7,21.2,7.9,32.4C45.6-180.6,48.6-180.6,48.6-182.5L48.6-182.5z"/>
	</g>
</g>
<g>
	<g>
		<path d="M21.6-280.1c-0.6,6.3,1.8,13.3,3.3,19.3c1.8,7.2,3.8,14.7,7.1,21.4c2.6,5.1,8.3,4.1,13.2,3.4c9-1.3,17.7-4.6,26.7-5.8
			c1.9-0.2,1.9-3.2,0-3c-7,0.9-13.8,3.1-20.6,4.6c-3.8,0.8-7.6,1.6-11.5,1.7c-3.1,0.1-4.2-0.4-5.5-3c-3.1-6.2-4.8-13.4-6.6-20.1
			c-1.5-5.7-3.7-12.5-3.2-18.5C24.8-282.1,21.8-282.1,21.6-280.1L21.6-280.1z"/>
	</g>
</g>
<g>
	<g>
		<path d="M78.3-224.2c1.1,0,2.1,0,3.2,0c1.9,0,1.9-3,0-3c-1.1,0-2.1,0-3.2,0C76.4-227.2,76.4-224.2,78.3-224.2L78.3-224.2z"/>
	</g>
</g>
<g>
	<g>
		<path d="M68.7-241.8c1.9,0,3.7,0,5.6,0c1.9,0,1.9-3,0-3c-1.9,0-3.7,0-5.6,0C66.8-244.8,66.8-241.8,68.7-241.8L68.7-241.8z"/>
	</g>
</g>
<g>
	<g>
		<path d="M78.3-246.4c-1.1,0-2.1,0-3.2,0c-1.9,0-1.9,3,0,3c1.1,0,2.1,0,3.2,0C80.2-243.4,80.2-246.4,78.3-246.4L78.3-246.4z"/>
	</g>
</g>
<g>
	<g>
		<path d="M22.9-282.9c6.3-15.2-12.6-31-26.9-24.5c-14.8,6.6,5.5,19.5,8.9,26.5c0.9,1.7,3.5,0.2,2.6-1.5c-2.5-5-16.5-13.8-13.6-19.8
			c1.3-2.8,6.4-3.6,9.1-3.8c3.4-0.2,6.7,1.3,9.6,3c6.5,4,10.4,12,7.4,19.4C19.3-282,22.2-281.2,22.9-282.9L22.9-282.9z"/>
	</g>
</g>
<g>
	<g>
		<path d="M9.9-305.1c2.9-0.5,5.7-3,8.1-4.6c4.6-3.2,9.1-6.5,13.8-9.7c5-3.4,10.1-6.6,15.6-9.3c4-1.9,9.8-4.5,14.2-2.4
			c5.1,2.4,4.3,10.8,3.9,15.3c-0.6,8-5.9,13.2-13.1,16c-10,3.9-24.4,3.8-29.2,15.2c-0.7,1.8,2.2,2.6,2.9,0.8
			c2.8-6.6,10.5-8.4,16.7-10.1c6.1-1.6,12.8-3.1,17.9-7c5.8-4.6,7.6-11.1,8-18.2c0.2-5-0.5-10.8-4.8-14c-7.9-6-22,3.6-28.5,7.7
			c-5.5,3.5-10.8,7.3-16.1,11.1c-2.8,2-6.7,5.7-10.3,6.3C7.2-307.7,8-304.8,9.9-305.1L9.9-305.1z"/>
	</g>
</g>
<g>
	<g>
		<path d="M-4.4-304.9c-6.5-9.1-17.6-16-27.1-21.4c-6.5-3.7-21.3-11.8-26.9-2.7c-3,4.9-0.9,12.6,0.8,17.5c2.5,7.2,7.8,12.9,14,17.3
			c13.4,9.5,31.5,12.4,47.5,12.5c1.9,0,1.9-3,0-3c-14-0.1-28.6-2.5-41.1-9.1c-6.5-3.4-12.1-8.3-15.7-14.7c-2.8-4.8-5.6-13.5-2.9-19
			c4-7.9,20.9,2.6,25.3,5.3c8.2,4.9,17.9,11,23.5,18.9C-5.9-301.8-3.3-303.3-4.4-304.9L-4.4-304.9z"/>
	</g>
</g>
<g>
	<g>
		<path d="M821.1,562.5c-1.1,30,21,54.1,49.2,61.5c12,3.2,25.3,3,36.7-2.3c11.7-5.5,18.5-16.8,20.3-29.3
			c3.9-27.2-10.9-53.6-38.4-59.5c-26.8-5.7-55.5,8.4-69,31.8c-1,1.7,1.6,3.2,2.6,1.5c16.7-28.9,60.9-43.8,87.8-19.5
			c13.2,11.9,17.2,32.4,13.4,49.2c-3,13.3-13,22.7-26,25.9c-16.5,4-34.6-1.4-48.3-10.7c-16.2-11-25.9-29-25.1-48.7
			C824.2,560.6,821.2,560.6,821.1,562.5L821.1,562.5z"/>
	</g>
</g>
<g>
	<g>
		<path d="M855.2,618.1c-19.4,6.4-34.9,24.2-44.3,41.7c-8.9,16.5-11.9,36.1,0.9,51.4c12.1,14.4,32.9,20.7,50.9,22.4
			c17.1,1.6,34.5-2.7,50.4-8.5c12.8-4.6,26.3-10.9,35.3-21.4c3.1-3.6,6-8.4,6.2-13.3c0.2-5.1-1.5-10.4-3.1-15.2
			c-4.3-13.3-10.8-26.1-18.1-38.1c-4.5-7.4-11.3-19.7-20.5-22.1c-1.9-0.5-2.7,2.4-0.8,2.9c6,1.6,10.7,8.9,14,13.5
			c5.5,7.7,10.1,16,14.2,24.5c4,8.1,7.5,16.6,9.9,25.4c2.1,7.8,1.4,13.7-3.9,20.2c-12.1,14.7-34,21.6-51.7,26
			c-18.1,4.5-36.2,4.2-54-1.7c-10.4-3.5-20.4-9.2-27.5-17.7c-7.8-9.3-8.5-21.4-5.5-32.7c3.3-12.4,10.7-23.7,19.1-33.3
			c7.8-9,17.7-17.5,29.3-21.2C857.8,620.4,857,617.5,855.2,618.1L855.2,618.1z"/>
	</g>
</g>
<g>
	<g>
		<path d="M893.1,731.6c-2.6,13.3-4.4,26.9-5.2,40.4c-0.4,7-0.6,14.1,0.5,21c0.6,4.2,1.6,9.3,5.1,12c1.5,1.2,3.6-0.9,2.1-2.1
			c-3.7-2.9-4.2-8.9-4.6-13.2c-0.7-6.7-0.4-13.5,0.1-20.2c0.8-12.5,2.5-25,4.9-37.2C896.4,730.6,893.5,729.7,893.1,731.6
			L893.1,731.6z"/>
	</g>
</g>
<g>
	<g>
		<path d="M895.4,809.8c4.1-2.6,8.5-4.3,13.1-5.8c1.8-0.6,1-3.5-0.8-2.9c-4.8,1.6-9.6,3.4-13.9,6.2
			C892.2,808.3,893.7,810.9,895.4,809.8L895.4,809.8z"/>
	</g>
</g>
<g>
	<g>
		<path d="M852.8,735.8c-11.1,24-20.6,49.3-25.6,75.4c-0.4,1.9,2.5,2.7,2.9,0.8c5-25.8,14.3-50.9,25.3-74.6
			C856.2,735.6,853.6,734,852.8,735.8L852.8,735.8z"/>
	</g>
</g>
<g>
	<g>
		<path d="M802.7,805.5c7.6,1.5,15.2,3.2,22.5,6c1.8,0.7,2.6-2.2,0.8-2.9c-7.3-2.8-14.9-4.5-22.5-6
			C801.6,802.2,800.8,805.1,802.7,805.5L802.7,805.5z"/>
	</g>
</g>
<g>
	<g>
		<path d="M945.5,660.4c9-23.5,23.7-44.8,22.6-70.9c-0.1-1.9-3.1-1.9-3,0c1.1,25.8-13.6,46.9-22.4,70.1
			C942,661.5,944.9,662.2,945.5,660.4L945.5,660.4z"/>
	</g>
</g>
<g>
	<g>
		<path d="M802.9,672.8c-14.2-26.8-29.7-53.6-51.2-75.3c-1.4-1.4-3.5,0.7-2.1,2.1c21.3,21.5,36.7,48.1,50.8,74.7
			C801.2,676,803.8,674.5,802.9,672.8L802.9,672.8z"/>
	</g>
</g>
<g>
	<g>
		<path d="M749.2,602.6c-1.8,5.2-4.4,10.1-7.3,14.6c-1.1,1.6,1.5,3.1,2.6,1.5c3.1-4.8,5.8-9.9,7.7-15.4
			C752.7,601.6,749.8,600.8,749.2,602.6L749.2,602.6z"/>
	</g>
</g>
<g>
	<g>
		<path d="M753.6,603c0-2.8,0.1-5.6,1.3-8.2c0.8-1.7-1.8-3.3-2.6-1.5c-1.5,3.1-1.7,6.3-1.7,9.8C750.6,605,753.6,605,753.6,603
			L753.6,603z"/>
	</g>
</g>
<g>
	<g>
		<path d="M751.3,605.8c4,1.7,8.3,0.3,12-1.5c1.7-0.8,0.2-3.4-1.5-2.6c-2.6,1.2-6.2,2.7-9,1.5C751.1,602.5,749.6,605.1,751.3,605.8
			L751.3,605.8z"/>
	</g>
</g>
<g>
	<g>
		<path d="M746,607.1c-1.6-4.5-4.6-7.8-7.9-11.2c-1.4-1.4-3.5,0.8-2.1,2.1c2.9,2.9,5.7,5.9,7.1,9.8C743.8,609.8,746.7,609,746,607.1
			L746,607.1z"/>
	</g>
</g>
<g>
	<g>
		<path d="M963.2,595.1c1.5-1.4,3.9-1.9,5.7-2.8c1.7-0.8,0.2-3.4-1.5-2.6c-2.1,1-4.5,1.6-6.3,3.2
			C959.6,594.3,961.8,596.4,963.2,595.1L963.2,595.1z"/>
	</g>
</g>
<g>
	<g>
		<path d="M966.4,591.8c-1.7-3.4-3.6-6.6-6.2-9.3c-1.4-1.4-3.5,0.7-2.1,2.1c2.5,2.6,4.2,5.5,5.8,8.7
			C964.7,595,967.2,593.5,966.4,591.8L966.4,591.8z"/>
	</g>
</g>
<g>
	<g>
		<path d="M960.6,594c-2.5,0-5.1,0.2-7.1,1.9c-1.4,1.3,0.7,3.4,2.1,2.1c1.3-1.1,3.3-1.1,4.9-1.1C962.5,597,962.5,594,960.6,594
			L960.6,594z"/>
	</g>
</g>
<g>
	<g>
		<path d="M961.3,598.3c4.5-2.9,9.6-4.2,14.6-5.8c1.8-0.6,1-3.5-0.8-2.9c-5.3,1.7-10.6,3.2-15.4,6.2
			C958.2,596.8,959.7,599.4,961.3,598.3L961.3,598.3z"/>
	</g>
</g>
<g>
	<g>
		<path d="M961.3,595.3c4.7-3.3,7.9-7.8,11-12.5c1.1-1.6-1.5-3.1-2.6-1.5c-2.8,4.2-5.7,8.5-10,11.5
			C958.3,593.8,959.8,596.4,961.3,595.3L961.3,595.3z"/>
	</g>
</g>
<g>
	<g>
		<path d="M824.1,556.5c-1.6-22.2,16.9-39.9,32.6-52.9c8.7-7.1,18-13.5,27.5-19.6c9.9-6.4,19.6-13.2,30.2-18.2
			c26.5-12.4,56.7-12.9,84-2.9c22.6,8.4,44.6,24.6,59,44c6.1,8.2,10.7,17.4,14,27c4,11.7,5,24,7.6,36c5.9,26.9,16,53.1,15,81
			c0.9-0.4,1.7-0.7,2.6-1.1c-36-33.6-48.3-84.7-85.7-117.2c-13.4-11.6-29.2-20-46.2-24.9c-15.5-4.4-33.7-5.7-47.9,3.3
			c-8.1,5.1-13.2,13.5-16.2,22.5c-0.6,1.8,2.3,2.6,2.9,0.8c14-41.6,65.8-26.6,93.2-8.7c41.5,27.1,55.2,76.8,85.6,113.5
			c3.8,4.6,7.9,8.8,12.2,12.9c1,0.9,2.5,0.3,2.6-1.1c1.1-30-10.4-58.2-16.2-87.1c-2.6-12.7-4-25-8.9-37.1
			c-3.9-9.7-9.5-18.6-16.2-26.7c-14.5-17.6-35.4-31.7-56.5-39.9c-25.1-9.7-53.1-9.4-78.3-0.2c-12.8,4.7-23.9,12.2-35.3,19.6
			c-10.3,6.6-20.4,13.5-30,21.2c-16.8,13.4-36.2,32.5-34.6,55.8C821.2,558.5,824.2,558.5,824.1,556.5L824.1,556.5z"/>
	</g>
</g>
<g>
	<g>
		<path d="M1090,647c-3.4,3.7-5.6,8.3-9,12c-0.6,0.7-0.6,1.9,0.3,2.4c3.7,1.8,7.5,3.2,11.4,4.4c1.5,0.5,5.4,2.6,6.9,1.5
			c3.5-2.7,4.7-7.4,7.5-10.6c0.6-0.6,0.7-2-0.3-2.4c-4.1-1.7-5.8-5.6-8.7-8.8c-1.3-1.4-3.4,0.7-2.1,2.1c3.1,3.4,4.9,7.4,9.3,9.2
			c-0.1-0.8-0.2-1.6-0.3-2.4c-2,2.4-3.4,5.3-5.1,7.9c-1.8,2.8-3.5,1.4-6.4,0.5c-3.7-1.1-7.2-2.5-10.7-4.1c0.1,0.8,0.2,1.6,0.3,2.4
			c3.4-3.7,5.6-8.3,9-12C1093.5,647.7,1091.3,645.6,1090,647L1090,647z"/>
	</g>
</g>
<g>
	<g>
		<path d="M811.4,664.3c21.2-14,44.3-24.3,67.5-34.5c1.8-0.8,0.2-3.4-1.5-2.6c-23.2,10.2-46.3,20.5-67.5,34.5
			C808.2,662.8,809.7,665.4,811.4,664.3L811.4,664.3z"/>
	</g>
</g>
<g>
	<g>
		<path d="M805,690c41.2-16.8,83.2-31.9,123.4-51.1c1.7-0.8,0.2-3.4-1.5-2.6c-39.9,19.2-81.6,34.2-122.6,50.8
			C802.4,687.8,803.2,690.7,805,690L805,690z"/>
	</g>
</g>
<g>
	<g>
		<path d="M815.5,714c42.2-15.3,79.6-43.2,124.5-51c1.9-0.3,1.1-3.2-0.8-2.9c-44.9,7.8-82.2,35.7-124.5,51
			C812.9,711.7,813.7,714.6,815.5,714L815.5,714z"/>
	</g>
</g>
<g>
	<g>
		<path d="M844.4,731.8c33.2-17.2,70-25.4,104.6-38.8c1.8-0.7,1-3.6-0.8-2.9c-34.9,13.6-72,21.8-105.4,39.1
			C841.1,730.1,842.6,732.7,844.4,731.8L844.4,731.8z"/>
	</g>
</g>
<g>
	<g>
		<path d="M834.2,724.1c32.1-25.9,73.1-31.6,111.8-41.6c1.9-0.5,1.1-3.4-0.8-2.9c-39.4,10.1-80.5,16.1-113.2,42.4
			C830.5,723.2,832.7,725.3,834.2,724.1L834.2,724.1z"/>
	</g>
</g>
<g>
	<g>
		<path d="M827.2,569.6c-6.2,31.1,51.1,54.3,61.5,20.9c4.3-13.8-9.8-25.3-20.5-30.6c-11.5-5.7-28.5-9.3-39.2-0.3
			c-2.2,1.8-3.7,4.3-4.7,7c-0.7,1.8,2.2,2.6,2.9,0.8c5.3-12.7,22.1-11,32.7-7.6c11,3.5,25.5,12.2,26.5,25c0.5,6.8-4.2,12.8-9.8,16.1
			c-6.5,3.8-14.6,3.2-21.6,1.3c-13.5-3.8-28-16.4-24.9-31.8C830.4,568.6,827.5,567.8,827.2,569.6L827.2,569.6z"/>
	</g>
</g>
<g>
	<g>
		<path d="M894.6,557.7c-2.2,6.9-2.9,15-0.6,21.9c2.4,7.2,10.2,9.3,16.8,6.1c7.2-3.5,8.3-11.4,5.4-18.4
			c-3.1-7.5-10.5-12.7-18.7-12.2c-1.9,0.1-1.9,3.1,0,3c6.9-0.4,12.4,3.6,15.6,9.5c3.1,5.8,2.2,13.1-4.4,15.7
			c-15.2,6-13.9-16.4-11.2-24.8C898.1,556.6,895.2,555.8,894.6,557.7L894.6,557.7z"/>
	</g>
</g>
<g>
	<g>
		<path d="M869.5,613.5c16.8-4.5,33.9-7.4,51-10.5c1.9-0.3,1.1-3.2-0.8-2.9c-17.1,3.1-34.2,6-51,10.5
			C866.8,611.1,867.6,614,869.5,613.5L869.5,613.5z"/>
	</g>
</g>
<g>
	<g>
		<path d="M856.4,587.8c0.5-0.2,0.9-0.5,1.4-0.8c0.2-0.1,0.9-0.4,0.3-0.2c-0.6,0.2-1.2-0.2-1.5-0.6c0.1,0.1,0.1,0.2,0.2,0.2
			c0.2,0.4,0.5,0.7,0.9,1.1c1.4,1.4,3.5-0.7,2.1-2.1c-0.1-0.1-0.5-0.6-0.2-0.2c-0.1-0.1-0.2-0.2-0.2-0.4c-0.4-0.6-0.8-0.9-1.5-0.9
			c-0.4,0-0.8,0.2-1.2,0.4c-0.5,0.3-1.1,0.6-1.6,0.9c-0.7,0.4-0.9,1.4-0.5,2.1C854.7,588,855.6,588.2,856.4,587.8L856.4,587.8z"/>
	</g>
</g>
<g>
	<g>
		<path d="M908.1,576c1.9,0,1.9-3,0-3S906.2,576,908.1,576L908.1,576z"/>
	</g>
</g>
<g>
	<g>
		<path d="M908.1,576c1.9,0,1.9-3,0-3S906.2,576,908.1,576L908.1,576z"/>
	</g>
</g>
<g>
	<g>
		<path d="M906.6,576c1.9,0,1.9-3,0-3S904.7,576,906.6,576L906.6,576z"/>
	</g>
</g>
<g>
	<g>
		<path d="M906.6,576c1.9,0,1.9-3,0-3S904.7,576,906.6,576L906.6,576z"/>
	</g>
</g>
<g>
	<g>
		<path d="M906.6,576c1.9,0,1.9-3,0-3S904.7,576,906.6,576L906.6,576z"/>
	</g>
</g>
<g>
	<g>
		<path d="M-368.4,492.6c-27.7,1.2-54.6,13.2-64.1,40.9c-7.8,23-1.4,49.7,12.4,69.1c14.6,20.4,38.5,31.4,63.4,26
			c17.4-3.8,36-14.9,43.1-31.8c7.6-18.1-3.3-38.4-12.1-53.8c-3.1-5.3-6.5-10.5-9.2-16c-2.8-5.7-5-11.6-7.9-17.2
			c-5-9.8-12.4-18.4-24.1-18.7c-1.9,0-1.9,3,0,3c20.6,0.5,24.3,27.5,33.2,41.3c10.5,16.3,24.1,38.4,18,58.5
			c-5.7,18.8-28.4,30-46.6,32.7c-12.8,1.9-25.8-1.2-36.7-8c-21.3-13.3-33.6-39.4-33.7-64.1c-0.1-12.3,3.4-24.4,10.5-34.5
			c8.2-11.6,21.2-18.5,34.7-21.9c6.3-1.6,12.8-2.3,19.2-2.6C-366.5,495.5-366.5,492.5-368.4,492.6L-368.4,492.6z"/>
	</g>
</g>
<g>
	<g>
		<path d="M-422.4,515.1c0-33.9,3.5-72,22-101.3c9.6-15.1,24.4-25.1,42.4-26.2c19.1-1.1,33,9.9,41.3,26.3
			c12.4,24.4,13.1,52.8,18.8,79.1c1-0.3,1.9-0.5,2.9-0.8c-9.1-23.1-31-46.8-58.2-43.3c-8.7,1.1-15.1,7.2-16.8,15.8
			c-2.2,10.7,3,21.9,9.3,30.2c1.2,1.5,3.8,0,2.6-1.5c-5.6-7.3-9.6-16-9.3-25.3c0.3-9.6,7.4-15.6,16.6-16.4
			c24.9-2.1,44.7,20.3,53,41.3c0.7,1.8,3.3,1.1,2.9-0.8c-3.6-16.8-5.3-33.9-9.2-50.6c-3.7-16.2-9.3-33.5-21.5-45.4
			c-11.9-11.8-29.5-13.7-45.1-9.4c-15.5,4.3-27.1,16.3-34.9,29.9c-16.6,29-19.8,65.7-19.8,98.4C-425.4,517-422.4,517-422.4,515.1
			L-422.4,515.1z"/>
	</g>
</g>
<g>
	<g>
		<path d="M-301.3,488.1c-7.5,3.1-14.4,7.9-13,16.8c0.1,0.7,0.8,1.1,1.4,1.1c4.5,0.1,8.9,1.4,13.5,1.5c-0.5-0.6-1-1.3-1.4-1.9
			c-0.5,1.8-3.7,4.5-0.8,6.2c2.9,1.7,7.1,2.3,10.4,2.7c4.2,0.5,9.1-0.4,11.5-4.3c2.1-3.5,0.5-7.9-1.6-10.9
			c-3.7-5.3-10.1-8.2-16.1-9.8c-1.9-0.5-2.7,2.4-0.8,2.9c6.1,1.6,17.7,6.6,16.5,14.8c-0.5,3.3-4.1,4.2-6.9,4.3
			c-2.4,0.1-4.8-0.4-7.1-1c-0.8-0.2-4.4-0.6-3.2-2.1c0.6-0.7,0.9-1.3,1.1-2.2c0.3-1-0.5-1.9-1.4-1.9c-4.6-0.1-9-1.4-13.5-1.5
			c0.5,0.4,1,0.7,1.4,1.1c-1.1-7.1,5.3-10.8,11-13.2C-298.8,490.3-299.5,487.4-301.3,488.1L-301.3,488.1z"/>
	</g>
</g>
<g>
	<g>
		<path d="M-425.2,529.3c-6.9,9.7-6.6,23.1,3.1,30.8c10,8,24.2,2.4,31.7-6.3c6.9-8,3.6-18.2-3.7-24.4c-8.8-7.5-21.8-8.8-32-3.6
			c-1.7,0.9-0.2,3.5,1.5,2.6c8.5-4.3,18.2-3.3,26.2,1.6c7.1,4.3,11.5,12.6,6.9,20.3c-5.3,9.1-18.8,13.8-27.9,8.1
			c-9.7-6-9.1-19.2-3.2-27.5C-421.5,529.2-424.1,527.7-425.2,529.3L-425.2,529.3z"/>
	</g>
</g>
<g>
	<g>
		<path d="M-375.5,527.5c-9.1,10.5-11.4,24,0.7,33c9.6,7.2,25.8,8.3,35.4,0.5c10.9-8.9,11.7-25.6,0.1-34.2
			c-11.1-8.1-28.5-10.1-40.4-2.6c-1.6,1-0.1,3.6,1.5,2.6c10.1-6.4,24.1-5.1,34.3,0.5c12,6.7,13.3,21.8,3,31
			c-8.1,7.2-21.5,5.9-30.3,0.9c-4.5-2.5-8-6.6-9.1-11.7c-1.5-6.7,2.8-13.2,6.9-18C-372.1,528.2-374.2,526-375.5,527.5L-375.5,527.5z
			"/>
	</g>
</g>
<g>
	<g>
		<path d="M-396.5,609.5c29-7.8,56.4-20.7,82.9-34.7c1.7-0.9,0.2-3.5-1.5-2.6c-26.3,13.9-53.3,26.6-82.1,34.3
			C-399.2,607.1-398.4,610-396.5,609.5L-396.5,609.5z"/>
	</g>
</g>
<g>
	<g>
		<path d="M-408.9,546.6c1.9,0,1.9-3,0-3S-410.8,546.6-408.9,546.6L-408.9,546.6z"/>
	</g>
</g>
<g>
	<g>
		<path d="M-408.9,546.6c1.9,0,1.9-3,0-3S-410.8,546.6-408.9,546.6L-408.9,546.6z"/>
	</g>
</g>
<g>
	<g>
		<path d="M-351.9,551.1c1.9,0,1.9-3,0-3S-353.8,551.1-351.9,551.1L-351.9,551.1z"/>
	</g>
</g>
<g>
	<g>
		<path d="M-351.9,551.1c1.9,0,1.9-3,0-3S-353.8,551.1-351.9,551.1L-351.9,551.1z"/>
	</g>
</g>
<g>
	<g>
		<path d="M-366.7,629.8c-12.4,22.1-10.7,49-9.2,73.4c0.8,12.5,2,25.1,1.2,37.6c-0.6,9.2-2.2,20,4.3,27.5c4.6,5.2,11.9,4.5,18.1,3.8
			c9.4-1,18.7-3.2,27.8-5.5c14-3.5,30.3-6.8,40.7-17.5c18.8-19.4,14.8-52.9,9.3-76.7c-6.3-27.2-18-56.8-37.4-77.3
			c-1.3-1.4-3.4,0.7-2.1,2.1c11.2,11.9,19.1,26.9,25.5,41.8c7.6,17.7,12.9,36.6,14.8,55.7c1.6,15.9,0.7,33.6-8.2,47.3
			c-8.7,13.4-25.3,16.9-39.8,20.8c-11.9,3.2-24.5,6.5-36.9,6.7c-17.3,0.4-13.3-21.4-12.8-32.8c1.5-34.6-10.7-73.3,7.3-105.4
			C-363.2,629.6-365.8,628.1-366.7,629.8L-366.7,629.8z"/>
	</g>
</g>
<g>
	<g>
		<path d="M-371,750.1c6,5.9,13.1,10.3,19.8,15.2c1.6,1.2,3.1-1.5,1.5-2.6c-6.5-4.8-13.4-9.1-19.2-14.8
			C-370.2,746.6-372.4,748.7-371,750.1L-371,750.1z"/>
	</g>
</g>
<g>
	<g>
		<path d="M-371.2,718.3c11.5,15.4,28.4,25.8,39,42c1.1,1.6,3.7,0.1,2.6-1.5c-10.6-16.2-27.5-26.6-39-42
			C-369.8,715.3-372.4,716.7-371.2,718.3L-371.2,718.3z"/>
	</g>
</g>
<g>
	<g>
		<path d="M-374.2,679.3c13.4,29.6,36.9,53.3,55.5,79.5c1.1,1.6,3.7,0.1,2.6-1.5c-18.6-26.2-42.1-49.9-55.5-79.5
			C-372.4,676-375,677.6-374.2,679.3L-374.2,679.3z"/>
	</g>
</g>
<g>
	<g>
		<path d="M-374.2,653.8c17,40,50.5,71.2,78.2,103.8c1.3,1.5,3.4-0.7,2.1-2.1c-27.6-32.4-60.9-63.4-77.8-103.2
			C-372.4,650.5-374.9,652-374.2,653.8L-374.2,653.8z"/>
	</g>
</g>
<g>
	<g>
		<path d="M-369.9,639.9c5.7,20.8,21.4,38.3,36.5,53.1c16.3,16,34.7,30.5,54.2,42.3c1.7,1,3.2-1.6,1.5-2.6
			c-18.6-11.2-35.8-24.8-51.5-39.8c-15.5-14.8-32-32.6-37.8-53.8C-367.5,637.3-370.4,638.1-369.9,639.9L-369.9,639.9z"/>
	</g>
</g>
<g>
	<g>
		<path d="M-356.2,628.3c19.5,32.1,48.6,57.9,78.5,80c1.6,1.2,3.1-1.5,1.5-2.6c-29.5-21.8-58.3-47.3-77.5-79
			C-354.6,625.1-357.2,626.6-356.2,628.3L-356.2,628.3z"/>
	</g>
</g>
<g>
	<g>
		<path d="M-342.5,627.1c8.6,11,17.8,21.3,28.5,30.4c10.4,8.8,22,16.3,33.3,23.9c1.6,1.1,3.1-1.5,1.5-2.6
			c-11.1-7.4-22.4-14.8-32.7-23.4c-10.7-8.9-19.9-19.4-28.5-30.4C-341.5,623.5-343.6,625.6-342.5,627.1L-342.5,627.1z"/>
	</g>
</g>
<g>
	<g>
		<path d="M-326,618.1c12.3,10.9,21.6,25.5,38.2,30.4c1.9,0.5,2.6-2.3,0.8-2.9c-15.9-4.7-25-19.1-36.8-29.6
			C-325.3,614.7-327.4,616.8-326,618.1L-326,618.1z"/>
	</g>
</g>
<g>
	<g>
		<path d="M-345.9,773.4c5.7,19.4,4.5,39.6,4.4,59.6c0,1.9,3,1.9,3,0c0-20.3,1.3-40.7-4.6-60.4
			C-343.5,770.8-346.4,771.6-345.9,773.4L-345.9,773.4z"/>
	</g>
</g>
<g>
	<g>
		<path d="M-338.4,834.5c-6.5,0-13,0-19.5,0c-1.9,0-1.9,3,0,3c6.5,0,13,0,19.5,0C-336.5,837.5-336.5,834.5-338.4,834.5L-338.4,834.5
			z"/>
	</g>
</g>
<g>
	<g>
		<path d="M-300.9,762.9c5.9,22.8,5.9,47.1,15,69c0.7,1.8,3.6,1,2.9-0.8c-9.1-21.9-9.1-46.2-15-69
			C-298.4,760.3-301.3,761.1-300.9,762.9L-300.9,762.9z"/>
	</g>
</g>
<g>
	<g>
		<path d="M-284.4,833c-6,0.2-11.3,2.6-16.9,4.6c-1.8,0.6-1,3.5,0.8,2.9c5.3-1.8,10.4-4.3,16.1-4.4C-282.5,836-282.5,833-284.4,833
			L-284.4,833z"/>
	</g>
</g>
<g>
	<g>
		<path d="M-380.8,678.6c-27.7,6.6-40.8,34.3-57.7,54.4c-1.2,1.5,0.9,3.6,2.1,2.1c16.4-19.6,29.3-47.2,56.3-53.6
			C-378.1,681-378.9,678.1-380.8,678.6L-380.8,678.6z"/>
	</g>
</g>
<g>
	<g>
		<path d="M-282.2,655.8c33.9,20.3,54.6,55.9,76,88c1.1,1.6,3.7,0.1,2.6-1.5c-21.6-32.5-42.7-68.4-77-89
			C-282.3,652.3-283.8,654.8-282.2,655.8L-282.2,655.8z"/>
	</g>
</g>
<g>
	<g>
		<path d="M-212.4,744.5c-0.1,3.8-1.4,6.7-4.1,9.4c-1.4,1.4,0.8,3.5,2.1,2.1c3.2-3.3,4.9-7,4.9-11.6
			C-209.4,742.6-212.4,742.6-212.4,744.5L-212.4,744.5z"/>
	</g>
</g>
<g>
	<g>
		<path d="M-210.7,742.3c3,4.3,7.1,7.2,10.7,10.8c1.4,1.4,3.5-0.8,2.1-2.1c-3.5-3.4-7.5-6.2-10.3-10.2
			C-209.2,739.2-211.8,740.7-210.7,742.3L-210.7,742.3z"/>
	</g>
</g>
<g>
	<g>
		<path d="M-209.4,744.5c4.1-0.1,7.6-1.4,11.3-3.2c1.7-0.9,0.2-3.5-1.5-2.6c-3.2,1.6-6.2,2.7-9.7,2.8
			C-211.3,741.6-211.3,744.6-209.4,744.5L-209.4,744.5z"/>
	</g>
</g>
<g>
	<g>
		<path d="M-432.9,732.5c0.1,4.1,1.4,7.6,3.2,11.3c0.9,1.7,3.5,0.2,2.6-1.5c-1.6-3.2-2.7-6.2-2.8-9.7
			C-429.9,730.6-432.9,730.6-432.9,732.5L-432.9,732.5z"/>
	</g>
</g>
<g>
	<g>
		<path d="M-437.4,734c-4.9,0.1-9.5,1.6-13.1,4.9c-1.4,1.3,0.7,3.4,2.1,2.1c3-2.8,6.9-4,10.9-4.1C-435.5,737-435.5,734-437.4,734
			L-437.4,734z"/>
	</g>
</g>
<g>
	<g>
		<path d="M-438.9,732.5c0-4.2-0.5-8.3-3.4-11.6c-1.3-1.4-3.4,0.7-2.1,2.1c2.4,2.6,2.6,6.1,2.6,9.4
			C-441.9,734.5-438.9,734.5-438.9,732.5L-438.9,732.5z"/>
	</g>
</g>
<g>
	<g>
		<path d="M-207.9,740c0-2.5,0-5,0-7.5c0-1.9-3-1.9-3,0c0,2.5,0,5,0,7.5C-210.9,742-207.9,742-207.9,740L-207.9,740z"/>
	</g>
</g>
<g>
	<g>
		<path d="M-438.9,735.5c0.1,3.5,1.7,6.7,3.2,9.8c0.9,1.7,3.5,0.2,2.6-1.5c-1.3-2.6-2.7-5.3-2.8-8.2
			C-436,733.6-439,733.6-438.9,735.5L-438.9,735.5z"/>
	</g>
</g>
<g>
	<g>
		<path d="M-404.2-149.7c-19,8.3-29.9,27.6-35.6,46.7c-5.2,17.8-7.6,39.5,2.8,55.8c9.7,15.2,28.4,21.4,45.6,22.6
			c17.5,1.2,38-2,51.5-14c19.4-17.3,21.6-48.1,15-71.7c-3.6-13-10.9-25.6-21.6-33.9c-14.1-10.9-34.2-8.7-50.6-13.2
			c-1.9-0.5-2.7,2.4-0.8,2.9c11.9,3.3,24.3,3.4,36.2,6.5c11.9,3.1,20.5,11.4,26.7,21.7c9.9,16.4,12.6,37.4,8.8,56
			c-3.9,19.2-15.9,34.2-35,39.6c-19,5.4-41.4,5-58.9-4.8c-9-5-15.7-13.1-18.9-22.9c-3.4-10.3-2.3-22-0.5-32.5
			c3.8-22.3,15-46.6,36.8-56.2C-400.9-147.9-402.4-150.5-404.2-149.7L-404.2-149.7z"/>
	</g>
</g>
<g>
	<g>
		<path d="M-411.3-28.4c-18.3,2.9-33,12.3-36.7,31.3c-3.7,19.3,1.2,41.9,12.2,58c10.8,15.9,28.4,25.3,46.8,29.3
			c19.3,4.2,41.7,3.5,59.7-5.3c21.7-10.6,23.9-33.9,18.3-55c-6.4-24.1-20.2-46.3-34.1-66.7c-1.1-1.6-3.7-0.1-2.6,1.5
			c9.4,13.8,18.1,28,25.2,43.1c6.9,14.7,13.3,31.9,11,48.5c-2.5,18.2-17.8,27.4-34.4,31.2c-21,4.8-45.4,1.9-64.5-8.1
			c-22.2-11.7-33.1-33.8-35.2-58.1c-0.9-10.8-0.1-22.2,5.9-31.5c6.4-9.8,18.3-13.7,29.2-15.4C-408.6-25.8-409.4-28.7-411.3-28.4
			L-411.3-28.4z"/>
	</g>
</g>
<g>
	<g>
		<path d="M-350.9,91.5c1.5,16.3,4.4,32.4,7.6,48.4c0.4,1.9,3.3,1.1,2.9-0.8c-3.1-15.8-5.9-31.6-7.4-47.6
			C-348.1,89.6-351.1,89.6-350.9,91.5L-350.9,91.5z"/>
	</g>
</g>
<g>
	<g>
		<path d="M-338.5,144c11.1-1.6,22.1-3.3,33-6c1.9-0.5,1.1-3.4-0.8-2.9c-10.9,2.7-21.9,4.4-33,6C-341.2,141.4-340.4,144.3-338.5,144
			L-338.5,144z"/>
	</g>
</g>
<g>
	<g>
		<path d="M-400.4,88.5c0,19.5,1.5,39,1.5,58.5c0,1.9,3,1.9,3,0c0-19.5-1.5-39-1.5-58.5C-397.4,86.6-400.4,86.6-400.4,88.5
			L-400.4,88.5z"/>
	</g>
</g>
<g>
	<g>
		<path d="M-398.9,145.5c-12.7,1.6-25.4,3-37.9,6.1c-1.9,0.5-1.1,3.3,0.8,2.9c12.2-3,24.7-4.4,37.1-5.9
			C-397,148.3-397,145.3-398.9,145.5L-398.9,145.5z"/>
	</g>
</g>
<g>
	<g>
		<path d="M-328-3.4c21.6,23.5,36.1,52.4,57,76.5c1.3,1.5,3.4-0.7,2.1-2.1c-20.9-24.1-35.3-53-57-76.5C-327.2-6.9-329.3-4.8-328-3.4
			L-328-3.4z"/>
	</g>
</g>
<g>
	<g>
		<path d="M-449.2-1.2c-30.5,21.8-42.5,58.7-54.7,92.4c-0.7,1.8,2.2,2.6,2.9,0.8c11.9-32.9,23.5-69.4,53.3-90.6
			C-446.1,0.2-447.6-2.4-449.2-1.2L-449.2-1.2z"/>
	</g>
</g>
<g>
	<g>
		<path d="M-501.7,92.8c2.2,1.1,4,2.5,5.7,4.3c1.4,1.4,3.5-0.8,2.1-2.1c-1.9-1.9-3.9-3.5-6.3-4.7C-501.9,89.4-503.4,92-501.7,92.8
			L-501.7,92.8z"/>
	</g>
</g>
<g>
	<g>
		<path d="M-505.4,94.5c-0.1,3.2-1.9,5.7-4.1,7.9c-1.3,1.4,0.8,3.5,2.1,2.1c2.7-2.8,4.8-6.1,4.9-10.1
			C-502.4,92.6-505.4,92.6-505.4,94.5L-505.4,94.5z"/>
	</g>
</g>
<g>
	<g>
		<path d="M-501.3,93.5c-3.2-3.1-6.9-5.7-10.8-7.7c-1.7-0.9-3.2,1.7-1.5,2.6c3.7,1.9,7.2,4.3,10.2,7.3
			C-502.1,97-500,94.8-501.3,93.5L-501.3,93.5z"/>
	</g>
</g>
<g>
	<g>
		<path d="M-503.9,94.5c4.9-0.1,8.8-2.1,12.8-4.7c1.6-1.1,0.1-3.7-1.5-2.6c-3.5,2.3-6.9,4.2-11.2,4.3
			C-505.8,91.6-505.8,94.6-503.9,94.5L-503.9,94.5z"/>
	</g>
</g>
<g>
	<g>
		<path d="M-274.2,69.8c-3.3,4.9-7.6,9-11.8,13.2c-1.4,1.4,0.8,3.5,2.1,2.1c4.4-4.4,8.7-8.7,12.2-13.8
			C-270.5,69.7-273.1,68.2-274.2,69.8L-274.2,69.8z"/>
	</g>
</g>
<g>
	<g>
		<path d="M-277.4,76.5c2.9,0.1,5,2.9,6.2,5.3c0.9,1.7,3.5,0.2,2.6-1.5c-1.7-3.3-4.8-6.6-8.8-6.7C-279.4,73.5-279.3,76.5-277.4,76.5
			L-277.4,76.5z"/>
	</g>
</g>
<g>
	<g>
		<path d="M-275.9,73.5c3.8-0.1,7.3-1.8,10.9-3.1c1.8-0.6,1-3.5-0.8-2.9c-3.2,1.1-6.6,2.8-10.1,2.9
			C-277.8,70.6-277.9,73.6-275.9,73.5L-275.9,73.5z"/>
	</g>
</g>
<g>
	<g>
		<path d="M-275.9,75c4.8-0.1,9.4-1.5,13.9-3.1c1.8-0.6,1-3.5-0.8-2.9c-4.3,1.4-8.6,2.8-13.1,2.9C-277.8,72.1-277.9,75.1-275.9,75
			L-275.9,75z"/>
	</g>
</g>
<g>
	<g>
		<path d="M-398.9-155.9c-4.9,0.1-9.5,1.6-13.1,4.9c-1.4,1.3,0.7,3.4,2.1,2.1c3-2.8,6.9-4,10.9-4.1C-397-153-397-156-398.9-155.9
			L-398.9-155.9z"/>
	</g>
</g>
<g>
	<g>
		<path d="M-343.4-139.4c5.9-44.7-30.4-86.4-67.6-105.7c-19.5-10.1-41.3-14-63-10c-18.7,3.4-34.6,14.3-45.7,29.6
			c-13.3,18.3-19,41.4-21.7,63.6c-0.2,1.6,2.1,1.9,2.8,0.8c6.1-10.3,13.6-19.7,24.6-25.1c11.4-5.7,24.9-5.2,37.2-3.9
			c13.4,1.4,24.4,7.8,33.9,17.2c8.9,8.8,16.7,18.3,26.7,25.9c1.5,1.2,3-1.4,1.5-2.6c-11-8.4-19.4-19.4-29.6-28.8
			c-10.1-9.3-22.1-13.8-35.7-15.1c-12.1-1.1-24.5-0.5-35.6,4.7c-11.4,5.3-19.4,15.7-25.7,26.2c0.9,0.3,1.9,0.5,2.8,0.8
			c2.5-20.7,7.9-41.6,19.3-59.2c11.4-17.6,29.1-28.6,49.7-31.7c47.9-7.2,95.7,28.3,115.5,70c6.4,13.5,9.4,28.6,7.4,43.4
			C-346.7-137.5-343.7-137.6-343.4-139.4L-343.4-139.4z"/>
	</g>
</g>
<g>
	<g>
		<path d="M-542.7-161.2c4.3,5.8,8.7,11.6,12,18c0.2-0.7,0.4-1.4,0.5-2.1c-4.6,2.3-9.1,4.8-13.5,7.5c0.7,0.2,1.4,0.4,2.1,0.5
			c-1.9-3.6-4.1-6.9-6-10.5c-0.3-0.6-1.1-0.9-1.7-0.7c-0.7,0.3-1.4,0.6-1.8,1.4c-0.2,0.3-0.3,0.7-0.5,1c-0.6,1.5,1.4,1.2-1.2-0.1
			c-5.1-2.5-10.1-5.1-14.9-8.2c-1.4-0.9-3.1,1.2-1.8,2.4c4.1,3.5,9.1,7.2,14.1,3.3c4.9-3.8,5.7-10.7,11.7-13.6
			c1.7-0.8,0.2-3.4-1.5-2.6c-4.1,2-6.5,5.7-8.8,9.5c-1.2,1.9-2.3,3.9-4.2,5.1c-2.9,1.8-7.2-2.2-9.1-3.9c-0.6,0.8-1.2,1.6-1.8,2.4
			c5.3,3.4,10.9,6.2,16.5,9c0.9,0.4,1.5,0.7,2.4,0.2c0.9-0.5,1.1-2.8,1.8-3c-0.6-0.2-1.1-0.5-1.7-0.7c1.9,3.6,4.1,6.9,6,10.5
			c0.4,0.7,1.4,0.9,2.1,0.5c4.4-2.7,8.9-5.2,13.5-7.5c0.8-0.4,0.9-1.4,0.5-2.1c-3.3-6.4-7.7-12.2-12-18
			C-541.3-164.2-543.9-162.7-542.7-161.2L-542.7-161.2z"/>
	</g>
</g>
<g>
	<g>
		<path d="M-424-113.5c-10.4,13-8.5,29.6,1.6,42.2c8.9,11.1,25.2,17.3,37.6,8c31.9-23.8-16.3-56.8-41.1-53.7c-1.9,0.2-1.9,3.2,0,3
			c21.4-2.7,64.5,22.3,41.9,46c-10.5,11-25.7,5.7-34.8-3.9c-10.3-10.9-12.6-27.5-3-39.5C-420.7-112.9-422.8-115-424-113.5
			L-424-113.5z"/>
	</g>
</g>
<g>
	<g>
		<path d="M-356.2-107.7c-16.6,8.2-8,37,10.2,35.3c9.9-0.9,15.3-8.6,12.5-17.9c-2.8-9.5-12-18.3-21.6-20.5c-1.9-0.4-2.7,2.5-0.8,2.9
			c7.9,1.8,14.2,8,18,15c1.8,3.3,2.8,7.1,1.9,10.8c-1.2,4.6-6.8,6.5-11,6.9c-15.1,1.4-20.8-23.4-7.7-29.8
			C-352.9-106-354.4-108.6-356.2-107.7L-356.2-107.7z"/>
	</g>
</g>
<g>
	<g>
		<path d="M-377.9-85.4c4.5,0,9,0,13.5,0c1.9,0,1.9-3,0-3c-4.5,0-9,0-13.5,0C-379.8-88.4-379.8-85.4-377.9-85.4L-377.9-85.4z"/>
	</g>
</g>
<g>
	<g>
		<path d="M-336-92.6c1.6-6,4.3-11.4,8.6-15.8c1.3-1.4-0.8-3.5-2.1-2.1c-4.6,4.8-7.7,10.7-9.4,17.2C-339.4-91.5-336.5-90.7-336-92.6
			L-336-92.6z"/>
	</g>
</g>
<g>
	<g>
		<path d="M-430.8-86.5c-3-3-6-6-9-9c-1.4-1.4-3.5,0.8-2.1,2.1c3,3,6,6,9,9C-431.6-83-429.5-85.1-430.8-86.5L-430.8-86.5z"/>
	</g>
</g>
<g>
	<g>
		<path d="M-419.9-43.5c26.2,0,52.9-1.3,78.4-7.6c1.9-0.5,1.1-3.4-0.8-2.9c-25.2,6.2-51.7,7.4-77.6,7.4
			C-421.8-46.4-421.8-43.4-419.9-43.5L-419.9-43.5z"/>
	</g>
</g>
<g>
	<g>
		<path d="M-400.4-82.4c1.9,0,1.9-3,0-3S-402.3-82.4-400.4-82.4L-400.4-82.4z"/>
	</g>
</g>
<g>
	<g>
		<path d="M-350.9-83.9c1.9,0,1.9-3,0-3S-352.8-83.9-350.9-83.9L-350.9-83.9z"/>
	</g>
</g>
<g>
	<g>
		<path d="M-441.7,37.3C-413.6,59-381,73.6-348.3,87c1.8,0.7,2.6-2.2,0.8-2.9c-32.4-13.3-64.8-27.8-92.6-49.3
			C-441.7,33.6-443.2,36.2-441.7,37.3L-441.7,37.3z"/>
	</g>
</g>
<g>
	<g>
		<path d="M-446.5,10.1c16.6,15.4,38.3,25.1,59,33.8c22.6,9.5,45.9,17.3,69.2,25c1.8,0.6,2.6-2.3,0.8-2.9
			c-21.9-7.3-43.7-14.6-65.1-23.3C-404.1,34-427.1,24-444.3,8C-445.8,6.7-447.9,8.8-446.5,10.1L-446.5,10.1z"/>
	</g>
</g>
<g>
	<g>
		<path d="M-439.8-13.5c40.3,9.6,74.3,37.1,115.9,42.1c1.9,0.2,1.9-2.8,0-3c-41.3-4.9-75.1-32.5-115.1-41.9
			C-440.9-16.8-441.7-14-439.8-13.5L-439.8-13.5z"/>
	</g>
</g>
<g>
	<g>
		<path d="M-392.2-25.7c18.4,11.4,40.3,15.1,60.4,22.6c1.8,0.7,2.6-2.2,0.8-2.9c-19.8-7.5-41.5-11.1-59.6-22.3
			C-392.3-29.3-393.8-26.7-392.2-25.7L-392.2-25.7z"/>
	</g>
</g>
</svg>
