<?xml version="1.0" encoding="utf-8"?>
<!-- Generator: Adobe Illustrator 16.0.0, SVG Export Plug-In . SVG Version: 6.00 Build 0)  -->
<!DOCTYPE svg PUBLIC "-//W3C//DTD SVG 1.1//EN" "http://www.w3.org/Graphics/SVG/1.1/DTD/svg11.dtd">
<svg version="1.1" id="Layer_1" xmlns="http://www.w3.org/2000/svg" xmlns:xlink="http://www.w3.org/1999/xlink" x="0px" y="0px"
	 width="372px" height="360.1px" viewBox="0 0 372 360.1" style="enable-background:new 0 0 372 360.1;" xml:space="preserve">
<g>
	<g>
		<path d="M933-121.2c8.9-7,14.3-16.5,18.7-26.8c4.6-10.5,7.6-21.2,8.1-32.6c0.9-23-11.5-43-28.9-57.1
			c-30.1-24.4-73.8-27.9-107.7-9.5c-1.7,0.9-0.2,3.5,1.5,2.6c32.4-17.6,72.8-14.2,102.3,7.6c17.7,13.1,29.7,32.4,29.9,54.7
			c0.1,11.4-3.2,22.4-7.7,32.8c-4.3,10-9.6,19.4-18.3,26.1C929.4-122.2,931.5-120.1,933-121.2L933-121.2z"/>
	</g>
</g>
<g>
	<g>
		<path d="M828.5-247.4c-32.2,3.9-34.9,45-33.4,70.1c1.1,17.8,5,38.1,15.7,52.8c9.4,13,25.1,20.1,40.4,23.1c1.9,0.4,2.7-2.5,0.8-2.9
			c-14.9-2.9-29.2-9.5-38.6-21.7c-10.4-13.4-13.8-33.2-15.2-49.6c-2-23.2-0.3-65.2,30.2-68.8C830.4-244.6,830.4-247.6,828.5-247.4
			L828.5-247.4z"/>
	</g>
</g>
<g>
	<g>
		<path d="M852.5-100.9c-17.4,3.8-26.7,25.6-33.3,40c-9.4,20.6-22.5,43.1-13.6,66C814,26.6,835,42,855,51.8
			c19.8,9.7,41.6,14.9,63.3,18.3c41.9,6.7,90.9,4,117.3-34c14-20,19.5-45.8,16.5-69.9c-2.6-21-12.3-39-29.8-51.1
			c-26.8-18.4-61.2-20.7-88.6-38c-1.6-1-3.1,1.6-1.5,2.6c17.2,10.8,37.1,16,56.1,22.7c19.5,6.8,39.4,15.8,50.8,33.9
			c13.7,21.5,13.3,50.9,5.7,74.5C1037,34.7,1020.2,54,996.6,63c-21.3,8.1-45,8.1-67.3,5.6c-22.5-2.5-45.4-7.6-66.3-16.4
			c-22.7-9.6-45.9-25.9-55.2-49.7c-5.9-15.1-0.2-30.2,6.1-44c3.9-8.5,7.4-17.2,11.5-25.7c5.7-11.7,13.9-27.8,27.8-30.8
			C855.2-98.5,854.4-101.3,852.5-100.9L852.5-100.9z"/>
	</g>
</g>
<g>
	<g>
		<path d="M974.6,73.3c3.6,6.9,3,14.7,3.8,22.2c0.2,1.9,3.2,1.9,3,0c-0.9-8.1-0.3-16.3-4.2-23.8C976.3,70,973.7,71.6,974.6,73.3
			L974.6,73.3z"/>
	</g>
</g>
<g>
	<g>
		<path d="M969.9,99c10.3,0,20.7,0,31,0c1.9,0,1.9-3,0-3c-10.3,0-20.7,0-31,0C968,96,968,99,969.9,99L969.9,99z"/>
	</g>
</g>
<g>
	<g>
		<path d="M968.4,101.5c1.2,14.4,4.8,28.5,4,43c-0.1,1.9,2.9,1.9,3,0c0.8-14.5-2.8-28.6-4-43C971.2,99.6,968.2,99.6,968.4,101.5
			L968.4,101.5z"/>
	</g>
</g>
<g>
	<g>
		<path d="M1000.4,99.1c-2.7,11.9-1.1,24.4-5,36c-0.4,1.2,0.8,2.1,1.8,1.8c11.7-2.4,25.4-7,33.6,4.8c5.4,7.7-13.1,10.1-17.4,10.6
			c-10,1.1-34.9,6.8-38.2-7.2c-0.5-1.9-3.3-1.1-2.9,0.8c2.1,8.5,10.7,10.6,18.5,11.1c9.7,0.6,20.4-0.7,29.9-2.7
			c6.8-1.4,17.7-5.1,12.8-14c-7.7-13.8-24.9-8.7-37-6.2c0.6,0.6,1.2,1.2,1.8,1.8c3.9-11.6,2.3-24.1,5-36
			C1003.8,98,1000.9,97.2,1000.4,99.1L1000.4,99.1z"/>
	</g>
</g>
<g>
	<g>
		<path d="M896.4,67.5c-0.1,11.7-1,23.3-1,35c0,1.9,3,1.9,3,0c0-11.7,0.9-23.3,1-35C899.4,65.6,896.4,65.6,896.4,67.5L896.4,67.5z"
			/>
	</g>
</g>
<g>
	<g>
		<path d="M884.9,107c8.7,0.9,17.5-0.8,26.2-0.5c4.5,0.1,8.9,0.5,10.3,5.4c1.3,4.6,0.3,10.2-0.3,14.9c-1,8.6-0.4,18.9-7.3,25.2
			c-6.1,5.6-16.8,4.3-24.4,4.2c-8.6-0.2-17.2,1-25.8,0.7c-5-0.1-9.5-6.1-5.4-10.2c3.1-3.1,8.3-4.2,12.4-5.1
			c4.1-0.9,8.2-0.7,12.3-0.6c2.2,0,4.2-0.5,5.7-2.2c7.1-7.6,3.9-20.1,3.7-29.2c0-1.9-3-1.9-3,0c0.1,6.4,1.6,12.9,0.4,19.3
			c-0.7,3.9-2.3,9-6.8,9.1c-8.3,0.2-15.8,0.4-23.4,4.3c-7.2,3.7-7.5,10-1.9,15.4c5.1,4.9,15.7,1.8,22,1.5c14-0.8,33.9,4.4,41.1-11.8
			c3.5-7.9,3.4-18.2,4.1-26.7c0.6-7.3,0-14.8-8.2-16.6c-10.4-2.2-21.2,1-31.7-0.1C883,103.8,883,106.8,884.9,107L884.9,107z"/>
	</g>
</g>
<g>
	<g>
		<path d="M805.3-25.9c-2.3-9.3-11.8-13.6-18.9-18.7c-10.8-7.8-17.3-22.8-22.2-34.7c-5.6-13.6-9.4-27.6-11.2-42.3
			c-1.7-14.2-1.6-28.6-1.6-42.9c0-1.9-3-1.9-3,0c0,14.3,0,28.6,1.6,42.9c1.6,14.4,5.5,28.1,10.7,41.6c4.5,11.5,10.2,22.6,18,32.2
			c6.7,8.3,21,11.7,23.7,22.8C802.9-23.2,805.8-24,805.3-25.9L805.3-25.9z"/>
	</g>
</g>
<g>
	<g>
		<path d="M1047.4-51.5c-1.1-35.6,22-65.3,33-97.7c5.3-15.7,7.7-33.1,2.5-49.2c-5.9-18.1-19.5-32.4-25.5-50.5
			c-0.6-1.8-3.5-1-2.9,0.8c5.7,17.2,17.8,31,24.5,47.7c6.9,17.2,3.5,36.2-2.4,53.1c-11.1,31.8-33.3,60.7-32.2,95.8
			C1044.5-49.6,1047.5-49.6,1047.4-51.5L1047.4-51.5z"/>
	</g>
</g>
<g>
	<g>
		<path d="M745.9-163c-8.9-1.1-14.5-7.5-16.6-15.9c-0.5-1.9-3.3-1.1-2.9,0.8c2.4,9.9,9.2,16.9,19.4,18.1
			C747.8-159.8,747.8-162.8,745.9-163L745.9-163z"/>
	</g>
</g>
<g>
	<g>
		<path d="M747.7-163.2c5.4-2.3,9.5-7.3,9.7-13.3c0.1-1.9-2.9-1.9-3,0c-0.2,5-3.9,8.8-8.3,10.7C744.4-165,745.9-162.4,747.7-163.2
			L747.7-163.2z"/>
	</g>
</g>
<g>
	<g>
		<path d="M748.4-163.5c-1-8.7-1.9-17.3-2-26c0-1.9-3-1.9-3,0c0.1,8.7,1,17.3,2,26C745.6-161.6,748.6-161.6,748.4-163.5L748.4-163.5
			z"/>
	</g>
</g>
<g>
	<g>
		<path d="M1050.6-247.2c-4,6.8-10,13-18.1,14.3c-1.9,0.3-1.1,3.2,0.8,2.9c8.8-1.4,15.5-8.3,19.9-15.7
			C1054.2-247.4,1051.6-248.9,1050.6-247.2L1050.6-247.2z"/>
	</g>
</g>
<g>
	<g>
		<path d="M1047.3-244.9c-1.1-6.6-3.8-12.7-6-19c-0.6-1.8-3.5-1-2.9,0.8c2.2,6.3,4.9,12.4,6,19
			C1044.8-242.2,1047.6-243,1047.3-244.9L1047.3-244.9z"/>
	</g>
</g>
<g>
	<g>
		<path d="M1049.7-243.2c3.5-2.4,5.6-5.8,6.7-9.9c0.5-1.9-2.4-2.7-2.9-0.8c-0.9,3.3-2.5,6.1-5.3,8.1
			C1046.6-244.7,1048.1-242.1,1049.7-243.2L1049.7-243.2z"/>
	</g>
</g>
<g>
	<g>
		<path d="M801.4-221.5c-2.6,23.6-5.9,50.3,14.2,67.4c13.4,11.4,34.2,14.2,47.3,0.9c7.5-7.7,11.5-20.1,12.1-30.6
			c0.5-11.3-5-21.5-11.8-30.1c-5.5-6.9-13.1-12.1-20.9-16.3c-7.7-4.2-16.7-7.6-25.6-6.9c-5.5,0.4-10.1,3.3-13.1,7.9
			c-1.1,1.6,1.5,3.1,2.6,1.5c10.1-15.4,34.8-0.8,45.3,6.9c8.2,6,14.8,14.5,18.4,24c4.4,11.7,1.2,23.9-4.3,34.6
			c-9.7,19.1-32.9,18-47.8,6c-19.8-15.9-15.9-43-13.4-65.2C804.6-223.4,801.6-223.4,801.4-221.5L801.4-221.5z"/>
	</g>
</g>
<g>
	<g>
		<path d="M882.6-228.2c-8,14.6-3.6,30.7,8.5,41.5c10,8.9,26.4,14.2,38.1,5.4c13.4-10.1,13.7-31.8,3.6-43.9
			c-11.3-13.6-32.4-15.9-47.6-8.1c-0.3,0.2-0.7,0.4-1,0.6c-1.7,0.9-0.2,3.5,1.5,2.6c14-7.8,32.1-5.8,43.6,5.5
			c10.9,10.7,10.3,31.9-2.2,41.3c-10.3,7.8-25.1,2-33.8-5.4c-11.3-9.6-15.3-24.6-8-37.9C886.1-228.4,883.5-229.9,882.6-228.2
			L882.6-228.2z"/>
	</g>
</g>
<g>
	<g>
		<path d="M912.7-203.2c-0.2,0.1,0.7-0.1,0.4-0.1c0.3,0,0.6,0,0.9-0.1c0.7,0,1.3-0.1,2-0.3c2-0.8,2.4-2.8,2.5-4.8
			c0-0.9-1-1.8-1.9-1.4c-1.3,0.4-2.7,0.9-4,1.4c-0.9,0.3-1.9,0.6-2.2,1.6c-0.1,0.5,0,1.1,0.4,1.5c0.4,0.4,0.8,0.5,1.3,0.5
			c1.9,0.1,1.9-2.9,0-3c0.3,0.1,0.6,0.3,0.9,0.4c0.1,0.5,0.3,1,0.4,1.5c-0.3,0.9-0.9,0.9-0.3,0.6c0.4-0.2,0.9-0.3,1.3-0.5
			c1-0.4,2.1-0.7,3.2-1.1c-0.6-0.5-1.3-1-1.9-1.4c0,0.7,0,1.4-0.4,2c0.1-0.1-0.2,0.1,0,0c-0.1,0-0.7,0.2-0.4,0.1
			c-1.2,0.1-2.3,0.1-3.4,0.6C909.4-205,910.9-202.4,912.7-203.2L912.7-203.2z"/>
	</g>
</g>
<g>
	<g>
		<path d="M843.4-170.5c0-1.8-0.2-3.6-1.4-5.1c-0.4,0.9-0.7,1.7-1.1,2.6c1,0,2,0,3,0c0-1,0-2,0-3c-2.6,0-4.9,0.2-7.4,1.1
			c-1.1,0.3-1.5,1.7-0.7,2.5c1,1,2,1.8,3.2,2.5c0.8,0.4,1.7,0.7,2.6,0.9c0.1,0,1.3,0.3,0.6,0c0.1,0,0.1,0.1,0.2,0.1
			c0.5-0.9,1-1.7,1.5-2.6c-1.5-0.8-3.1-1.5-4.6-2.3c-1.7-0.9-3.2,1.7-1.5,2.6c0.1,0.1,0.2,0.1,0.3,0.2c-0.2-0.7-0.4-1.4-0.5-2.1
			c-0.4,0.7-0.8,1.3-0.9,2c-0.1,1,1.1,1.8,2,1.5c0.9-0.3,1.6-1.1,2.3-1.7c1.4-1.4-0.7-3.5-2.1-2.1c-0.2,0.2-0.3,0.3-0.5,0.5
			c-0.1,0.1-0.3,0.3-0.4,0.4c-0.3,0.3-0.2,0,0.3,0c0.4,0.2,0.9,0.5,1.3,0.7c-0.1,1.1,0,1.4,0.2,0.8c0.1-0.2,0.3-0.4,0.4-0.7
			c0.4-0.7,0.2-1.7-0.5-2.1c-0.1-0.1-0.2-0.1-0.3-0.2c-0.5,0.9-1,1.7-1.5,2.6c1.5,0.8,3.1,1.5,4.6,2.3c1.7,0.9,3.2-1.7,1.5-2.6
			c-1-0.5-2.1-0.4-3.1-0.8c-1.1-0.4-2.1-1.3-2.9-2.2c-0.2,0.8-0.4,1.7-0.7,2.5c2.2-0.7,4.3-0.9,6.6-0.9c1.9,0,1.9-3,0-3
			c-1,0-2,0-3,0c-1.4,0-1.9,1.6-1.1,2.6c0.6,0.8,0.6,2,0.6,2.9C840.4-168.6,843.4-168.6,843.4-170.5L843.4-170.5z"/>
	</g>
</g>
<g>
	<g>
		<path d="M805.4-233.5c0.1-37.4,7.8-83.4,39.6-107.4c17-12.8,39-15.1,59.4-11.3c20.5,3.8,38.3,15.5,52.5,30.5
			c18.4,19.3,30.9,43.8,40.7,68.4c4.6,11.6,8.6,23.5,12.2,35.5c4.8,16.1,8.2,32.2,5.6,49c0.9-0.1,1.8-0.2,2.7-0.4
			c-10-15.6-18.1-32.4-28.2-48c-9.7-14.9-21.6-27.5-36.1-37.8c-22.4-16-58-32.3-79.1-5.5c-1.2,1.5,0.9,3.6,2.1,2.1
			c21.1-26.9,56.7-7.9,78.4,8.1c14.2,10.5,25.2,23.7,34.6,38.5c9.1,14.4,16.5,29.7,25.7,44.1c0.6,1,2.5,1,2.7-0.4
			c3.6-23.3-3.6-45.7-10.9-67.5c-6.6-19.7-14.8-38.9-25.2-56.8c-10.1-17.3-22.7-33.3-38.7-45.5c-16.2-12.3-35.7-18.7-56-19.1
			c-28.6-0.5-52.3,14.9-66.3,39.3c-14.4,25.1-18.8,55.6-18.8,84.2C802.4-231.6,805.4-231.6,805.4-233.5L805.4-233.5z"/>
	</g>
</g>
<g>
	<g>
		<path d="M1011.1-170.8c-7.4,4.4-13.3,10.5-15.7,18.9c-0.2,0.6,0.1,1.4,0.7,1.7c6.3,3.2,13.1,1,18.5-3c-0.7-0.6-1.5-1.1-2.2-1.7
			c-0.6,3.6-0.9,7.9,2.7,10c3.6,2,7.8-1.9,9.8-4.5c-0.6,0.1-1.2,0.2-1.8,0.2c11.9,7.9,18.6-6.5,12.1-16.1c-1.1-1.6-3.7-0.1-2.6,1.5
			c3.2,4.8,7.4,6.6,12.9,7.7c0.8,0.2,1.6-0.2,1.8-1c5.3-16.9-28.8-17.9-38.4-18.9c-1.9-0.2-1.9,2.8,0,3c7.6,0.8,39.7,1.9,35.6,15.1
			c0.6-0.3,1.2-0.7,1.8-1c-4.6-0.9-8.4-2.2-11.1-6.3c-0.9,0.5-1.7,1-2.6,1.5c4.6,6.8,1.5,18.2-7.9,11.9c-0.5-0.3-1.4-0.3-1.8,0.2
			c-1.1,1.4-2.3,2.7-3.9,3.6c-4.3,2.5-4-4.1-3.6-6.2c0.2-1.1-1-2.6-2.2-1.7c-4.5,3.3-10.1,5.7-15.5,3c0.2,0.6,0.5,1.1,0.7,1.7
			c2.2-7.7,7.6-13.1,14.3-17.1C1014.3-169.2,1012.8-171.8,1011.1-170.8L1011.1-170.8z"/>
	</g>
</g>
<g>
	<g>
		<path d="M898.2-158.2c-11.2,3.4-29.5,8-34.4,20.2c-5.2,12.8,9.2,16.1,18.8,16c12.8-0.2,26.1-5.2,34.9-14.7
			c4.4-4.8,6-11.5,2.3-17.1c-3.9-5.9-13.9-8-20.3-6.1c-1.8,0.5-1.1,3.4,0.8,2.9c7-2.1,18.2,1.4,18.7,9.8c0.4,6.4-6.4,11.5-11.1,14.6
			c-8.2,5.3-17.4,7.7-27.1,7.7c-4.2,0-8.6-0.5-12.2-2.7c-5-3.1-2.3-9.6,0.7-13.1c7.1-8.1,19.8-11.5,29.8-14.5
			C900.9-155.8,900.1-158.7,898.2-158.2L898.2-158.2z"/>
	</g>
</g>
<g>
	<g>
		<path d="M870.4-143.6c0.5,2,1.3,5.3,3.1,6.5c3.3,2.1,4.8-0.4,8-1.3c2.5-0.7,5-1.3,5.1-4.4c0.1-2.6-2.2-5.4-3.2-7.6
			c-0.8-1.8-3.4-0.2-2.6,1.5c0.7,1.5,1.5,2.9,2.2,4.3c1.1,2.4-0.1,2.8-2.3,3.3c-1.5,0.4-3.9,2.7-5.3,1.8c-1.3-0.8-1.8-3.5-2.1-4.9
			C872.9-146.3,870-145.5,870.4-143.6L870.4-143.6z"/>
	</g>
</g>
<g>
	<g>
		<path d="M887.7-151.6c0.9,5.1,3.5,11,9.7,8.4c5.7-2.4,1.7-8.9-0.2-12.6c-0.9-1.7-3.5-0.2-2.6,1.5c1,1.9,4.6,7,1.5,8.4
			c-4.1,1.7-5-3.7-5.5-6.5C890.2-154.3,887.4-153.5,887.7-151.6L887.7-151.6z"/>
	</g>
</g>
<g>
	<g>
		<path d="M906.1-130.4c-0.2-1.1-0.8-2.2-1.3-3.3c-0.4-0.8-1.9-3.1-1.5-4.1c0.4-1,3.2-1.5,4.1-1.8c1.2-0.4,2.5-0.7,3.7-1.1
			c-0.6-0.2-1.1-0.5-1.7-0.7c0.8,1.1,1.5,2.3,2.3,3.5c1,1.7,3.6,0.1,2.6-1.5c-0.7-1.2-1.4-2.4-2.3-3.5c-0.4-0.5-1-0.9-1.7-0.7
			c-2.9,0.9-7.4,1.4-9.4,4c-2.2,2.9,1.7,7.1,2.3,9.9C903.6-127.7,906.5-128.5,906.1-130.4L906.1-130.4z"/>
	</g>
</g>
<g>
	<g>
		<path d="M824.8-122.5c2.6,4.6,3.6,10.5,8.4,13.6c4.7,3,10.4-3.7,14.2-5.5c-0.7-0.2-1.4-0.4-2.1-0.5c1.9,4.2,1.8,8.8,4.3,12.8
			c0.4,0.6,1.4,1,2.1,0.5c1.1-0.8,2.2-1.7,3.3-2.5c-0.7-0.3-1.5-0.6-2.2-0.9c0.8,4,0,8,0.8,12c0.2,0.9,1.1,1.1,1.8,1
			c1.5-0.2,1.7,13.4,2.4,15.2c0.3,0.7,1,1.3,1.8,1c1.2-0.4,2.5-0.6,3.8-1c-0.6-0.3-1.2-0.7-1.8-1c1.8,6.3,0.6,12.7,0.9,19.1
			c0.1,1.2,1.2,1.8,2.3,1.3c7.2-3.5,10-12.9,17.9-15.1c-0.6-0.3-1.2-0.7-1.8-1c3,10.2,2.3,20.9,3.4,31.4c0.1,1.1,1.6,2.2,2.6,1.1
			c1.6-2,3-3.8,5.6-4.6c-0.6-0.2-1.1-0.5-1.7-0.7c3.9,8.5,0.1,19,6,26.8c0.6,0.8,1.6,1,2.4,0.3c2.8-2.7,4.9-6.1,7.8-8.8
			c3.8-3.5,5.7,7.2,7.3,9.7c0.6,0.9,2,1,2.6,0c2.9-5.4,5.3-10.9,7.2-16.7c1.9-5.8,1.8-11.9,4-17.7c-0.9,0.1-1.8,0.2-2.7,0.4
			c2.8,5.7,1.6,12.4,5,18c0.7,1.1,2.3,0.9,2.7-0.4c1.7-5.5,1.7-11.1,1.9-16.8c0.4-7.5,1.8-14.9,2.4-22.3c-1,0.1-2,0.3-2.9,0.4
			c0.3,1.6,0.6,3.2,1,4.8c0.4,1.4,2.6,1.5,2.9,0c2.4-12.2-3-24.1-1.3-36.3c-1,0-1.9,0-2.9,0c0.6,2.2,1,4.3,1.9,6.4
			c0.7,1.5,2.7,0.5,2.8-0.8c0.9-8.3-3.1-15.8-4.7-23.7c-1.9-9.1,3.9-18.4,6.2-26.9c-1-0.1-2-0.3-2.9-0.4c0.3,3.3,0.8,6.5,1.8,9.6
			c0.4,1.1,2.2,1.6,2.7,0.4c2.7-6,2.6-12.7,3.7-19.1c-0.9,0.1-1.8,0.2-2.7,0.4c1.7,3.1,3.2,6.2,6,8.6c0.7,0.6,1.9,0.6,2.4-0.3
			c2.8-5.6,0.5-12.2-0.8-17.9c-0.2-1-1.8-1.6-2.5-0.7c-2.2,2.8-6,10.9-10,4.3c-2-3.3-3.9-6.5-6.9-8.9c-6.4-5.2-8.5,3.7-11.1,7.4
			c0.8-0.1,1.6-0.2,2.4-0.3c-2.6-2.3-4.1-4.3-7.7-3.1c-4.4,1.4-4.2,7.7-10.1,3.8c-2.6-1.8-4.4-1.7-7.2-0.4c-2.1,0.9-3.4,4.1-6.1,3.2
			c-1.4-0.5-2.7,0.3-3.9,1c-2.7,1.6-8.1,7.9-10.9,3.4c-1.5-2.4-5.2,0.6-6.6,1.4c-4.5,2.5-8.6,6.1-12.1,9.9c-4,4.3-6.8,9.6-11.6,13.1
			c0.7,0.2,1.4,0.4,2.1,0.5c-3.6-7.7-9.9-6.8-15.1-1.1c0.8,0.1,1.6,0.2,2.4,0.3c-1.7-2.3-3.9-6-7.3-5c-3.1,0.9-3.7,6.5-4.2,8.9
			c0.8-0.2,1.7-0.4,2.5-0.7c-0.3-0.3-0.5-0.5-0.8-0.8c-0.4-0.4-1.3-0.6-1.8-0.2c-7,5,1.6,7.9,4.2,12.1c1,1.6,3.6,0.1,2.6-1.5
			c-1.1-1.8-8.4-5.7-5.3-7.9c-0.6-0.1-1.2-0.2-1.8-0.2c0.3,0.3,0.5,0.5,0.8,0.8c0.8,0.8,2.3,0.5,2.5-0.7c0.3-1.4,0.6-2.7,1-4
			c1.2-4.5,3.4-1.5,5.1,0.9c0.5,0.7,1.7,1.1,2.4,0.3c3.7-4.1,7.6-5.5,10.4,0.4c0.3,0.7,1.4,1,2.1,0.5c7.7-5.7,12.1-14.6,19.8-20.4
			c2.1-1.6,4.4-2.8,6.6-4.2c0-0.7,0.1-0.7,0.3,0c0.3,0.6,0.7,1,1.1,1.4c1.8,1.8,4.5,1.1,6.5,0.2c3.7-1.6,5.7-5.4,10-5.1
			c4.2,0.3,6.8-6.6,11.2-3.5c1.9,1.4,5.4,3,7.7,1.5c0.9-0.6,1.7-1.3,2.3-2.3c2.2-3.1,4.6-2.6,7.2-0.3c0.8,0.7,1.8,0.5,2.4-0.3
			c0.8-1.1,1.3-2.4,1.8-3.6c1.5-3.5,4.9-3.2,7.2-0.6c2.4,2.7,3.6,6.2,6.1,8.8c5,5.3,10-3.8,12.4-6.8c-0.8-0.2-1.7-0.4-2.5-0.7
			c1.1,4.7,3.5,10.9,1.2,15.6c0.8-0.1,1.6-0.2,2.4-0.3c-2.6-2.2-4-5.1-5.5-7.9c-0.6-1.1-2.5-0.9-2.7,0.4c-1,6.1-0.8,12.7-3.3,18.4
			c0.9,0.1,1.8,0.2,2.7,0.4c-0.9-2.9-1.4-5.8-1.7-8.9c-0.1-1.6-2.5-2.1-2.9-0.4c-2.2,8.3-6.8,16.3-6.6,25c0.2,9.1,6,17.1,5.1,26.4
			c0.9-0.3,1.9-0.5,2.8-0.8c-0.8-1.8-1.1-3.8-1.6-5.6c-0.4-1.3-2.7-1.6-2.9,0c-1.7,12.2,3.7,24.2,1.3,36.3c1,0,1.9,0,2.9,0
			c-0.4-1.6-0.7-3.1-1-4.8c-0.3-1.8-2.8-1.2-2.9,0.4c-0.5,6.3-1.5,12.6-2.1,18.8c-0.6,6.5-0.1,13.2-2.1,19.5
			c0.9-0.1,1.8-0.2,2.7-0.4c-3.3-5.5-2.2-12.3-5-18c-0.6-1.3-2.3-0.7-2.7,0.4c-1.9,5.2-2.4,10.7-3.6,16.1c-1.4,6.2-4.3,12-7.3,17.6
			c0.9,0,1.7,0,2.6,0c-1.5-2.4-3.2-13.1-7.4-12.6c-5.7,0.7-8.8,7.4-12.5,11c0.8,0.1,1.6,0.2,2.4,0.3c-5.7-7.6-2.1-18.3-6-26.8
			c-0.3-0.6-1.1-0.9-1.7-0.7c-3,1-4.9,2.9-6.9,5.4c0.9,0.4,1.7,0.7,2.6,1.1c-1.2-10.8-0.5-21.7-3.6-32.1c-0.2-0.8-1-1.3-1.8-1
			c-8.5,2.4-11.1,11.7-18.6,15.4c0.8,0.4,1.5,0.9,2.3,1.3c-0.4-6.7,0.8-13.4-1.1-19.9c-0.2-0.8-1.1-1.3-1.8-1
			c-1.3,0.4-2.5,0.6-3.8,1c0.6,0.3,1.2,0.7,1.8,1c-1.6-4,1.4-18.3-6.1-17.3c0.6,0.3,1.2,0.7,1.8,1c-0.8-4,0-8-0.8-12
			c-0.2-0.9-1.5-1.5-2.2-0.9c-1.1,0.8-2.2,1.7-3.3,2.5c0.7,0.2,1.4,0.4,2.1,0.5c-2.4-3.9-2.4-8.6-4.3-12.8c-0.3-0.8-1.4-0.9-2.1-0.5
			c-4.1,2.1-9.4,8.8-13.4,3.4c-2.3-3.1-3.2-7-5.1-10.3C826.5-125.7,823.9-124.2,824.8-122.5L824.8-122.5z"/>
	</g>
</g>
<g>
	<g>
		<path d="M838.2-169.1c0.7,1.4,2.1,2.3,3.7,2.3c1.1,0.1,1.9-1.3,1.3-2.3c-0.6-0.9-0.9-1.8-1.3-2.8c-0.4-1-1.3-1.7-2.2-2.4
			c-1-0.7-2.3-0.4-2.7,0.8c-0.3,0.9,0.4,1.6,1.1,2c1.2,0.6,2.6,1,4,1.2c1.9,0.2,3-1.6,1.6-3.1c0.1,0.4,0.3,0.7,0.4,1.1
			c0-1.9-0.4-4.4-2.4-5.2c-1.6-0.7-3.4-0.2-4.5,1.1c-1.2,1.3-1.5,3.2-0.6,4.8c1.3,2.3,4.5,2.9,6.9,3.2c0.8,0.1,1.5-0.8,1.5-1.5
			c0-0.9-0.7-1.4-1.5-1.5c-1-0.1-2.1-0.3-2.9-0.7c-0.4-0.2-0.7-0.4-1-0.6c0.2,0.2-0.2-0.2-0.2-0.2c-0.2-0.2,0.1,0.2-0.1-0.2
			c0-0.1-0.2-0.4,0,0c-0.1-0.1-0.1-0.3-0.1-0.4c0.1,0.4,0,0,0-0.1c0-0.3-0.1,0.3,0-0.1c0-0.1,0.1-0.2,0.1-0.3c-0.1,0.4,0,0,0.1-0.1
			c0-0.1,0.3-0.4,0.1-0.1c0.1-0.1,0.2-0.2,0.3-0.3c0.1-0.1,0.3-0.3,0,0c0.1-0.1,0.2-0.1,0.3-0.2c0.1,0,0.4-0.2,0,0
			c0.1,0,0.2-0.1,0.4-0.1c0.3-0.1-0.4,0,0,0c0.1,0,0.5,0,0.1,0c0.1,0,0.5,0.2,0.1,0c0.1,0,0.2,0.1,0.3,0.2c-0.3-0.2-0.1,0,0,0
			c0.1,0.2-0.1-0.2,0.1,0.2c0.1,0.2,0.2,0.4,0.3,0.8c0.1,0.4,0.1,0.7,0.1,1.1c0,0.5,0.1,0.9,0.4,1.3c0.1,0.1,0.1,0.1-0.1-0.1
			c-0.1-0.2-0.1-0.4-0.2-0.6c0.1-0.3,0.1-0.5,0.2-0.8c0.8-0.5,1.1-0.7,0.7-0.6c0.3,0,0.3,0,0.2,0c-0.1,0-0.1,0-0.2,0
			c-0.4,0,0.4,0.1,0,0c-0.5-0.1-0.9-0.2-1.3-0.3c-0.4-0.1-0.8-0.3-1.2-0.4c-0.4-0.2,0.1,0.1-0.2-0.1c0,0-0.1,0-0.1-0.1
			c0,0,0.4,0.5,0.5,0.7c0,0.3,0,0.5,0,0.8c0,0,0,0,0,0c-0.1,0.2-0.3,0.4-0.4,0.7c0,0,0,0,0,0c-0.2,0.1-0.4,0.3-0.7,0.4
			c0.2-0.1-0.5,0-0.2,0c-0.3-0.1-0.5-0.1-0.8-0.2c1.5,1.1,1.6,2.7,2.7,4.3c0.4-0.8,0.9-1.5,1.3-2.3c-0.6,0-0.9-0.5-1.1-0.9
			C839.9-172.4,837.3-170.8,838.2-169.1L838.2-169.1z"/>
	</g>
</g>
<g>
	<g>
		<path d="M909.2-207.1c0.4,1.1,1,2.9,2.5,2.9c1.5,0,1.9-1.3,2-2.5c0.1-0.8,0.1-1.9-0.5-2.6c-0.8-0.8-2-0.5-2.5,0.4
			c-0.6,1.2-0.8,2.6-0.9,3.9c-0.1,0.5-0.1,1.2,0.2,1.6c0.8,1,2.2,1,2.8-0.2c-0.8,0.1-1.6,0.2-2.4,0.3c0.9,0.8,2,1.3,3.3,0.8
			c1-0.4,1.8-1.2,1.7-2.3c-0.2-1.7-0.7-3.4-0.8-5.2c0-0.9-1-1.8-1.9-1.4c-1.4,0.5-2.7,1.5-1.9,3.1c0.5,1,2.1,1.4,3.1,1.4
			c1.9,0.1,1.9-2.9,0-3c-0.2,0-0.3-0.1-0.6-0.1c-0.8-0.2-0.8,1.8,0.2,1.5c-0.6-0.5-1.3-1-1.9-1.4c0,1.9,0.7,3.9,0.8,5.6
			c0.1-0.4,0.3-0.7,0.4-1.1c-0.1,0.2-0.2,0.2-0.3,0c-0.7-0.6-1.9-0.6-2.4,0.3c-0.4,0.7,0.2-0.9,1.5-0.5c0.3,0.2,0.6,0.5,0.9,0.7
			c0.1,0.2,0.1,0.9,0.2,0.3c0-0.1,0-0.2,0-0.3c0-0.4,0,0.3,0-0.1c0.1-0.6,0.2-1.2,0.4-1.8c0.1-0.2,0.1-0.4,0.2-0.6
			c0-0.1,0.2-0.4,0,0c0.4-0.9-2.8-1.3-2.5-0.4c-0.1-0.5,0-0.1,0,0c0,0.3,0,0.6,0,0.9c-0.1,0.8,2.1,0.3,1.8-0.2
			c-0.2-0.3-0.3-0.6-0.4-0.9C911.5-209.7,908.6-208.9,909.2-207.1L909.2-207.1z"/>
	</g>
</g>
<g>
	<g>
		<path d="M1054.4-249.1c1.6-3.2,3.2-6.5,4.2-10c0.5-1.9-2.4-2.7-2.9-0.8c-0.9,3.3-2.4,6.2-3.8,9.2
			C1050.9-248.9,1053.5-247.4,1054.4-249.1L1054.4-249.1z"/>
	</g>
</g>
<g>
	<g>
		<path d="M835.9-241.2c7.6,1.6,14.6,4.6,21.2,8.6c1.7,1,3.2-1.6,1.5-2.6c-6.8-4.2-14.1-7.3-22-9C834.8-244.5,834-241.6,835.9-241.2
			L835.9-241.2z"/>
	</g>
</g>
<g>
	<g>
		<path d="M872.9-237.5c1.6-5.1,4.9-9.4,9.7-11.9c1.7-0.9,0.2-3.5-1.5-2.6c-5.4,2.9-9.3,7.9-11.1,13.7
			C869.5-236.4,872.4-235.6,872.9-237.5L872.9-237.5z"/>
	</g>
</g>
<g>
	<g>
		<path d="M912.4-8.7c-1.3,4.2,0.3,8.5,4.3,10.5c4.2,2.1,8.7,0.2,11.7-2.9c2.7-2.8,1.5-6.1-1.5-7.9c-3.5-2.1-8.3-2.7-12.3-2.3
			c-1.9,0.2-1.9,3.2,0,3c2.1-0.2,14.4,0.5,12,4.7c-1.5,2.6-5.1,3.8-7.9,3.1c-3.3-0.9-4.3-4.3-3.5-7.3C915.9-9.8,913-10.5,912.4-8.7
			L912.4-8.7z"/>
	</g>
</g>
<g>
	<g>
		<path d="M916.4,10.5c-1.8,8.6,9.3,19.5,15.9,10.3c6-8.4-9.4-13.6-15.3-13c-1.9,0.2-1.9,3.2,0,3c3.6-0.4,14.3,1.6,13.4,6.9
			c-0.7,3.8-4.7,4.5-7.4,2.4c-2.5-1.9-4.4-5.6-3.7-8.8C919.7,9.4,916.8,8.6,916.4,10.5L916.4,10.5z"/>
	</g>
</g>
<g>
	<g>
		<path d="M923.6,32.1c-0.3,1.9-0.4,3.7-0.1,5.6c0.2,1.1,0.7,2.3,1.6,3.1c1.9,1.5,4.4,0.9,6.4-0.3c2.1-1.2,3.9-3.1,5.1-5.1
			c1.1-1.8,1.9-4.4,0.6-6.3c-1-1.5-2.7-2-4.3-2.1c-2.5-0.3-5,0.3-7.4,0.9c-1.9,0.5-1.1,3.4,0.8,2.9c1.1-0.3,2.3-0.5,3.4-0.7
			c0.4-0.1-0.3,0,0.1,0c0.1,0,0.2,0,0.3,0c0.2,0,0.4,0,0.7-0.1c0.4,0,0.9,0,1.3,0c0.3,0,0.7,0,1,0.1c-0.5-0.1,0,0,0.1,0
			c0.2,0,0.3,0.1,0.5,0.1c0.1,0,0.2,0.1,0.4,0.1c0.4,0.1-0.3-0.1,0,0c0.1,0,0.2,0.1,0.3,0.2c0.1,0.1,0.5,0.4,0,0
			c0.2,0.1,0.3,0.3,0.4,0.4c-0.4-0.5-0.1-0.2-0.1,0c0.1,0.1,0.2,0.5,0,0c0.1,0.2,0.1,0.3,0.1,0.5c0.1,0.3,0-0.5,0-0.1
			c0,0.1,0,0.2,0,0.3c0,0.1,0,0.2,0,0.3c0,0.1,0.1-0.4,0,0c0,0.2-0.1,0.5-0.2,0.7c0,0.1-0.1,0.2-0.1,0.3c0,0.1,0,0.1-0.1,0.2
			c-0.1,0.2,0.2-0.4,0.1-0.1c-0.1,0.2-0.2,0.5-0.4,0.7c-0.3,0.5-0.6,0.9-0.9,1.4c-0.3,0.4,0.2-0.2-0.1,0.1c-0.1,0.1-0.2,0.2-0.3,0.3
			c-0.2,0.2-0.4,0.4-0.6,0.7c-0.4,0.4-0.8,0.8-1.2,1.2c-0.1,0.1-0.2,0.2-0.3,0.3c0.4-0.3,0,0-0.1,0c-0.2,0.2-0.5,0.3-0.7,0.5
			c-0.2,0.1-0.4,0.3-0.6,0.4c-0.1,0.1-0.2,0.1-0.3,0.2c-0.1,0-0.1,0-0.2,0.1c-0.2,0.1,0.4-0.2,0.1,0c-0.2,0.1-0.4,0.1-0.6,0.2
			c-0.1,0-0.2,0.1-0.3,0.1c0,0-0.1,0-0.2,0c-0.3,0.1,0.4,0,0.2,0c-0.2,0-0.4,0-0.6,0c-0.4,0,0.4,0.1,0.1,0c-0.1,0-0.2,0-0.3-0.1
			c-0.4-0.1,0.1,0.1,0.1,0c-0.1,0-0.2-0.1-0.2-0.1c-0.1-0.1-0.4-0.3,0,0.1c-0.1-0.1-0.2-0.1-0.2-0.2c-0.1-0.1-0.3-0.4,0,0.1
			c-0.1-0.1-0.1-0.1-0.1-0.2c-0.1-0.1-0.4-0.8-0.2-0.3c-0.2-0.4-0.3-0.9-0.4-1.4c0.1,0.5,0,0,0-0.1c0-0.1,0-0.3,0-0.4
			c0-0.4,0-0.7,0-1.1c0-0.4,0-0.7,0.1-1.1c0-0.2,0-0.4,0.1-0.6c0-0.1,0-0.2,0-0.4c0,0.4,0,0,0-0.1c0.1-0.8-0.2-1.6-1-1.8
			C924.8,30.9,923.8,31.3,923.6,32.1L923.6,32.1z"/>
	</g>
</g>
<g>
	<g>
		<path d="M841.2-173.9c0,1,0.3,2,0.6,2.9c0.3,1,0.2,2.3,1.3,2.9c2.4,1.2,2.6-2,3.3-3.4c0.3-0.7,0.2-1.6-0.5-2.1
			c-0.7-0.4-1.7-0.2-2.1,0.5c-0.3,0.6-0.5,1.2-0.7,1.8c-0.1,0.3-0.1,0.5-0.2,0.8c-0.2,0.6-0.1,0,0.3-0.2c0.3-0.1,0.5-0.1,0.8-0.2
			c0,0,0,0-0.1,0c0.3,0.1,0.5,0.1,0.8,0.2c0.1,0.1,0.3,0.4,0.1,0c0.1,0.3,0.1,0.5,0.2,0.8c0-1.4-0.8-2.6-0.8-4
			C844.1-175.8,841.1-175.8,841.2-173.9L841.2-173.9z"/>
	</g>
</g>
<g>
	<g>
		<path d="M911.2-208c0.9,0.9,2.2,1.8,3.5,1c1.4-0.8,1-2.5,0.4-3.7c-0.4-0.7-1.4-0.9-2.1-0.5c-0.7,0.4-0.9,1.3-0.5,2.1
			c0.1,0.2,0.1,0.2,0,0c0,0.1,0.1,0.2,0.1,0.4c-0.1-0.4,0-0.1,0,0c0-0.3,0.1-0.5,0.3-0.7c0.3-0.3,0.6-0.4,1-0.3
			c-0.3-0.1,0.3,0.2,0,0c0,0-0.4-0.2-0.2-0.1c-0.1-0.1-0.3-0.2-0.4-0.4c-0.6-0.6-1.5-0.6-2.1,0C910.7-209.6,910.6-208.6,911.2-208
			L911.2-208z"/>
	</g>
</g>
<g>
	<g>
		<path d="M-72-322.3c2.1,16,1.8,32.1,3.5,48.1c1,9.2,0.5,18.5,1.9,27.7c1.1,6.9,3.9,11.5,11.2,11.9c9,0.5,18.6-2.4,27.3-4.4
			c12.2-2.8,24.4-3.2,36.9-3.4c9.8-0.2,19.6-1.3,29.3-2.8c5-0.8,15.6-1.6,17.5-7.5c2.1-6.5-1.2-15.8-2.7-22.1
			c-1.7-6.7-3.7-13.3-5.4-19.9c-2.8-10.7-7.4-20.6-10.8-31.1c-1.9-6-1.1-14.4-5.1-19.4c-4.9-6-15.1-5.9-22-5.7
			c-20.1,0.8-39.7,8.6-59.4,12.1c-6.2,1.1-12.8,2-17.8,6.1c-5.4,4.5-4.9,12.6-4.1,18.9c0.3,1.9,3.2,1.1,2.9-0.8
			c-0.7-4.9-1.1-10.7,2.2-14.8c2.6-3.3,7.2-4.3,11.1-5.2c10.7-2.5,21.6-4.2,32.3-7c12.5-3.2,25.4-6.7,38.5-6.3
			c4.8,0.2,11.6,0.8,14.5,5.2c2.3,3.4,2.2,8.8,2.9,12.7c2.4,12.5,8.9,23.9,12,36.2c2.1,8.2,4.6,16.2,6.5,24.4
			c0.9,4.1,1.8,8.2,1.9,12.4c0.2,4.5-1.8,5.6-5.9,6.9c-7.9,2.5-16.4,2.9-24.6,4C6.6-244-9.3-246.1-25-242.8
			c-10.3,2.2-22.7,7.1-33.2,4.9c-5.3-1.1-5.6-9.4-6-13.6c-0.5-5.5-0.4-11.1-0.6-16.6c-0.4-8.4-1.6-16.9-2-25.4
			c-0.5-9.6-0.9-19.3-2.1-28.9C-69.3-324.2-72.3-324.2-72-322.3L-72-322.3z"/>
	</g>
</g>
<g>
	<g>
		<path d="M-32-339.9c0.2,7.5,3.6,14.8,6,21.8c2.2,6.3,6.2,15.7-0.8,20.1c-5.7,3.7-13.5,4.5-20,5.5c-6.2,0.9-12.5,1.4-18.5,3.1
			c-1.9,0.5-1.1,3.4,0.8,2.9c6.7-2,13.9-2.4,20.9-3.5c6.6-1,14.7-2.2,20.1-6.6c5-4.1,3.9-10.4,2.5-16.1c-2.3-9-7.6-17.9-7.9-27.3
			C-29.1-341.8-32.1-341.8-32-339.9L-32-339.9z"/>
	</g>
</g>
<g>
	<g>
		<path d="M-66.5-268.8c8.8-0.1,17.5-0.9,26.2-1.9c6.9-0.7,13.8-0.9,20.6-2.1c4.4-0.8,7,6,8.3,9.4c2,5.7,2.7,11.9,3.5,17.9
			c0.2,1.9,3.2,1.9,3,0c-0.8-6.7-1.7-13.4-4-19.8c-1.1-3.1-4-9.3-7.5-10.5c-1.3-0.4-2.7-0.2-4.1,0.1c-4.7,0.8-9.6,1-14.4,1.5
			c-10.5,1-21,2.4-31.6,2.5C-68.4-271.8-68.4-268.8-66.5-268.8L-66.5-268.8z"/>
	</g>
</g>
<g>
	<g>
		<path d="M11-245.5c-0.3-11.5-5.2-22.2-8.1-33.2c-0.3,0.6-0.7,1.2-1,1.8c12.9-5.1,26.5-9.3,40.4-10.3c1.9-0.1,1.9-3.1,0-3
			c-14.2,1-28,5.3-41.2,10.5c-0.8,0.3-1.3,1-1,1.8c2.8,10.7,7.7,21.2,7.9,32.4C8-243.6,11-243.6,11-245.5L11-245.5z"/>
	</g>
</g>
<g>
	<g>
		<path d="M-16-343.1c-0.6,6.3,1.8,13.3,3.3,19.3c1.8,7.2,3.8,14.7,7.1,21.4c2.6,5.1,8.3,4.1,13.2,3.4c9-1.3,17.7-4.6,26.7-5.8
			c1.9-0.2,1.9-3.2,0-3c-7,0.9-13.8,3.1-20.6,4.6c-3.8,0.8-7.6,1.6-11.5,1.7c-3.1,0.1-4.2-0.4-5.5-3c-3.1-6.2-4.8-13.4-6.6-20.1
			c-1.5-5.7-3.7-12.5-3.2-18.5C-12.8-345-15.8-345-16-343.1L-16-343.1z"/>
	</g>
</g>
<g>
	<g>
		<path d="M40.7-287.2c1.1,0,2.1,0,3.2,0c1.9,0,1.9-3,0-3c-1.1,0-2.1,0-3.2,0C38.8-290.2,38.8-287.2,40.7-287.2L40.7-287.2z"/>
	</g>
</g>
<g>
	<g>
		<path d="M31.1-304.8c1.9,0,3.7,0,5.6,0c1.9,0,1.9-3,0-3c-1.9,0-3.7,0-5.6,0C29.2-307.8,29.2-304.8,31.1-304.8L31.1-304.8z"/>
	</g>
</g>
<g>
	<g>
		<path d="M40.7-309.4c-1.1,0-2.1,0-3.2,0c-1.9,0-1.9,3,0,3c1.1,0,2.1,0,3.2,0C42.6-306.4,42.6-309.4,40.7-309.4L40.7-309.4z"/>
	</g>
</g>
<g>
	<g>
		<path d="M-14.7-345.9c6.3-15.2-12.6-31-26.9-24.5c-14.8,6.6,5.5,19.5,8.9,26.5c0.9,1.7,3.5,0.2,2.6-1.5
			c-2.5-5-16.5-13.8-13.6-19.8c1.3-2.8,6.4-3.6,9.1-3.8c3.4-0.2,6.7,1.3,9.6,3c6.5,4,10.4,12,7.4,19.4
			C-18.3-344.9-15.4-344.1-14.7-345.9L-14.7-345.9z"/>
	</g>
</g>
<g>
	<g>
		<path d="M-27.7-368c2.9-0.5,5.7-3,8.1-4.6c4.6-3.2,9.1-6.5,13.8-9.7c5-3.4,10.1-6.6,15.6-9.3c4-1.9,9.8-4.5,14.2-2.4
			c5.1,2.4,4.3,10.8,3.9,15.3c-0.6,8-5.9,13.2-13.1,16c-10,3.9-24.4,3.8-29.2,15.2c-0.7,1.8,2.2,2.6,2.9,0.8
			c2.8-6.6,10.5-8.4,16.7-10.1c6.1-1.6,12.8-3.1,17.9-7c5.8-4.6,7.6-11.1,8-18.2c0.2-5-0.5-10.8-4.8-14c-7.9-6-22,3.6-28.5,7.7
			c-5.5,3.5-10.8,7.3-16.1,11.1c-2.8,2-6.7,5.7-10.3,6.3C-30.4-370.6-29.6-367.7-27.7-368L-27.7-368z"/>
	</g>
</g>
<g>
	<g>
		<path d="M-42-367.8c-6.5-9.1-17.6-16-27.1-21.4c-6.5-3.7-21.3-11.8-26.9-2.7c-3,4.9-0.9,12.6,0.8,17.5c2.5,7.2,7.8,12.9,14,17.3
			c13.4,9.5,31.5,12.4,47.5,12.5c1.9,0,1.9-3,0-3c-14-0.1-28.6-2.5-41.1-9.1c-6.5-3.4-12.1-8.3-15.7-14.7c-2.8-4.8-5.6-13.5-2.9-19
			c4-7.9,20.9,2.6,25.3,5.3c8.2,4.9,17.9,11,23.5,18.9C-43.5-364.8-40.9-366.3-42-367.8L-42-367.8z"/>
	</g>
</g>
<g>
	<g>
		<path d="M85.5,109.6c-1.1,30,21,54.1,49.2,61.5c12,3.2,25.3,3,36.7-2.3c11.7-5.5,18.5-16.8,20.3-29.3
			c3.9-27.2-10.9-53.6-38.4-59.5c-26.8-5.7-55.5,8.4-69,31.8c-1,1.7,1.6,3.2,2.6,1.5c16.7-28.9,60.9-43.8,87.8-19.5
			c13.2,11.9,17.2,32.4,13.4,49.2c-3,13.3-13,22.7-26.1,25.9c-16.5,4-34.6-1.4-48.3-10.7c-16.2-11-25.9-29-25.1-48.7
			C88.6,107.7,85.6,107.7,85.5,109.6L85.5,109.6z"/>
	</g>
</g>
<g>
	<g>
		<path d="M119.6,165.2c-19.4,6.4-34.9,24.2-44.3,41.7c-8.9,16.5-11.9,36.1,0.9,51.4c12.1,14.4,32.9,20.7,50.9,22.4
			c17.1,1.6,34.5-2.7,50.4-8.5c12.8-4.6,26.3-10.9,35.3-21.4c3.1-3.6,6-8.4,6.2-13.3c0.2-5.1-1.5-10.4-3.1-15.2
			c-4.3-13.3-10.8-26.1-18.1-38.1c-4.5-7.4-11.3-19.7-20.5-22.1c-1.9-0.5-2.7,2.4-0.8,2.9c6,1.6,10.7,8.9,14,13.5
			c5.5,7.7,10.1,16,14.2,24.5c4,8.1,7.5,16.6,9.9,25.4c2.1,7.8,1.4,13.7-3.9,20.2c-12.1,14.7-34,21.6-51.7,26
			c-18.1,4.5-36.2,4.2-54-1.7c-10.4-3.5-20.4-9.2-27.5-17.7c-7.8-9.3-8.5-21.4-5.5-32.7c3.3-12.4,10.7-23.7,19.1-33.3
			c7.8-9,17.7-17.5,29.3-21.2C122.2,167.4,121.4,164.5,119.6,165.2L119.6,165.2z"/>
	</g>
</g>
<g>
	<g>
		<path d="M157.5,278.7c-2.6,13.3-4.4,26.9-5.2,40.4c-0.4,7-0.6,14.1,0.5,21c0.6,4.2,1.6,9.3,5.1,12c1.5,1.2,3.6-0.9,2.1-2.1
			c-3.7-2.9-4.2-8.9-4.6-13.2c-0.7-6.7-0.4-13.5,0.1-20.2c0.8-12.5,2.5-25,4.9-37.2C160.8,277.6,157.9,276.8,157.5,278.7
			L157.5,278.7z"/>
	</g>
</g>
<g>
	<g>
		<path d="M159.8,356.9c4.1-2.6,8.5-4.3,13.1-5.8c1.8-0.6,1-3.5-0.8-2.9c-4.8,1.6-9.6,3.4-13.9,6.2
			C156.6,355.3,158.1,357.9,159.8,356.9L159.8,356.9z"/>
	</g>
</g>
<g>
	<g>
		<path d="M117.2,282.8c-11.1,24-20.6,49.3-25.6,75.4c-0.4,1.9,2.5,2.7,2.9,0.8c5-25.8,14.3-50.9,25.3-74.6
			C120.6,282.6,118,281.1,117.2,282.8L117.2,282.8z"/>
	</g>
</g>
<g>
	<g>
		<path d="M67.1,352.5c7.6,1.5,15.2,3.2,22.5,6c1.8,0.7,2.6-2.2,0.8-2.9c-7.3-2.8-14.9-4.5-22.5-6C66,349.3,65.2,352.2,67.1,352.5
			L67.1,352.5z"/>
	</g>
</g>
<g>
	<g>
		<path d="M209.9,207.5c9-23.5,23.7-44.8,22.6-70.9c-0.1-1.9-3.1-1.9-3,0c1.1,25.8-13.6,46.9-22.4,70.1
			C206.4,208.5,209.3,209.3,209.9,207.5L209.9,207.5z"/>
	</g>
</g>
<g>
	<g>
		<path d="M67.3,219.8c-14.2-26.8-29.7-53.6-51.2-75.3c-1.4-1.4-3.5,0.7-2.1,2.1c21.3,21.5,36.7,48.1,50.8,74.7
			C65.6,223.1,68.2,221.5,67.3,219.8L67.3,219.8z"/>
	</g>
</g>
<g>
	<g>
		<path d="M13.6,149.7c-1.8,5.2-4.4,10.1-7.3,14.6c-1.1,1.6,1.5,3.1,2.6,1.5c3.1-4.8,5.8-9.9,7.7-15.4
			C17.1,148.7,14.2,147.9,13.6,149.7L13.6,149.7z"/>
	</g>
</g>
<g>
	<g>
		<path d="M18,150.1c0-2.8,0.1-5.6,1.3-8.2c0.8-1.7-1.8-3.3-2.6-1.5c-1.5,3.1-1.7,6.3-1.7,9.8C15,152,18,152,18,150.1L18,150.1z"/>
	</g>
</g>
<g>
	<g>
		<path d="M15.7,152.9c4,1.7,8.3,0.3,12-1.5c1.7-0.8,0.2-3.4-1.5-2.6c-2.6,1.2-6.2,2.7-9,1.5C15.5,149.5,14,152.1,15.7,152.9
			L15.7,152.9z"/>
	</g>
</g>
<g>
	<g>
		<path d="M10.4,154.2c-1.6-4.5-4.6-7.8-7.9-11.2c-1.4-1.4-3.5,0.8-2.1,2.1c2.9,2.9,5.7,5.9,7.1,9.8C8.2,156.8,11.1,156,10.4,154.2
			L10.4,154.2z"/>
	</g>
</g>
<g>
	<g>
		<path d="M227.6,142.2c1.5-1.4,3.9-1.9,5.7-2.8c1.7-0.8,0.2-3.4-1.5-2.6c-2.1,1-4.5,1.6-6.3,3.2C224,141.4,226.2,143.5,227.6,142.2
			L227.6,142.2z"/>
	</g>
</g>
<g>
	<g>
		<path d="M230.8,138.8c-1.7-3.4-3.6-6.6-6.2-9.3c-1.4-1.4-3.5,0.7-2.1,2.1c2.5,2.6,4.2,5.5,5.8,8.7
			C229.1,142.1,231.6,140.6,230.8,138.8L230.8,138.8z"/>
	</g>
</g>
<g>
	<g>
		<path d="M225,141.1c-2.5,0-5.1,0.2-7.1,1.9c-1.4,1.3,0.7,3.4,2.1,2.1c1.3-1.1,3.3-1.1,4.9-1.1C226.9,144.1,226.9,141.1,225,141.1
			L225,141.1z"/>
	</g>
</g>
<g>
	<g>
		<path d="M225.7,145.4c4.5-2.9,9.6-4.2,14.6-5.8c1.8-0.6,1-3.5-0.8-2.9c-5.3,1.7-10.6,3.2-15.4,6.1
			C222.6,143.8,224.1,146.4,225.7,145.4L225.7,145.4z"/>
	</g>
</g>
<g>
	<g>
		<path d="M225.7,142.4c4.7-3.3,7.9-7.8,11-12.5c1.1-1.6-1.5-3.1-2.6-1.5c-2.8,4.2-5.7,8.5-10,11.5
			C222.7,140.9,224.2,143.5,225.7,142.4L225.7,142.4z"/>
	</g>
</g>
<g>
	<g>
		<path d="M88.5,103.6c-1.6-22.2,16.9-39.9,32.6-52.9c8.7-7.1,18-13.5,27.5-19.6c9.9-6.4,19.6-13.2,30.2-18.2
			c26.5-12.4,56.7-12.9,84-2.9c22.6,8.4,44.6,24.6,59,44c6.1,8.2,10.7,17.4,14,27c4,11.7,5,24,7.6,36c5.9,26.9,16,53.1,15,81
			c0.9-0.4,1.7-0.7,2.6-1.1c-36-33.6-48.3-84.7-85.7-117.2c-13.4-11.6-29.2-20-46.2-24.9c-15.5-4.4-33.7-5.7-47.9,3.3
			c-8.1,5.1-13.2,13.5-16.2,22.5c-0.6,1.8,2.3,2.6,2.9,0.8c14-41.6,65.8-26.6,93.2-8.7c41.5,27.1,55.2,76.8,85.6,113.5
			c3.8,4.6,7.9,8.8,12.2,12.9c1,0.9,2.5,0.3,2.6-1.1c1.1-30-10.4-58.2-16.2-87.1c-2.6-12.7-4-25-8.9-37.1
			c-3.9-9.7-9.5-18.6-16.2-26.7c-14.5-17.6-35.4-31.7-56.5-39.9c-25.1-9.7-53.1-9.4-78.3-0.2c-12.8,4.7-23.9,12.2-35.3,19.6
			c-10.3,6.6-20.4,13.5-30,21.2c-16.8,13.4-36.2,32.5-34.6,55.8C85.6,105.5,88.6,105.5,88.5,103.6L88.5,103.6z"/>
	</g>
</g>
<g>
	<g>
		<path d="M354.4,194c-3.4,3.7-5.6,8.3-9,12c-0.6,0.7-0.6,1.9,0.3,2.4c3.7,1.8,7.5,3.2,11.4,4.4c1.5,0.5,5.4,2.6,6.9,1.5
			c3.5-2.7,4.7-7.4,7.5-10.6c0.6-0.6,0.7-2-0.3-2.4c-4.1-1.7-5.8-5.6-8.7-8.8c-1.3-1.4-3.4,0.7-2.1,2.1c3.1,3.4,4.9,7.4,9.3,9.2
			c-0.1-0.8-0.2-1.6-0.3-2.4c-2,2.4-3.4,5.3-5.1,7.9c-1.8,2.8-3.5,1.4-6.4,0.5c-3.7-1.1-7.2-2.5-10.7-4.1c0.1,0.8,0.2,1.6,0.3,2.4
			c3.4-3.7,5.6-8.3,9-12C357.9,194.7,355.7,192.6,354.4,194L354.4,194z"/>
	</g>
</g>
<g>
	<g>
		<path d="M75.8,211.4c21.2-14,44.3-24.3,67.5-34.5c1.8-0.8,0.2-3.4-1.5-2.6c-23.2,10.2-46.3,20.5-67.5,34.5
			C72.6,209.9,74.1,212.5,75.8,211.4L75.8,211.4z"/>
	</g>
</g>
<g>
	<g>
		<path d="M69.4,237c41.2-16.8,83.2-31.9,123.4-51.1c1.7-0.8,0.2-3.4-1.5-2.6c-39.9,19.2-81.6,34.2-122.6,50.8
			C66.8,234.9,67.6,237.8,69.4,237L69.4,237z"/>
	</g>
</g>
<g>
	<g>
		<path d="M79.9,261c42.2-15.3,79.6-43.2,124.5-51c1.9-0.3,1.1-3.2-0.8-2.9c-44.9,7.8-82.2,35.7-124.5,51
			C77.3,258.8,78.1,261.7,79.9,261L79.9,261z"/>
	</g>
</g>
<g>
	<g>
		<path d="M108.8,278.9c33.2-17.2,70-25.4,104.6-38.8c1.8-0.7,1-3.6-0.8-2.9c-34.9,13.6-72,21.8-105.4,39.1
			C105.5,277.2,107,279.8,108.8,278.9L108.8,278.9z"/>
	</g>
</g>
<g>
	<g>
		<path d="M98.6,271.2c32.1-25.9,73.1-31.6,111.8-41.6c1.9-0.5,1.1-3.4-0.8-2.9C170.2,236.8,129,242.7,96.4,269
			C94.9,270.2,97.1,272.4,98.6,271.2L98.6,271.2z"/>
	</g>
</g>
<g>
	<g>
		<path d="M91.6,116.7c-6.2,31.1,51.1,54.3,61.5,20.9c4.3-13.8-9.8-25.3-20.5-30.6c-11.5-5.7-28.5-9.3-39.2-0.3
			c-2.2,1.8-3.7,4.3-4.7,7c-0.7,1.8,2.2,2.6,2.9,0.8c5.3-12.7,22.1-11,32.7-7.6c11,3.5,25.5,12.2,26.5,25c0.5,6.8-4.2,12.8-9.8,16.1
			c-6.5,3.8-14.6,3.2-21.6,1.3c-13.5-3.8-28-16.4-24.9-31.8C94.8,115.6,91.9,114.8,91.6,116.7L91.6,116.7z"/>
	</g>
</g>
<g>
	<g>
		<path d="M159,104.7c-2.2,6.9-2.9,15-0.6,21.9c2.4,7.2,10.2,9.3,16.8,6.1c7.2-3.5,8.3-11.4,5.4-18.4c-3.1-7.5-10.5-12.7-18.7-12.2
			c-1.9,0.1-1.9,3.1,0,3c6.9-0.4,12.4,3.6,15.6,9.5c3.1,5.8,2.2,13.1-4.4,15.7c-15.2,6-13.9-16.4-11.2-24.8
			C162.5,103.7,159.6,102.9,159,104.7L159,104.7z"/>
	</g>
</g>
<g>
	<g>
		<path d="M133.9,160.5c16.8-4.5,33.9-7.4,51-10.5c1.9-0.3,1.1-3.2-0.8-2.9c-17.1,3.1-34.2,6-51,10.5
			C131.2,158.2,132,161,133.9,160.5L133.9,160.5z"/>
	</g>
</g>
<g>
	<g>
		<path d="M120.8,134.9c0.5-0.2,0.9-0.5,1.4-0.8c0.2-0.1,0.9-0.4,0.3-0.2c-0.6,0.2-1.2-0.2-1.5-0.6c0.1,0.1,0.1,0.2,0.2,0.2
			c0.2,0.4,0.5,0.7,0.9,1.1c1.4,1.4,3.5-0.7,2.1-2.1c-0.1-0.1-0.5-0.6-0.2-0.2c-0.1-0.1-0.2-0.2-0.2-0.4c-0.4-0.6-0.8-0.9-1.5-0.9
			c-0.4,0-0.8,0.2-1.2,0.4c-0.5,0.3-1.1,0.6-1.6,0.9c-0.7,0.4-0.9,1.4-0.5,2.1C119.1,135.1,120,135.3,120.8,134.9L120.8,134.9z"/>
	</g>
</g>
<g>
	<g>
		<path d="M172.5,123.1c1.9,0,1.9-3,0-3S170.6,123.1,172.5,123.1L172.5,123.1z"/>
	</g>
</g>
<g>
	<g>
		<path d="M172.5,123.1c1.9,0,1.9-3,0-3S170.6,123.1,172.5,123.1L172.5,123.1z"/>
	</g>
</g>
<g>
	<g>
		<path d="M171,123.1c1.9,0,1.9-3,0-3S169.1,123.1,171,123.1L171,123.1z"/>
	</g>
</g>
<g>
	<g>
		<path d="M171,123.1c1.9,0,1.9-3,0-3S169.1,123.1,171,123.1L171,123.1z"/>
	</g>
</g>
<g>
	<g>
		<path d="M171,123.1c1.9,0,1.9-3,0-3S169.1,123.1,171,123.1L171,123.1z"/>
	</g>
</g>
<g>
	<g>
		<path d="M-406,429.6c-27.7,1.2-54.6,13.2-64.1,40.9c-7.8,23-1.4,49.7,12.4,69.1c14.6,20.4,38.5,31.4,63.4,26
			c17.4-3.8,36-14.9,43.1-31.8c7.6-18.1-3.3-38.4-12.1-53.8c-3.1-5.3-6.5-10.5-9.2-16c-2.8-5.7-5-11.6-7.9-17.2
			c-5-9.8-12.4-18.4-24.1-18.7c-1.9,0-1.9,3,0,3c20.6,0.5,24.3,27.5,33.2,41.3c10.5,16.3,24.1,38.4,18,58.5
			c-5.7,18.8-28.4,30-46.6,32.7c-12.8,1.9-25.8-1.2-36.7-8c-21.3-13.3-33.6-39.4-33.7-64.1c-0.1-12.3,3.4-24.4,10.5-34.5
			c8.2-11.6,21.2-18.5,34.7-21.9c6.3-1.6,12.8-2.3,19.2-2.6C-404.1,432.5-404.1,429.5-406,429.6L-406,429.6z"/>
	</g>
</g>
<g>
	<g>
		<path d="M-460,452.1c0-33.9,3.5-72,22-101.3c9.6-15.1,24.4-25.1,42.4-26.2c19.1-1.1,33,9.9,41.3,26.3
			c12.4,24.4,13.1,52.8,18.8,79.1c1-0.3,1.9-0.5,2.9-0.8c-9.1-23.1-31-46.8-58.2-43.3c-8.7,1.1-15.1,7.2-16.8,15.8
			c-2.2,10.7,3,21.9,9.3,30.2c1.2,1.5,3.8,0,2.6-1.5c-5.6-7.3-9.6-16-9.3-25.3c0.3-9.6,7.4-15.6,16.6-16.4
			c24.9-2.1,44.7,20.3,53,41.3c0.7,1.8,3.3,1.1,2.9-0.8c-3.6-16.8-5.3-33.9-9.2-50.6c-3.7-16.2-9.3-33.5-21.5-45.4
			c-11.9-11.8-29.5-13.7-45.1-9.4c-15.5,4.3-27.1,16.3-34.9,29.9c-16.6,29-19.8,65.7-19.8,98.4C-463,454-460,454-460,452.1
			L-460,452.1z"/>
	</g>
</g>
<g>
	<g>
		<path d="M-338.9,425.2c-7.5,3.1-14.4,7.9-13,16.8c0.1,0.7,0.8,1.1,1.4,1.1c4.5,0.1,8.9,1.4,13.5,1.5c-0.5-0.6-1-1.3-1.4-1.9
			c-0.5,1.8-3.7,4.5-0.8,6.2c2.9,1.7,7.1,2.3,10.4,2.7c4.2,0.5,9.1-0.4,11.5-4.3c2.1-3.5,0.5-7.9-1.6-10.9
			c-3.7-5.3-10.1-8.2-16.1-9.8c-1.9-0.5-2.7,2.4-0.8,2.9c6.1,1.6,17.7,6.6,16.5,14.8c-0.5,3.3-4.1,4.2-6.9,4.3
			c-2.4,0.1-4.8-0.4-7.1-1c-0.8-0.2-4.4-0.6-3.2-2.1c0.6-0.7,0.9-1.3,1.1-2.2c0.3-1-0.5-1.9-1.4-1.9c-4.6-0.1-9-1.4-13.5-1.5
			c0.5,0.4,1,0.7,1.4,1.1c-1.1-7.1,5.3-10.8,11-13.2C-336.4,427.3-337.1,424.4-338.9,425.2L-338.9,425.2z"/>
	</g>
</g>
<g>
	<g>
		<path d="M-462.8,466.3c-6.9,9.7-6.6,23.1,3.1,30.8c10,8,24.2,2.4,31.7-6.3c6.9-8,3.6-18.2-3.7-24.4c-8.8-7.5-21.8-8.8-32-3.6
			c-1.7,0.9-0.2,3.5,1.5,2.6c8.5-4.3,18.2-3.3,26.2,1.6c7.1,4.3,11.5,12.6,6.9,20.3c-5.3,9.1-18.8,13.8-27.9,8.1
			c-9.7-6-9.1-19.2-3.2-27.5C-459.1,466.3-461.7,464.8-462.8,466.3L-462.8,466.3z"/>
	</g>
</g>
<g>
	<g>
		<path d="M-413.1,464.5c-9.1,10.5-11.4,24,0.7,33c9.6,7.2,25.8,8.3,35.4,0.5c10.9-8.9,11.7-25.6,0.1-34.2
			c-11.1-8.1-28.5-10.1-40.4-2.6c-1.6,1-0.1,3.6,1.5,2.6c10.1-6.4,24.1-5.1,34.3,0.5c12,6.7,13.3,21.8,3,31
			c-8.1,7.2-21.5,5.9-30.3,0.9c-4.5-2.5-8-6.6-9.1-11.7c-1.5-6.7,2.8-13.2,6.9-18C-409.7,465.2-411.8,463.1-413.1,464.5
			L-413.1,464.5z"/>
	</g>
</g>
<g>
	<g>
		<path d="M-434.1,546.5c29-7.8,56.4-20.7,82.9-34.7c1.7-0.9,0.2-3.5-1.5-2.6c-26.3,13.9-53.3,26.6-82.1,34.3
			C-436.8,544.2-436,547-434.1,546.5L-434.1,546.5z"/>
	</g>
</g>
<g>
	<g>
		<path d="M-446.5,483.6c1.9,0,1.9-3,0-3S-448.4,483.6-446.5,483.6L-446.5,483.6z"/>
	</g>
</g>
<g>
	<g>
		<path d="M-446.5,483.6c1.9,0,1.9-3,0-3S-448.4,483.6-446.5,483.6L-446.5,483.6z"/>
	</g>
</g>
<g>
	<g>
		<path d="M-389.5,488.1c1.9,0,1.9-3,0-3S-391.4,488.1-389.5,488.1L-389.5,488.1z"/>
	</g>
</g>
<g>
	<g>
		<path d="M-389.5,488.1c1.9,0,1.9-3,0-3S-391.4,488.1-389.5,488.1L-389.5,488.1z"/>
	</g>
</g>
<g>
	<g>
		<path d="M-404.3,566.8c-12.4,22.1-10.7,49-9.2,73.4c0.8,12.5,2,25.1,1.2,37.6c-0.6,9.2-2.2,20,4.3,27.5c4.6,5.2,11.9,4.5,18.1,3.8
			c9.4-1,18.7-3.2,27.8-5.5c14-3.5,30.3-6.8,40.7-17.5c18.8-19.4,14.8-52.9,9.3-76.7c-6.3-27.2-18-56.8-37.4-77.3
			c-1.3-1.4-3.4,0.7-2.1,2.1c11.2,11.9,19.1,26.9,25.5,41.8c7.6,17.7,12.9,36.6,14.8,55.7c1.6,15.9,0.7,33.6-8.2,47.3
			c-8.7,13.4-25.3,16.9-39.8,20.8c-11.9,3.2-24.5,6.5-36.9,6.7c-17.3,0.4-13.3-21.4-12.8-32.8c1.5-34.6-10.7-73.3,7.3-105.4
			C-400.8,566.7-403.4,565.2-404.3,566.8L-404.3,566.8z"/>
	</g>
</g>
<g>
	<g>
		<path d="M-408.6,687.2c6,5.9,13.1,10.3,19.8,15.2c1.6,1.2,3.1-1.5,1.5-2.6c-6.5-4.8-13.4-9.1-19.2-14.8
			C-407.8,683.7-410,685.8-408.6,687.2L-408.6,687.2z"/>
	</g>
</g>
<g>
	<g>
		<path d="M-408.8,655.4c11.5,15.4,28.4,25.8,39,42c1.1,1.6,3.7,0.1,2.6-1.5c-10.6-16.2-27.5-26.6-39-42
			C-407.4,652.3-410,653.8-408.8,655.4L-408.8,655.4z"/>
	</g>
</g>
<g>
	<g>
		<path d="M-411.8,616.4c13.4,29.6,36.9,53.3,55.5,79.5c1.1,1.6,3.7,0.1,2.6-1.5c-18.6-26.2-42.1-49.9-55.5-79.5
			C-410,613.1-412.6,614.6-411.8,616.4L-411.8,616.4z"/>
	</g>
</g>
<g>
	<g>
		<path d="M-411.8,590.9c17,40,50.5,71.2,78.2,103.8c1.3,1.5,3.4-0.7,2.1-2.1c-27.6-32.4-60.9-63.4-77.8-103.2
			C-410,587.6-412.5,589.1-411.8,590.9L-411.8,590.9z"/>
	</g>
</g>
<g>
	<g>
		<path d="M-407.5,577c5.7,20.8,21.4,38.3,36.5,53.1c16.3,16,34.7,30.5,54.2,42.3c1.7,1,3.2-1.6,1.5-2.6
			c-18.6-11.2-35.8-24.8-51.5-39.8c-15.5-14.8-32-32.6-37.8-53.8C-405.1,574.3-408,575.1-407.5,577L-407.5,577z"/>
	</g>
</g>
<g>
	<g>
		<path d="M-393.8,565.4c19.5,32.1,48.6,57.9,78.5,80c1.6,1.2,3.1-1.5,1.5-2.6c-29.5-21.8-58.3-47.3-77.5-79
			C-392.2,562.2-394.8,563.7-393.8,565.4L-393.8,565.4z"/>
	</g>
</g>
<g>
	<g>
		<path d="M-380.1,564.2c8.6,11,17.8,21.3,28.5,30.4c10.4,8.8,22,16.3,33.3,23.9c1.6,1.1,3.1-1.5,1.5-2.6
			c-11.1-7.4-22.4-14.8-32.7-23.4c-10.7-8.9-19.9-19.4-28.5-30.4C-379.1,560.5-381.2,562.7-380.1,564.2L-380.1,564.2z"/>
	</g>
</g>
<g>
	<g>
		<path d="M-363.6,555.2c12.3,10.9,21.6,25.5,38.2,30.4c1.9,0.5,2.6-2.3,0.8-2.9c-15.9-4.7-25-19.1-36.8-29.6
			C-362.9,551.8-365,553.9-363.6,555.2L-363.6,555.2z"/>
	</g>
</g>
<g>
	<g>
		<path d="M-383.5,710.5c5.7,19.4,4.5,39.6,4.4,59.6c0,1.9,3,1.9,3,0c0-20.3,1.3-40.7-4.6-60.4C-381.1,707.8-384,708.6-383.5,710.5
			L-383.5,710.5z"/>
	</g>
</g>
<g>
	<g>
		<path d="M-376,771.6c-6.5,0-13,0-19.5,0c-1.9,0-1.9,3,0,3c6.5,0,13,0,19.5,0C-374.1,774.6-374.1,771.6-376,771.6L-376,771.6z"/>
	</g>
</g>
<g>
	<g>
		<path d="M-338.5,700c5.9,22.8,5.9,47.1,15,69c0.7,1.8,3.6,1,2.9-0.8c-9.1-21.9-9.1-46.2-15-69C-336,697.3-338.9,698.1-338.5,700
			L-338.5,700z"/>
	</g>
</g>
<g>
	<g>
		<path d="M-322,770.1c-6,0.2-11.3,2.6-16.9,4.6c-1.8,0.6-1,3.5,0.8,2.9c5.3-1.8,10.4-4.3,16.1-4.4C-320.1,773-320.1,770-322,770.1
			L-322,770.1z"/>
	</g>
</g>
<g>
	<g>
		<path d="M-418.4,615.7c-27.7,6.6-40.8,34.3-57.7,54.4c-1.2,1.5,0.9,3.6,2.1,2.1c16.4-19.6,29.3-47.2,56.3-53.6
			C-415.7,618.1-416.5,615.2-418.4,615.7L-418.4,615.7z"/>
	</g>
</g>
<g>
	<g>
		<path d="M-319.8,592.9c33.9,20.3,54.6,55.9,76,88c1.1,1.6,3.7,0.1,2.6-1.5c-21.6-32.5-42.7-68.4-77-89
			C-319.9,589.3-321.4,591.9-319.8,592.9L-319.8,592.9z"/>
	</g>
</g>
<g>
	<g>
		<path d="M-250,681.6c-0.1,3.8-1.4,6.7-4.1,9.4c-1.4,1.4,0.8,3.5,2.1,2.1c3.2-3.3,4.9-7,4.9-11.6C-247,679.7-250,679.7-250,681.6
			L-250,681.6z"/>
	</g>
</g>
<g>
	<g>
		<path d="M-248.3,679.4c3,4.3,7.1,7.2,10.7,10.8c1.4,1.4,3.5-0.8,2.1-2.1c-3.5-3.4-7.5-6.2-10.3-10.2
			C-246.8,676.3-249.4,677.8-248.3,679.4L-248.3,679.4z"/>
	</g>
</g>
<g>
	<g>
		<path d="M-247,681.6c4.1-0.1,7.6-1.4,11.3-3.2c1.7-0.9,0.2-3.5-1.5-2.6c-3.2,1.6-6.2,2.7-9.7,2.8
			C-248.9,678.6-248.9,681.6-247,681.6L-247,681.6z"/>
	</g>
</g>
<g>
	<g>
		<path d="M-470.5,669.6c0.1,4.1,1.4,7.6,3.2,11.3c0.9,1.7,3.5,0.2,2.6-1.5c-1.6-3.2-2.7-6.2-2.8-9.7
			C-467.5,667.7-470.5,667.7-470.5,669.6L-470.5,669.6z"/>
	</g>
</g>
<g>
	<g>
		<path d="M-475,671.1c-4.9,0.1-9.5,1.6-13.1,4.9c-1.4,1.3,0.7,3.4,2.1,2.1c3-2.8,6.9-4,10.9-4.1
			C-473.1,674.1-473.1,671.1-475,671.1L-475,671.1z"/>
	</g>
</g>
<g>
	<g>
		<path d="M-476.5,669.6c0-4.2-0.5-8.3-3.4-11.6c-1.3-1.4-3.4,0.7-2.1,2.1c2.4,2.6,2.6,6.1,2.6,9.4
			C-479.5,671.5-476.5,671.5-476.5,669.6L-476.5,669.6z"/>
	</g>
</g>
<g>
	<g>
		<path d="M-245.5,677.1c0-2.5,0-5,0-7.5c0-1.9-3-1.9-3,0c0,2.5,0,5,0,7.5C-248.5,679-245.5,679-245.5,677.1L-245.5,677.1z"/>
	</g>
</g>
<g>
	<g>
		<path d="M-476.5,672.6c0.1,3.5,1.7,6.7,3.2,9.8c0.9,1.7,3.5,0.2,2.6-1.5c-1.3-2.6-2.7-5.3-2.8-8.2
			C-473.6,670.7-476.6,670.7-476.5,672.6L-476.5,672.6z"/>
	</g>
</g>
<g>
	<g>
		<path d="M-441.8-212.7c-19,8.3-29.9,27.6-35.6,46.7c-5.2,17.8-7.6,39.5,2.8,55.8c9.7,15.2,28.4,21.4,45.6,22.6
			c17.5,1.2,38-2,51.5-14c19.4-17.3,21.6-48.1,15-71.7c-3.6-13-10.9-25.6-21.6-33.9c-14.1-10.9-34.2-8.7-50.6-13.2
			c-1.9-0.5-2.7,2.4-0.8,2.9c11.9,3.3,24.3,3.4,36.2,6.5c11.9,3.1,20.5,11.4,26.7,21.7c9.9,16.4,12.6,37.4,8.8,56
			c-3.9,19.2-15.9,34.2-35,39.6c-19,5.4-41.4,5-58.9-4.8c-9-5-15.7-13.1-18.9-22.9c-3.4-10.3-2.3-22-0.5-32.5
			c3.8-22.3,15-46.6,36.8-56.2C-438.5-210.9-440-213.5-441.8-212.7L-441.8-212.7z"/>
	</g>
</g>
<g>
	<g>
		<path d="M-448.9-91.3c-18.3,2.9-33,12.3-36.7,31.3c-3.7,19.3,1.2,41.9,12.2,58c10.8,15.9,28.4,25.3,46.8,29.3
			c19.3,4.2,41.7,3.5,59.7-5.3c21.7-10.6,23.9-33.9,18.3-55c-6.4-24.1-20.2-46.3-34.1-66.7c-1.1-1.6-3.7-0.1-2.6,1.5
			c9.4,13.8,18.1,28,25.2,43.1c6.9,14.7,13.3,31.9,11,48.5c-2.5,18.2-17.8,27.4-34.4,31.2c-21,4.8-45.4,1.9-64.5-8.1
			c-22.2-11.7-33.1-33.8-35.2-58.1c-0.9-10.8-0.1-22.2,5.9-31.5c6.4-9.8,18.3-13.7,29.2-15.4C-446.2-88.8-447-91.6-448.9-91.3
			L-448.9-91.3z"/>
	</g>
</g>
<g>
	<g>
		<path d="M-388.5,28.6C-387,44.9-384.2,61-381,77c0.4,1.9,3.3,1.1,2.9-0.8c-3.1-15.8-5.9-31.6-7.4-47.6
			C-385.7,26.7-388.7,26.7-388.5,28.6L-388.5,28.6z"/>
	</g>
</g>
<g>
	<g>
		<path d="M-376.1,81c11.1-1.6,22.1-3.3,33-6c1.9-0.5,1.1-3.4-0.8-2.9c-10.9,2.7-21.9,4.4-33,6C-378.8,78.4-378,81.3-376.1,81
			L-376.1,81z"/>
	</g>
</g>
<g>
	<g>
		<path d="M-438,25.6c0,19.5,1.5,39,1.5,58.5c0,1.9,3,1.9,3,0c0-19.5-1.5-39-1.5-58.5C-435,23.7-438,23.7-438,25.6L-438,25.6z"/>
	</g>
</g>
<g>
	<g>
		<path d="M-436.5,82.6c-12.7,1.6-25.4,3-37.9,6.1c-1.9,0.5-1.1,3.3,0.8,2.9c12.2-3,24.7-4.4,37.1-5.9
			C-434.6,85.4-434.6,82.4-436.5,82.6L-436.5,82.6z"/>
	</g>
</g>
<g>
	<g>
		<path d="M-365.6-66.3c21.6,23.5,36.1,52.4,57,76.5c1.3,1.5,3.4-0.7,2.1-2.1c-20.9-24.1-35.3-53-57-76.5
			C-364.8-69.9-366.9-67.8-365.6-66.3L-365.6-66.3z"/>
	</g>
</g>
<g>
	<g>
		<path d="M-486.8-64.2c-30.5,21.8-42.5,58.7-54.7,92.4c-0.7,1.8,2.2,2.6,2.9,0.8c11.9-32.9,23.5-69.4,53.3-90.6
			C-483.7-62.7-485.2-65.3-486.8-64.2L-486.8-64.2z"/>
	</g>
</g>
<g>
	<g>
		<path d="M-539.3,29.9c2.2,1.1,4,2.5,5.7,4.3c1.4,1.4,3.5-0.8,2.1-2.1c-1.9-1.9-3.9-3.5-6.3-4.7C-539.5,26.4-541,29-539.3,29.9
			L-539.3,29.9z"/>
	</g>
</g>
<g>
	<g>
		<path d="M-543,31.6c-0.1,3.2-1.9,5.7-4.1,7.9c-1.3,1.4,0.8,3.5,2.1,2.1c2.7-2.8,4.8-6.1,4.9-10.1C-540,29.7-543,29.7-543,31.6
			L-543,31.6z"/>
	</g>
</g>
<g>
	<g>
		<path d="M-538.9,30.5c-3.2-3.1-6.9-5.7-10.8-7.7c-1.7-0.9-3.2,1.7-1.5,2.6c3.7,1.9,7.2,4.3,10.2,7.3
			C-539.7,34-537.6,31.9-538.9,30.5L-538.9,30.5z"/>
	</g>
</g>
<g>
	<g>
		<path d="M-541.5,31.6c4.9-0.1,8.8-2.1,12.8-4.7c1.6-1.1,0.1-3.7-1.5-2.6c-3.5,2.3-6.9,4.2-11.2,4.3
			C-543.4,28.6-543.4,31.6-541.5,31.6L-541.5,31.6z"/>
	</g>
</g>
<g>
	<g>
		<path d="M-311.8,6.8c-3.3,4.9-7.6,9-11.8,13.2c-1.4,1.4,0.8,3.5,2.1,2.1c4.4-4.4,8.7-8.7,12.2-13.8
			C-308.1,6.8-310.7,5.3-311.8,6.8L-311.8,6.8z"/>
	</g>
</g>
<g>
	<g>
		<path d="M-315,13.6c2.9,0.1,5,2.9,6.2,5.3c0.9,1.7,3.5,0.2,2.6-1.5c-1.7-3.3-4.8-6.6-8.8-6.7C-317,10.5-316.9,13.5-315,13.6
			L-315,13.6z"/>
	</g>
</g>
<g>
	<g>
		<path d="M-313.5,10.6c3.8-0.1,7.3-1.8,10.9-3.1c1.8-0.6,1-3.5-0.8-2.9c-3.2,1.1-6.6,2.8-10.1,2.9
			C-315.4,7.7-315.5,10.7-313.5,10.6L-313.5,10.6z"/>
	</g>
</g>
<g>
	<g>
		<path d="M-313.5,12.1c4.8-0.1,9.4-1.5,13.9-3.1c1.8-0.6,1-3.5-0.8-2.9c-4.3,1.4-8.6,2.8-13.1,2.9
			C-315.4,9.1-315.5,12.1-313.5,12.1L-313.5,12.1z"/>
	</g>
</g>
<g>
	<g>
		<path d="M-436.5-218.9c-4.9,0.1-9.5,1.6-13.1,4.9c-1.4,1.3,0.7,3.4,2.1,2.1c3-2.8,6.9-4,10.9-4.1
			C-434.6-215.9-434.6-218.9-436.5-218.9L-436.5-218.9z"/>
	</g>
</g>
<g>
	<g>
		<path d="M-381-202.4c5.9-44.7-30.4-86.4-67.6-105.7c-19.5-10.1-41.3-14-63-10c-18.7,3.4-34.6,14.3-45.7,29.6
			c-13.3,18.3-19,41.4-21.7,63.6c-0.2,1.6,2.1,1.9,2.8,0.8c6.1-10.3,13.6-19.7,24.6-25.1c11.4-5.7,24.9-5.2,37.2-3.9
			c13.4,1.4,24.4,7.8,33.9,17.2c8.9,8.8,16.7,18.3,26.7,25.9c1.5,1.2,3-1.4,1.5-2.6c-11-8.4-19.4-19.4-29.6-28.8
			c-10.1-9.3-22.1-13.8-35.7-15.1c-12.1-1.1-24.5-0.5-35.6,4.7c-11.4,5.3-19.4,15.7-25.7,26.2c0.9,0.3,1.9,0.5,2.8,0.8
			c2.5-20.7,7.9-41.6,19.3-59.2c11.4-17.6,29.1-28.6,49.7-31.7c47.9-7.2,95.7,28.3,115.5,70c6.4,13.5,9.4,28.6,7.4,43.4
			C-384.3-200.5-381.3-200.5-381-202.4L-381-202.4z"/>
	</g>
</g>
<g>
	<g>
		<path d="M-580.3-224.1c4.3,5.8,8.7,11.6,12,18c0.2-0.7,0.4-1.4,0.5-2.1c-4.6,2.3-9.1,4.8-13.5,7.5c0.7,0.2,1.4,0.4,2.1,0.5
			c-1.9-3.6-4.1-6.9-6-10.5c-0.3-0.6-1.1-0.9-1.7-0.7c-0.7,0.3-1.4,0.6-1.8,1.4c-0.2,0.3-0.3,0.7-0.5,1c-0.6,1.5,1.4,1.2-1.2-0.1
			c-5.1-2.5-10.1-5.1-14.9-8.2c-1.4-0.9-3.1,1.2-1.8,2.4c4.1,3.5,9.1,7.2,14.1,3.3c4.9-3.8,5.7-10.7,11.7-13.6
			c1.7-0.8,0.2-3.4-1.5-2.6c-4.1,2-6.5,5.7-8.8,9.5c-1.2,1.9-2.3,3.9-4.2,5.1c-2.9,1.8-7.2-2.2-9.1-3.9c-0.6,0.8-1.2,1.6-1.8,2.4
			c5.3,3.4,10.9,6.2,16.5,9c0.9,0.4,1.5,0.7,2.4,0.2c0.9-0.5,1.1-2.8,1.8-3c-0.6-0.2-1.1-0.5-1.7-0.7c1.9,3.6,4.1,6.9,6,10.5
			c0.4,0.7,1.4,0.9,2.1,0.5c4.4-2.7,8.9-5.2,13.5-7.5c0.8-0.4,0.9-1.4,0.5-2.1c-3.3-6.4-7.7-12.2-12-18
			C-578.9-227.2-581.5-225.7-580.3-224.1L-580.3-224.1z"/>
	</g>
</g>
<g>
	<g>
		<path d="M-461.6-176.5c-10.4,13-8.5,29.6,1.6,42.2c8.9,11.1,25.2,17.3,37.6,8c31.9-23.8-16.3-56.8-41.1-53.7c-1.9,0.2-1.9,3.2,0,3
			c21.4-2.7,64.5,22.3,41.9,46c-10.5,11-25.7,5.7-34.8-3.9c-10.3-10.9-12.6-27.5-3-39.5C-458.3-175.8-460.4-178-461.6-176.5
			L-461.6-176.5z"/>
	</g>
</g>
<g>
	<g>
		<path d="M-393.8-170.7c-16.6,8.2-8,37,10.2,35.3c9.9-0.9,15.3-8.6,12.5-17.9c-2.8-9.5-12-18.3-21.6-20.5c-1.9-0.4-2.7,2.5-0.8,2.9
			c7.9,1.8,14.2,8,18,15c1.8,3.3,2.8,7.1,1.9,10.8c-1.2,4.6-6.8,6.5-11,6.9c-15.1,1.4-20.8-23.4-7.7-29.8
			C-390.5-169-392-171.5-393.8-170.7L-393.8-170.7z"/>
	</g>
</g>
<g>
	<g>
		<path d="M-415.5-148.4c4.5,0,9,0,13.5,0c1.9,0,1.9-3,0-3c-4.5,0-9,0-13.5,0C-417.4-151.4-417.4-148.4-415.5-148.4L-415.5-148.4z"
			/>
	</g>
</g>
<g>
	<g>
		<path d="M-373.6-155.5c1.6-6,4.3-11.4,8.6-15.8c1.3-1.4-0.8-3.5-2.1-2.1c-4.6,4.8-7.7,10.7-9.4,17.2
			C-377-154.4-374.1-153.6-373.6-155.5L-373.6-155.5z"/>
	</g>
</g>
<g>
	<g>
		<path d="M-468.4-149.5c-3-3-6-6-9-9c-1.4-1.4-3.5,0.8-2.1,2.1c3,3,6,6,9,9C-469.2-146-467.1-148.1-468.4-149.5L-468.4-149.5z"/>
	</g>
</g>
<g>
	<g>
		<path d="M-457.5-106.4c26.2,0,52.9-1.3,78.4-7.6c1.9-0.5,1.1-3.4-0.8-2.9c-25.2,6.2-51.7,7.4-77.6,7.4
			C-459.4-109.4-459.4-106.4-457.5-106.4L-457.5-106.4z"/>
	</g>
</g>
<g>
	<g>
		<path d="M-438-145.4c1.9,0,1.9-3,0-3S-439.9-145.4-438-145.4L-438-145.4z"/>
	</g>
</g>
<g>
	<g>
		<path d="M-388.5-146.9c1.9,0,1.9-3,0-3S-390.4-146.9-388.5-146.9L-388.5-146.9z"/>
	</g>
</g>
<g>
	<g>
		<path d="M-479.3-25.6c28.1,21.7,60.7,36.3,93.4,49.6c1.8,0.7,2.6-2.2,0.8-2.9c-32.4-13.3-64.8-27.8-92.6-49.3
			C-479.3-29.4-480.8-26.8-479.3-25.6L-479.3-25.6z"/>
	</g>
</g>
<g>
	<g>
		<path d="M-484.1-52.8c16.6,15.4,38.3,25.1,59,33.8c22.6,9.5,45.9,17.3,69.2,25c1.8,0.6,2.6-2.3,0.8-2.9
			c-21.9-7.3-43.7-14.6-65.1-23.3c-21.5-8.8-44.6-18.8-61.8-34.8C-483.4-56.3-485.5-54.2-484.1-52.8L-484.1-52.8z"/>
	</g>
</g>
<g>
	<g>
		<path d="M-477.4-76.5c40.3,9.6,74.3,37.1,115.9,42.1c1.9,0.2,1.9-2.8,0-3c-41.3-4.9-75.1-32.5-115.1-41.9
			C-478.5-79.8-479.3-76.9-477.4-76.5L-477.4-76.5z"/>
	</g>
</g>
<g>
	<g>
		<path d="M-429.8-88.6c18.4,11.4,40.3,15.1,60.4,22.6c1.8,0.7,2.6-2.2,0.8-2.9c-19.8-7.5-41.5-11.1-59.6-22.3
			C-429.9-92.2-431.4-89.6-429.8-88.6L-429.8-88.6z"/>
	</g>
</g>
</svg>
