<?xml version="1.0" encoding="utf-8"?>
<!-- Generator: Adobe Illustrator 16.0.0, SVG Export Plug-In . SVG Version: 6.00 Build 0)  -->
<!DOCTYPE svg PUBLIC "-//W3C//DTD SVG 1.1//EN" "http://www.w3.org/Graphics/SVG/1.1/DTD/svg11.dtd">
<svg version="1.1" id="Layer_1" xmlns="http://www.w3.org/2000/svg" xmlns:xlink="http://www.w3.org/1999/xlink" x="0px" y="0px"
	 width="253.5px" height="456px" viewBox="0 0 253.5 456" style="enable-background:new 0 0 253.5 456;" xml:space="preserve">
<g>
	<g>
		<path d="M802.6-90.9c8.9-7,14.3-16.5,18.7-26.8c4.6-10.5,7.6-21.2,8.1-32.6c0.9-23-11.5-43-28.9-57.1
			c-30.1-24.4-73.8-27.9-107.7-9.5c-1.7,0.9-0.2,3.5,1.5,2.6c32.4-17.6,72.8-14.2,102.3,7.6c17.7,13.1,29.7,32.4,29.9,54.7
			c0.1,11.4-3.2,22.4-7.7,32.8c-4.3,10-9.6,19.4-18.3,26.1C798.9-91.8,801-89.7,802.6-90.9L802.6-90.9z"/>
	</g>
</g>
<g>
	<g>
		<path d="M698-217c-32.2,3.9-34.9,45-33.4,70.1c1.1,17.8,5,38.1,15.7,52.8c9.4,13,25.1,20.1,40.4,23.1c1.9,0.4,2.7-2.5,0.8-2.9
			c-14.9-2.9-29.2-9.5-38.6-21.7c-10.4-13.4-13.8-33.2-15.2-49.6c-2-23.2-0.3-65.2,30.2-68.8C699.9-214.2,699.9-217.2,698-217
			L698-217z"/>
	</g>
</g>
<g>
	<g>
		<path d="M722-70.6c-17.4,3.8-26.7,25.6-33.3,40c-9.4,20.6-22.5,43.1-13.6,66c8.3,21.5,29.4,36.9,49.3,46.7
			c19.8,9.7,41.6,14.9,63.3,18.3c41.9,6.7,90.9,4,117.3-34c14-20,19.5-45.8,16.5-69.9c-2.6-21-12.3-39-29.8-51.1
			c-26.8-18.4-61.2-20.7-88.6-38c-1.6-1-3.1,1.6-1.5,2.6c17.2,10.8,37.1,16,56.1,22.7c19.5,6.8,39.4,15.8,50.8,33.9
			c13.7,21.5,13.3,50.9,5.7,74.5c-7.7,23.9-24.6,43.2-48.1,52.2c-21.3,8.1-45,8.1-67.3,5.6c-22.5-2.5-45.4-7.6-66.3-16.4
			c-22.7-9.6-45.9-25.9-55.2-49.7c-5.9-15.1-0.2-30.2,6.1-44c3.9-8.5,7.4-17.2,11.5-25.7c5.7-11.7,13.9-27.8,27.8-30.8
			C724.7-68.1,723.9-71,722-70.6L722-70.6z"/>
	</g>
</g>
<g>
	<g>
		<path d="M844.1,103.6c3.6,6.9,3,14.7,3.8,22.2c0.2,1.9,3.2,1.9,3,0c-0.9-8.1-0.3-16.3-4.2-23.8
			C845.8,100.4,843.2,101.9,844.1,103.6L844.1,103.6z"/>
	</g>
</g>
<g>
	<g>
		<path d="M839.4,129.4c10.3,0,20.7,0,31,0c1.9,0,1.9-3,0-3c-10.3,0-20.7,0-31,0C837.5,126.4,837.5,129.4,839.4,129.4L839.4,129.4z"
			/>
	</g>
</g>
<g>
	<g>
		<path d="M837.9,131.9c1.2,14.4,4.8,28.5,4,43c-0.1,1.9,2.9,1.9,3,0c0.8-14.5-2.8-28.6-4-43C840.8,130,837.8,130,837.9,131.9
			L837.9,131.9z"/>
	</g>
</g>
<g>
	<g>
		<path d="M870,129.5c-2.7,11.9-1.1,24.4-5,36c-0.4,1.2,0.8,2.1,1.8,1.8c11.7-2.4,25.4-7,33.6,4.8c5.4,7.7-13.1,10.1-17.4,10.6
			c-10,1.1-34.9,6.8-38.2-7.2c-0.5-1.9-3.3-1.1-2.9,0.8c2.1,8.5,10.7,10.6,18.5,11.1c9.7,0.6,20.4-0.7,29.9-2.7
			c6.8-1.4,17.7-5.1,12.8-14c-7.7-13.8-24.9-8.7-37-6.2c0.6,0.6,1.2,1.2,1.8,1.8c3.9-11.6,2.3-24.1,5-36
			C873.3,128.4,870.4,127.6,870,129.5L870,129.5z"/>
	</g>
</g>
<g>
	<g>
		<path d="M765.9,97.9c-0.1,11.7-1,23.3-1,35c0,1.9,3,1.9,3,0c0-11.7,0.9-23.3,1-35C768.9,96,765.9,96,765.9,97.9L765.9,97.9z"/>
	</g>
</g>
<g>
	<g>
		<path d="M754.4,137.4c8.7,0.9,17.5-0.8,26.2-0.5c4.5,0.1,8.9,0.5,10.3,5.4c1.3,4.6,0.3,10.2-0.3,14.9c-1,8.6-0.4,18.9-7.3,25.2
			c-6.1,5.6-16.8,4.3-24.4,4.2c-8.6-0.2-17.2,1-25.8,0.7c-5-0.1-9.5-6.1-5.4-10.2c3.1-3.1,8.3-4.2,12.4-5.1
			c4.1-0.9,8.2-0.7,12.3-0.6c2.2,0,4.2-0.5,5.7-2.2c7.1-7.6,3.9-20.1,3.7-29.2c0-1.9-3-1.9-3,0c0.1,6.4,1.6,12.9,0.4,19.3
			c-0.7,3.9-2.3,9-6.8,9.1c-8.3,0.2-15.8,0.4-23.4,4.3c-7.2,3.7-7.5,10-1.9,15.4c5.1,4.9,15.7,1.8,22,1.5c14-0.8,33.9,4.4,41.1-11.8
			c3.5-7.9,3.4-18.2,4.1-26.7c0.6-7.3,0-14.8-8.2-16.6c-10.4-2.2-21.2,1-31.7-0.1C752.5,134.2,752.5,137.2,754.4,137.4L754.4,137.4z
			"/>
	</g>
</g>
<g>
	<g>
		<path d="M674.9,4.5c-2.3-9.3-11.8-13.6-18.9-18.7C645.1-22,638.6-37,633.7-48.9c-5.6-13.6-9.4-27.6-11.2-42.3
			c-1.7-14.2-1.6-28.6-1.6-42.9c0-1.9-3-1.9-3,0c0,14.3,0,28.6,1.6,42.9c1.6,14.4,5.5,28.1,10.7,41.6c4.5,11.5,10.2,22.6,18,32.2
			c6.7,8.3,21,11.7,23.7,22.8C672.4,7.2,675.3,6.4,674.9,4.5L674.9,4.5z"/>
	</g>
</g>
<g>
	<g>
		<path d="M916.9-21.1c-1.1-35.6,22-65.3,33-97.7c5.3-15.7,7.7-33.1,2.5-49.2c-5.9-18.1-19.5-32.4-25.5-50.5c-0.6-1.8-3.5-1-2.9,0.8
			c5.7,17.2,17.8,31,24.5,47.7c6.9,17.2,3.5,36.2-2.4,53.1c-11.1,31.8-33.3,60.7-32.2,95.8C914-19.2,917-19.2,916.9-21.1L916.9-21.1
			z"/>
	</g>
</g>
<g>
	<g>
		<path d="M615.4-132.6c-8.9-1.1-14.5-7.5-16.6-15.9c-0.5-1.9-3.3-1.1-2.9,0.8c2.4,9.9,9.2,16.9,19.4,18.1
			C617.3-129.4,617.3-132.4,615.4-132.6L615.4-132.6z"/>
	</g>
</g>
<g>
	<g>
		<path d="M617.2-132.8c5.4-2.3,9.5-7.3,9.7-13.3c0.1-1.9-2.9-1.9-3,0c-0.2,5-3.9,8.8-8.3,10.7C613.9-134.6,615.4-132.1,617.2-132.8
			L617.2-132.8z"/>
	</g>
</g>
<g>
	<g>
		<path d="M617.9-133.1c-1-8.7-1.9-17.3-2-26c0-1.9-3-1.9-3,0c0.1,8.7,1,17.3,2,26C615.1-131.2,618.1-131.2,617.9-133.1L617.9-133.1
			z"/>
	</g>
</g>
<g>
	<g>
		<path d="M920.1-216.9c-4,6.8-10,13-18.1,14.3c-1.9,0.3-1.1,3.2,0.8,2.9c8.8-1.4,15.5-8.3,19.9-15.7
			C923.7-217,921.1-218.5,920.1-216.9L920.1-216.9z"/>
	</g>
</g>
<g>
	<g>
		<path d="M916.9-214.5c-1.1-6.6-3.8-12.7-6-19c-0.6-1.8-3.5-1-2.9,0.8c2.2,6.3,4.9,12.4,6,19C914.3-211.8,917.2-212.6,916.9-214.5
			L916.9-214.5z"/>
	</g>
</g>
<g>
	<g>
		<path d="M919.2-212.8c3.5-2.4,5.6-5.8,6.7-9.9c0.5-1.9-2.4-2.7-2.9-0.8c-0.9,3.3-2.5,6.1-5.3,8.1
			C916.1-214.3,917.6-211.7,919.2-212.8L919.2-212.8z"/>
	</g>
</g>
<g>
	<g>
		<path d="M670.9-191.1c-2.6,23.6-5.9,50.3,14.2,67.4c13.4,11.4,34.2,14.2,47.3,0.9c7.5-7.7,11.5-20.1,12.1-30.6
			c0.5-11.3-5-21.5-11.8-30.1c-5.5-6.9-13.1-12.1-20.9-16.3c-7.7-4.2-16.7-7.6-25.6-6.9c-5.5,0.4-10.1,3.3-13.1,7.9
			c-1.1,1.6,1.5,3.1,2.6,1.5c10.1-15.4,34.8-0.8,45.3,6.9c8.2,6,14.8,14.5,18.4,24c4.4,11.7,1.2,23.9-4.3,34.6
			c-9.7,19.1-32.9,18-47.8,6c-19.8-15.9-15.9-43-13.4-65.2C674.1-193,671.1-193,670.9-191.1L670.9-191.1z"/>
	</g>
</g>
<g>
	<g>
		<path d="M752.1-197.9c-8,14.6-3.6,30.7,8.5,41.5c10,8.9,26.4,14.2,38.1,5.4c13.4-10.1,13.7-31.8,3.6-43.9
			c-11.3-13.6-32.4-15.9-47.6-8.1c-0.3,0.2-0.7,0.4-1,0.6c-1.7,0.9-0.2,3.5,1.5,2.6c14-7.8,32.1-5.8,43.6,5.5
			c10.9,10.7,10.3,31.9-2.2,41.3c-10.3,7.8-25.1,2-33.8-5.4c-11.3-9.6-15.3-24.6-8-37.9C755.6-198.1,753.1-199.6,752.1-197.9
			L752.1-197.9z"/>
	</g>
</g>
<g>
	<g>
		<path d="M782.2-172.8c-0.2,0.1,0.7-0.1,0.4-0.1c0.3,0,0.6,0,0.9-0.1c0.7,0,1.3-0.1,2-0.3c2-0.8,2.4-2.8,2.5-4.8
			c0-0.9-1-1.8-1.9-1.4c-1.3,0.4-2.7,0.9-4,1.4c-0.9,0.3-1.9,0.6-2.2,1.6c-0.1,0.5,0,1.1,0.4,1.5c0.4,0.4,0.8,0.5,1.3,0.5
			c1.9,0.1,1.9-2.9,0-3c0.3,0.1,0.6,0.3,0.9,0.4c0.1,0.5,0.3,1,0.4,1.5c-0.3,0.9-0.9,0.9-0.3,0.6c0.4-0.2,0.9-0.3,1.3-0.5
			c1-0.4,2.1-0.7,3.2-1.1c-0.6-0.5-1.3-1-1.9-1.4c0,0.7,0,1.4-0.4,2c0.1-0.1-0.2,0.1,0,0c-0.1,0-0.7,0.2-0.4,0.1
			c-1.2,0.1-2.3,0.1-3.4,0.6C778.9-174.6,780.4-172,782.2-172.8L782.2-172.8z"/>
	</g>
</g>
<g>
	<g>
		<path d="M712.9-140.1c0-1.8-0.2-3.6-1.4-5.1c-0.4,0.9-0.7,1.7-1.1,2.6c1,0,2,0,3,0c0-1,0-2,0-3c-2.6,0-4.9,0.2-7.4,1.1
			c-1.1,0.3-1.5,1.7-0.7,2.5c1,1,2,1.8,3.2,2.5c0.8,0.4,1.7,0.7,2.6,0.9c0.1,0,1.3,0.3,0.6,0c0.1,0,0.1,0.1,0.2,0.1
			c0.5-0.9,1-1.7,1.5-2.6c-1.5-0.8-3.1-1.5-4.6-2.3c-1.7-0.9-3.2,1.7-1.5,2.6c0.1,0.1,0.2,0.1,0.3,0.2c-0.2-0.7-0.4-1.4-0.5-2.1
			c-0.4,0.7-0.8,1.3-0.9,2c-0.1,1,1.1,1.8,2,1.5c0.9-0.3,1.6-1.1,2.3-1.7c1.4-1.4-0.7-3.5-2.1-2.1c-0.2,0.2-0.3,0.3-0.5,0.5
			c-0.1,0.1-0.3,0.3-0.4,0.4c-0.3,0.3-0.2,0,0.3,0c0.4,0.2,0.9,0.5,1.3,0.7c-0.1,1.1,0,1.4,0.2,0.8c0.1-0.2,0.3-0.4,0.4-0.7
			c0.4-0.7,0.2-1.7-0.5-2.1c-0.1-0.1-0.2-0.1-0.3-0.2c-0.5,0.9-1,1.7-1.5,2.6c1.5,0.8,3.1,1.5,4.6,2.3c1.7,0.9,3.2-1.7,1.5-2.6
			c-1-0.5-2.1-0.4-3.1-0.8c-1.1-0.4-2.1-1.3-2.9-2.2c-0.2,0.8-0.4,1.7-0.7,2.5c2.2-0.7,4.3-0.9,6.6-0.9c1.9,0,1.9-3,0-3
			c-1,0-2,0-3,0c-1.4,0-1.9,1.6-1.1,2.6c0.6,0.8,0.6,2,0.6,2.9C709.9-138.2,712.9-138.2,712.9-140.1L712.9-140.1z"/>
	</g>
</g>
<g>
	<g>
		<path d="M674.9-203.1c0.1-37.4,7.8-83.4,39.6-107.4c17-12.8,39-15.1,59.4-11.3c20.5,3.8,38.3,15.5,52.5,30.5
			c18.4,19.3,30.9,43.8,40.7,68.4c4.6,11.6,8.6,23.5,12.2,35.5c4.8,16.1,8.2,32.2,5.6,49c0.9-0.1,1.8-0.2,2.7-0.4
			c-10-15.6-18.1-32.4-28.2-48c-9.7-14.9-21.6-27.5-36.1-37.8c-22.4-16-58-32.3-79.1-5.5c-1.2,1.5,0.9,3.6,2.1,2.1
			c21.1-26.9,56.7-7.9,78.4,8.1c14.2,10.5,25.2,23.7,34.6,38.5c9.1,14.4,16.5,29.7,25.7,44.1c0.6,1,2.5,1,2.7-0.4
			c3.6-23.3-3.6-45.7-10.9-67.5c-6.6-19.7-14.8-38.9-25.2-56.8c-10.1-17.3-22.7-33.3-38.7-45.5c-16.2-12.3-35.7-18.7-56-19.1
			c-28.6-0.5-52.3,14.9-66.3,39.3c-14.4,25.1-18.8,55.6-18.8,84.2C671.9-201.2,674.9-201.2,674.9-203.1L674.9-203.1z"/>
	</g>
</g>
<g>
	<g>
		<path d="M880.7-140.4c-7.4,4.4-13.3,10.5-15.7,18.9c-0.2,0.6,0.1,1.4,0.7,1.7c6.3,3.2,13.1,1,18.5-3c-0.7-0.6-1.5-1.1-2.2-1.7
			c-0.6,3.6-0.9,7.9,2.7,10c3.6,2,7.8-1.9,9.8-4.5c-0.6,0.1-1.2,0.2-1.8,0.2c11.9,7.9,18.6-6.5,12.1-16.1c-1.1-1.6-3.7-0.1-2.6,1.5
			c3.2,4.8,7.4,6.6,12.9,7.7c0.8,0.2,1.6-0.2,1.8-1c5.3-16.9-28.8-17.9-38.4-18.9c-1.9-0.2-1.9,2.8,0,3c7.6,0.8,39.7,1.9,35.6,15.1
			c0.6-0.3,1.2-0.7,1.8-1c-4.6-0.9-8.4-2.2-11.1-6.3c-0.9,0.5-1.7,1-2.6,1.5c4.6,6.8,1.5,18.2-7.9,11.9c-0.5-0.3-1.4-0.3-1.8,0.2
			c-1.1,1.4-2.3,2.7-3.9,3.6c-4.3,2.5-4-4.1-3.6-6.2c0.2-1.1-1-2.6-2.2-1.7c-4.5,3.3-10.1,5.7-15.5,3c0.2,0.6,0.5,1.1,0.7,1.7
			c2.2-7.7,7.6-13.1,14.3-17.1C883.8-138.8,882.3-141.4,880.7-140.4L880.7-140.4z"/>
	</g>
</g>
<g>
	<g>
		<path d="M767.8-127.8c-11.2,3.4-29.5,8-34.4,20.2c-5.2,12.8,9.2,16.1,18.8,16c12.8-0.2,26.1-5.2,34.9-14.7
			c4.4-4.8,6-11.5,2.3-17.1c-3.9-5.9-13.9-8-20.3-6.1c-1.8,0.5-1.1,3.4,0.8,2.9c7-2.1,18.2,1.4,18.7,9.8c0.4,6.4-6.4,11.5-11.1,14.6
			c-8.2,5.3-17.4,7.7-27.1,7.7c-4.2,0-8.6-0.5-12.2-2.7c-5-3.1-2.3-9.6,0.7-13.1c7.1-8.1,19.8-11.5,29.8-14.5
			C770.4-125.5,769.6-128.4,767.8-127.8L767.8-127.8z"/>
	</g>
</g>
<g>
	<g>
		<path d="M740-113.2c0.5,2,1.3,5.3,3.1,6.5c3.3,2.1,4.8-0.4,8-1.3c2.5-0.7,5-1.3,5.1-4.4c0.1-2.6-2.2-5.4-3.2-7.6
			c-0.8-1.8-3.4-0.2-2.6,1.5c0.7,1.5,1.5,2.9,2.2,4.3c1.1,2.4-0.1,2.8-2.3,3.3c-1.5,0.4-3.9,2.7-5.3,1.8c-1.3-0.8-1.8-3.5-2.1-4.9
			C742.4-115.9,739.5-115.1,740-113.2L740-113.2z"/>
	</g>
</g>
<g>
	<g>
		<path d="M757.2-121.2c0.9,5.1,3.5,11,9.7,8.4c5.7-2.4,1.7-8.9-0.2-12.6c-0.9-1.7-3.5-0.2-2.6,1.5c1,1.9,4.6,7,1.5,8.4
			c-4.1,1.7-5-3.7-5.5-6.5C759.8-123.9,756.9-123.1,757.2-121.2L757.2-121.2z"/>
	</g>
</g>
<g>
	<g>
		<path d="M775.6-100c-0.2-1.1-0.8-2.2-1.3-3.3c-0.4-0.8-1.9-3.1-1.5-4.1c0.4-1,3.2-1.5,4.1-1.8c1.2-0.4,2.5-0.7,3.7-1.1
			c-0.6-0.2-1.1-0.5-1.7-0.7c0.8,1.1,1.5,2.3,2.3,3.5c1,1.7,3.6,0.1,2.6-1.5c-0.7-1.2-1.4-2.4-2.3-3.5c-0.4-0.5-1-0.9-1.7-0.7
			c-2.9,0.9-7.4,1.4-9.4,4c-2.2,2.9,1.7,7.1,2.3,9.9C773.1-97.3,776-98.1,775.6-100L775.6-100z"/>
	</g>
</g>
<g>
	<g>
		<path d="M694.4-92.1c2.6,4.6,3.6,10.5,8.4,13.6c4.7,3,10.4-3.7,14.2-5.5c-0.7-0.2-1.4-0.4-2.1-0.5c1.9,4.2,1.8,8.8,4.3,12.8
			c0.4,0.6,1.4,1,2.1,0.5c1.1-0.8,2.2-1.7,3.3-2.5c-0.7-0.3-1.5-0.6-2.2-0.9c0.8,4,0,8,0.8,12c0.2,0.9,1.1,1.1,1.8,1
			c1.5-0.2,1.7,13.4,2.4,15.2c0.3,0.7,1,1.3,1.8,1c1.2-0.4,2.5-0.6,3.8-1c-0.6-0.3-1.2-0.7-1.8-1c1.8,6.3,0.6,12.7,0.9,19.1
			c0.1,1.2,1.2,1.8,2.3,1.3c7.2-3.5,10-12.9,17.9-15.1c-0.6-0.3-1.2-0.7-1.8-1c3,10.2,2.3,20.9,3.4,31.4c0.1,1.1,1.6,2.2,2.6,1.1
			c1.6-2,3-3.8,5.6-4.6c-0.6-0.2-1.1-0.5-1.7-0.7c3.9,8.5,0.1,19,6,26.8c0.6,0.8,1.6,1,2.4,0.3c2.8-2.7,4.9-6.1,7.8-8.8
			c3.8-3.5,5.7,7.2,7.3,9.7c0.6,0.9,2,1,2.6,0c2.9-5.4,5.3-10.9,7.2-16.7c1.9-5.8,1.8-11.9,4-17.7c-0.9,0.1-1.8,0.2-2.7,0.4
			c2.8,5.7,1.6,12.4,5,18c0.7,1.1,2.3,0.9,2.7-0.4c1.7-5.5,1.7-11.1,1.9-16.8c0.4-7.5,1.8-14.9,2.4-22.3c-1,0.1-2,0.3-2.9,0.4
			c0.3,1.6,0.6,3.2,1,4.8c0.4,1.4,2.6,1.5,2.9,0c2.4-12.2-3-24.1-1.3-36.3c-1,0-1.9,0-2.9,0c0.6,2.2,1,4.3,1.9,6.4
			c0.7,1.5,2.7,0.5,2.8-0.8c0.9-8.3-3.1-15.8-4.7-23.7c-1.9-9.1,3.9-18.4,6.2-26.9c-1-0.1-2-0.3-2.9-0.4c0.3,3.3,0.8,6.5,1.8,9.6
			c0.4,1.1,2.2,1.6,2.7,0.4c2.7-6,2.6-12.7,3.7-19.1c-0.9,0.1-1.8,0.2-2.7,0.4c1.7,3.1,3.2,6.2,6,8.6c0.7,0.6,1.9,0.6,2.4-0.3
			c2.8-5.6,0.5-12.2-0.8-17.9c-0.2-1-1.8-1.6-2.5-0.7c-2.2,2.8-6,10.9-10,4.3c-2-3.3-3.9-6.5-6.9-8.9c-6.4-5.2-8.5,3.7-11.1,7.4
			c0.8-0.1,1.6-0.2,2.4-0.3c-2.6-2.3-4.1-4.3-7.7-3.1c-4.4,1.4-4.2,7.7-10.1,3.8c-2.6-1.8-4.4-1.7-7.2-0.4c-2.1,0.9-3.4,4.1-6.1,3.2
			c-1.4-0.5-2.7,0.3-3.9,1c-2.7,1.6-8.1,7.9-10.9,3.4c-1.5-2.4-5.2,0.6-6.6,1.4c-4.5,2.5-8.6,6.1-12.1,9.9c-4,4.3-6.8,9.6-11.6,13.1
			c0.7,0.2,1.4,0.4,2.1,0.5c-3.6-7.7-9.9-6.8-15.1-1.1c0.8,0.1,1.6,0.2,2.4,0.3c-1.7-2.3-3.9-6-7.3-5c-3.1,0.9-3.7,6.5-4.2,8.9
			c0.8-0.2,1.7-0.4,2.5-0.7c-0.3-0.3-0.5-0.5-0.8-0.8c-0.4-0.4-1.3-0.6-1.8-0.2c-7,5,1.6,7.9,4.2,12.1c1,1.6,3.6,0.1,2.6-1.5
			c-1.1-1.8-8.4-5.7-5.3-7.9c-0.6-0.1-1.2-0.2-1.8-0.2c0.3,0.3,0.5,0.5,0.8,0.8c0.8,0.8,2.3,0.5,2.5-0.7c0.3-1.4,0.6-2.7,1-4
			c1.2-4.5,3.4-1.5,5.1,0.9c0.5,0.7,1.7,1.1,2.4,0.3c3.7-4.1,7.6-5.5,10.4,0.4c0.3,0.7,1.4,1,2.1,0.5c7.7-5.7,12.1-14.6,19.8-20.4
			c2.1-1.6,4.4-2.8,6.6-4.2c0-0.7,0.1-0.7,0.3,0c0.3,0.6,0.7,1,1.1,1.4c1.8,1.8,4.5,1.1,6.5,0.2c3.7-1.6,5.7-5.4,10-5.1
			c4.2,0.3,6.8-6.6,11.2-3.5c1.9,1.4,5.4,3,7.7,1.5c0.9-0.6,1.7-1.3,2.3-2.3c2.2-3.1,4.6-2.6,7.2-0.3c0.8,0.7,1.8,0.5,2.4-0.3
			c0.8-1.1,1.3-2.4,1.8-3.6c1.5-3.5,4.9-3.2,7.2-0.6c2.4,2.7,3.6,6.2,6.1,8.8c5,5.3,10-3.8,12.4-6.8c-0.8-0.2-1.7-0.4-2.5-0.7
			c1.1,4.7,3.5,10.9,1.2,15.6c0.8-0.1,1.6-0.2,2.4-0.3c-2.6-2.2-4-5.1-5.5-7.9c-0.6-1.1-2.5-0.9-2.7,0.4c-1,6.1-0.8,12.7-3.3,18.4
			c0.9,0.1,1.8,0.2,2.7,0.4c-0.9-2.9-1.4-5.8-1.7-8.9c-0.1-1.6-2.5-2.1-2.9-0.4c-2.2,8.3-6.8,16.3-6.6,25c0.2,9.1,6,17.1,5.1,26.4
			c0.9-0.3,1.9-0.5,2.8-0.8c-0.8-1.8-1.1-3.8-1.6-5.6c-0.4-1.3-2.7-1.6-2.9,0c-1.7,12.2,3.7,24.2,1.3,36.3c1,0,1.9,0,2.9,0
			c-0.4-1.6-0.7-3.1-1-4.8c-0.3-1.8-2.8-1.2-2.9,0.4c-0.5,6.3-1.5,12.6-2.1,18.8c-0.6,6.5-0.1,13.2-2.1,19.5
			c0.9-0.1,1.8-0.2,2.7-0.4c-3.3-5.5-2.2-12.3-5-18c-0.6-1.3-2.3-0.7-2.7,0.4c-1.9,5.2-2.4,10.7-3.6,16.1c-1.4,6.2-4.3,12-7.3,17.6
			c0.9,0,1.7,0,2.6,0C784.7,8,783-2.7,778.8-2.2c-5.7,0.7-8.8,7.4-12.5,11c0.8,0.1,1.6,0.2,2.4,0.3c-5.7-7.6-2.1-18.3-6-26.8
			c-0.3-0.6-1.1-0.9-1.7-0.7c-3,1-4.9,2.9-6.9,5.4c0.9,0.4,1.7,0.7,2.6,1.1c-1.2-10.8-0.5-21.7-3.6-32.1c-0.2-0.8-1-1.3-1.8-1
			c-8.5,2.4-11.1,11.7-18.6,15.4c0.8,0.4,1.5,0.9,2.3,1.3c-0.4-6.7,0.8-13.4-1.1-19.9c-0.2-0.8-1.1-1.3-1.8-1
			c-1.3,0.4-2.5,0.6-3.8,1c0.6,0.3,1.2,0.7,1.8,1c-1.6-4,1.4-18.3-6.1-17.3c0.6,0.3,1.2,0.7,1.8,1c-0.8-4,0-8-0.8-12
			c-0.2-0.9-1.5-1.5-2.2-0.9c-1.1,0.8-2.2,1.7-3.3,2.5c0.7,0.2,1.4,0.4,2.1,0.5c-2.4-3.9-2.4-8.6-4.3-12.8c-0.3-0.8-1.4-0.9-2.1-0.5
			c-4.1,2.1-9.4,8.8-13.4,3.4c-2.3-3.1-3.2-7-5.1-10.3C696-95.3,693.4-93.8,694.4-92.1L694.4-92.1z"/>
	</g>
</g>
<g>
	<g>
		<path d="M707.7-138.8c0.7,1.4,2.1,2.3,3.7,2.3c1.1,0.1,1.9-1.3,1.3-2.3c-0.6-0.9-0.9-1.8-1.3-2.8c-0.4-1-1.3-1.7-2.2-2.4
			c-1-0.7-2.3-0.4-2.7,0.8c-0.3,0.9,0.4,1.6,1.1,2c1.2,0.6,2.6,1,4,1.2c1.9,0.2,3-1.6,1.6-3.1c0.1,0.4,0.3,0.7,0.4,1.1
			c0-1.9-0.4-4.4-2.4-5.2c-1.6-0.7-3.4-0.2-4.5,1.1c-1.2,1.3-1.5,3.2-0.6,4.8c1.3,2.3,4.5,2.9,6.9,3.2c0.8,0.1,1.5-0.8,1.5-1.5
			c0-0.9-0.7-1.4-1.5-1.5c-1-0.1-2.1-0.3-2.9-0.7c-0.4-0.2-0.7-0.4-1-0.6c0.2,0.2-0.2-0.2-0.2-0.2c-0.2-0.2,0.1,0.2-0.1-0.2
			c0-0.1-0.2-0.4,0,0c-0.1-0.1-0.1-0.3-0.1-0.4c0.1,0.4,0,0,0-0.1c0-0.3-0.1,0.3,0-0.1c0-0.1,0.1-0.2,0.1-0.3c-0.1,0.4,0,0,0.1-0.1
			c0-0.1,0.3-0.4,0.1-0.1c0.1-0.1,0.2-0.2,0.3-0.3c0.1-0.1,0.3-0.3,0,0c0.1-0.1,0.2-0.1,0.3-0.2c0.1,0,0.4-0.2,0,0
			c0.1,0,0.2-0.1,0.4-0.1c0.3-0.1-0.4,0,0,0c0.1,0,0.5,0,0.1,0c0.1,0,0.5,0.2,0.1,0c0.1,0,0.2,0.1,0.3,0.2c-0.3-0.2-0.1,0,0,0
			c0.1,0.2-0.1-0.2,0.1,0.2c0.1,0.2,0.2,0.4,0.3,0.8c0.1,0.4,0.1,0.7,0.1,1.1c0,0.5,0.1,0.9,0.4,1.3c0.1,0.1,0.1,0.1-0.1-0.1
			c-0.1-0.2-0.1-0.4-0.2-0.6c0.1-0.3,0.1-0.5,0.2-0.8c0.8-0.5,1.1-0.7,0.7-0.6c0.3,0,0.3,0,0.2,0c-0.1,0-0.1,0-0.2,0
			c-0.4,0,0.4,0.1,0,0c-0.5-0.1-0.9-0.2-1.3-0.3c-0.4-0.1-0.8-0.3-1.2-0.4c-0.4-0.2,0.1,0.1-0.2-0.1c0,0-0.1,0-0.1-0.1
			c0,0,0.4,0.5,0.5,0.7c0,0.3,0,0.5,0,0.8c0,0,0,0,0,0c-0.1,0.2-0.3,0.4-0.4,0.7c0,0,0,0,0,0c-0.2,0.1-0.4,0.3-0.7,0.4
			c0.2-0.1-0.5,0-0.2,0c-0.3-0.1-0.5-0.1-0.8-0.2c1.5,1.1,1.6,2.7,2.7,4.3c0.4-0.8,0.9-1.5,1.3-2.3c-0.6,0-0.9-0.5-1.1-0.9
			C709.4-142,706.8-140.5,707.7-138.8L707.7-138.8z"/>
	</g>
</g>
<g>
	<g>
		<path d="M778.8-176.7c0.4,1.1,1,2.9,2.5,2.9c1.5,0,1.9-1.3,2-2.5c0.1-0.8,0.1-1.9-0.5-2.6c-0.8-0.8-2-0.5-2.5,0.4
			c-0.6,1.2-0.8,2.6-0.9,3.9c-0.1,0.5-0.1,1.2,0.2,1.6c0.8,1,2.2,1,2.8-0.2c-0.8,0.1-1.6,0.2-2.4,0.3c0.9,0.8,2,1.3,3.3,0.8
			c1-0.4,1.8-1.2,1.7-2.3c-0.2-1.7-0.7-3.4-0.8-5.2c0-0.9-1-1.8-1.9-1.4c-1.4,0.5-2.7,1.5-1.9,3.1c0.5,1,2.1,1.4,3.1,1.4
			c1.9,0.1,1.9-2.9,0-3c-0.2,0-0.3-0.1-0.6-0.1c-0.8-0.2-0.8,1.8,0.2,1.5c-0.6-0.5-1.3-1-1.9-1.4c0,1.9,0.7,3.9,0.8,5.6
			c0.1-0.4,0.3-0.7,0.4-1.1c-0.1,0.2-0.2,0.2-0.3,0c-0.7-0.6-1.9-0.6-2.4,0.3c-0.4,0.7,0.2-0.9,1.5-0.5c0.3,0.2,0.6,0.5,0.9,0.7
			c0.1,0.2,0.1,0.9,0.2,0.3c0-0.1,0-0.2,0-0.3c0-0.4,0,0.3,0-0.1c0.1-0.6,0.2-1.2,0.4-1.8c0.1-0.2,0.1-0.4,0.2-0.6
			c0-0.1,0.2-0.4,0,0c0.4-0.9-2.8-1.3-2.5-0.4c-0.1-0.5,0-0.1,0,0c0,0.3,0,0.6,0,0.9c-0.1,0.8,2.1,0.3,1.8-0.2
			c-0.2-0.3-0.3-0.6-0.4-0.9C781-179.3,778.1-178.5,778.8-176.7L778.8-176.7z"/>
	</g>
</g>
<g>
	<g>
		<path d="M923.9-218.8c1.6-3.2,3.2-6.5,4.2-10c0.5-1.9-2.4-2.7-2.9-0.8c-0.9,3.3-2.4,6.2-3.8,9.2C920.5-218.5,923-217,923.9-218.8
			L923.9-218.8z"/>
	</g>
</g>
<g>
	<g>
		<path d="M705.4-210.9c7.6,1.6,14.6,4.6,21.2,8.6c1.7,1,3.2-1.6,1.5-2.6c-6.8-4.2-14.1-7.3-22-9
			C704.3-214.2,703.5-211.3,705.4-210.9L705.4-210.9z"/>
	</g>
</g>
<g>
	<g>
		<path d="M742.5-207.1c1.6-5.1,4.9-9.4,9.7-11.9c1.7-0.9,0.2-3.5-1.5-2.6c-5.4,2.9-9.3,7.9-11.1,13.7
			C739-206.1,741.9-205.3,742.5-207.1L742.5-207.1z"/>
	</g>
</g>
<g>
	<g>
		<path d="M782,21.7c-1.3,4.2,0.3,8.5,4.3,10.5c4.2,2.1,8.7,0.2,11.7-2.9c2.7-2.8,1.5-6.1-1.5-7.9c-3.5-2.1-8.3-2.7-12.3-2.3
			c-1.9,0.2-1.9,3.2,0,3c2.1-0.2,14.4,0.5,12,4.7c-1.5,2.6-5.1,3.8-7.9,3.1c-3.3-0.9-4.3-4.3-3.5-7.3
			C785.4,20.6,782.5,19.8,782,21.7L782,21.7z"/>
	</g>
</g>
<g>
	<g>
		<path d="M786,40.9c-1.8,8.6,9.3,19.5,15.9,10.3c6-8.4-9.4-13.6-15.3-13c-1.9,0.2-1.9,3.2,0,3c3.6-0.4,14.3,1.6,13.4,6.9
			c-0.7,3.8-4.7,4.5-7.4,2.4c-2.5-1.9-4.4-5.6-3.7-8.8C789.3,39.8,786.4,39,786,40.9L786,40.9z"/>
	</g>
</g>
<g>
	<g>
		<path d="M793.2,62.5c-0.3,1.9-0.4,3.7-0.1,5.6c0.2,1.1,0.7,2.3,1.6,3.1c1.9,1.5,4.4,0.9,6.4-0.3c2.1-1.2,3.9-3.1,5.1-5.1
			c1.1-1.8,1.9-4.4,0.6-6.3c-1-1.5-2.7-2-4.3-2.1c-2.5-0.3-5,0.3-7.4,0.9c-1.9,0.5-1.1,3.4,0.8,2.9c1.1-0.3,2.3-0.5,3.4-0.7
			c0.4-0.1-0.3,0,0.1,0c0.1,0,0.2,0,0.3,0c0.2,0,0.4,0,0.7-0.1c0.4,0,0.9,0,1.3,0c0.3,0,0.7,0,1,0.1c-0.5-0.1,0,0,0.1,0
			c0.2,0,0.3,0.1,0.5,0.1c0.1,0,0.2,0.1,0.4,0.1c0.4,0.1-0.3-0.1,0,0c0.1,0,0.2,0.1,0.3,0.2c0.1,0.1,0.5,0.4,0,0
			c0.2,0.1,0.3,0.3,0.4,0.4c-0.4-0.5-0.1-0.2-0.1,0c0.1,0.1,0.2,0.5,0,0c0.1,0.2,0.1,0.3,0.1,0.5c0.1,0.3,0-0.5,0-0.1
			c0,0.1,0,0.2,0,0.3c0,0.1,0,0.2,0,0.3c0,0.1,0.1-0.4,0,0c0,0.2-0.1,0.5-0.2,0.7c0,0.1-0.1,0.2-0.1,0.3c0,0.1,0,0.1-0.1,0.2
			c-0.1,0.2,0.2-0.4,0.1-0.1c-0.1,0.2-0.2,0.5-0.4,0.7c-0.3,0.5-0.6,0.9-0.9,1.4c-0.3,0.4,0.2-0.2-0.1,0.1c-0.1,0.1-0.2,0.2-0.3,0.3
			c-0.2,0.2-0.4,0.4-0.6,0.7c-0.4,0.4-0.8,0.8-1.2,1.2c-0.1,0.1-0.2,0.2-0.3,0.3c0.4-0.3,0,0-0.1,0c-0.2,0.2-0.5,0.3-0.7,0.5
			c-0.2,0.1-0.4,0.3-0.6,0.4c-0.1,0.1-0.2,0.1-0.3,0.2c-0.1,0-0.1,0-0.2,0.1c-0.2,0.1,0.4-0.2,0.1,0c-0.2,0.1-0.4,0.1-0.6,0.2
			c-0.1,0-0.2,0.1-0.3,0.1c0,0-0.1,0-0.2,0c-0.3,0.1,0.4,0,0.2,0c-0.2,0-0.4,0-0.6,0c-0.4,0,0.4,0.1,0.1,0c-0.1,0-0.2,0-0.3-0.1
			c-0.4-0.1,0.1,0.1,0.1,0c-0.1,0-0.2-0.1-0.2-0.1c-0.1-0.1-0.4-0.3,0,0.1c-0.1-0.1-0.2-0.1-0.2-0.2c-0.1-0.1-0.3-0.4,0,0.1
			c-0.1-0.1-0.1-0.1-0.1-0.2c-0.1-0.1-0.4-0.8-0.2-0.3c-0.2-0.4-0.3-0.9-0.4-1.4c0.1,0.5,0,0,0-0.1c0-0.1,0-0.3,0-0.4
			c0-0.4,0-0.7,0-1.1c0-0.4,0-0.7,0.1-1.1c0-0.2,0-0.4,0.1-0.6c0-0.1,0-0.2,0-0.4c0,0.4,0,0,0-0.1c0.1-0.8-0.2-1.6-1-1.8
			C794.3,61.2,793.3,61.7,793.2,62.5L793.2,62.5z"/>
	</g>
</g>
<g>
	<g>
		<path d="M710.7-143.5c0,1,0.3,2,0.6,2.9c0.3,1,0.2,2.3,1.3,2.9c2.4,1.2,2.6-2,3.3-3.4c0.3-0.7,0.2-1.6-0.5-2.1
			c-0.7-0.4-1.7-0.2-2.1,0.5c-0.3,0.6-0.5,1.2-0.7,1.8c-0.1,0.3-0.1,0.5-0.2,0.8c-0.2,0.6-0.1,0,0.3-0.2c0.3-0.1,0.5-0.1,0.8-0.2
			c0,0,0,0-0.1,0c0.3,0.1,0.5,0.1,0.8,0.2c0.1,0.1,0.3,0.4,0.1,0c0.1,0.3,0.1,0.5,0.2,0.8c0-1.4-0.8-2.6-0.8-4
			C713.7-145.4,710.7-145.4,710.7-143.5L710.7-143.5z"/>
	</g>
</g>
<g>
	<g>
		<path d="M780.8-177.7c0.9,0.9,2.2,1.8,3.5,1c1.4-0.8,1-2.5,0.4-3.7c-0.4-0.7-1.4-0.9-2.1-0.5c-0.7,0.4-0.9,1.3-0.5,2.1
			c0.1,0.2,0.1,0.2,0,0c0,0.1,0.1,0.2,0.1,0.4c-0.1-0.4,0-0.1,0,0c0-0.3,0.1-0.5,0.3-0.7c0.3-0.3,0.6-0.4,1-0.3
			c-0.3-0.1,0.3,0.2,0,0c0,0-0.4-0.2-0.2-0.1c-0.1-0.1-0.3-0.2-0.4-0.4c-0.6-0.6-1.5-0.6-2.1,0C780.2-179.2,780.2-178.2,780.8-177.7
			L780.8-177.7z"/>
	</g>
</g>
<g>
	<g>
		<path d="M-202.5-291.9c2.1,16,1.8,32.1,3.5,48.1c1,9.2,0.5,18.5,1.9,27.7c1.1,6.9,3.9,11.5,11.2,11.9c9,0.5,18.6-2.4,27.3-4.4
			c12.2-2.8,24.4-3.2,36.9-3.4c9.8-0.2,19.6-1.3,29.3-2.8c5-0.8,15.6-1.6,17.5-7.5c2.1-6.5-1.2-15.8-2.7-22.1
			c-1.7-6.7-3.7-13.3-5.4-19.9c-2.8-10.7-7.4-20.6-10.8-31.1c-1.9-6-1.1-14.4-5.1-19.4c-4.9-6-15.1-5.9-22-5.7
			c-20.1,0.8-39.7,8.6-59.4,12.1c-6.2,1.1-12.8,2-17.8,6.1c-5.4,4.5-4.9,12.6-4.1,18.9c0.3,1.9,3.2,1.1,2.9-0.8
			c-0.7-4.9-1.1-10.7,2.2-14.8c2.6-3.3,7.2-4.3,11.1-5.2c10.7-2.5,21.6-4.2,32.3-7c12.5-3.2,25.4-6.7,38.5-6.3
			c4.8,0.2,11.6,0.8,14.5,5.2c2.3,3.4,2.2,8.8,2.9,12.7c2.4,12.5,8.9,23.9,12,36.2c2.1,8.2,4.6,16.2,6.5,24.4
			c0.9,4.1,1.8,8.2,1.9,12.4c0.2,4.5-1.8,5.6-5.9,6.9c-7.9,2.5-16.4,2.9-24.6,4c-15.7,2.2-31.6,0.1-47.3,3.4
			c-10.3,2.2-22.7,7.1-33.2,4.9c-5.3-1.1-5.6-9.4-6-13.6c-0.5-5.5-0.4-11.1-0.6-16.6c-0.4-8.4-1.6-16.9-2-25.4
			c-0.5-9.6-0.9-19.3-2.1-28.9C-199.7-293.8-202.7-293.8-202.5-291.9L-202.5-291.9z"/>
	</g>
</g>
<g>
	<g>
		<path d="M-162.5-309.5c0.2,7.5,3.6,14.8,6,21.8c2.2,6.3,6.2,15.7-0.8,20.1c-5.7,3.7-13.5,4.5-20,5.5c-6.2,0.9-12.5,1.4-18.5,3.1
			c-1.9,0.5-1.1,3.4,0.8,2.9c6.7-2,13.9-2.4,20.9-3.5c6.6-1,14.7-2.2,20.1-6.6c5-4.1,3.9-10.4,2.5-16.1c-2.3-9-7.6-17.9-7.9-27.3
			C-159.5-311.4-162.5-311.4-162.5-309.5L-162.5-309.5z"/>
	</g>
</g>
<g>
	<g>
		<path d="M-197-238.4c8.8-0.1,17.5-0.9,26.2-1.9c6.9-0.7,13.8-0.9,20.6-2.1c4.4-0.8,7,6,8.3,9.4c2,5.7,2.7,11.9,3.5,17.9
			c0.2,1.9,3.2,1.9,3,0c-0.8-6.7-1.7-13.4-4-19.8c-1.1-3.1-4-9.3-7.5-10.5c-1.3-0.4-2.7-0.2-4.1,0.1c-4.7,0.8-9.6,1-14.4,1.5
			c-10.5,1-21,2.4-31.6,2.5C-198.9-241.4-198.9-238.4-197-238.4L-197-238.4z"/>
	</g>
</g>
<g>
	<g>
		<path d="M-119.5-215.1c-0.3-11.5-5.2-22.2-8.1-33.2c-0.3,0.6-0.7,1.2-1,1.8c12.9-5.1,26.5-9.3,40.4-10.3c1.9-0.1,1.9-3.1,0-3
			c-14.2,1-28,5.3-41.2,10.5c-0.8,0.3-1.3,1-1,1.8c2.8,10.7,7.7,21.2,7.9,32.4C-122.4-213.2-119.4-213.2-119.5-215.1L-119.5-215.1z"
			/>
	</g>
</g>
<g>
	<g>
		<path d="M-146.5-312.7c-0.6,6.3,1.8,13.3,3.3,19.3c1.8,7.2,3.8,14.7,7.1,21.4c2.6,5.1,8.3,4.1,13.2,3.4c9-1.3,17.7-4.6,26.7-5.8
			c1.9-0.2,1.9-3.2,0-3c-7,0.9-13.8,3.1-20.6,4.6c-3.8,0.8-7.6,1.6-11.5,1.7c-3.1,0.1-4.2-0.4-5.5-3c-3.1-6.2-4.8-13.4-6.6-20.1
			c-1.5-5.7-3.7-12.5-3.2-18.5C-143.3-314.6-146.3-314.6-146.5-312.7L-146.5-312.7z"/>
	</g>
</g>
<g>
	<g>
		<path d="M-89.8-256.8c1.1,0,2.1,0,3.2,0c1.9,0,1.9-3,0-3c-1.1,0-2.1,0-3.2,0C-91.7-259.8-91.7-256.8-89.8-256.8L-89.8-256.8z"/>
	</g>
</g>
<g>
	<g>
		<path d="M-99.4-274.4c1.9,0,3.7,0,5.6,0c1.9,0,1.9-3,0-3c-1.9,0-3.7,0-5.6,0C-101.3-277.4-101.3-274.4-99.4-274.4L-99.4-274.4z"/>
	</g>
</g>
<g>
	<g>
		<path d="M-89.8-279c-1.1,0-2.1,0-3.2,0c-1.9,0-1.9,3,0,3c1.1,0,2.1,0,3.2,0C-87.8-276-87.8-279-89.8-279L-89.8-279z"/>
	</g>
</g>
<g>
	<g>
		<path d="M-145.1-315.5c6.3-15.2-12.6-31-26.9-24.5c-14.8,6.6,5.5,19.5,8.9,26.5c0.9,1.7,3.5,0.2,2.6-1.5
			c-2.5-5-16.5-13.8-13.6-19.8c1.3-2.8,6.4-3.6,9.1-3.8c3.4-0.2,6.7,1.3,9.6,3c6.5,4,10.4,12,7.4,19.4
			C-148.8-314.5-145.9-313.7-145.1-315.5L-145.1-315.5z"/>
	</g>
</g>
<g>
	<g>
		<path d="M-158.2-337.7c2.9-0.5,5.7-3,8.1-4.6c4.6-3.2,9.1-6.5,13.8-9.7c5-3.4,10.1-6.6,15.6-9.3c4-1.9,9.8-4.5,14.2-2.4
			c5.1,2.4,4.3,10.8,3.9,15.3c-0.6,8-5.9,13.2-13.1,16c-10,3.9-24.4,3.8-29.2,15.2c-0.7,1.8,2.2,2.6,2.9,0.8
			c2.8-6.6,10.5-8.4,16.7-10.1c6.1-1.6,12.8-3.1,17.9-7c5.8-4.6,7.6-11.1,8-18.2c0.2-5-0.5-10.8-4.8-14c-7.9-6-22,3.6-28.5,7.7
			c-5.5,3.5-10.8,7.3-16.1,11.1c-2.8,2-6.7,5.7-10.3,6.3C-160.9-340.2-160.1-337.4-158.2-337.7L-158.2-337.7z"/>
	</g>
</g>
<g>
	<g>
		<path d="M-172.5-337.5c-6.5-9.1-17.6-16-27.1-21.4c-6.5-3.7-21.3-11.8-26.9-2.7c-3,4.9-0.9,12.6,0.8,17.5
			c2.5,7.2,7.8,12.9,14,17.3c13.4,9.5,31.5,12.4,47.5,12.5c1.9,0,1.9-3,0-3c-14-0.1-28.6-2.5-41.1-9.1c-6.5-3.4-12.1-8.3-15.7-14.7
			c-2.8-4.8-5.6-13.5-2.9-19c4-7.9,20.9,2.6,25.3,5.3c8.2,4.9,17.9,11,23.5,18.9C-174-334.4-171.4-335.9-172.5-337.5L-172.5-337.5z"
			/>
	</g>
</g>
<g>
	<g>
		<path d="M654,505c-1.1,30,21,54.1,49.2,61.5c12,3.2,25.3,3,36.7-2.3c11.7-5.5,18.5-16.8,20.3-29.3c3.9-27.2-10.9-53.6-38.4-59.5
			c-26.8-5.7-55.5,8.4-69,31.8c-1,1.7,1.6,3.2,2.6,1.5c16.7-28.9,60.9-43.8,87.8-19.5c13.2,11.9,17.2,32.4,13.4,49.2
			c-3,13.3-13,22.7-26,25.9c-16.5,4-34.6-1.4-48.3-10.7c-16.2-11-25.9-29-25.1-48.7C657.1,503,654.1,503.1,654,505L654,505z"/>
	</g>
</g>
<g>
	<g>
		<path d="M688.1,560.5c-19.4,6.4-34.9,24.2-44.3,41.7c-8.9,16.5-11.9,36.1,0.9,51.4c12.1,14.4,32.9,20.7,50.9,22.4
			c17.1,1.6,34.5-2.7,50.4-8.5c12.8-4.6,26.3-10.9,35.3-21.4c3.1-3.6,6-8.4,6.2-13.3c0.2-5.1-1.5-10.4-3.1-15.2
			c-4.3-13.3-10.8-26.1-18.1-38.1c-4.5-7.4-11.3-19.7-20.5-22.1c-1.9-0.5-2.7,2.4-0.8,2.9c6,1.6,10.7,8.9,14,13.5
			c5.5,7.7,10.1,16,14.2,24.5c4,8.1,7.5,16.6,9.9,25.4c2.1,7.8,1.4,13.7-3.9,20.2c-12.1,14.7-34,21.6-51.7,26
			c-18.1,4.5-36.2,4.2-54-1.7c-10.4-3.5-20.4-9.2-27.5-17.7c-7.8-9.3-8.5-21.4-5.5-32.7c3.3-12.4,10.7-23.7,19.1-33.3
			c7.8-9,17.7-17.5,29.3-21.2C690.8,562.8,690,559.9,688.1,560.5L688.1,560.5z"/>
	</g>
</g>
<g>
	<g>
		<path d="M726.1,674.1c-2.6,13.3-4.4,26.9-5.2,40.4c-0.4,7-0.6,14.1,0.5,21c0.6,4.2,1.6,9.3,5.1,12c1.5,1.2,3.6-0.9,2.1-2.1
			c-3.7-2.9-4.2-8.9-4.6-13.2c-0.7-6.7-0.4-13.5,0.1-20.2c0.8-12.5,2.5-25,4.9-37.2C729.3,673,726.4,672.2,726.1,674.1L726.1,674.1z
			"/>
	</g>
</g>
<g>
	<g>
		<path d="M728.3,752.3c4.1-2.6,8.5-4.3,13.1-5.8c1.8-0.6,1-3.5-0.8-2.9c-4.8,1.6-9.6,3.4-13.9,6.2
			C725.1,750.7,726.6,753.3,728.3,752.3L728.3,752.3z"/>
	</g>
</g>
<g>
	<g>
		<path d="M685.7,678.2c-11.1,24-20.6,49.3-25.6,75.4c-0.4,1.9,2.5,2.7,2.9,0.8c5-25.8,14.3-50.9,25.3-74.6
			C689.1,678,686.5,676.5,685.7,678.2L685.7,678.2z"/>
	</g>
</g>
<g>
	<g>
		<path d="M635.6,747.9c7.6,1.5,15.2,3.2,22.5,6c1.8,0.7,2.6-2.2,0.8-2.9c-7.3-2.8-14.9-4.5-22.5-6
			C634.5,744.6,633.7,747.5,635.6,747.9L635.6,747.9z"/>
	</g>
</g>
<g>
	<g>
		<path d="M778.5,602.9c9-23.5,23.7-44.8,22.6-70.9c-0.1-1.9-3.1-1.9-3,0c1.1,25.8-13.6,46.9-22.4,70.1
			C774.9,603.9,777.8,604.7,778.5,602.9L778.5,602.9z"/>
	</g>
</g>
<g>
	<g>
		<path d="M635.8,615.2c-14.2-26.8-29.7-53.6-51.2-75.3c-1.4-1.4-3.5,0.7-2.1,2.1c21.3,21.5,36.7,48.1,50.8,74.7
			C634.1,618.4,636.7,616.9,635.8,615.2L635.8,615.2z"/>
	</g>
</g>
<g>
	<g>
		<path d="M582.1,545.1c-1.8,5.2-4.4,10.1-7.3,14.6c-1.1,1.6,1.5,3.1,2.6,1.5c3.1-4.8,5.8-9.9,7.7-15.4
			C585.6,544,582.7,543.3,582.1,545.1L582.1,545.1z"/>
	</g>
</g>
<g>
	<g>
		<path d="M586.5,545.5c0-2.8,0.1-5.6,1.3-8.2c0.8-1.7-1.8-3.3-2.6-1.5c-1.5,3.1-1.7,6.3-1.7,9.8
			C583.5,547.4,586.5,547.4,586.5,545.5L586.5,545.5z"/>
	</g>
</g>
<g>
	<g>
		<path d="M584.3,548.3c4,1.7,8.3,0.3,12-1.5c1.7-0.8,0.2-3.4-1.5-2.6c-2.6,1.2-6.2,2.7-9,1.5C584,544.9,582.5,547.5,584.3,548.3
			L584.3,548.3z"/>
	</g>
</g>
<g>
	<g>
		<path d="M579,549.6c-1.6-4.5-4.6-7.8-7.9-11.2c-1.4-1.4-3.5,0.8-2.1,2.1c2.9,2.9,5.7,5.9,7.1,9.8
			C576.7,552.2,579.6,551.4,579,549.6L579,549.6z"/>
	</g>
</g>
<g>
	<g>
		<path d="M796.1,537.5c1.5-1.4,3.9-1.9,5.7-2.8c1.7-0.8,0.2-3.4-1.5-2.6c-2.1,1-4.5,1.6-6.3,3.2
			C792.6,536.8,794.7,538.9,796.1,537.5L796.1,537.5z"/>
	</g>
</g>
<g>
	<g>
		<path d="M799.3,534.2c-1.7-3.4-3.6-6.6-6.2-9.3c-1.4-1.4-3.5,0.7-2.1,2.1c2.5,2.6,4.2,5.5,5.8,8.7
			C797.6,537.5,800.2,535.9,799.3,534.2L799.3,534.2z"/>
	</g>
</g>
<g>
	<g>
		<path d="M793.5,536.5c-2.5,0-5.1,0.2-7.1,1.9c-1.4,1.3,0.7,3.4,2.1,2.1c1.3-1.1,3.3-1.1,4.9-1.1
			C795.5,539.5,795.5,536.5,793.5,536.5L793.5,536.5z"/>
	</g>
</g>
<g>
	<g>
		<path d="M794.3,540.8c4.5-2.9,9.6-4.2,14.6-5.8c1.8-0.6,1-3.5-0.8-2.9c-5.3,1.7-10.6,3.2-15.4,6.2
			C791.1,539.2,792.6,541.8,794.3,540.8L794.3,540.8z"/>
	</g>
</g>
<g>
	<g>
		<path d="M794.3,537.8c4.7-3.3,7.9-7.8,11-12.5c1.1-1.6-1.5-3.1-2.6-1.5c-2.8,4.2-5.7,8.5-10,11.5
			C791.2,536.3,792.7,538.9,794.3,537.8L794.3,537.8z"/>
	</g>
</g>
<g>
	<g>
		<path d="M657,499c-1.6-22.2,16.9-39.9,32.6-52.9c8.7-7.1,18-13.5,27.5-19.6c9.9-6.4,19.6-13.2,30.2-18.2
			c26.5-12.4,56.7-12.9,84-2.9c22.6,8.4,44.6,24.6,59,44c6.1,8.2,10.7,17.4,14,27c4,11.7,5,24,7.6,36c5.9,26.9,16,53.1,15,81
			c0.9-0.4,1.7-0.7,2.6-1.1c-36-33.6-48.3-84.7-85.7-117.2c-13.4-11.6-29.2-20-46.2-24.9c-15.5-4.4-33.7-5.7-47.9,3.3
			c-8.1,5.1-13.2,13.5-16.2,22.5c-0.6,1.8,2.3,2.6,2.9,0.8c14-41.6,65.8-26.6,93.2-8.7c41.5,27.1,55.2,76.8,85.6,113.5
			c3.8,4.6,7.9,8.8,12.2,12.9c1,0.9,2.5,0.3,2.6-1.1c1.1-30-10.4-58.2-16.2-87.1c-2.6-12.7-4-25-8.9-37.1
			c-3.9-9.7-9.5-18.6-16.2-26.7c-14.5-17.6-35.4-31.7-56.5-39.9c-25.1-9.7-53.1-9.4-78.3-0.2c-12.8,4.7-23.9,12.2-35.3,19.6
			c-10.3,6.6-20.4,13.5-30,21.2c-16.8,13.4-36.2,32.5-34.6,55.8C654.2,500.9,657.2,500.9,657,499L657,499z"/>
	</g>
</g>
<g>
	<g>
		<path d="M923,589.4c-3.4,3.7-5.6,8.3-9,12c-0.6,0.7-0.6,1.9,0.3,2.4c3.7,1.8,7.5,3.2,11.4,4.4c1.5,0.5,5.4,2.6,6.9,1.5
			c3.5-2.7,4.7-7.4,7.5-10.6c0.6-0.6,0.7-2-0.3-2.4c-4.1-1.7-5.8-5.6-8.7-8.8c-1.3-1.4-3.4,0.7-2.1,2.1c3.1,3.4,4.9,7.4,9.3,9.2
			c-0.1-0.8-0.2-1.6-0.3-2.4c-2,2.4-3.4,5.3-5.1,7.9c-1.8,2.8-3.5,1.4-6.4,0.5c-3.7-1.1-7.2-2.5-10.7-4.1c0.1,0.8,0.2,1.6,0.3,2.4
			c3.4-3.7,5.6-8.3,9-12C926.4,590.1,924.3,588,923,589.4L923,589.4z"/>
	</g>
</g>
<g>
	<g>
		<path d="M644.3,606.8c21.2-14,44.3-24.3,67.5-34.5c1.8-0.8,0.2-3.4-1.5-2.6c-23.2,10.2-46.3,20.5-67.5,34.5
			C641.2,605.2,642.7,607.8,644.3,606.8L644.3,606.8z"/>
	</g>
</g>
<g>
	<g>
		<path d="M637.9,632.4c41.2-16.8,83.2-31.9,123.4-51.1c1.7-0.8,0.2-3.4-1.5-2.6c-39.9,19.2-81.6,34.2-122.6,50.8
			C635.4,630.2,636.1,633.1,637.9,632.4L637.9,632.4z"/>
	</g>
</g>
<g>
	<g>
		<path d="M648.4,656.4c42.2-15.3,79.6-43.2,124.5-51c1.9-0.3,1.1-3.2-0.8-2.9c-44.9,7.8-82.2,35.7-124.5,51
			C645.8,654.2,646.6,657.1,648.4,656.4L648.4,656.4z"/>
	</g>
</g>
<g>
	<g>
		<path d="M677.3,674.3c33.2-17.2,70-25.4,104.6-38.8c1.8-0.7,1-3.6-0.8-2.9c-34.9,13.6-72,21.8-105.4,39.1
			C674,672.6,675.6,675.2,677.3,674.3L677.3,674.3z"/>
	</g>
</g>
<g>
	<g>
		<path d="M667.1,666.5c32.1-25.9,73.1-31.6,111.8-41.6c1.9-0.5,1.1-3.4-0.8-2.9c-39.4,10.1-80.5,16.1-113.2,42.4
			C663.5,665.6,665.6,667.7,667.1,666.5L667.1,666.5z"/>
	</g>
</g>
<g>
	<g>
		<path d="M660.1,512.1c-6.2,31.1,51.1,54.3,61.5,20.9c4.3-13.8-9.8-25.3-20.5-30.6c-11.5-5.7-28.5-9.3-39.2-0.3
			c-2.2,1.8-3.7,4.3-4.7,7c-0.7,1.8,2.2,2.6,2.9,0.8c5.3-12.7,22.1-11,32.7-7.6c11,3.5,25.5,12.2,26.5,25c0.5,6.8-4.2,12.8-9.8,16.1
			c-6.5,3.8-14.6,3.2-21.6,1.3c-13.5-3.8-28-16.4-24.9-31.8C663.3,511,660.5,510.2,660.1,512.1L660.1,512.1z"/>
	</g>
</g>
<g>
	<g>
		<path d="M727.6,500.1c-2.2,6.9-2.9,15-0.6,21.9c2.4,7.2,10.2,9.3,16.8,6.1c7.2-3.5,8.3-11.4,5.4-18.4
			c-3.1-7.5-10.5-12.7-18.7-12.2c-1.9,0.1-1.9,3.1,0,3c6.9-0.4,12.4,3.6,15.6,9.5c3.1,5.8,2.2,13.1-4.4,15.7
			c-15.2,6-13.9-16.4-11.2-24.8C731.1,499,728.2,498.2,727.6,500.1L727.6,500.1z"/>
	</g>
</g>
<g>
	<g>
		<path d="M702.4,555.9c16.8-4.5,33.9-7.4,51-10.5c1.9-0.3,1.1-3.2-0.8-2.9c-17.1,3.1-34.2,6-51,10.5
			C699.8,553.5,700.5,556.4,702.4,555.9L702.4,555.9z"/>
	</g>
</g>
<g>
	<g>
		<path d="M689.3,530.3c0.5-0.2,0.9-0.5,1.4-0.8c0.2-0.1,0.9-0.4,0.3-0.2c-0.6,0.2-1.2-0.2-1.5-0.6c0.1,0.1,0.1,0.2,0.2,0.2
			c0.2,0.4,0.5,0.7,0.9,1.1c1.4,1.4,3.5-0.7,2.1-2.1c-0.1-0.1-0.5-0.6-0.2-0.2c-0.1-0.1-0.2-0.2-0.2-0.4c-0.4-0.6-0.8-0.9-1.5-0.9
			c-0.4,0-0.8,0.2-1.2,0.4c-0.5,0.3-1.1,0.6-1.6,0.9c-0.7,0.4-0.9,1.4-0.5,2.1C687.7,530.5,688.5,530.6,689.3,530.3L689.3,530.3z"/>
	</g>
</g>
<g>
	<g>
		<path d="M741,518.5c1.9,0,1.9-3,0-3S739.1,518.5,741,518.5L741,518.5z"/>
	</g>
</g>
<g>
	<g>
		<path d="M741,518.5c1.9,0,1.9-3,0-3S739.1,518.5,741,518.5L741,518.5z"/>
	</g>
</g>
<g>
	<g>
		<path d="M739.5,518.5c1.9,0,1.9-3,0-3S737.6,518.5,739.5,518.5L739.5,518.5z"/>
	</g>
</g>
<g>
	<g>
		<path d="M739.5,518.5c1.9,0,1.9-3,0-3S737.6,518.5,739.5,518.5L739.5,518.5z"/>
	</g>
</g>
<g>
	<g>
		<path d="M739.5,518.5c1.9,0,1.9-3,0-3S737.6,518.5,739.5,518.5L739.5,518.5z"/>
	</g>
</g>
<g>
	<g>
		<path d="M82.5,108c-27.7,1.2-54.6,13.2-64.1,40.9c-7.8,23-1.4,49.7,12.4,69.1c14.6,20.4,38.5,31.4,63.4,26
			c17.4-3.8,36-14.9,43.1-31.8c7.6-18.1-3.3-38.4-12.1-53.8c-3.1-5.3-6.5-10.5-9.2-16c-2.8-5.7-5-11.6-7.9-17.2
			c-5-9.8-12.4-18.4-24.1-18.7c-1.9,0-1.9,3,0,3c20.6,0.5,24.3,27.5,33.2,41.3c10.5,16.3,24.1,38.4,18,58.5
			c-5.7,18.8-28.4,30-46.6,32.7c-12.8,1.9-25.8-1.2-36.7-8c-21.3-13.3-33.6-39.4-33.7-64.1c-0.1-12.3,3.4-24.4,10.5-34.5
			c8.2-11.6,21.2-18.5,34.7-21.9c6.3-1.6,12.8-2.3,19.2-2.6C84.4,110.9,84.5,107.9,82.5,108L82.5,108z"/>
	</g>
</g>
<g>
	<g>
		<path d="M28.5,130.5c0-33.9,3.5-72,22-101.3C60.1,14.1,74.9,4.1,93,3c19.1-1.1,33,9.9,41.3,26.3c12.4,24.4,13.1,52.8,18.8,79.1
			c1-0.3,1.9-0.5,2.9-0.8c-9.1-23.1-31-46.8-58.2-43.3c-8.7,1.1-15.1,7.2-16.8,15.8c-2.2,10.7,3,21.9,9.3,30.2
			c1.2,1.5,3.8,0,2.6-1.5c-5.6-7.3-9.6-16-9.3-25.3c0.3-9.6,7.4-15.6,16.6-16.4c24.9-2.1,44.7,20.3,53,41.3c0.7,1.8,3.3,1.1,2.9-0.8
			c-3.6-16.8-5.3-33.9-9.2-50.6c-3.7-16.2-9.3-33.5-21.5-45.4C113.4-0.2,95.8-2.2,80.2,2.1C64.7,6.4,53.1,18.4,45.3,32.1
			c-16.6,29-19.8,65.7-19.8,98.4C25.5,132.4,28.5,132.4,28.5,130.5L28.5,130.5z"/>
	</g>
</g>
<g>
	<g>
		<path d="M149.6,103.5c-7.5,3.1-14.4,7.9-13,16.8c0.1,0.7,0.8,1.1,1.4,1.1c4.5,0.1,8.9,1.4,13.5,1.5c-0.5-0.6-1-1.3-1.4-1.9
			c-0.5,1.8-3.7,4.5-0.8,6.2c2.9,1.7,7.1,2.3,10.4,2.7c4.2,0.5,9.1-0.4,11.5-4.3c2.1-3.5,0.5-7.9-1.6-10.9
			c-3.7-5.3-10.1-8.2-16.1-9.8c-1.9-0.5-2.7,2.4-0.8,2.9c6.1,1.6,17.7,6.6,16.5,14.8c-0.5,3.3-4.1,4.2-6.9,4.3
			c-2.4,0.1-4.8-0.4-7.1-1c-0.8-0.2-4.4-0.6-3.2-2.1c0.6-0.7,0.9-1.3,1.1-2.2c0.3-1-0.5-1.9-1.4-1.9c-4.6-0.1-9-1.4-13.5-1.5
			c0.5,0.4,1,0.7,1.4,1.1c-1.1-7.1,5.3-10.8,11-13.2C152.2,105.7,151.4,102.8,149.6,103.5L149.6,103.5z"/>
	</g>
</g>
<g>
	<g>
		<path d="M25.7,144.7c-6.9,9.7-6.6,23.1,3.1,30.8c10,8,24.2,2.4,31.7-6.3c6.9-8,3.6-18.2-3.7-24.4c-8.8-7.5-21.8-8.8-32-3.6
			c-1.7,0.9-0.2,3.5,1.5,2.6c8.5-4.3,18.2-3.3,26.2,1.6c7.1,4.3,11.5,12.6,6.9,20.3c-5.3,9.1-18.8,13.8-27.9,8.1
			c-9.7-6-9.1-19.2-3.2-27.5C29.4,144.7,26.8,143.2,25.7,144.7L25.7,144.7z"/>
	</g>
</g>
<g>
	<g>
		<path d="M75.5,142.9c-9.1,10.5-11.4,24,0.7,33c9.6,7.2,25.8,8.3,35.4,0.5c10.9-8.9,11.7-25.6,0.1-34.2
			c-11.1-8.1-28.5-10.1-40.4-2.6c-1.6,1-0.1,3.6,1.5,2.6c10.1-6.4,24.1-5.1,34.3,0.5c12,6.7,13.3,21.8,3,31
			c-8.1,7.2-21.5,5.9-30.3,0.9c-4.5-2.5-8-6.6-9.1-11.7c-1.5-6.7,2.8-13.2,6.9-18C78.8,143.6,76.7,141.5,75.5,142.9L75.5,142.9z"/>
	</g>
</g>
<g>
	<g>
		<path d="M54.4,224.9c29-7.8,56.4-20.7,82.9-34.6c1.7-0.9,0.2-3.5-1.5-2.6c-26.3,13.9-53.3,26.6-82.1,34.3
			C51.8,222.5,52.5,225.4,54.4,224.9L54.4,224.9z"/>
	</g>
</g>
<g>
	<g>
		<path d="M42,162c1.9,0,1.9-3,0-3S40.1,162,42,162L42,162z"/>
	</g>
</g>
<g>
	<g>
		<path d="M42,162c1.9,0,1.9-3,0-3S40.1,162,42,162L42,162z"/>
	</g>
</g>
<g>
	<g>
		<path d="M99,166.5c1.9,0,1.9-3,0-3S97.1,166.5,99,166.5L99,166.5z"/>
	</g>
</g>
<g>
	<g>
		<path d="M99,166.5c1.9,0,1.9-3,0-3S97.1,166.5,99,166.5L99,166.5z"/>
	</g>
</g>
<g>
	<g>
		<path d="M84.2,245.2c-12.4,22.1-10.7,49-9.2,73.4c0.8,12.5,2,25.1,1.2,37.6c-0.6,9.2-2.2,20,4.3,27.5c4.6,5.2,11.9,4.5,18.1,3.8
			c9.4-1,18.7-3.2,27.8-5.5c14-3.5,30.3-6.8,40.7-17.5c18.8-19.4,14.8-52.9,9.3-76.7c-6.3-27.2-18-56.8-37.4-77.3
			c-1.3-1.4-3.4,0.7-2.1,2.1c11.2,11.9,19.1,26.9,25.5,41.8c7.6,17.7,12.9,36.6,14.8,55.7c1.6,15.9,0.7,33.6-8.2,47.3
			c-8.7,13.4-25.3,16.9-39.8,20.8c-11.9,3.2-24.5,6.5-36.9,6.7C75,385.3,79,363.5,79.5,352.1c1.5-34.6-10.7-73.3,7.3-105.4
			C87.8,245,85.2,243.5,84.2,245.2L84.2,245.2z"/>
	</g>
</g>
<g>
	<g>
		<path d="M80,365.5c6,5.9,13.1,10.3,19.8,15.2c1.6,1.2,3.1-1.5,1.5-2.6c-6.5-4.8-13.4-9.1-19.2-14.8
			C80.7,362.1,78.6,364.2,80,365.5L80,365.5z"/>
	</g>
</g>
<g>
	<g>
		<path d="M79.7,333.7c11.5,15.4,28.4,25.8,39,42c1.1,1.6,3.7,0.1,2.6-1.5c-10.6-16.2-27.5-26.6-39-42
			C81.2,330.7,78.6,332.2,79.7,333.7L79.7,333.7z"/>
	</g>
</g>
<g>
	<g>
		<path d="M76.7,294.7c13.4,29.6,36.9,53.3,55.5,79.5c1.1,1.6,3.7,0.1,2.6-1.5c-18.6-26.2-42.1-49.9-55.5-79.5
			C78.5,291.5,75.9,293,76.7,294.7L76.7,294.7z"/>
	</g>
</g>
<g>
	<g>
		<path d="M76.7,269.2c17,40,50.5,71.2,78.2,103.8c1.3,1.5,3.4-0.7,2.1-2.1c-27.6-32.4-60.9-63.4-77.8-103.2
			C78.6,265.9,76,267.5,76.7,269.2L76.7,269.2z"/>
	</g>
</g>
<g>
	<g>
		<path d="M81.1,255.4c5.7,20.8,21.4,38.3,36.5,53.1c16.3,16,34.7,30.5,54.2,42.3c1.7,1,3.2-1.6,1.5-2.6
			c-18.6-11.2-35.8-24.8-51.5-39.8c-15.5-14.8-32-32.6-37.8-53.8C83.5,252.7,80.6,253.5,81.1,255.4L81.1,255.4z"/>
	</g>
</g>
<g>
	<g>
		<path d="M94.7,243.7c19.5,32.1,48.6,57.9,78.5,80c1.6,1.2,3.1-1.5,1.5-2.6c-29.5-21.8-58.3-47.3-77.5-79
			C96.3,240.6,93.7,242.1,94.7,243.7L94.7,243.7z"/>
	</g>
</g>
<g>
	<g>
		<path d="M108.5,242.5c8.6,11,17.8,21.3,28.5,30.4c10.4,8.8,22,16.3,33.3,23.9c1.6,1.1,3.1-1.5,1.5-2.6
			c-11.1-7.4-22.4-14.8-32.7-23.4c-10.7-8.9-19.9-19.4-28.5-30.4C109.4,238.9,107.3,241,108.5,242.5L108.5,242.5z"/>
	</g>
</g>
<g>
	<g>
		<path d="M125,233.5c12.3,10.9,21.6,25.5,38.2,30.4c1.9,0.5,2.6-2.3,0.8-2.9c-15.9-4.7-25-19.1-36.8-29.6
			C125.6,230.1,123.5,232.2,125,233.5L125,233.5z"/>
	</g>
</g>
<g>
	<g>
		<path d="M105.1,388.9c5.7,19.4,4.5,39.6,4.4,59.6c0,1.9,3,1.9,3,0c0-20.3,1.3-40.7-4.6-60.4C107.4,386.2,104.5,387,105.1,388.9
			L105.1,388.9z"/>
	</g>
</g>
<g>
	<g>
		<path d="M112.5,450c-6.5,0-13,0-19.5,0c-1.9,0-1.9,3,0,3c6.5,0,13,0,19.5,0C114.5,453,114.5,450,112.5,450L112.5,450z"/>
	</g>
</g>
<g>
	<g>
		<path d="M150.1,378.4c5.9,22.8,5.9,47.1,15,69c0.7,1.8,3.6,1,2.9-0.8c-9.1-21.9-9.1-46.2-15-69
			C152.5,375.7,149.6,376.5,150.1,378.4L150.1,378.4z"/>
	</g>
</g>
<g>
	<g>
		<path d="M166.5,448.5c-6,0.2-11.3,2.6-16.9,4.6c-1.8,0.6-1,3.5,0.8,2.9c5.3-1.8,10.4-4.3,16.1-4.4
			C168.4,451.4,168.5,448.4,166.5,448.5L166.5,448.5z"/>
	</g>
</g>
<g>
	<g>
		<path d="M70.1,294c-27.7,6.6-40.8,34.3-57.7,54.4c-1.2,1.5,0.9,3.6,2.1,2.1c16.4-19.6,29.3-47.2,56.3-53.6
			C72.8,296.5,72,293.6,70.1,294L70.1,294z"/>
	</g>
</g>
<g>
	<g>
		<path d="M168.8,271.3c33.9,20.3,54.6,55.9,76,88c1.1,1.6,3.7,0.1,2.6-1.5c-21.6-32.5-42.7-68.4-77-89
			C168.6,267.7,167.1,270.3,168.8,271.3L168.8,271.3z"/>
	</g>
</g>
<g>
	<g>
		<path d="M238.5,360c-0.1,3.8-1.4,6.7-4.1,9.4c-1.4,1.4,0.8,3.5,2.1,2.1c3.2-3.3,4.9-7,4.9-11.6C241.5,358,238.5,358,238.5,360
			L238.5,360z"/>
	</g>
</g>
<g>
	<g>
		<path d="M240.2,357.7c3,4.3,7.1,7.2,10.7,10.8c1.4,1.4,3.5-0.8,2.1-2.1c-3.5-3.4-7.5-6.2-10.3-10.2
			C241.7,354.6,239.1,356.1,240.2,357.7L240.2,357.7z"/>
	</g>
</g>
<g>
	<g>
		<path d="M241.5,360c4.1-0.1,7.6-1.4,11.3-3.2c1.7-0.9,0.2-3.5-1.5-2.6c-3.2,1.6-6.2,2.7-9.7,2.8C239.6,357,239.6,360,241.5,360
			L241.5,360z"/>
	</g>
</g>
<g>
	<g>
		<path d="M18,348c0.1,4.1,1.4,7.6,3.2,11.3c0.9,1.7,3.5,0.2,2.6-1.5c-1.6-3.2-2.7-6.2-2.8-9.7C21,346,18,346,18,348L18,348z"/>
	</g>
</g>
<g>
	<g>
		<path d="M13.5,349.5c-4.9,0.1-9.5,1.6-13.1,4.9c-1.4,1.3,0.7,3.4,2.1,2.1c3-2.8,6.9-4,10.9-4.1C15.5,352.4,15.5,349.4,13.5,349.5
			L13.5,349.5z"/>
	</g>
</g>
<g>
	<g>
		<path d="M12,348c0-4.2-0.5-8.3-3.4-11.6c-1.3-1.4-3.4,0.7-2.1,2.1c2.4,2.6,2.6,6.1,2.6,9.4C9,349.9,12,349.9,12,348L12,348z"/>
	</g>
</g>
<g>
	<g>
		<path d="M243,355.5c0-2.5,0-5,0-7.5c0-1.9-3-1.9-3,0c0,2.5,0,5,0,7.5C240,357.4,243,357.4,243,355.5L243,355.5z"/>
	</g>
</g>
<g>
	<g>
		<path d="M12,351c0.1,3.5,1.7,6.7,3.2,9.8c0.9,1.7,3.5,0.2,2.6-1.5c-1.3-2.6-2.7-5.3-2.8-8.2C15,349,12,349,12,351L12,351z"/>
	</g>
</g>
<g>
	<g>
		<path d="M-572.2-182.3c-19,8.3-29.9,27.6-35.6,46.7c-5.2,17.8-7.6,39.5,2.8,55.8c9.7,15.2,28.4,21.4,45.6,22.6
			c17.5,1.2,38-2,51.5-14c19.4-17.3,21.6-48.1,15-71.7c-3.6-13-10.9-25.6-21.6-33.9c-14.1-10.9-34.2-8.7-50.6-13.2
			c-1.9-0.5-2.7,2.4-0.8,2.9c11.9,3.3,24.3,3.4,36.2,6.5c11.9,3.1,20.5,11.4,26.7,21.7c9.9,16.4,12.6,37.4,8.8,56
			c-3.9,19.2-15.9,34.2-35,39.6c-19,5.4-41.4,5-58.9-4.8c-9-5-15.7-13.1-18.9-22.9c-3.4-10.3-2.3-22-0.5-32.5
			c3.8-22.3,15-46.6,36.8-56.2C-569-180.5-570.5-183.1-572.2-182.3L-572.2-182.3z"/>
	</g>
</g>
<g>
	<g>
		<path d="M-579.4-61c-18.3,2.9-33,12.3-36.7,31.3c-3.7,19.3,1.2,41.9,12.2,58c10.8,15.9,28.4,25.3,46.8,29.3
			c19.3,4.2,41.7,3.5,59.7-5.3c21.7-10.6,23.9-33.9,18.3-55c-6.4-24.1-20.2-46.3-34.1-66.7c-1.1-1.6-3.7-0.1-2.6,1.5
			c9.4,13.8,18.1,28,25.2,43.1c6.9,14.7,13.3,31.9,11,48.5C-482.1,42-497.4,51.2-514,55c-21,4.8-45.4,1.9-64.5-8.1
			c-22.2-11.7-33.1-33.8-35.2-58.1c-0.9-10.8-0.1-22.2,5.9-31.5c6.4-9.8,18.3-13.7,29.2-15.4C-576.7-58.4-577.5-61.3-579.4-61
			L-579.4-61z"/>
	</g>
</g>
<g>
	<g>
		<path d="M-519,59c1.5,16.3,4.4,32.4,7.6,48.4c0.4,1.9,3.3,1.1,2.9-0.8c-3.1-15.8-5.9-31.6-7.4-47.6C-516.2,57.1-519.2,57-519,59
			L-519,59z"/>
	</g>
</g>
<g>
	<g>
		<path d="M-506.6,111.4c11.1-1.6,22.1-3.3,33-6c1.9-0.5,1.1-3.4-0.8-2.9c-10.9,2.7-21.9,4.4-33,6
			C-509.3,108.8-508.5,111.7-506.6,111.4L-506.6,111.4z"/>
	</g>
</g>
<g>
	<g>
		<path d="M-568.5,56c0,19.5,1.5,39,1.5,58.5c0,1.9,3,1.9,3,0c0-19.5-1.5-39-1.5-58.5C-565.5,54-568.5,54-568.5,56L-568.5,56z"/>
	</g>
</g>
<g>
	<g>
		<path d="M-567,113c-12.7,1.6-25.4,3-37.9,6.1c-1.9,0.5-1.1,3.3,0.8,2.9c12.2-3,24.7-4.4,37.1-5.9
			C-565.1,115.7-565.1,112.7-567,113L-567,113z"/>
	</g>
</g>
<g>
	<g>
		<path d="M-496.1-36c21.6,23.5,36.1,52.4,57,76.5c1.3,1.5,3.4-0.7,2.1-2.1c-20.9-24.1-35.3-53-57-76.5
			C-495.2-39.5-497.4-37.4-496.1-36L-496.1-36z"/>
	</g>
</g>
<g>
	<g>
		<path d="M-617.2-33.8c-30.5,21.8-42.5,58.7-54.7,92.4c-0.7,1.8,2.2,2.6,2.9,0.8c11.9-32.9,23.5-69.4,53.3-90.6
			C-614.2-32.3-615.7-34.9-617.2-33.8L-617.2-33.8z"/>
	</g>
</g>
<g>
	<g>
		<path d="M-669.7,60.3c2.2,1.1,4,2.5,5.7,4.3c1.4,1.4,3.5-0.8,2.1-2.1c-1.9-1.9-3.9-3.5-6.3-4.7C-669.9,56.8-671.5,59.4-669.7,60.3
			L-669.7,60.3z"/>
	</g>
</g>
<g>
	<g>
		<path d="M-673.5,62c-0.1,3.2-1.9,5.7-4.1,7.9c-1.3,1.4,0.8,3.5,2.1,2.1c2.7-2.8,4.8-6.1,4.9-10.1C-670.4,60-673.4,60-673.5,62
			L-673.5,62z"/>
	</g>
</g>
<g>
	<g>
		<path d="M-669.4,60.9c-3.2-3.1-6.9-5.7-10.8-7.7c-1.7-0.9-3.2,1.7-1.5,2.6c3.7,1.9,7.2,4.3,10.2,7.3
			C-670.2,64.4-668,62.3-669.4,60.9L-669.4,60.9z"/>
	</g>
</g>
<g>
	<g>
		<path d="M-672,62c4.9-0.1,8.8-2.1,12.8-4.7c1.6-1.1,0.1-3.7-1.5-2.6c-3.5,2.3-6.9,4.2-11.2,4.3C-673.9,59-673.9,62-672,62L-672,62
			z"/>
	</g>
</g>
<g>
	<g>
		<path d="M-442.3,37.2c-3.3,4.9-7.6,9-11.8,13.2c-1.4,1.4,0.8,3.5,2.1,2.1c4.4-4.4,8.7-8.7,12.2-13.8
			C-438.6,37.1-441.2,35.6-442.3,37.2L-442.3,37.2z"/>
	</g>
</g>
<g>
	<g>
		<path d="M-445.5,44c2.9,0.1,5,2.9,6.2,5.3c0.9,1.7,3.5,0.2,2.6-1.5c-1.7-3.3-4.8-6.6-8.8-6.7C-447.4,40.9-447.4,43.9-445.5,44
			L-445.5,44z"/>
	</g>
</g>
<g>
	<g>
		<path d="M-444,41c3.8-0.1,7.3-1.8,10.9-3.1c1.8-0.6,1-3.5-0.8-2.9c-3.2,1.1-6.6,2.8-10.1,2.9C-445.9,38-445.9,41-444,41L-444,41z"
			/>
	</g>
</g>
<g>
	<g>
		<path d="M-444,42.5c4.8-0.1,9.4-1.5,13.9-3.1c1.8-0.6,1-3.5-0.8-2.9c-4.3,1.4-8.6,2.8-13.1,2.9C-445.9,39.5-445.9,42.5-444,42.5
			L-444,42.5z"/>
	</g>
</g>
<g>
	<g>
		<path d="M-567-188.5c-4.9,0.1-9.5,1.6-13.1,4.9c-1.4,1.3,0.7,3.4,2.1,2.1c3-2.8,6.9-4,10.9-4.1
			C-565.1-185.6-565.1-188.6-567-188.5L-567-188.5z"/>
	</g>
</g>
<g>
	<g>
		<path d="M-511.5-172c5.9-44.7-30.4-86.4-67.6-105.7c-19.5-10.1-41.3-14-63-10c-18.7,3.4-34.6,14.3-45.7,29.6
			c-13.3,18.3-19,41.4-21.7,63.6c-0.2,1.6,2.1,1.9,2.8,0.8c6.1-10.3,13.6-19.7,24.6-25.1c11.4-5.7,24.9-5.2,37.2-3.9
			c13.4,1.4,24.4,7.8,33.9,17.2c8.9,8.8,16.7,18.3,26.7,25.9c1.5,1.2,3-1.4,1.5-2.6c-11-8.4-19.4-19.4-29.6-28.8
			c-10.1-9.3-22.1-13.8-35.7-15.1c-12.1-1.1-24.5-0.5-35.6,4.7c-11.4,5.3-19.4,15.7-25.7,26.2c0.9,0.3,1.9,0.5,2.8,0.8
			c2.5-20.7,7.9-41.6,19.3-59.2c11.4-17.6,29.1-28.6,49.7-31.7c47.9-7.2,95.7,28.3,115.5,70c6.4,13.5,9.4,28.6,7.4,43.4
			C-514.7-170.1-511.7-170.1-511.5-172L-511.5-172z"/>
	</g>
</g>
<g>
	<g>
		<path d="M-710.8-193.8c4.3,5.8,8.7,11.6,12,18c0.2-0.7,0.4-1.4,0.5-2.1c-4.6,2.3-9.1,4.8-13.5,7.5c0.7,0.2,1.4,0.4,2.1,0.5
			c-1.9-3.6-4.1-6.9-6-10.5c-0.3-0.6-1.1-0.9-1.7-0.7c-0.7,0.3-1.4,0.6-1.8,1.4c-0.2,0.3-0.3,0.7-0.5,1c-0.6,1.5,1.4,1.2-1.2-0.1
			c-5.1-2.5-10.1-5.1-14.9-8.2c-1.4-0.9-3.1,1.2-1.8,2.4c4.1,3.5,9.1,7.2,14.1,3.3c4.9-3.8,5.7-10.7,11.7-13.6
			c1.7-0.8,0.2-3.4-1.5-2.6c-4.1,2-6.5,5.7-8.8,9.5c-1.2,1.9-2.3,3.9-4.2,5.1c-2.9,1.8-7.2-2.2-9.1-3.9c-0.6,0.8-1.2,1.6-1.8,2.4
			c5.3,3.4,10.9,6.2,16.5,9c0.9,0.4,1.5,0.7,2.4,0.2c0.9-0.5,1.1-2.8,1.8-3c-0.6-0.2-1.1-0.5-1.7-0.7c1.9,3.6,4.1,6.9,6,10.5
			c0.4,0.7,1.4,0.9,2.1,0.5c4.4-2.7,8.9-5.2,13.5-7.5c0.8-0.4,0.9-1.4,0.5-2.1c-3.3-6.4-7.7-12.2-12-18
			C-709.3-196.8-711.9-195.3-710.8-193.8L-710.8-193.8z"/>
	</g>
</g>
<g>
	<g>
		<path d="M-592-146.1c-10.4,13-8.5,29.6,1.6,42.2c8.9,11.1,25.2,17.3,37.6,8c31.9-23.8-16.3-56.8-41.1-53.7c-1.9,0.2-1.9,3.2,0,3
			c21.4-2.7,64.5,22.3,41.9,46c-10.5,11-25.7,5.7-34.8-3.9c-10.3-10.9-12.6-27.5-3-39.5C-588.7-145.4-590.8-147.6-592-146.1
			L-592-146.1z"/>
	</g>
</g>
<g>
	<g>
		<path d="M-524.2-140.3c-16.6,8.2-8,37,10.2,35.3c9.9-0.9,15.3-8.6,12.5-17.9c-2.8-9.5-12-18.3-21.6-20.5c-1.9-0.4-2.7,2.5-0.8,2.9
			c7.9,1.8,14.2,8,18,15c1.8,3.3,2.8,7.1,1.9,10.8c-1.2,4.6-6.8,6.5-11,6.9c-15.1,1.4-20.8-23.4-7.7-29.8
			C-521-138.6-522.5-141.2-524.2-140.3L-524.2-140.3z"/>
	</g>
</g>
<g>
	<g>
		<path d="M-546-118c4.5,0,9,0,13.5,0c1.9,0,1.9-3,0-3c-4.5,0-9,0-13.5,0C-547.9-121-547.9-118-546-118L-546-118z"/>
	</g>
</g>
<g>
	<g>
		<path d="M-504-125.1c1.6-6,4.3-11.4,8.6-15.8c1.3-1.4-0.8-3.5-2.1-2.1c-4.6,4.8-7.7,10.7-9.4,17.2
			C-507.4-124-504.5-123.3-504-125.1L-504-125.1z"/>
	</g>
</g>
<g>
	<g>
		<path d="M-598.9-119.1c-3-3-6-6-9-9c-1.4-1.4-3.5,0.8-2.1,2.1c3,3,6,6,9,9C-599.7-115.6-597.6-117.7-598.9-119.1L-598.9-119.1z"/>
	</g>
</g>
<g>
	<g>
		<path d="M-588-76c26.2,0,52.9-1.3,78.4-7.6c1.9-0.5,1.1-3.4-0.8-2.9c-25.2,6.2-51.7,7.4-77.6,7.4C-589.9-79-589.9-76-588-76
			L-588-76z"/>
	</g>
</g>
<g>
	<g>
		<path d="M-568.5-115c1.9,0,1.9-3,0-3S-570.4-115-568.5-115L-568.5-115z"/>
	</g>
</g>
<g>
	<g>
		<path d="M-519-116.5c1.9,0,1.9-3,0-3S-520.9-116.5-519-116.5L-519-116.5z"/>
	</g>
</g>
<g>
	<g>
		<path d="M-609.7,4.8c28.1,21.7,60.7,36.3,93.4,49.6c1.8,0.7,2.6-2.2,0.8-2.9c-32.4-13.3-64.8-27.8-92.6-49.3
			C-609.8,1-611.3,3.6-609.7,4.8L-609.7,4.8z"/>
	</g>
</g>
<g>
	<g>
		<path d="M-614.5-22.5c16.6,15.4,38.3,25.1,59,33.8c22.6,9.5,45.9,17.3,69.2,25c1.8,0.6,2.6-2.3,0.8-2.9
			c-21.9-7.3-43.7-14.6-65.1-23.3c-21.5-8.8-44.6-18.8-61.8-34.8C-613.8-25.9-616-23.8-614.5-22.5L-614.5-22.5z"/>
	</g>
</g>
<g>
	<g>
		<path d="M-607.9-46.1C-567.6-36.5-533.6-9-492-4c1.9,0.2,1.9-2.8,0-3c-41.3-4.9-75.1-32.5-115.1-41.9
			C-609-49.4-609.8-46.5-607.9-46.1L-607.9-46.1z"/>
	</g>
</g>
<g>
	<g>
		<path d="M-560.2-58.2c18.4,11.4,40.3,15.1,60.4,22.6c1.8,0.7,2.6-2.2,0.8-2.9c-19.8-7.5-41.5-11.1-59.6-22.3
			C-560.4-61.8-561.9-59.2-560.2-58.2L-560.2-58.2z"/>
	</g>
</g>
</svg>
