<?xml version="1.0" encoding="utf-8"?>
<!-- Generator: Adobe Illustrator 16.0.0, SVG Export Plug-In . SVG Version: 6.00 Build 0)  -->
<!DOCTYPE svg PUBLIC "-//W3C//DTD SVG 1.1//EN" "http://www.w3.org/Graphics/SVG/1.1/DTD/svg11.dtd">
<svg version="1.1" id="Layer_1" xmlns="http://www.w3.org/2000/svg" xmlns:xlink="http://www.w3.org/1999/xlink" x="0px" y="0px"
	 width="153.7px" height="163.4px" viewBox="0 0 153.7 163.4" style="enable-background:new 0 0 153.7 163.4;" xml:space="preserve"
	>
<g>
	<g>
		<path d="M827.5-217.3c8.9-7,14.3-16.5,18.7-26.8c4.6-10.5,7.6-21.2,8.1-32.6c0.9-23-11.5-43-28.9-57.1
			c-30.1-24.4-73.8-27.9-107.7-9.5c-1.7,0.9-0.2,3.5,1.5,2.6c32.4-17.6,72.8-14.2,102.3,7.6c17.7,13.1,29.7,32.4,29.9,54.7
			c0.1,11.4-3.2,22.4-7.7,32.8c-4.3,10-9.6,19.4-18.3,26.1C823.9-218.2,826-216.1,827.5-217.3L827.5-217.3z"/>
	</g>
</g>
<g>
	<g>
		<path d="M723-343.4c-32.2,3.9-34.9,45-33.4,70.1c1.1,17.8,5,38.1,15.7,52.8c9.4,13,25.1,20.1,40.4,23.1c1.9,0.4,2.7-2.5,0.8-2.9
			c-14.9-2.9-29.2-9.5-38.6-21.7c-10.4-13.4-13.8-33.2-15.2-49.6c-2-23.2-0.3-65.2,30.2-68.8C724.9-340.7,724.9-343.7,723-343.4
			L723-343.4z"/>
	</g>
</g>
<g>
	<g>
		<path d="M747-197c-17.4,3.8-26.7,25.6-33.3,40c-9.4,20.6-22.5,43.1-13.6,66c8.3,21.5,29.4,36.9,49.3,46.7
			c19.8,9.7,41.6,14.9,63.3,18.3c41.9,6.7,90.9,4,117.3-34c14-20,19.5-45.8,16.5-69.9c-2.6-21-12.3-39-29.8-51.1
			c-26.8-18.4-61.2-20.7-88.6-38c-1.6-1-3.1,1.6-1.5,2.6c17.2,10.8,37.1,16,56.1,22.7c19.5,6.8,39.4,15.8,50.8,33.9
			c13.7,21.5,13.3,50.9,5.7,74.5C931.5-61.3,914.7-42,891.1-33c-21.3,8.1-45,8.1-67.3,5.6c-22.5-2.5-45.4-7.6-66.3-16.4
			c-22.7-9.6-45.9-25.9-55.2-49.7c-5.9-15.1-0.2-30.2,6.1-44c3.9-8.5,7.4-17.2,11.5-25.7c5.7-11.7,13.9-27.8,27.8-30.8
			C749.7-194.5,748.9-197.4,747-197L747-197z"/>
	</g>
</g>
<g>
	<g>
		<path d="M869.1-22.8c3.6,6.9,3,14.7,3.8,22.2c0.2,1.9,3.2,1.9,3,0c-0.9-8.1-0.3-16.3-4.2-23.8C870.8-26,868.2-24.5,869.1-22.8
			L869.1-22.8z"/>
	</g>
</g>
<g>
	<g>
		<path d="M864.4,3c10.3,0,20.7,0,31,0c1.9,0,1.9-3,0-3c-10.3,0-20.7,0-31,0C862.5,0,862.5,3,864.4,3L864.4,3z"/>
	</g>
</g>
<g>
	<g>
		<path d="M862.9,5.5c1.2,14.4,4.8,28.5,4,43c-0.1,1.9,2.9,1.9,3,0c0.8-14.5-2.8-28.6-4-43C865.8,3.6,862.8,3.5,862.9,5.5L862.9,5.5
			z"/>
	</g>
</g>
<g>
	<g>
		<path d="M895,3.1c-2.7,11.9-1.1,24.4-5,36c-0.4,1.2,0.8,2.1,1.8,1.8c11.7-2.4,25.4-7,33.6,4.8c5.4,7.7-13.1,10.1-17.4,10.6
			c-10,1.1-34.9,6.8-38.2-7.2c-0.5-1.9-3.3-1.1-2.9,0.8c2.1,8.5,10.7,10.6,18.5,11.1c9.7,0.6,20.4-0.7,29.9-2.7
			c6.8-1.4,17.7-5.1,12.8-14c-7.7-13.8-24.9-8.7-37-6.2c0.6,0.6,1.2,1.2,1.8,1.8c3.9-11.6,2.3-24.1,5-36C898.3,2,895.4,1.2,895,3.1
			L895,3.1z"/>
	</g>
</g>
<g>
	<g>
		<path d="M790.9-28.5c-0.1,11.7-1,23.3-1,35c0,1.9,3,1.9,3,0c0-11.7,0.9-23.3,1-35C793.9-30.5,790.9-30.5,790.9-28.5L790.9-28.5z"
			/>
	</g>
</g>
<g>
	<g>
		<path d="M779.4,11c8.7,0.9,17.5-0.8,26.2-0.5c4.5,0.1,8.9,0.5,10.3,5.4c1.3,4.6,0.3,10.2-0.3,14.9c-1,8.6-0.4,18.9-7.3,25.2
			c-6.1,5.6-16.8,4.3-24.4,4.2c-8.6-0.2-17.2,1-25.8,0.7c-5-0.1-9.5-6.1-5.4-10.2c3.1-3.1,8.3-4.2,12.4-5.1
			c4.1-0.9,8.2-0.7,12.3-0.6c2.2,0,4.2-0.5,5.7-2.2c7.1-7.6,3.9-20.1,3.7-29.2c0-1.9-3-1.9-3,0c0.1,6.4,1.6,12.9,0.4,19.3
			c-0.7,3.9-2.3,9-6.8,9.1c-8.3,0.2-15.8,0.4-23.4,4.3c-7.2,3.7-7.5,10-1.9,15.4c5.1,4.9,15.7,1.8,22,1.5c14-0.8,33.9,4.4,41.1-11.8
			c3.5-7.9,3.4-18.2,4.1-26.7c0.6-7.3,0-14.8-8.2-16.6c-10.4-2.2-21.2,1-31.7-0.1C777.5,7.8,777.5,10.8,779.4,11L779.4,11z"/>
	</g>
</g>
<g>
	<g>
		<path d="M699.9-121.9c-2.3-9.3-11.8-13.6-18.9-18.7c-10.8-7.8-17.3-22.8-22.2-34.7c-5.6-13.6-9.4-27.6-11.2-42.3
			c-1.7-14.2-1.6-28.6-1.6-42.9c0-1.9-3-1.9-3,0c0,14.3,0,28.6,1.6,42.9c1.6,14.4,5.5,28.1,10.7,41.6c4.5,11.5,10.2,22.6,18,32.2
			c6.7,8.3,21,11.7,23.7,22.8C697.4-119.2,700.3-120,699.9-121.9L699.9-121.9z"/>
	</g>
</g>
<g>
	<g>
		<path d="M941.9-147.5c-1.1-35.6,22-65.3,33-97.7c5.3-15.7,7.7-33.1,2.5-49.2c-5.9-18.1-19.5-32.4-25.5-50.5
			c-0.6-1.8-3.5-1-2.9,0.8c5.7,17.2,17.8,31,24.5,47.7c6.9,17.2,3.5,36.2-2.4,53.1c-11.1,31.8-33.3,60.7-32.2,95.8
			C939-145.6,942-145.6,941.9-147.5L941.9-147.5z"/>
	</g>
</g>
<g>
	<g>
		<path d="M640.4-259c-8.9-1.1-14.5-7.5-16.6-15.9c-0.5-1.9-3.3-1.1-2.9,0.8c2.4,9.9,9.2,16.9,19.4,18.1
			C642.3-255.8,642.3-258.8,640.4-259L640.4-259z"/>
	</g>
</g>
<g>
	<g>
		<path d="M642.2-259.2c5.4-2.3,9.5-7.3,9.7-13.3c0.1-1.9-2.9-1.9-3,0c-0.2,5-3.9,8.8-8.3,10.7C638.9-261.1,640.4-258.5,642.2-259.2
			L642.2-259.2z"/>
	</g>
</g>
<g>
	<g>
		<path d="M642.9-259.5c-1-8.7-1.9-17.3-2-26c0-1.9-3-1.9-3,0c0.1,8.7,1,17.3,2,26C640.1-257.6,643.1-257.6,642.9-259.5L642.9-259.5
			z"/>
	</g>
</g>
<g>
	<g>
		<path d="M945.1-343.3c-4,6.8-10,13-18.1,14.3c-1.9,0.3-1.1,3.2,0.8,2.9c8.8-1.4,15.5-8.3,19.9-15.7
			C948.7-343.4,946.1-344.9,945.1-343.3L945.1-343.3z"/>
	</g>
</g>
<g>
	<g>
		<path d="M941.9-340.9c-1.1-6.6-3.8-12.7-6-19c-0.6-1.8-3.5-1-2.9,0.8c2.2,6.3,4.9,12.4,6,19C939.3-338.2,942.2-339,941.9-340.9
			L941.9-340.9z"/>
	</g>
</g>
<g>
	<g>
		<path d="M944.2-339.2c3.5-2.4,5.6-5.8,6.7-9.9c0.5-1.9-2.4-2.7-2.9-0.8c-0.9,3.3-2.5,6.1-5.3,8.1
			C941.1-340.7,942.6-338.1,944.2-339.2L944.2-339.2z"/>
	</g>
</g>
<g>
	<g>
		<path d="M695.9-317.5c-2.6,23.6-5.9,50.3,14.2,67.4c13.4,11.4,34.2,14.2,47.3,0.9c7.5-7.7,11.5-20.1,12.1-30.6
			c0.5-11.3-5-21.5-11.8-30.1c-5.5-6.9-13.1-12.1-20.9-16.3c-7.7-4.2-16.7-7.6-25.6-6.9c-5.5,0.4-10.1,3.3-13.1,7.9
			c-1.1,1.6,1.5,3.1,2.6,1.5c10.1-15.4,34.8-0.8,45.3,6.9c8.2,6,14.8,14.5,18.4,24c4.4,11.7,1.2,23.9-4.3,34.6
			c-9.7,19.1-32.9,18-47.8,6c-19.8-15.9-15.9-43-13.4-65.2C699.1-319.4,696.1-319.4,695.9-317.5L695.9-317.5z"/>
	</g>
</g>
<g>
	<g>
		<path d="M777.1-324.3c-8,14.6-3.6,30.7,8.5,41.5c10,8.9,26.4,14.2,38.1,5.4c13.4-10.1,13.7-31.8,3.6-43.9
			c-11.3-13.6-32.4-15.9-47.6-8.1c-0.3,0.2-0.7,0.4-1,0.6c-1.7,0.9-0.2,3.5,1.5,2.6c14-7.8,32.1-5.8,43.6,5.5
			c10.9,10.7,10.3,31.9-2.2,41.3c-10.3,7.8-25.1,2-33.8-5.4c-11.3-9.6-15.3-24.6-8-37.9C780.6-324.5,778-326,777.1-324.3
			L777.1-324.3z"/>
	</g>
</g>
<g>
	<g>
		<path d="M807.2-299.2c-0.2,0.1,0.7-0.1,0.4-0.1c0.3,0,0.6,0,0.9-0.1c0.7,0,1.3-0.1,2-0.3c2-0.8,2.4-2.8,2.5-4.8
			c0-0.9-1-1.8-1.9-1.4c-1.3,0.4-2.7,0.9-4,1.4c-0.9,0.3-1.9,0.6-2.2,1.6c-0.1,0.5,0,1.1,0.4,1.5c0.4,0.4,0.8,0.5,1.3,0.5
			c1.9,0.1,1.9-2.9,0-3c0.3,0.1,0.6,0.3,0.9,0.4c0.1,0.5,0.3,1,0.4,1.5c-0.3,0.9-0.9,0.9-0.3,0.6c0.4-0.2,0.9-0.3,1.3-0.5
			c1-0.4,2.1-0.7,3.2-1.1c-0.6-0.5-1.3-1-1.9-1.4c0,0.7,0,1.4-0.4,2c0.1-0.1-0.2,0.1,0,0c-0.1,0-0.7,0.2-0.4,0.1
			c-1.2,0.1-2.3,0.1-3.4,0.6C803.9-301,805.4-298.4,807.2-299.2L807.2-299.2z"/>
	</g>
</g>
<g>
	<g>
		<path d="M737.9-266.5c0-1.8-0.2-3.6-1.4-5.1c-0.4,0.9-0.7,1.7-1.1,2.6c1,0,2,0,3,0c0-1,0-2,0-3c-2.6,0-4.9,0.2-7.4,1.1
			c-1.1,0.3-1.5,1.7-0.7,2.5c1,1,2,1.8,3.2,2.5c0.8,0.4,1.7,0.7,2.6,0.9c0.1,0,1.3,0.3,0.6,0c0.1,0,0.1,0.1,0.2,0.1
			c0.5-0.9,1-1.7,1.5-2.6c-1.5-0.8-3.1-1.5-4.6-2.3c-1.7-0.9-3.2,1.7-1.5,2.6c0.1,0.1,0.2,0.1,0.3,0.2c-0.2-0.7-0.4-1.4-0.5-2.1
			c-0.4,0.7-0.8,1.3-0.9,2c-0.1,1,1.1,1.8,2,1.5c0.9-0.3,1.6-1.1,2.3-1.7c1.4-1.4-0.7-3.5-2.1-2.1c-0.2,0.2-0.3,0.3-0.5,0.5
			c-0.1,0.1-0.3,0.3-0.4,0.4c-0.3,0.3-0.2,0,0.3,0c0.4,0.2,0.9,0.5,1.3,0.7c-0.1,1.1,0,1.4,0.2,0.8c0.1-0.2,0.3-0.4,0.4-0.7
			c0.4-0.7,0.2-1.7-0.5-2.1c-0.1-0.1-0.2-0.1-0.3-0.2c-0.5,0.9-1,1.7-1.5,2.6c1.5,0.8,3.1,1.5,4.6,2.3c1.7,0.9,3.2-1.7,1.5-2.6
			c-1-0.5-2.1-0.4-3.1-0.8c-1.1-0.4-2.1-1.3-2.9-2.2c-0.2,0.8-0.4,1.7-0.7,2.5c2.2-0.7,4.3-0.9,6.6-0.9c1.9,0,1.9-3,0-3
			c-1,0-2,0-3,0c-1.4,0-1.9,1.6-1.1,2.6c0.6,0.8,0.6,2,0.6,2.9C734.9-264.6,737.9-264.6,737.9-266.5L737.9-266.5z"/>
	</g>
</g>
<g>
	<g>
		<path d="M699.9-329.5c0.1-37.4,7.8-83.4,39.6-107.4c17-12.8,39-15.1,59.4-11.3c20.5,3.8,38.3,15.5,52.5,30.5
			c18.4,19.3,30.9,43.8,40.7,68.4c4.6,11.6,8.6,23.5,12.2,35.5c4.8,16.1,8.2,32.2,5.6,49c0.9-0.1,1.8-0.2,2.7-0.4
			c-10-15.6-18.1-32.4-28.2-48c-9.7-14.9-21.6-27.5-36.1-37.8c-22.4-16-58-32.3-79.1-5.5c-1.2,1.5,0.9,3.6,2.1,2.1
			c21.1-26.9,56.7-7.9,78.4,8.1c14.2,10.5,25.2,23.7,34.6,38.5c9.1,14.4,16.5,29.7,25.7,44.1c0.6,1,2.5,1,2.7-0.4
			c3.6-23.3-3.6-45.7-10.9-67.5c-6.6-19.7-14.8-38.9-25.2-56.8c-10.1-17.3-22.7-33.3-38.7-45.5c-16.2-12.3-35.7-18.7-56-19.1
			c-28.6-0.5-52.3,14.9-66.3,39.3c-14.4,25.1-18.8,55.6-18.8,84.2C696.9-327.6,699.9-327.6,699.9-329.5L699.9-329.5z"/>
	</g>
</g>
<g>
	<g>
		<path d="M905.7-266.8c-7.4,4.4-13.3,10.5-15.7,18.9c-0.2,0.6,0.1,1.4,0.7,1.7c6.3,3.2,13.1,1,18.5-3c-0.7-0.6-1.5-1.1-2.2-1.7
			c-0.6,3.6-0.9,7.9,2.7,10c3.6,2,7.8-1.9,9.8-4.5c-0.6,0.1-1.2,0.2-1.8,0.2c11.9,7.9,18.6-6.5,12.1-16.1c-1.1-1.6-3.7-0.1-2.6,1.5
			c3.2,4.8,7.4,6.6,12.9,7.7c0.8,0.2,1.6-0.2,1.8-1C947.1-270,913-271,903.4-272c-1.9-0.2-1.9,2.8,0,3c7.6,0.8,39.7,1.9,35.6,15.1
			c0.6-0.3,1.2-0.7,1.8-1c-4.6-0.9-8.4-2.2-11.1-6.3c-0.9,0.5-1.7,1-2.6,1.5c4.6,6.8,1.5,18.2-7.9,11.9c-0.5-0.3-1.4-0.3-1.8,0.2
			c-1.1,1.4-2.3,2.7-3.9,3.6c-4.3,2.5-4-4.1-3.6-6.2c0.2-1.1-1-2.6-2.2-1.7c-4.5,3.3-10.1,5.7-15.5,3c0.2,0.6,0.5,1.1,0.7,1.7
			c2.2-7.7,7.6-13.1,14.3-17.1C908.8-265.2,907.3-267.8,905.7-266.8L905.7-266.8z"/>
	</g>
</g>
<g>
	<g>
		<path d="M792.8-254.2c-11.2,3.4-29.5,8-34.4,20.2c-5.2,12.8,9.2,16.1,18.8,16c12.8-0.2,26.1-5.2,34.9-14.7
			c4.4-4.8,6-11.5,2.3-17.1c-3.9-5.9-13.9-8-20.3-6.1c-1.8,0.5-1.1,3.4,0.8,2.9c7-2.1,18.2,1.4,18.7,9.8c0.4,6.4-6.4,11.5-11.1,14.6
			c-8.2,5.3-17.4,7.7-27.1,7.7c-4.2,0-8.6-0.5-12.2-2.7c-5-3.1-2.3-9.6,0.7-13.1c7.1-8.1,19.8-11.5,29.8-14.5
			C795.4-251.9,794.6-254.8,792.8-254.2L792.8-254.2z"/>
	</g>
</g>
<g>
	<g>
		<path d="M765-239.6c0.5,2,1.3,5.3,3.1,6.5c3.3,2.1,4.8-0.4,8-1.3c2.5-0.7,5-1.3,5.1-4.4c0.1-2.6-2.2-5.4-3.2-7.6
			c-0.8-1.8-3.4-0.2-2.6,1.5c0.7,1.5,1.5,2.9,2.2,4.3c1.1,2.4-0.1,2.8-2.3,3.3c-1.5,0.4-3.9,2.7-5.3,1.8c-1.3-0.8-1.8-3.5-2.1-4.9
			C767.4-242.3,764.5-241.5,765-239.6L765-239.6z"/>
	</g>
</g>
<g>
	<g>
		<path d="M782.2-247.6c0.9,5.1,3.5,11,9.7,8.4c5.7-2.4,1.7-8.9-0.2-12.6c-0.9-1.7-3.5-0.2-2.6,1.5c1,1.9,4.6,7,1.5,8.4
			c-4.1,1.7-5-3.7-5.5-6.5C784.8-250.3,781.9-249.5,782.2-247.6L782.2-247.6z"/>
	</g>
</g>
<g>
	<g>
		<path d="M800.6-226.4c-0.2-1.1-0.8-2.2-1.3-3.3c-0.4-0.8-1.9-3.1-1.5-4.1c0.4-1,3.2-1.5,4.1-1.8c1.2-0.4,2.5-0.7,3.7-1.1
			c-0.6-0.2-1.1-0.5-1.7-0.7c0.8,1.1,1.5,2.3,2.3,3.5c1,1.7,3.6,0.1,2.6-1.5c-0.7-1.2-1.4-2.4-2.3-3.5c-0.4-0.5-1-0.9-1.7-0.7
			c-2.9,0.9-7.4,1.4-9.4,4c-2.2,2.9,1.7,7.1,2.3,9.9C798.1-223.7,801-224.5,800.6-226.4L800.6-226.4z"/>
	</g>
</g>
<g>
	<g>
		<path d="M719.4-218.5c2.6,4.6,3.6,10.5,8.4,13.6c4.7,3,10.4-3.7,14.2-5.5c-0.7-0.2-1.4-0.4-2.1-0.5c1.9,4.2,1.8,8.8,4.3,12.8
			c0.4,0.6,1.4,1,2.1,0.5c1.1-0.8,2.2-1.7,3.3-2.5c-0.7-0.3-1.5-0.6-2.2-0.9c0.8,4,0,8,0.8,12c0.2,0.9,1.1,1.1,1.8,1
			c1.5-0.2,1.7,13.4,2.4,15.2c0.3,0.7,1,1.3,1.8,1c1.2-0.4,2.5-0.6,3.8-1c-0.6-0.3-1.2-0.7-1.8-1c1.8,6.3,0.6,12.7,0.9,19.1
			c0.1,1.2,1.2,1.8,2.3,1.3c7.2-3.5,10-12.9,17.9-15.1c-0.6-0.3-1.2-0.7-1.8-1c3,10.2,2.3,20.9,3.4,31.4c0.1,1.1,1.6,2.2,2.6,1.1
			c1.6-2,3-3.8,5.6-4.6c-0.6-0.2-1.1-0.5-1.7-0.7c3.9,8.5,0.1,19,6,26.8c0.6,0.8,1.6,1,2.4,0.3c2.8-2.7,4.9-6.1,7.8-8.8
			c3.8-3.5,5.7,7.2,7.3,9.7c0.6,0.9,2,1,2.6,0c2.9-5.4,5.3-10.9,7.2-16.7c1.9-5.8,1.8-11.9,4-17.7c-0.9,0.1-1.8,0.2-2.7,0.4
			c2.8,5.7,1.6,12.4,5,18c0.7,1.1,2.3,0.9,2.7-0.4c1.7-5.5,1.7-11.1,1.9-16.8c0.4-7.5,1.8-14.9,2.4-22.3c-1,0.1-2,0.3-2.9,0.4
			c0.3,1.6,0.6,3.2,1,4.8c0.4,1.4,2.6,1.5,2.9,0c2.4-12.2-3-24.1-1.3-36.3c-1,0-1.9,0-2.9,0c0.6,2.2,1,4.3,1.9,6.4
			c0.7,1.5,2.7,0.5,2.8-0.8c0.9-8.3-3.1-15.8-4.7-23.7c-1.9-9.1,3.9-18.4,6.2-26.9c-1-0.1-2-0.3-2.9-0.4c0.3,3.3,0.8,6.5,1.8,9.6
			c0.4,1.1,2.2,1.6,2.7,0.4c2.7-6,2.6-12.7,3.7-19.1c-0.9,0.1-1.8,0.2-2.7,0.4c1.7,3.1,3.2,6.2,6,8.6c0.7,0.6,1.9,0.6,2.4-0.3
			c2.8-5.6,0.5-12.2-0.8-17.9c-0.2-1-1.8-1.6-2.5-0.7c-2.2,2.8-6,10.9-10,4.3c-2-3.3-3.9-6.5-6.9-8.9c-6.4-5.2-8.5,3.7-11.1,7.4
			c0.8-0.1,1.6-0.2,2.4-0.3c-2.6-2.3-4.1-4.3-7.7-3.1c-4.4,1.4-4.2,7.7-10.1,3.8c-2.6-1.8-4.4-1.7-7.2-0.4c-2.1,0.9-3.4,4.1-6.1,3.2
			c-1.4-0.5-2.7,0.3-3.9,1c-2.7,1.6-8.1,7.9-10.9,3.4c-1.5-2.4-5.2,0.6-6.6,1.4c-4.5,2.5-8.6,6.1-12.1,9.9c-4,4.3-6.8,9.6-11.6,13.1
			c0.7,0.2,1.4,0.4,2.1,0.5c-3.6-7.7-9.9-6.8-15.1-1.1c0.8,0.1,1.6,0.2,2.4,0.3c-1.7-2.3-3.9-6-7.3-5c-3.1,0.9-3.7,6.5-4.2,8.9
			c0.8-0.2,1.7-0.4,2.5-0.7c-0.3-0.3-0.5-0.5-0.8-0.8c-0.4-0.4-1.3-0.6-1.8-0.2c-7,5,1.6,7.9,4.2,12.1c1,1.6,3.6,0.1,2.6-1.5
			c-1.1-1.8-8.4-5.7-5.3-7.9c-0.6-0.1-1.2-0.2-1.8-0.2c0.3,0.3,0.5,0.5,0.8,0.8c0.8,0.8,2.3,0.5,2.5-0.7c0.3-1.4,0.6-2.7,1-4
			c1.2-4.5,3.4-1.5,5.1,0.9c0.5,0.7,1.7,1.1,2.4,0.3c3.7-4.1,7.6-5.5,10.4,0.4c0.3,0.7,1.4,1,2.1,0.5c7.7-5.7,12.1-14.6,19.8-20.4
			c2.1-1.6,4.4-2.8,6.6-4.2c0-0.7,0.1-0.7,0.3,0c0.3,0.6,0.7,1,1.1,1.4c1.8,1.8,4.5,1.1,6.5,0.2c3.7-1.6,5.7-5.4,10-5.1
			c4.2,0.3,6.8-6.6,11.2-3.5c1.9,1.4,5.4,3,7.7,1.5c0.9-0.6,1.7-1.3,2.3-2.3c2.2-3.1,4.6-2.6,7.2-0.3c0.8,0.7,1.8,0.5,2.4-0.3
			c0.8-1.1,1.3-2.4,1.8-3.6c1.5-3.5,4.9-3.2,7.2-0.6c2.4,2.7,3.6,6.2,6.1,8.8c5,5.3,10-3.8,12.4-6.8c-0.8-0.2-1.7-0.4-2.5-0.7
			c1.1,4.7,3.5,10.9,1.2,15.6c0.8-0.1,1.6-0.2,2.4-0.3c-2.6-2.2-4-5.1-5.5-7.9c-0.6-1.1-2.5-0.9-2.7,0.4c-1,6.1-0.8,12.7-3.3,18.4
			c0.9,0.1,1.8,0.2,2.7,0.4c-0.9-2.9-1.4-5.8-1.7-8.9c-0.1-1.6-2.5-2.1-2.9-0.4c-2.2,8.3-6.8,16.3-6.6,25c0.2,9.1,6,17.1,5.1,26.4
			c0.9-0.3,1.9-0.5,2.8-0.8c-0.8-1.8-1.1-3.8-1.6-5.6c-0.4-1.3-2.7-1.6-2.9,0c-1.7,12.2,3.7,24.2,1.3,36.3c1,0,1.9,0,2.9,0
			c-0.4-1.6-0.7-3.1-1-4.8c-0.3-1.8-2.8-1.2-2.9,0.4c-0.5,6.3-1.5,12.6-2.1,18.8c-0.6,6.5-0.1,13.2-2.1,19.5
			c0.9-0.1,1.8-0.2,2.7-0.4c-3.3-5.5-2.2-12.3-5-18c-0.6-1.3-2.3-0.7-2.7,0.4c-1.9,5.2-2.4,10.7-3.6,16.1c-1.4,6.2-4.3,12-7.3,17.6
			c0.9,0,1.7,0,2.6,0c-1.5-2.4-3.2-13.1-7.4-12.6c-5.7,0.7-8.8,7.4-12.5,11c0.8,0.1,1.6,0.2,2.4,0.3c-5.7-7.6-2.1-18.3-6-26.8
			c-0.3-0.6-1.1-0.9-1.7-0.7c-3,1-4.9,2.9-6.9,5.4c0.9,0.4,1.7,0.7,2.6,1.1c-1.2-10.8-0.5-21.7-3.6-32.1c-0.2-0.8-1-1.3-1.8-1
			c-8.5,2.4-11.1,11.7-18.6,15.4c0.8,0.4,1.5,0.9,2.3,1.3c-0.4-6.7,0.8-13.4-1.1-19.9c-0.2-0.8-1.1-1.3-1.8-1
			c-1.3,0.4-2.5,0.6-3.8,1c0.6,0.3,1.2,0.7,1.8,1c-1.6-4,1.4-18.3-6.1-17.3c0.6,0.3,1.2,0.7,1.8,1c-0.8-4,0-8-0.8-12
			c-0.2-0.9-1.5-1.5-2.2-0.9c-1.1,0.8-2.2,1.7-3.3,2.5c0.7,0.2,1.4,0.4,2.1,0.5c-2.4-3.9-2.4-8.6-4.3-12.8c-0.3-0.8-1.4-0.9-2.1-0.5
			c-4.1,2.1-9.4,8.8-13.4,3.4c-2.3-3.1-3.2-7-5.1-10.3C721-221.7,718.4-220.2,719.4-218.5L719.4-218.5z"/>
	</g>
</g>
<g>
	<g>
		<path d="M732.7-265.2c0.7,1.4,2.1,2.3,3.7,2.3c1.1,0.1,1.9-1.3,1.3-2.3c-0.6-0.9-0.9-1.8-1.3-2.8c-0.4-1-1.3-1.7-2.2-2.4
			c-1-0.7-2.3-0.4-2.7,0.8c-0.3,0.9,0.4,1.6,1.1,2c1.2,0.6,2.6,1,4,1.2c1.9,0.2,3-1.6,1.6-3.1c0.1,0.4,0.3,0.7,0.4,1.1
			c0-1.9-0.4-4.4-2.4-5.2c-1.6-0.7-3.4-0.2-4.5,1.1c-1.2,1.3-1.5,3.2-0.6,4.8c1.3,2.3,4.5,2.9,6.9,3.2c0.8,0.1,1.5-0.8,1.5-1.5
			c0-0.9-0.7-1.4-1.5-1.5c-1-0.1-2.1-0.3-2.9-0.7c-0.4-0.2-0.7-0.4-1-0.6c0.2,0.2-0.2-0.2-0.2-0.2c-0.2-0.2,0.1,0.2-0.1-0.2
			c0-0.1-0.2-0.4,0,0c-0.1-0.1-0.1-0.3-0.1-0.4c0.1,0.4,0,0,0-0.1c0-0.3-0.1,0.3,0-0.1c0-0.1,0.1-0.2,0.1-0.3c-0.1,0.4,0,0,0.1-0.1
			c0-0.1,0.3-0.4,0.1-0.1c0.1-0.1,0.2-0.2,0.3-0.3c0.1-0.1,0.3-0.3,0,0c0.1-0.1,0.2-0.1,0.3-0.2c0.1,0,0.4-0.2,0,0
			c0.1,0,0.2-0.1,0.4-0.1c0.3-0.1-0.4,0,0,0c0.1,0,0.5,0,0.1,0c0.1,0,0.5,0.2,0.1,0c0.1,0,0.2,0.1,0.3,0.2c-0.3-0.2-0.1,0,0,0
			c0.1,0.2-0.1-0.2,0.1,0.2c0.1,0.2,0.2,0.4,0.3,0.8c0.1,0.4,0.1,0.7,0.1,1.1c0,0.5,0.1,0.9,0.4,1.3c0.1,0.1,0.1,0.1-0.1-0.1
			c-0.1-0.2-0.1-0.4-0.2-0.6c0.1-0.3,0.1-0.5,0.2-0.8c0.8-0.5,1.1-0.7,0.7-0.6c0.3,0,0.3,0,0.2,0c-0.1,0-0.1,0-0.2,0
			c-0.4,0,0.4,0.1,0,0c-0.5-0.1-0.9-0.2-1.3-0.3c-0.4-0.1-0.8-0.3-1.2-0.4c-0.4-0.2,0.1,0.1-0.2-0.1c0,0-0.1,0-0.1-0.1
			c0,0,0.4,0.5,0.5,0.7c0,0.3,0,0.5,0,0.8c0,0,0,0,0,0c-0.1,0.2-0.3,0.4-0.4,0.7c0,0,0,0,0,0c-0.2,0.1-0.4,0.3-0.7,0.4
			c0.2-0.1-0.5,0-0.2,0c-0.3-0.1-0.5-0.1-0.8-0.2c1.5,1.1,1.6,2.7,2.7,4.3c0.4-0.8,0.9-1.5,1.3-2.3c-0.6,0-0.9-0.5-1.1-0.9
			C734.4-268.4,731.8-266.9,732.7-265.2L732.7-265.2z"/>
	</g>
</g>
<g>
	<g>
		<path d="M803.8-303.1c0.4,1.1,1,2.9,2.5,2.9c1.5,0,1.9-1.3,2-2.5c0.1-0.8,0.1-1.9-0.5-2.6c-0.8-0.8-2-0.5-2.5,0.4
			c-0.6,1.2-0.8,2.6-0.9,3.9c-0.1,0.5-0.1,1.2,0.2,1.6c0.8,1,2.2,1,2.8-0.2c-0.8,0.1-1.6,0.2-2.4,0.3c0.9,0.8,2,1.3,3.3,0.8
			c1-0.4,1.8-1.2,1.7-2.3c-0.2-1.7-0.7-3.4-0.8-5.2c0-0.9-1-1.8-1.9-1.4c-1.4,0.5-2.7,1.5-1.9,3.1c0.5,1,2.1,1.4,3.1,1.4
			c1.9,0.1,1.9-2.9,0-3c-0.2,0-0.3-0.1-0.6-0.1c-0.8-0.2-0.8,1.8,0.2,1.5c-0.6-0.5-1.3-1-1.9-1.4c0,1.9,0.7,3.9,0.8,5.6
			c0.1-0.4,0.3-0.7,0.4-1.1c-0.1,0.2-0.2,0.2-0.3,0c-0.7-0.6-1.9-0.6-2.4,0.3c-0.4,0.7,0.2-0.9,1.5-0.5c0.3,0.2,0.6,0.5,0.9,0.7
			c0.1,0.2,0.1,0.9,0.2,0.3c0-0.1,0-0.2,0-0.3c0-0.4,0,0.3,0-0.1c0.1-0.6,0.2-1.2,0.4-1.8c0.1-0.2,0.1-0.4,0.2-0.6
			c0-0.1,0.2-0.4,0,0c0.4-0.9-2.8-1.3-2.5-0.4c-0.1-0.5,0-0.1,0,0c0,0.3,0,0.6,0,0.9c-0.1,0.8,2.1,0.3,1.8-0.2
			c-0.2-0.3-0.3-0.6-0.4-0.9C806-305.7,803.1-305,803.8-303.1L803.8-303.1z"/>
	</g>
</g>
<g>
	<g>
		<path d="M948.9-345.2c1.6-3.2,3.2-6.5,4.2-10c0.5-1.9-2.4-2.7-2.9-0.8c-0.9,3.3-2.4,6.2-3.8,9.2C945.5-345,948-343.4,948.9-345.2
			L948.9-345.2z"/>
	</g>
</g>
<g>
	<g>
		<path d="M730.4-337.3c7.6,1.6,14.6,4.6,21.2,8.6c1.7,1,3.2-1.6,1.5-2.6c-6.8-4.2-14.1-7.3-22-9
			C729.3-340.6,728.5-337.7,730.4-337.3L730.4-337.3z"/>
	</g>
</g>
<g>
	<g>
		<path d="M767.5-333.5c1.6-5.1,4.9-9.4,9.7-11.9c1.7-0.9,0.2-3.5-1.5-2.6c-5.4,2.9-9.3,7.9-11.1,13.7
			C764-332.5,766.9-331.7,767.5-333.5L767.5-333.5z"/>
	</g>
</g>
<g>
	<g>
		<path d="M807-104.7c-1.3,4.2,0.3,8.5,4.3,10.5c4.2,2.1,8.7,0.2,11.7-2.9c2.7-2.8,1.5-6.1-1.5-7.9c-3.5-2.1-8.3-2.7-12.3-2.3
			c-1.9,0.2-1.9,3.2,0,3c2.1-0.2,14.4,0.5,12,4.7c-1.5,2.6-5.1,3.8-7.9,3.1c-3.3-0.9-4.3-4.3-3.5-7.3
			C810.4-105.8,807.5-106.6,807-104.7L807-104.7z"/>
	</g>
</g>
<g>
	<g>
		<path d="M811-85.5c-1.8,8.6,9.3,19.5,15.9,10.3c6-8.4-9.4-13.6-15.3-13c-1.9,0.2-1.9,3.2,0,3c3.6-0.4,14.3,1.6,13.4,6.9
			c-0.7,3.8-4.7,4.5-7.4,2.4c-2.5-1.9-4.4-5.6-3.7-8.8C814.2-86.6,811.4-87.4,811-85.5L811-85.5z"/>
	</g>
</g>
<g>
	<g>
		<path d="M818.2-63.9c-0.3,1.9-0.4,3.7-0.1,5.6c0.2,1.1,0.7,2.3,1.6,3.1c1.9,1.5,4.4,0.9,6.4-0.3c2.1-1.2,3.9-3.1,5.1-5.1
			c1.1-1.8,1.9-4.4,0.6-6.3c-1-1.5-2.7-2-4.3-2.1c-2.5-0.3-5,0.3-7.4,0.9c-1.9,0.5-1.1,3.4,0.8,2.9c1.1-0.3,2.3-0.5,3.4-0.7
			c0.4-0.1-0.3,0,0.1,0c0.1,0,0.2,0,0.3,0c0.2,0,0.4,0,0.7-0.1c0.4,0,0.9,0,1.3,0c0.3,0,0.7,0,1,0.1c-0.5-0.1,0,0,0.1,0
			c0.2,0,0.3,0.1,0.5,0.1c0.1,0,0.2,0.1,0.4,0.1c0.4,0.1-0.3-0.1,0,0c0.1,0,0.2,0.1,0.3,0.2c0.1,0.1,0.5,0.4,0,0
			c0.2,0.1,0.3,0.3,0.4,0.4c-0.4-0.5-0.1-0.2-0.1,0c0.1,0.1,0.2,0.5,0,0c0.1,0.2,0.1,0.3,0.1,0.5c0.1,0.3,0-0.5,0-0.1
			c0,0.1,0,0.2,0,0.3c0,0.1,0,0.2,0,0.3c0,0.1,0.1-0.4,0,0c0,0.2-0.1,0.5-0.2,0.7c0,0.1-0.1,0.2-0.1,0.3c0,0.1,0,0.1-0.1,0.2
			c-0.1,0.2,0.2-0.4,0.1-0.1c-0.1,0.2-0.2,0.5-0.4,0.7c-0.3,0.5-0.6,0.9-0.9,1.4c-0.3,0.4,0.2-0.2-0.1,0.1c-0.1,0.1-0.2,0.2-0.3,0.3
			c-0.2,0.2-0.4,0.4-0.6,0.7c-0.4,0.4-0.8,0.8-1.2,1.2c-0.1,0.1-0.2,0.2-0.3,0.3c0.4-0.3,0,0-0.1,0c-0.2,0.2-0.5,0.3-0.7,0.5
			c-0.2,0.1-0.4,0.3-0.6,0.4c-0.1,0.1-0.2,0.1-0.3,0.2c-0.1,0-0.1,0-0.2,0.1c-0.2,0.1,0.4-0.2,0.1,0c-0.2,0.1-0.4,0.1-0.6,0.2
			c-0.1,0-0.2,0.1-0.3,0.1c0,0-0.1,0-0.2,0c-0.3,0.1,0.4,0,0.2,0c-0.2,0-0.4,0-0.6,0c-0.4,0,0.4,0.1,0.1,0c-0.1,0-0.2,0-0.3-0.1
			c-0.4-0.1,0.1,0.1,0.1,0c-0.1,0-0.2-0.1-0.2-0.1c-0.1-0.1-0.4-0.3,0,0.1c-0.1-0.1-0.2-0.1-0.2-0.2c-0.1-0.1-0.3-0.4,0,0.1
			c-0.1-0.1-0.1-0.1-0.1-0.2c-0.1-0.1-0.4-0.8-0.2-0.3c-0.2-0.4-0.3-0.9-0.4-1.4c0.1,0.5,0,0,0-0.1c0-0.1,0-0.3,0-0.4
			c0-0.4,0-0.7,0-1.1c0-0.4,0-0.7,0.1-1.1c0-0.2,0-0.4,0.1-0.6c0-0.1,0-0.2,0-0.4c0,0.4,0,0,0-0.1c0.1-0.8-0.2-1.6-1-1.8
			C819.3-65.2,818.3-64.7,818.2-63.9L818.2-63.9z"/>
	</g>
</g>
<g>
	<g>
		<path d="M735.7-269.9c0,1,0.3,2,0.6,2.9c0.3,1,0.2,2.3,1.3,2.9c2.4,1.2,2.6-2,3.3-3.4c0.3-0.7,0.2-1.6-0.5-2.1
			c-0.7-0.4-1.7-0.2-2.1,0.5c-0.3,0.6-0.5,1.2-0.7,1.8c-0.1,0.3-0.1,0.5-0.2,0.8c-0.2,0.6-0.1,0,0.3-0.2c0.3-0.1,0.5-0.1,0.8-0.2
			c0,0,0,0-0.1,0c0.3,0.1,0.5,0.1,0.8,0.2c0.1,0.1,0.3,0.4,0.1,0c0.1,0.3,0.1,0.5,0.2,0.8c0-1.4-0.8-2.6-0.8-4
			C738.7-271.9,735.7-271.9,735.7-269.9L735.7-269.9z"/>
	</g>
</g>
<g>
	<g>
		<path d="M805.8-304.1c0.9,0.9,2.2,1.8,3.5,1c1.4-0.8,1-2.5,0.4-3.7c-0.4-0.7-1.4-0.9-2.1-0.5c-0.7,0.4-0.9,1.3-0.5,2.1
			c0.1,0.2,0.1,0.2,0,0c0,0.1,0.1,0.2,0.1,0.4c-0.1-0.4,0-0.1,0,0c0-0.3,0.1-0.5,0.3-0.7c0.3-0.3,0.6-0.4,1-0.3
			c-0.3-0.1,0.3,0.2,0,0c0,0-0.4-0.2-0.2-0.1c-0.1-0.1-0.3-0.2-0.4-0.4c-0.6-0.6-1.5-0.6-2.1,0C805.2-305.6,805.2-304.6,805.8-304.1
			L805.8-304.1z"/>
	</g>
</g>
<g>
	<g>
		<path d="M25.5,75.7c2.1,16,1.8,32.1,3.5,48.1c1,9.2,0.5,18.5,1.9,27.7c1.1,6.9,3.9,11.5,11.2,11.9c9,0.5,18.6-2.4,27.3-4.4
			c12.2-2.8,24.4-3.2,36.9-3.4c9.8-0.2,19.6-1.3,29.3-2.8c5-0.8,15.6-1.6,17.5-7.5c2.1-6.5-1.2-15.8-2.7-22.1
			c-1.7-6.7-3.7-13.3-5.4-19.9c-2.8-10.7-7.4-20.6-10.8-31.1c-1.9-6-1.1-14.4-5.1-19.4c-4.9-6-15.1-5.9-22-5.7
			c-20.1,0.8-39.7,8.6-59.4,12.1c-6.2,1.1-12.8,2-17.8,6.1c-5.4,4.5-4.9,12.6-4.1,18.9c0.3,1.9,3.2,1.1,2.9-0.8
			c-0.7-4.9-1.1-10.7,2.2-14.8c2.6-3.3,7.2-4.3,11.1-5.2c10.7-2.5,21.6-4.2,32.3-7c12.5-3.2,25.4-6.7,38.5-6.3
			c4.8,0.2,11.6,0.8,14.5,5.2c2.3,3.4,2.2,8.8,2.9,12.7c2.4,12.5,8.9,23.9,12,36.2c2.1,8.2,4.6,16.2,6.5,24.4
			c0.9,4.1,1.8,8.2,1.9,12.4c0.2,4.5-1.8,5.6-5.9,6.9c-7.9,2.5-16.4,2.9-24.6,4c-15.7,2.2-31.6,0.1-47.3,3.4
			c-10.3,2.2-22.7,7.1-33.2,4.9c-5.3-1.1-5.6-9.4-6-13.6c-0.5-5.5-0.4-11.1-0.6-16.6c-0.4-8.4-1.6-16.9-2-25.4
			c-0.5-9.6-0.9-19.3-2.1-28.9C28.3,73.8,25.3,73.8,25.5,75.7L25.5,75.7z"/>
	</g>
</g>
<g>
	<g>
		<path d="M65.5,58.1c0.2,7.5,3.6,14.8,6,21.8c2.2,6.3,6.2,15.7-0.8,20.1c-5.7,3.7-13.5,4.5-20,5.5c-6.2,0.9-12.5,1.4-18.5,3.1
			c-1.9,0.5-1.1,3.4,0.8,2.9c6.7-2,13.9-2.4,20.9-3.5c6.6-1,14.7-2.2,20.1-6.6c5-4.1,3.9-10.4,2.5-16.1c-2.3-9-7.6-17.9-7.9-27.3
			C68.5,56.1,65.5,56.1,65.5,58.1L65.5,58.1z"/>
	</g>
</g>
<g>
	<g>
		<path d="M31,129.2c8.8-0.1,17.5-0.9,26.2-1.9c6.9-0.7,13.8-0.9,20.6-2.1c4.4-0.8,7,6,8.3,9.4c2,5.7,2.7,11.9,3.5,17.9
			c0.2,1.9,3.2,1.9,3,0c-0.8-6.7-1.7-13.4-4-19.8c-1.1-3.1-4-9.3-7.5-10.5c-1.3-0.4-2.7-0.2-4.1,0.1c-4.7,0.8-9.6,1-14.4,1.5
			c-10.5,1-21,2.4-31.6,2.5C29.1,126.2,29.1,129.2,31,129.2L31,129.2z"/>
	</g>
</g>
<g>
	<g>
		<path d="M108.5,152.5c-0.3-11.5-5.2-22.2-8.1-33.2c-0.3,0.6-0.7,1.2-1,1.8c12.9-5.1,26.5-9.3,40.4-10.3c1.9-0.1,1.9-3.1,0-3
			c-14.2,1-28,5.3-41.2,10.5c-0.8,0.3-1.3,1-1,1.8c2.8,10.7,7.7,21.2,7.9,32.4C105.6,154.4,108.6,154.4,108.5,152.5L108.5,152.5z"/>
	</g>
</g>
<g>
	<g>
		<path d="M81.5,54.9c-0.6,6.3,1.8,13.3,3.3,19.3c1.8,7.2,3.8,14.7,7.1,21.4c2.6,5.1,8.3,4.1,13.2,3.4c9-1.3,17.7-4.6,26.7-5.8
			c1.9-0.2,1.9-3.2,0-3c-7,0.9-13.8,3.1-20.6,4.6c-3.8,0.8-7.6,1.6-11.5,1.7c-3.1,0.1-4.2-0.4-5.5-3c-3.1-6.2-4.8-13.4-6.6-20.1
			c-1.5-5.7-3.7-12.5-3.2-18.5C84.7,52.9,81.7,53,81.5,54.9L81.5,54.9z"/>
	</g>
</g>
<g>
	<g>
		<path d="M138.2,110.8c1.1,0,2.1,0,3.2,0c1.9,0,1.9-3,0-3c-1.1,0-2.1,0-3.2,0C136.3,107.8,136.3,110.8,138.2,110.8L138.2,110.8z"/>
	</g>
</g>
<g>
	<g>
		<path d="M128.6,93.2c1.9,0,3.7,0,5.6,0c1.9,0,1.9-3,0-3c-1.9,0-3.7,0-5.6,0C126.7,90.2,126.7,93.2,128.6,93.2L128.6,93.2z"/>
	</g>
</g>
<g>
	<g>
		<path d="M138.2,88.6c-1.1,0-2.1,0-3.2,0c-1.9,0-1.9,3,0,3c1.1,0,2.1,0,3.2,0C140.1,91.6,140.1,88.6,138.2,88.6L138.2,88.6z"/>
	</g>
</g>
<g>
	<g>
		<path d="M82.9,52.1c6.3-15.2-12.6-31-26.9-24.5c-14.8,6.6,5.5,19.5,8.9,26.5c0.9,1.7,3.5,0.2,2.6-1.5C65,47.6,51,38.7,53.9,32.7
			c1.3-2.8,6.4-3.6,9.1-3.8c3.4-0.2,6.7,1.3,9.6,3c6.5,4,10.4,12,7.4,19.4C79.2,53.1,82.1,53.8,82.9,52.1L82.9,52.1z"/>
	</g>
</g>
<g>
	<g>
		<path d="M69.8,29.9c2.9-0.5,5.7-3,8.1-4.6c4.6-3.2,9.1-6.5,13.8-9.7c5-3.4,10.1-6.6,15.6-9.3c4-1.9,9.8-4.5,14.2-2.4
			c5.1,2.4,4.3,10.8,3.9,15.3c-0.6,8-5.9,13.2-13.1,16c-10,3.9-24.4,3.8-29.2,15.2c-0.7,1.8,2.2,2.6,2.9,0.8
			c2.8-6.6,10.5-8.4,16.7-10.1c6.1-1.6,12.8-3.1,17.9-7c5.8-4.6,7.6-11.1,8-18.2c0.2-5-0.5-10.8-4.8-14c-7.9-6-22,3.6-28.5,7.7
			c-5.5,3.5-10.8,7.3-16.1,11.1c-2.8,2-6.7,5.7-10.3,6.3C67.1,27.3,67.9,30.2,69.8,29.9L69.8,29.9z"/>
	</g>
</g>
<g>
	<g>
		<path d="M55.5,30.1c-6.5-9.1-17.6-16-27.1-21.4C21.9,5,7.1-3.2,1.5,5.9c-3,4.9-0.9,12.6,0.8,17.5c2.5,7.2,7.8,12.9,14,17.3
			c13.4,9.5,31.5,12.4,47.5,12.5c1.9,0,1.9-3,0-3c-14-0.1-28.6-2.5-41.1-9.1C16.2,37.7,10.7,32.8,7,26.4c-2.8-4.8-5.6-13.5-2.9-19
			c4-7.9,20.9,2.6,25.3,5.3c8.2,4.9,17.9,11,23.5,18.9C54,33.2,56.6,31.7,55.5,30.1L55.5,30.1z"/>
	</g>
</g>
<g>
	<g>
		<path d="M679,378.6c-1.1,30,21,54.1,49.2,61.5c12,3.2,25.3,3,36.7-2.3c11.7-5.5,18.5-16.8,20.3-29.3c3.9-27.2-10.9-53.6-38.4-59.5
			c-26.8-5.7-55.5,8.4-69,31.8c-1,1.7,1.6,3.2,2.6,1.5c16.7-28.9,60.9-43.8,87.8-19.5c13.2,11.9,17.2,32.4,13.4,49.2
			c-3,13.3-13,22.7-26,25.9c-16.5,4-34.6-1.4-48.3-10.7c-16.2-11-25.9-29-25.1-48.7C682.1,376.6,679.1,376.6,679,378.6L679,378.6z"
			/>
	</g>
</g>
<g>
	<g>
		<path d="M713.1,434.1c-19.4,6.4-34.9,24.2-44.3,41.7c-8.9,16.5-11.9,36.1,0.9,51.4c12.1,14.4,32.9,20.7,50.9,22.4
			c17.1,1.6,34.5-2.7,50.4-8.5c12.8-4.6,26.3-10.9,35.3-21.4c3.1-3.6,6-8.4,6.2-13.3c0.2-5.1-1.5-10.4-3.1-15.2
			c-4.3-13.3-10.8-26.1-18.1-38.1c-4.5-7.4-11.3-19.7-20.5-22.1c-1.9-0.5-2.7,2.4-0.8,2.9c6,1.6,10.7,8.9,14,13.5
			c5.5,7.7,10.1,16,14.2,24.5c4,8.1,7.5,16.6,9.9,25.4c2.1,7.8,1.4,13.7-3.9,20.2c-12.1,14.7-34,21.6-51.7,26
			c-18.1,4.5-36.2,4.2-54-1.7c-10.4-3.5-20.4-9.2-27.5-17.7c-7.8-9.3-8.5-21.4-5.5-32.7c3.3-12.4,10.7-23.7,19.1-33.3
			c7.8-9,17.7-17.5,29.3-21.2C715.7,436.4,715,433.5,713.1,434.1L713.1,434.1z"/>
	</g>
</g>
<g>
	<g>
		<path d="M751.1,547.7c-2.6,13.3-4.4,26.9-5.2,40.4c-0.4,7-0.6,14.1,0.5,21c0.6,4.2,1.6,9.3,5.1,12c1.5,1.2,3.6-0.9,2.1-2.1
			c-3.7-2.9-4.2-8.9-4.6-13.2c-0.7-6.7-0.4-13.5,0.1-20.2c0.8-12.5,2.5-25,4.9-37.2C754.3,546.6,751.4,545.8,751.1,547.7
			L751.1,547.7z"/>
	</g>
</g>
<g>
	<g>
		<path d="M753.3,625.9c4.1-2.6,8.5-4.3,13.1-5.8c1.8-0.6,1-3.5-0.8-2.9c-4.8,1.6-9.6,3.4-13.9,6.2
			C750.1,624.3,751.6,626.9,753.3,625.9L753.3,625.9z"/>
	</g>
</g>
<g>
	<g>
		<path d="M710.7,551.8c-11.1,24-20.6,49.3-25.6,75.4c-0.4,1.9,2.5,2.7,2.9,0.8c5-25.8,14.3-50.9,25.3-74.6
			C714.1,551.6,711.5,550,710.7,551.8L710.7,551.8z"/>
	</g>
</g>
<g>
	<g>
		<path d="M660.6,621.5c7.6,1.5,15.2,3.2,22.5,6c1.8,0.7,2.6-2.2,0.8-2.9c-7.3-2.8-14.9-4.5-22.5-6
			C659.5,618.2,658.7,621.1,660.6,621.5L660.6,621.5z"/>
	</g>
</g>
<g>
	<g>
		<path d="M803.5,476.5c9-23.5,23.7-44.8,22.6-70.9c-0.1-1.9-3.1-1.9-3,0c1.1,25.8-13.6,46.9-22.4,70.1
			C799.9,477.5,802.8,478.3,803.5,476.5L803.5,476.5z"/>
	</g>
</g>
<g>
	<g>
		<path d="M660.8,488.8c-14.2-26.8-29.7-53.6-51.2-75.3c-1.4-1.4-3.5,0.7-2.1,2.1c21.3,21.5,36.7,48.1,50.8,74.7
			C659.1,492,661.7,490.5,660.8,488.8L660.8,488.8z"/>
	</g>
</g>
<g>
	<g>
		<path d="M607.1,418.7c-1.8,5.2-4.4,10.1-7.3,14.6c-1.1,1.6,1.5,3.1,2.6,1.5c3.1-4.8,5.8-9.9,7.7-15.4
			C610.6,417.6,607.7,416.9,607.1,418.7L607.1,418.7z"/>
	</g>
</g>
<g>
	<g>
		<path d="M611.5,419.1c0-2.8,0.1-5.6,1.3-8.2c0.8-1.7-1.8-3.3-2.6-1.5c-1.5,3.1-1.7,6.3-1.7,9.8C608.5,421,611.5,421,611.5,419.1
			L611.5,419.1z"/>
	</g>
</g>
<g>
	<g>
		<path d="M609.3,421.9c4,1.7,8.3,0.3,12-1.5c1.7-0.8,0.2-3.4-1.5-2.6c-2.6,1.2-6.2,2.7-9,1.5C609,418.5,607.5,421.1,609.3,421.9
			L609.3,421.9z"/>
	</g>
</g>
<g>
	<g>
		<path d="M604,423.2c-1.6-4.5-4.6-7.8-7.9-11.2c-1.4-1.4-3.5,0.8-2.1,2.1c2.9,2.9,5.7,5.9,7.1,9.8C601.7,425.8,604.6,425,604,423.2
			L604,423.2z"/>
	</g>
</g>
<g>
	<g>
		<path d="M821.1,411.1c1.5-1.4,3.9-1.9,5.7-2.8c1.7-0.8,0.2-3.4-1.5-2.6c-2.1,1-4.5,1.6-6.3,3.2
			C817.5,410.3,819.7,412.5,821.1,411.1L821.1,411.1z"/>
	</g>
</g>
<g>
	<g>
		<path d="M824.3,407.8c-1.7-3.4-3.6-6.6-6.2-9.3c-1.4-1.4-3.5,0.7-2.1,2.1c2.5,2.6,4.2,5.5,5.8,8.7
			C822.6,411.1,825.2,409.5,824.3,407.8L824.3,407.8z"/>
	</g>
</g>
<g>
	<g>
		<path d="M818.5,410.1c-2.5,0-5.1,0.2-7.1,1.9c-1.4,1.3,0.7,3.4,2.1,2.1c1.3-1.1,3.3-1.1,4.9-1.1
			C820.4,413.1,820.4,410.1,818.5,410.1L818.5,410.1z"/>
	</g>
</g>
<g>
	<g>
		<path d="M819.3,414.4c4.5-2.9,9.6-4.2,14.6-5.8c1.8-0.6,1-3.5-0.8-2.9c-5.3,1.7-10.6,3.2-15.4,6.2
			C816.1,412.8,817.6,415.4,819.3,414.4L819.3,414.4z"/>
	</g>
</g>
<g>
	<g>
		<path d="M819.3,411.4c4.7-3.3,7.9-7.8,11-12.5c1.1-1.6-1.5-3.1-2.6-1.5c-2.8,4.2-5.7,8.5-10,11.5
			C816.2,409.9,817.7,412.5,819.3,411.4L819.3,411.4z"/>
	</g>
</g>
<g>
	<g>
		<path d="M682,372.6c-1.6-22.2,16.9-39.9,32.6-52.9c8.7-7.1,18-13.5,27.5-19.6c9.9-6.4,19.6-13.2,30.2-18.2
			c26.5-12.4,56.7-12.9,84-2.9c22.6,8.4,44.6,24.6,59,44c6.1,8.2,10.7,17.4,14,27c4,11.7,5,24,7.6,36c5.9,26.9,16,53.1,15,81
			c0.9-0.4,1.7-0.7,2.6-1.1c-36-33.6-48.3-84.7-85.7-117.2c-13.4-11.6-29.2-20-46.2-24.9c-15.5-4.4-33.7-5.7-47.9,3.3
			c-8.1,5.1-13.2,13.5-16.2,22.5c-0.6,1.8,2.3,2.6,2.9,0.8c14-41.6,65.8-26.6,93.2-8.7c41.5,27.1,55.2,76.8,85.6,113.5
			c3.8,4.6,7.9,8.8,12.2,12.9c1,0.9,2.5,0.3,2.6-1.1c1.1-30-10.4-58.2-16.2-87.1c-2.6-12.7-4-25-8.9-37.1
			c-3.9-9.7-9.5-18.6-16.2-26.7c-14.5-17.6-35.4-31.7-56.5-39.9c-25.1-9.7-53.1-9.4-78.3-0.2c-12.8,4.7-23.9,12.2-35.3,19.6
			c-10.3,6.6-20.4,13.5-30,21.2c-16.8,13.4-36.2,32.5-34.6,55.8C679.2,374.5,682.2,374.5,682,372.6L682,372.6z"/>
	</g>
</g>
<g>
	<g>
		<path d="M947.9,463c-3.4,3.7-5.6,8.3-9,12c-0.6,0.7-0.6,1.9,0.3,2.4c3.7,1.8,7.5,3.2,11.4,4.4c1.5,0.5,5.4,2.6,6.9,1.5
			c3.5-2.7,4.7-7.4,7.5-10.6c0.6-0.6,0.7-2-0.3-2.4c-4.1-1.7-5.8-5.6-8.7-8.8c-1.3-1.4-3.4,0.7-2.1,2.1c3.1,3.4,4.9,7.4,9.3,9.2
			c-0.1-0.8-0.2-1.6-0.3-2.4c-2,2.4-3.4,5.3-5.1,7.9c-1.8,2.8-3.5,1.4-6.4,0.5c-3.7-1.1-7.2-2.5-10.7-4.1c0.1,0.8,0.2,1.6,0.3,2.4
			c3.4-3.7,5.6-8.3,9-12C951.4,463.7,949.3,461.6,947.9,463L947.9,463z"/>
	</g>
</g>
<g>
	<g>
		<path d="M669.3,480.4c21.2-14,44.3-24.3,67.5-34.5c1.8-0.8,0.2-3.4-1.5-2.6c-23.2,10.2-46.3,20.5-67.5,34.5
			C666.2,478.8,667.7,481.4,669.3,480.4L669.3,480.4z"/>
	</g>
</g>
<g>
	<g>
		<path d="M662.9,506c41.2-16.8,83.2-31.9,123.4-51.1c1.7-0.8,0.2-3.4-1.5-2.6c-39.9,19.2-81.6,34.2-122.6,50.8
			C660.4,503.8,661.1,506.7,662.9,506L662.9,506z"/>
	</g>
</g>
<g>
	<g>
		<path d="M673.4,530c42.2-15.3,79.6-43.2,124.5-51c1.9-0.3,1.1-3.2-0.8-2.9c-44.9,7.8-82.2,35.7-124.5,51
			C670.8,527.8,671.6,530.7,673.4,530L673.4,530z"/>
	</g>
</g>
<g>
	<g>
		<path d="M702.3,547.9c33.2-17.2,70-25.4,104.6-38.8c1.8-0.7,1-3.6-0.8-2.9c-34.9,13.6-72,21.8-105.4,39.1
			C699,546.2,700.6,548.7,702.3,547.9L702.3,547.9z"/>
	</g>
</g>
<g>
	<g>
		<path d="M692.1,540.1c32.1-25.9,73.1-31.6,111.8-41.6c1.9-0.5,1.1-3.4-0.8-2.9c-39.4,10.1-80.5,16.1-113.2,42.4
			C688.5,539.2,690.6,541.3,692.1,540.1L692.1,540.1z"/>
	</g>
</g>
<g>
	<g>
		<path d="M685.1,385.7c-6.2,31.1,51.1,54.3,61.5,20.9c4.3-13.8-9.8-25.3-20.5-30.6c-11.5-5.7-28.5-9.3-39.2-0.3
			c-2.2,1.8-3.7,4.3-4.7,7c-0.7,1.8,2.2,2.6,2.9,0.8c5.3-12.7,22.1-11,32.7-7.6c11,3.5,25.5,12.2,26.5,25c0.5,6.8-4.2,12.8-9.8,16.1
			c-6.5,3.8-14.6,3.2-21.6,1.3c-13.5-3.8-28-16.4-24.9-31.8C688.3,384.6,685.4,383.8,685.1,385.7L685.1,385.7z"/>
	</g>
</g>
<g>
	<g>
		<path d="M752.6,373.7c-2.2,6.9-2.9,15-0.6,21.9c2.4,7.2,10.2,9.3,16.8,6.1c7.2-3.5,8.3-11.4,5.4-18.4
			c-3.1-7.5-10.5-12.7-18.7-12.2c-1.9,0.1-1.9,3.1,0,3c6.9-0.4,12.4,3.6,15.6,9.5c3.1,5.8,2.2,13.1-4.4,15.7
			c-15.2,6-13.9-16.4-11.2-24.8C756,372.6,753.2,371.8,752.6,373.7L752.6,373.7z"/>
	</g>
</g>
<g>
	<g>
		<path d="M727.4,429.5c16.8-4.5,33.9-7.4,51-10.5c1.9-0.3,1.1-3.2-0.8-2.9c-17.1,3.1-34.2,6-51,10.5
			C724.8,427.1,725.5,430,727.4,429.5L727.4,429.5z"/>
	</g>
</g>
<g>
	<g>
		<path d="M714.3,403.9c0.5-0.2,0.9-0.5,1.4-0.8c0.2-0.1,0.9-0.4,0.3-0.2c-0.6,0.2-1.2-0.2-1.5-0.6c0.1,0.1,0.1,0.2,0.2,0.2
			c0.2,0.4,0.5,0.7,0.9,1.1c1.4,1.4,3.5-0.7,2.1-2.1c-0.1-0.1-0.5-0.6-0.2-0.2c-0.1-0.1-0.2-0.2-0.2-0.4c-0.4-0.6-0.8-0.9-1.5-0.9
			c-0.4,0-0.8,0.2-1.2,0.4c-0.5,0.3-1.1,0.6-1.6,0.9c-0.7,0.4-0.9,1.4-0.5,2.1C712.7,404.1,713.5,404.2,714.3,403.9L714.3,403.9z"/>
	</g>
</g>
<g>
	<g>
		<path d="M766,392.1c1.9,0,1.9-3,0-3S764.1,392.1,766,392.1L766,392.1z"/>
	</g>
</g>
<g>
	<g>
		<path d="M766,392.1c1.9,0,1.9-3,0-3S764.1,392.1,766,392.1L766,392.1z"/>
	</g>
</g>
<g>
	<g>
		<path d="M764.5,392.1c1.9,0,1.9-3,0-3S762.6,392.1,764.5,392.1L764.5,392.1z"/>
	</g>
</g>
<g>
	<g>
		<path d="M764.5,392.1c1.9,0,1.9-3,0-3S762.6,392.1,764.5,392.1L764.5,392.1z"/>
	</g>
</g>
<g>
	<g>
		<path d="M764.5,392.1c1.9,0,1.9-3,0-3S762.6,392.1,764.5,392.1L764.5,392.1z"/>
	</g>
</g>
<g>
	<g>
		<path d="M-538.5,133.6c-27.7,1.2-54.6,13.2-64.1,40.9c-7.8,23-1.4,49.7,12.4,69.1c14.6,20.4,38.5,31.4,63.4,26
			c17.4-3.8,36-14.9,43.1-31.8c7.6-18.1-3.3-38.4-12.1-53.8c-3.1-5.3-6.5-10.5-9.2-16c-2.8-5.7-5-11.6-7.9-17.2
			c-5-9.8-12.4-18.4-24.1-18.7c-1.9,0-1.9,3,0,3c20.6,0.5,24.3,27.5,33.2,41.3c10.5,16.3,24.1,38.4,18,58.5
			c-5.7,18.8-28.4,30-46.6,32.7c-12.8,1.9-25.8-1.2-36.7-8c-21.3-13.3-33.6-39.4-33.7-64.1c-0.1-12.3,3.4-24.4,10.5-34.5
			c8.2-11.6,21.2-18.5,34.7-21.9c6.3-1.6,12.8-2.3,19.2-2.6C-536.6,136.5-536.6,133.5-538.5,133.6L-538.5,133.6z"/>
	</g>
</g>
<g>
	<g>
		<path d="M-592.5,156.1c0-33.9,3.5-72,22-101.3c9.6-15.1,24.4-25.1,42.4-26.2c19.1-1.1,33,9.9,41.3,26.3
			c12.4,24.4,13.1,52.8,18.8,79.1c1-0.3,1.9-0.5,2.9-0.8c-9.1-23.1-31-46.8-58.2-43.3c-8.7,1.1-15.1,7.2-16.8,15.8
			c-2.2,10.7,3,21.9,9.3,30.2c1.2,1.5,3.8,0,2.6-1.5c-5.6-7.3-9.6-16-9.3-25.3c0.3-9.6,7.4-15.6,16.6-16.4
			c24.9-2.1,44.7,20.3,53,41.3c0.7,1.8,3.3,1.1,2.9-0.8c-3.6-16.8-5.3-33.9-9.2-50.6c-3.7-16.2-9.3-33.5-21.5-45.4
			c-11.9-11.8-29.5-13.7-45.1-9.4c-15.5,4.3-27.1,16.3-34.9,29.9c-16.6,29-19.8,65.7-19.8,98.4C-595.5,158-592.5,158-592.5,156.1
			L-592.5,156.1z"/>
	</g>
</g>
<g>
	<g>
		<path d="M-471.4,129.1c-7.5,3.1-14.4,7.9-13,16.8c0.1,0.7,0.8,1.1,1.4,1.1c4.5,0.1,8.9,1.4,13.5,1.5c-0.5-0.6-1-1.3-1.4-1.9
			c-0.5,1.8-3.7,4.5-0.8,6.2c2.9,1.7,7.1,2.3,10.4,2.7c4.2,0.5,9.1-0.4,11.5-4.3c2.1-3.5,0.5-7.9-1.6-10.9
			c-3.7-5.3-10.1-8.2-16.1-9.8c-1.9-0.5-2.7,2.4-0.8,2.9c6.1,1.6,17.7,6.6,16.5,14.8c-0.5,3.3-4.1,4.2-6.9,4.3
			c-2.4,0.1-4.8-0.4-7.1-1c-0.8-0.2-4.4-0.6-3.2-2.1c0.6-0.7,0.9-1.3,1.1-2.2c0.3-1-0.5-1.9-1.4-1.9c-4.6-0.1-9-1.4-13.5-1.5
			c0.5,0.4,1,0.7,1.4,1.1c-1.1-7.1,5.3-10.8,11-13.2C-468.8,131.3-469.6,128.4-471.4,129.1L-471.4,129.1z"/>
	</g>
</g>
<g>
	<g>
		<path d="M-595.3,170.3c-6.9,9.7-6.6,23.1,3.1,30.8c10,8,24.2,2.4,31.7-6.3c6.9-8,3.6-18.2-3.7-24.4c-8.8-7.5-21.8-8.8-32-3.6
			c-1.7,0.9-0.2,3.5,1.5,2.6c8.5-4.3,18.2-3.3,26.2,1.6c7.1,4.3,11.5,12.6,6.9,20.3c-5.3,9.1-18.8,13.8-27.9,8.1
			c-9.7-6-9.1-19.2-3.2-27.5C-591.6,170.2-594.2,168.7-595.3,170.3L-595.3,170.3z"/>
	</g>
</g>
<g>
	<g>
		<path d="M-545.5,168.5c-9.1,10.5-11.4,24,0.7,33c9.6,7.2,25.8,8.3,35.4,0.5c10.9-8.9,11.7-25.6,0.1-34.2
			c-11.1-8.1-28.5-10.1-40.4-2.6c-1.6,1-0.1,3.6,1.5,2.6c10.1-6.4,24.1-5.1,34.3,0.5c12,6.7,13.3,21.8,3,31
			c-8.1,7.2-21.5,5.9-30.3,0.9c-4.5-2.5-8-6.6-9.1-11.7c-1.5-6.7,2.8-13.2,6.9-18C-542.2,169.2-544.3,167.1-545.5,168.5
			L-545.5,168.5z"/>
	</g>
</g>
<g>
	<g>
		<path d="M-566.6,250.5c29-7.8,56.4-20.7,82.9-34.7c1.7-0.9,0.2-3.5-1.5-2.6c-26.3,13.9-53.3,26.6-82.1,34.3
			C-569.3,248.1-568.5,251-566.6,250.5L-566.6,250.5z"/>
	</g>
</g>
<g>
	<g>
		<path d="M-579,187.6c1.9,0,1.9-3,0-3S-580.9,187.6-579,187.6L-579,187.6z"/>
	</g>
</g>
<g>
	<g>
		<path d="M-579,187.6c1.9,0,1.9-3,0-3S-580.9,187.6-579,187.6L-579,187.6z"/>
	</g>
</g>
<g>
	<g>
		<path d="M-522,192.1c1.9,0,1.9-3,0-3S-523.9,192.1-522,192.1L-522,192.1z"/>
	</g>
</g>
<g>
	<g>
		<path d="M-522,192.1c1.9,0,1.9-3,0-3S-523.9,192.1-522,192.1L-522,192.1z"/>
	</g>
</g>
<g>
	<g>
		<path d="M-536.8,270.8c-12.4,22.1-10.7,49-9.2,73.4c0.8,12.5,2,25.1,1.2,37.6c-0.6,9.2-2.2,20,4.3,27.5c4.6,5.2,11.9,4.5,18.1,3.8
			c9.4-1,18.7-3.2,27.8-5.5c14-3.5,30.3-6.8,40.7-17.5c18.8-19.4,14.8-52.9,9.3-76.7c-6.3-27.2-18-56.8-37.4-77.3
			c-1.3-1.4-3.4,0.7-2.1,2.1C-472.8,250-465,265-458.6,280c7.6,17.7,12.9,36.6,14.8,55.7c1.6,15.9,0.7,33.6-8.2,47.3
			c-8.7,13.4-25.3,16.9-39.8,20.8c-11.9,3.2-24.5,6.5-36.9,6.7c-17.3,0.4-13.3-21.4-12.8-32.8c1.5-34.6-10.7-73.3,7.3-105.4
			C-533.2,270.6-535.8,269.1-536.8,270.8L-536.8,270.8z"/>
	</g>
</g>
<g>
	<g>
		<path d="M-541,391.1c6,5.9,13.1,10.3,19.8,15.2c1.6,1.2,3.1-1.5,1.5-2.6c-6.5-4.8-13.4-9.1-19.2-14.8
			C-540.3,387.6-542.4,389.8-541,391.1L-541,391.1z"/>
	</g>
</g>
<g>
	<g>
		<path d="M-541.3,359.3c11.5,15.4,28.4,25.8,39,42c1.1,1.6,3.7,0.1,2.6-1.5c-10.6-16.2-27.5-26.6-39-42
			C-539.8,356.3-542.4,357.8-541.3,359.3L-541.3,359.3z"/>
	</g>
</g>
<g>
	<g>
		<path d="M-544.3,320.3c13.4,29.6,36.9,53.3,55.5,79.5c1.1,1.6,3.7,0.1,2.6-1.5c-18.6-26.2-42.1-49.9-55.5-79.5
			C-542.5,317-545.1,318.6-544.3,320.3L-544.3,320.3z"/>
	</g>
</g>
<g>
	<g>
		<path d="M-544.3,294.8c17,40,50.5,71.2,78.2,103.8c1.3,1.5,3.4-0.7,2.1-2.1c-27.6-32.4-60.9-63.4-77.8-103.2
			C-542.4,291.5-545,293.1-544.3,294.8L-544.3,294.8z"/>
	</g>
</g>
<g>
	<g>
		<path d="M-539.9,281c5.7,20.8,21.4,38.3,36.5,53.1c16.3,16,34.7,30.5,54.2,42.3c1.7,1,3.2-1.6,1.5-2.6
			c-18.6-11.2-35.8-24.8-51.5-39.8c-15.5-14.8-32-32.6-37.8-53.8C-537.5,278.3-540.4,279.1-539.9,281L-539.9,281z"/>
	</g>
</g>
<g>
	<g>
		<path d="M-526.3,269.3c19.5,32.1,48.6,57.9,78.5,80c1.6,1.2,3.1-1.5,1.5-2.6c-29.5-21.8-58.3-47.3-77.5-79
			C-524.7,266.2-527.3,267.7-526.3,269.3L-526.3,269.3z"/>
	</g>
</g>
<g>
	<g>
		<path d="M-512.5,268.1c8.6,11,17.8,21.3,28.5,30.4c10.4,8.8,22,16.3,33.3,23.9c1.6,1.1,3.1-1.5,1.5-2.6
			c-11.1-7.4-22.4-14.8-32.7-23.4c-10.7-8.9-19.9-19.4-28.5-30.4C-511.6,264.5-513.7,266.6-512.5,268.1L-512.5,268.1z"/>
	</g>
</g>
<g>
	<g>
		<path d="M-496,259.1c12.3,10.9,21.6,25.5,38.2,30.4c1.9,0.5,2.6-2.3,0.8-2.9c-15.9-4.7-25-19.1-36.8-29.6
			C-495.4,255.7-497.5,257.8-496,259.1L-496,259.1z"/>
	</g>
</g>
<g>
	<g>
		<path d="M-515.9,414.5c5.7,19.4,4.5,39.6,4.4,59.6c0,1.9,3,1.9,3,0c0-20.3,1.3-40.7-4.6-60.4
			C-513.6,411.8-516.5,412.6-515.9,414.5L-515.9,414.5z"/>
	</g>
</g>
<g>
	<g>
		<path d="M-508.5,475.6c-6.5,0-13,0-19.5,0c-1.9,0-1.9,3,0,3c6.5,0,13,0,19.5,0C-506.6,478.6-506.6,475.6-508.5,475.6L-508.5,475.6
			z"/>
	</g>
</g>
<g>
	<g>
		<path d="M-470.9,404c5.9,22.8,5.9,47.1,15,69c0.7,1.8,3.6,1,2.9-0.8c-9.1-21.9-9.1-46.2-15-69C-468.5,401.3-471.4,402.1-470.9,404
			L-470.9,404z"/>
	</g>
</g>
<g>
	<g>
		<path d="M-454.5,474.1c-6,0.2-11.3,2.6-16.9,4.6c-1.8,0.6-1,3.5,0.8,2.9c5.3-1.8,10.4-4.3,16.1-4.4
			C-452.6,477-452.6,474-454.5,474.1L-454.5,474.1z"/>
	</g>
</g>
<g>
	<g>
		<path d="M-550.9,319.6c-27.7,6.6-40.8,34.3-57.7,54.4c-1.2,1.5,0.9,3.6,2.1,2.1c16.4-19.6,29.3-47.2,56.3-53.6
			C-548.2,322.1-549,319.2-550.9,319.6L-550.9,319.6z"/>
	</g>
</g>
<g>
	<g>
		<path d="M-452.2,296.9c33.9,20.3,54.6,55.9,76,88c1.1,1.6,3.7,0.1,2.6-1.5c-21.6-32.5-42.7-68.4-77-89
			C-452.4,293.3-453.9,295.9-452.2,296.9L-452.2,296.9z"/>
	</g>
</g>
<g>
	<g>
		<path d="M-382.5,385.6c-0.1,3.8-1.4,6.7-4.1,9.4c-1.4,1.4,0.8,3.5,2.1,2.1c3.2-3.3,4.9-7,4.9-11.6
			C-379.5,383.6-382.5,383.6-382.5,385.6L-382.5,385.6z"/>
	</g>
</g>
<g>
	<g>
		<path d="M-380.8,383.3c3,4.3,7.1,7.2,10.7,10.8c1.4,1.4,3.5-0.8,2.1-2.1c-3.5-3.4-7.5-6.2-10.3-10.2
			C-379.3,380.2-381.9,381.7-380.8,383.3L-380.8,383.3z"/>
	</g>
</g>
<g>
	<g>
		<path d="M-379.5,385.6c4.1-0.1,7.6-1.4,11.3-3.2c1.7-0.9,0.2-3.5-1.5-2.6c-3.2,1.6-6.2,2.7-9.7,2.8
			C-381.4,382.6-381.4,385.6-379.5,385.6L-379.5,385.6z"/>
	</g>
</g>
<g>
	<g>
		<path d="M-603,373.6c0.1,4.1,1.4,7.6,3.2,11.3c0.9,1.7,3.5,0.2,2.6-1.5c-1.6-3.2-2.7-6.2-2.8-9.7C-600,371.6-603,371.6-603,373.6
			L-603,373.6z"/>
	</g>
</g>
<g>
	<g>
		<path d="M-607.5,375.1c-4.9,0.1-9.5,1.6-13.1,4.9c-1.4,1.3,0.7,3.4,2.1,2.1c3-2.8,6.9-4,10.9-4.1
			C-605.6,378-605.5,375-607.5,375.1L-607.5,375.1z"/>
	</g>
</g>
<g>
	<g>
		<path d="M-609,373.6c0-4.2-0.5-8.3-3.4-11.6c-1.3-1.4-3.4,0.7-2.1,2.1c2.4,2.6,2.6,6.1,2.6,9.4C-612,375.5-609,375.5-609,373.6
			L-609,373.6z"/>
	</g>
</g>
<g>
	<g>
		<path d="M-378,381.1c0-2.5,0-5,0-7.5c0-1.9-3-1.9-3,0c0,2.5,0,5,0,7.5C-381,383-378,383-378,381.1L-378,381.1z"/>
	</g>
</g>
<g>
	<g>
		<path d="M-609,376.6c0.1,3.5,1.7,6.7,3.2,9.8c0.9,1.7,3.5,0.2,2.6-1.5c-1.3-2.6-2.7-5.3-2.8-8.2C-606,374.6-609,374.6-609,376.6
			L-609,376.6z"/>
	</g>
</g>
<g>
	<g>
		<path d="M-547.2-308.7c-19,8.3-29.9,27.6-35.6,46.7c-5.2,17.8-7.6,39.5,2.8,55.8c9.7,15.2,28.4,21.4,45.6,22.6
			c17.5,1.2,38-2,51.5-14c19.4-17.3,21.6-48.1,15-71.7c-3.6-13-10.9-25.6-21.6-33.9c-14.1-10.9-34.2-8.7-50.6-13.2
			c-1.9-0.5-2.7,2.4-0.8,2.9c11.9,3.3,24.3,3.4,36.2,6.5c11.9,3.1,20.5,11.4,26.7,21.7c9.9,16.4,12.6,37.4,8.8,56
			c-3.9,19.2-15.9,34.2-35,39.6c-19,5.4-41.4,5-58.9-4.8c-9-5-15.7-13.1-18.9-22.9c-3.4-10.3-2.3-22-0.5-32.5
			c3.8-22.3,15-46.6,36.8-56.2C-544-306.9-545.5-309.5-547.2-308.7L-547.2-308.7z"/>
	</g>
</g>
<g>
	<g>
		<path d="M-554.4-187.4c-18.3,2.9-33,12.3-36.7,31.3c-3.7,19.3,1.2,41.9,12.2,58c10.8,15.9,28.4,25.3,46.8,29.3
			c19.3,4.2,41.7,3.5,59.7-5.3c21.7-10.6,23.9-33.9,18.3-55c-6.4-24.1-20.2-46.3-34.1-66.7c-1.1-1.6-3.7-0.1-2.6,1.5
			c9.4,13.8,18.1,28,25.2,43.1c6.9,14.7,13.3,31.9,11,48.5c-2.5,18.2-17.8,27.4-34.4,31.2c-21,4.8-45.4,1.9-64.5-8.1
			c-22.2-11.7-33.1-33.8-35.2-58.1c-0.9-10.8-0.1-22.2,5.9-31.5c6.4-9.8,18.3-13.7,29.2-15.4C-551.7-184.8-552.5-187.7-554.4-187.4
			L-554.4-187.4z"/>
	</g>
</g>
<g>
	<g>
		<path d="M-494-67.4c1.5,16.3,4.4,32.4,7.6,48.4c0.4,1.9,3.3,1.1,2.9-0.8c-3.1-15.8-5.9-31.6-7.4-47.6
			C-491.2-69.3-494.2-69.4-494-67.4L-494-67.4z"/>
	</g>
</g>
<g>
	<g>
		<path d="M-481.6-15c11.1-1.6,22.1-3.3,33-6c1.9-0.5,1.1-3.4-0.8-2.9c-10.9,2.7-21.9,4.4-33,6C-484.3-17.6-483.5-14.7-481.6-15
			L-481.6-15z"/>
	</g>
</g>
<g>
	<g>
		<path d="M-543.5-70.4c0,19.5,1.5,39,1.5,58.5c0,1.9,3,1.9,3,0c0-19.5-1.5-39-1.5-58.5C-540.5-72.4-543.5-72.4-543.5-70.4
			L-543.5-70.4z"/>
	</g>
</g>
<g>
	<g>
		<path d="M-542-13.4c-12.7,1.6-25.4,3-37.9,6.1c-1.9,0.5-1.1,3.3,0.8,2.9c12.2-3,24.7-4.4,37.1-5.9
			C-540.1-10.7-540.1-13.7-542-13.4L-542-13.4z"/>
	</g>
</g>
<g>
	<g>
		<path d="M-471.1-162.4c21.6,23.5,36.1,52.4,57,76.5c1.3,1.5,3.4-0.7,2.1-2.1c-20.9-24.1-35.3-53-57-76.5
			C-470.2-165.9-472.4-163.8-471.1-162.4L-471.1-162.4z"/>
	</g>
</g>
<g>
	<g>
		<path d="M-592.2-160.2c-30.5,21.8-42.5,58.7-54.7,92.4c-0.7,1.8,2.2,2.6,2.9,0.8c11.9-32.9,23.5-69.4,53.3-90.6
			C-589.2-158.8-590.7-161.4-592.2-160.2L-592.2-160.2z"/>
	</g>
</g>
<g>
	<g>
		<path d="M-644.7-66.1c2.2,1.1,4,2.5,5.7,4.3c1.4,1.4,3.5-0.8,2.1-2.1c-1.9-1.9-3.9-3.5-6.3-4.7C-644.9-69.6-646.5-67-644.7-66.1
			L-644.7-66.1z"/>
	</g>
</g>
<g>
	<g>
		<path d="M-648.5-64.4c-0.1,3.2-1.9,5.7-4.1,7.9c-1.3,1.4,0.8,3.5,2.1,2.1c2.7-2.8,4.8-6.1,4.9-10.1
			C-645.4-66.4-648.4-66.4-648.5-64.4L-648.5-64.4z"/>
	</g>
</g>
<g>
	<g>
		<path d="M-644.4-65.5c-3.2-3.1-6.9-5.7-10.8-7.7c-1.7-0.9-3.2,1.7-1.5,2.6c3.7,1.9,7.2,4.3,10.2,7.3
			C-645.2-62-643-64.1-644.4-65.5L-644.4-65.5z"/>
	</g>
</g>
<g>
	<g>
		<path d="M-647-64.4c4.9-0.1,8.8-2.1,12.8-4.7c1.6-1.1,0.1-3.7-1.5-2.6c-3.5,2.3-6.9,4.2-11.2,4.3C-648.9-67.4-648.9-64.4-647-64.4
			L-647-64.4z"/>
	</g>
</g>
<g>
	<g>
		<path d="M-417.3-89.2c-3.3,4.9-7.6,9-11.8,13.2c-1.4,1.4,0.8,3.5,2.1,2.1c4.4-4.4,8.7-8.7,12.2-13.8
			C-413.6-89.3-416.2-90.8-417.3-89.2L-417.3-89.2z"/>
	</g>
</g>
<g>
	<g>
		<path d="M-420.5-82.4c2.9,0.1,5,2.9,6.2,5.3c0.9,1.7,3.5,0.2,2.6-1.5c-1.7-3.3-4.8-6.6-8.8-6.7C-422.4-85.5-422.4-82.5-420.5-82.4
			L-420.5-82.4z"/>
	</g>
</g>
<g>
	<g>
		<path d="M-419-85.4c3.8-0.1,7.3-1.8,10.9-3.1c1.8-0.6,1-3.5-0.8-2.9c-3.2,1.1-6.6,2.8-10.1,2.9C-420.9-88.4-420.9-85.4-419-85.4
			L-419-85.4z"/>
	</g>
</g>
<g>
	<g>
		<path d="M-419-83.9c4.8-0.1,9.4-1.5,13.9-3.1c1.8-0.6,1-3.5-0.8-2.9c-4.3,1.4-8.6,2.8-13.1,2.9C-420.9-86.9-420.9-83.9-419-83.9
			L-419-83.9z"/>
	</g>
</g>
<g>
	<g>
		<path d="M-542-314.9c-4.9,0.1-9.5,1.6-13.1,4.9c-1.4,1.3,0.7,3.4,2.1,2.1c3-2.8,6.9-4,10.9-4.1C-540.1-312-540.1-315-542-314.9
			L-542-314.9z"/>
	</g>
</g>
<g>
	<g>
		<path d="M-486.5-298.4c5.9-44.7-30.4-86.4-67.6-105.7c-19.5-10.1-41.3-14-63-10c-18.7,3.4-34.6,14.3-45.7,29.6
			c-13.3,18.3-19,41.4-21.7,63.6c-0.2,1.6,2.1,1.9,2.8,0.8c6.1-10.3,13.6-19.7,24.6-25.1c11.4-5.7,24.9-5.2,37.2-3.9
			c13.4,1.4,24.4,7.8,33.9,17.2c8.9,8.8,16.7,18.3,26.7,25.9c1.5,1.2,3-1.4,1.5-2.6c-11-8.4-19.4-19.4-29.6-28.8
			c-10.1-9.3-22.1-13.8-35.7-15.1c-12.1-1.1-24.5-0.5-35.6,4.7c-11.4,5.3-19.4,15.7-25.7,26.2c0.9,0.3,1.9,0.5,2.8,0.8
			c2.5-20.7,7.9-41.6,19.3-59.2c11.4-17.6,29.1-28.6,49.7-31.7c47.9-7.2,95.7,28.3,115.5,70c6.4,13.5,9.4,28.6,7.4,43.4
			C-489.7-296.5-486.7-296.5-486.5-298.4L-486.5-298.4z"/>
	</g>
</g>
<g>
	<g>
		<path d="M-685.8-320.2c4.3,5.8,8.7,11.6,12,18c0.2-0.7,0.4-1.4,0.5-2.1c-4.6,2.3-9.1,4.8-13.5,7.5c0.7,0.2,1.4,0.4,2.1,0.5
			c-1.9-3.6-4.1-6.9-6-10.5c-0.3-0.6-1.1-0.9-1.7-0.7c-0.7,0.3-1.4,0.6-1.8,1.4c-0.2,0.3-0.3,0.7-0.5,1c-0.6,1.5,1.4,1.2-1.2-0.1
			c-5.1-2.5-10.1-5.1-14.9-8.2c-1.4-0.9-3.1,1.2-1.8,2.4c4.1,3.5,9.1,7.2,14.1,3.3c4.9-3.8,5.7-10.7,11.7-13.6
			c1.7-0.8,0.2-3.4-1.5-2.6c-4.1,2-6.5,5.7-8.8,9.5c-1.2,1.9-2.3,3.9-4.2,5.1c-2.9,1.8-7.2-2.2-9.1-3.9c-0.6,0.8-1.2,1.6-1.8,2.4
			c5.3,3.4,10.9,6.2,16.5,9c0.9,0.4,1.5,0.7,2.4,0.2c0.9-0.5,1.1-2.8,1.8-3c-0.6-0.2-1.1-0.5-1.7-0.7c1.9,3.6,4.1,6.9,6,10.5
			c0.4,0.7,1.4,0.9,2.1,0.5c4.4-2.7,8.9-5.2,13.5-7.5c0.8-0.4,0.9-1.4,0.5-2.1c-3.3-6.4-7.7-12.2-12-18
			C-684.3-323.2-686.9-321.7-685.8-320.2L-685.8-320.2z"/>
	</g>
</g>
<g>
	<g>
		<path d="M-567.1-272.5c-10.4,13-8.5,29.6,1.6,42.2c8.9,11.1,25.2,17.3,37.6,8c31.9-23.8-16.3-56.8-41.1-53.7c-1.9,0.2-1.9,3.2,0,3
			c21.4-2.7,64.5,22.3,41.9,46c-10.5,11-25.7,5.7-34.8-3.9c-10.3-10.9-12.6-27.5-3-39.5C-563.7-271.9-565.8-274-567.1-272.5
			L-567.1-272.5z"/>
	</g>
</g>
<g>
	<g>
		<path d="M-499.3-266.7c-16.6,8.2-8,37,10.2,35.3c9.9-0.9,15.3-8.6,12.5-17.9c-2.8-9.5-12-18.3-21.6-20.5c-1.9-0.4-2.7,2.5-0.8,2.9
			c7.9,1.8,14.2,8,18,15c1.8,3.3,2.8,7.1,1.9,10.8c-1.2,4.6-6.8,6.5-11,6.9c-15.1,1.4-20.8-23.4-7.7-29.8
			C-496-265-497.5-267.6-499.3-266.7L-499.3-266.7z"/>
	</g>
</g>
<g>
	<g>
		<path d="M-521-244.4c4.5,0,9,0,13.5,0c1.9,0,1.9-3,0-3c-4.5,0-9,0-13.5,0C-522.9-247.4-522.9-244.4-521-244.4L-521-244.4z"/>
	</g>
</g>
<g>
	<g>
		<path d="M-479-251.5c1.6-6,4.3-11.4,8.6-15.8c1.3-1.4-0.8-3.5-2.1-2.1c-4.6,4.8-7.7,10.7-9.4,17.2
			C-482.4-250.5-479.5-249.7-479-251.5L-479-251.5z"/>
	</g>
</g>
<g>
	<g>
		<path d="M-573.9-245.5c-3-3-6-6-9-9c-1.4-1.4-3.5,0.8-2.1,2.1c3,3,6,6,9,9C-574.7-242-572.6-244.1-573.9-245.5L-573.9-245.5z"/>
	</g>
</g>
<g>
	<g>
		<path d="M-563-202.4c26.2,0,52.9-1.3,78.4-7.6c1.9-0.5,1.1-3.4-0.8-2.9c-25.2,6.2-51.7,7.4-77.6,7.4
			C-564.9-205.4-564.9-202.4-563-202.4L-563-202.4z"/>
	</g>
</g>
<g>
	<g>
		<path d="M-543.5-241.4c1.9,0,1.9-3,0-3S-545.4-241.4-543.5-241.4L-543.5-241.4z"/>
	</g>
</g>
<g>
	<g>
		<path d="M-494-242.9c1.9,0,1.9-3,0-3S-495.9-242.9-494-242.9L-494-242.9z"/>
	</g>
</g>
<g>
	<g>
		<path d="M-584.7-121.6C-556.7-100-524-85.4-491.4-72c1.8,0.7,2.6-2.2,0.8-2.9c-32.4-13.3-64.8-27.8-92.6-49.3
			C-584.8-125.4-586.3-122.8-584.7-121.6L-584.7-121.6z"/>
	</g>
</g>
<g>
	<g>
		<path d="M-589.6-148.9c16.6,15.4,38.3,25.1,59,33.8c22.6,9.5,45.9,17.3,69.2,25c1.8,0.6,2.6-2.3,0.8-2.9
			c-21.9-7.3-43.7-14.6-65.1-23.3c-21.5-8.8-44.6-18.8-61.8-34.8C-588.8-152.3-591-150.2-589.6-148.9L-589.6-148.9z"/>
	</g>
</g>
<g>
	<g>
		<path d="M-582.9-172.5c40.3,9.6,74.3,37.1,115.9,42.1c1.9,0.2,1.9-2.8,0-3c-41.3-4.9-75.1-32.5-115.1-41.9
			C-584-175.8-584.8-172.9-582.9-172.5L-582.9-172.5z"/>
	</g>
</g>
<g>
	<g>
		<path d="M-535.3-184.6c18.4,11.4,40.3,15.1,60.4,22.6c1.8,0.7,2.6-2.2,0.8-2.9c-19.8-7.5-41.5-11.1-59.6-22.3
			C-535.4-188.3-536.9-185.7-535.3-184.6L-535.3-184.6z"/>
	</g>
</g>
</svg>
