<?xml version="1.0" encoding="utf-8"?>
<!-- Generator: Adobe Illustrator 16.0.0, SVG Export Plug-In . SVG Version: 6.00 Build 0)  -->
<!DOCTYPE svg PUBLIC "-//W3C//DTD SVG 1.1//EN" "http://www.w3.org/Graphics/SVG/1.1/DTD/svg11.dtd">
<svg version="1.1" id="Layer_1" xmlns="http://www.w3.org/2000/svg" xmlns:xlink="http://www.w3.org/1999/xlink" x="0px" y="0px"
	 width="200px" height="200px" viewBox="0 0 200 200" enable-background="new 0 0 200 200" xml:space="preserve">
<g>
	<g>
		<path fill="#B3B3B3" d="M17.352,29.219c1.928,2.309,5.079,3.009,7.896,3.069c2.642-0.036,5.795-0.589,7.618-2.669
			c1.727-1.904,1.836-4.809,1.345-7.244c-0.578-2.483-1.819-5.215-4.051-6.551c-3.149-1.953-7.524-1.042-10.593,0.812
			c-1.693,1.01-3.093,2.524-3.877,4.375c-0.986,2.424,0.167,5.108,0.211,7.526c-0.009,0.223,0.438,0.24,0.447,0.017
			c-0.021-1.836-0.497-3.464-0.518-5.3c-0.069-1.748,0.796-3.327,1.916-4.539c1.91-2.032,4.642-3.271,7.38-3.483
			c2.873-0.25,5.386,0.783,6.906,3.212c1.52,2.429,2.345,5.502,1.702,8.343c-0.321,1.42-1.13,2.688-2.416,3.58
			s-2.955,1.232-4.528,1.397c-3.28,0.37-7.063-0.219-9.293-2.809C17.503,28.732,17.224,29.035,17.352,29.219L17.352,29.219z"/>
	</g>
</g>
<g>
	<g>
		<path fill="#B3B3B3" d="M34.549,25.297c1.16,2.459,3.026,4.051,5.763,3.84c2.786-0.299,5.797-1.842,7.581-4.058
			c1.735-2.127,2.378-4.968,2.167-7.706c-0.163-2.826-1.211-5.908-3.099-8.082c-2.366-2.549-5.655-1.957-8.355-0.356
			c-3.067,1.854-5.634,4.667-7.841,7.449c-0.232,0.215,0.159,0.542,0.303,0.28c1.503-1.913,3.135-3.643,4.941-5.275
			c1.758-1.545,3.876-3.123,6.263-3.525c2.61-0.395,4.515,1.333,5.732,3.481c1.463,2.739,2.096,6.165,1.532,9.276
			c-0.716,3.598-3.354,5.916-6.58,7.228c-1.454,0.572-3.123,0.912-4.583,0.455c-1.635-0.553-2.654-2.024-3.362-3.438
			C34.789,24.859,34.334,25.065,34.549,25.297L34.549,25.297z"/>
	</g>
</g>
<g>
	<g>
		<path fill="#B3B3B3" d="M48.649,12.041c2.181-0.858,4.369-1.94,6.421-2.982c0.271-0.079,0.017-0.446-0.255-0.367
			c-2.052,1.042-4.105,2.083-6.286,2.941C48.347,11.761,48.466,12.167,48.649,12.041L48.649,12.041z"/>
	</g>
</g>
<g>
	<g>
		<path fill="#B3B3B3" d="M55.416,8.221c-0.66-1.501-1.368-2.915-2.164-4.376c-0.127-0.184-0.534-0.065-0.368,0.254
			c0.844,1.374,1.504,2.875,2.164,4.377C55.127,8.747,55.583,8.541,55.416,8.221L55.416,8.221z"/>
	</g>
</g>
<g>
	<g>
		<path fill="#B3B3B3" d="M50.266,19.083c2.714-0.793,5.302-1.771,8.017-2.565c0.271-0.079,0.152-0.486-0.119-0.407
			c-2.715,0.794-5.303,1.771-8.017,2.565C49.875,18.754,49.995,19.162,50.266,19.083L50.266,19.083z"/>
	</g>
</g>
<g>
	<g>
		<path fill="#B3B3B3" d="M58.147,16.558c0.787,1.686,1.439,3.41,2.41,4.968c0.127,0.184,0.447,0.017,0.368-0.255
			c-0.971-1.558-1.623-3.282-2.322-4.92C58.387,16.119,57.98,16.238,58.147,16.558L58.147,16.558z"/>
	</g>
</g>
<g>
	<g>
		<path fill="#B3B3B3" d="M34.57,12.767c2.384-3.938,5.813-7.078,8.286-10.968C43,1.536,42.65,1.344,42.506,1.607
			c-2.473,3.891-5.902,7.03-8.287,10.968C34.124,12.75,34.474,12.943,34.57,12.767L34.57,12.767z"/>
	</g>
</g>
<g>
	<g>
		<path fill="#B3B3B3" d="M39.81,29.432c4.216,3.335,9.803,3.543,14.981,3.872c0.311,0.057,0.241-0.438,0.017-0.447
			c-5.043-0.368-10.59-0.44-14.719-3.728C39.826,28.985,39.546,29.288,39.81,29.432L39.81,29.432z"/>
	</g>
</g>
<g>
	<g>
		<path fill="#B3B3B3" d="M54.983,32.953c0.056-0.312,0.161-0.71,0.393-0.925c0.144-0.263-0.207-0.455-0.351-0.192
			c-0.192,0.351-0.385,0.702-0.354,1.061C54.44,33.111,54.927,33.264,54.983,32.953L54.983,32.953z"/>
	</g>
</g>
<g>
	<g>
		<path fill="#B3B3B3" d="M55.326,33.369c0.407-0.12,0.893,0.033,1.244,0.225c0.264,0.145,0.456-0.207,0.192-0.351
			c-0.526-0.288-1.013-0.44-1.556-0.282C54.936,33.041,55.054,33.448,55.326,33.369L55.326,33.369z"/>
	</g>
</g>
<g>
	<g>
		<path fill="#B3B3B3" d="M55.032,32.865c-0.289,0.526-0.538,1.188-0.65,1.811c-0.057,0.311,0.342,0.415,0.399,0.104
			c0.113-0.622,0.313-1.197,0.602-1.723C55.526,32.794,55.175,32.602,55.032,32.865L55.032,32.865z"/>
	</g>
</g>
<g>
	<g>
		<path fill="#B3B3B3" d="M55.334,33.145c-0.199-0.678-0.629-1.142-1.195-1.566c-0.215-0.232-0.542,0.159-0.28,0.303
			c0.479,0.376,0.821,0.791,1.067,1.382C55.006,33.536,55.413,33.417,55.334,33.145L55.334,33.145z"/>
	</g>
</g>
<g>
	<g>
		<path fill="#B3B3B3" d="M42.568,2.325c0.798,0.209,1.539,0.729,2.329,1.162c0.263,0.144,0.455-0.207,0.192-0.351
			c-0.79-0.433-1.579-0.865-2.464-1.122C42.41,1.783,42.257,2.27,42.568,2.325L42.568,2.325z"/>
	</g>
</g>
<g>
	<g>
		<path fill="#B3B3B3" d="M43.589,2.543c-0.119-0.407,0.209-0.798,0.489-1.101c0.231-0.214-0.071-0.495-0.303-0.28
			c-0.416,0.342-0.752,0.957-0.593,1.5C43.262,2.934,43.668,2.814,43.589,2.543L43.589,2.543z"/>
	</g>
</g>
<g>
	<g>
		<path fill="#B3B3B3" d="M43.191,2.438c-0.159-0.543-0.502-0.958-0.844-1.375c-0.127-0.184-0.583,0.023-0.367,0.255
			c0.254,0.368,0.685,0.832,0.804,1.239C42.775,2.781,43.27,2.71,43.191,2.438L43.191,2.438z"/>
	</g>
</g>
<g>
	<g>
		<path fill="#B3B3B3" d="M43.326,2.399c-0.199-0.679-0.58-1.23-0.962-1.782c-0.127-0.184-0.583,0.023-0.368,0.255
			c0.382,0.551,0.764,1.103,0.923,1.646C43.046,2.702,43.454,2.583,43.326,2.399L43.326,2.399z"/>
	</g>
</g>
<g>
	<g>
		<path fill="#B3B3B3" d="M16.339,28.778c0.198,0.679,0.58,1.23,1.194,1.567c0.263,0.144,0.455-0.207,0.192-0.351
			c-0.526-0.289-0.821-0.792-0.979-1.335C16.667,28.388,16.259,28.507,16.339,28.778L16.339,28.778z"/>
	</g>
</g>
<g>
	<g>
		<path fill="#B3B3B3" d="M16.384,20.366c-6.481,1.011-10.715,7.7-11.922,13.651c-0.564,3.111-0.234,6.257,1.134,9.172
			c1.249,2.508,3.376,4.244,5.985,5.102c3.046,1.099,6.543,0.96,9.696,0.407c0.224,0.008,0.192-0.351,0.017-0.447
			c-1.684-0.466-3.271-1.107-4.521-2.362c-1.203-1.342-1.759-3.243-2.05-4.999c-0.333-1.892,0.094-3.711,1.006-5.377
			c0.865-1.579,1.905-3.062,2.506-4.785c0.144-0.263-0.255-0.368-0.399-0.104c-0.698,1.898-1.921,3.508-2.794,5.311
			c-0.873,1.802-1.076,3.629-0.656,5.569c0.34,1.668,0.944,3.481,2.059,4.776c1.203,1.343,2.965,2.08,4.697,2.458
			c-0.04-0.136,0.008-0.224,0.016-0.447c-3.018,0.514-6.106,0.533-8.986-0.247c-2.919-0.915-5.127-2.921-6.415-5.565
			C2.863,36.106,5.805,28.026,10.8,23.693c1.575-1.417,3.628-2.459,5.743-2.784C16.727,20.782,16.608,20.375,16.384,20.366
			L16.384,20.366z"/>
	</g>
</g>
<g>
	<g>
		<path fill="#B3B3B3" d="M21.405,48.882c0.656-0.781,1.272-1.697,2.015-2.431c-0.136,0.04-0.224-0.008-0.359,0.031
			c0.518,0.512,1.036,1.023,1.553,1.535c-0.04-0.136,0.009-0.223-0.031-0.359c-0.464,0.43-0.792,0.821-1.255,1.251
			c-0.048,0.088-0.096,0.175-0.008,0.223c0.087,0.048,0.127,0.184,0.263,0.144c0.088,0.048,0.088,0.048,0.224,0.009
			c0.223,0.008,0.144-0.263,0.039,0.135c-0.121,0.846-0.33,1.644-0.539,2.442c-0.008,0.223,0.255,0.367,0.399,0.104
			c0.296-0.75,0.642-1.587-0.1-2.107s-1.731-0.378-2.376-1.073c-0.215-0.232-0.496,0.07-0.28,0.303
			c0.43,0.463,1.004,0.664,1.714,0.824c0.342,0.416,0.653,0.473,0.869,0.704c0.391,0.328-0.042,1.118-0.186,1.38
			c0.088,0.048,0.263,0.144,0.398,0.105c0.257-0.886,0.378-1.732,0.547-2.665c-0.04-0.136,0.008-0.224-0.031-0.359
			c-0.088-0.048-0.447-0.017-0.487-0.152c-0.048,0.088-0.008,0.224-0.008,0.224c0.463-0.431,0.792-0.821,1.255-1.251
			c0.048-0.088,0.008-0.223-0.031-0.359c-0.518-0.511-1.037-1.023-1.554-1.535c-0.087-0.048-0.223-0.008-0.359,0.031
			c-0.743,0.733-1.399,1.514-2.015,2.431C20.958,48.866,21.261,49.145,21.405,48.882L21.405,48.882z"/>
	</g>
</g>
<g>
	<g>
		<path fill="#B3B3B3" d="M23.255,30.514c2.249,0.89,4.478-0.056,5.757-1.978c1.136-1.658,1.364-4.155-0.374-5.563
			c-4.615-3.439-7.198,4.609-5.8,7.884c0.08,0.272,0.487,0.152,0.407-0.119c-1.28-2.867,0.504-9.872,4.674-7.701
			c1.977,0.969,1.846,3.291,0.885,5.045c-1.145,1.881-3.285,2.875-5.311,1.994C23.184,30.019,22.992,30.369,23.255,30.514
			L23.255,30.514z"/>
	</g>
</g>
<g>
	<g>
		<path fill="#B3B3B3" d="M21.244,20.861c1.761,1.99,5.476-0.422,4.49-2.786c-0.532-1.318-1.769-1.767-3.007-0.963
			c-1.238,0.805-2.015,2.432-1.978,3.82C20.877,21.116,21.236,21.085,21.244,20.861c-0.133-1.213,0.492-2.354,1.283-3.174
			c0.416-0.342,0.831-0.685,1.414-0.708c0.67,0.025,1.228,0.673,1.386,1.216c0.819,2.044-2.424,3.802-3.842,2.228
			C21.397,20.375,21.117,20.678,21.244,20.861L21.244,20.861z"/>
	</g>
</g>
<g>
	<g>
		<path fill="#B3B3B3" d="M25.239,22.935c-0.199-0.679-0.357-1.222-0.556-1.9c-0.079-0.271-0.487-0.152-0.407,0.119
			c0.198,0.679,0.356,1.222,0.555,1.901C24.912,23.326,25.318,23.207,25.239,22.935L25.239,22.935z"/>
	</g>
</g>
<g>
	<g>
		<path fill="#B3B3B3" d="M22.535,17.464c-0.894-0.034-1.739-0.155-2.529-0.587c-0.263-0.144-0.456,0.207-0.192,0.351
			c0.877,0.48,1.811,0.65,2.752,0.595C22.877,17.879,22.894,17.433,22.535,17.464L22.535,17.464z"/>
	</g>
</g>
<g>
	<g>
		<path fill="#B3B3B3" d="M27.198,30.393c-0.289,0.526-0.577,1.052-0.864,1.579c-0.145,0.264,0.206,0.456,0.351,0.192
			c0.288-0.525,0.576-1.052,0.864-1.579C27.78,30.37,27.342,30.129,27.198,30.393L27.198,30.393z"/>
	</g>
</g>
<g>
	<g>
		<path fill="#B3B3B3" d="M32.782,27.065c-1.071-3.664-2.278-7.29-4.26-10.542c-0.127-0.184-0.534-0.064-0.368,0.255
			c1.895,3.203,3.101,6.829,4.173,10.494C32.454,27.456,32.861,27.337,32.782,27.065L32.782,27.065z"/>
	</g>
</g>
<g>
	<g>
		<path fill="#B3B3B3" d="M26.559,25.938c-0.08-0.271-0.487-0.153-0.407,0.119C26.231,26.329,26.638,26.209,26.559,25.938
			L26.559,25.938z"/>
	</g>
</g>
<g>
	<g>
		<path fill="#B3B3B3" d="M24.352,19.143c-0.08-0.272-0.487-0.152-0.408,0.118C24.024,19.533,24.431,19.415,24.352,19.143
			L24.352,19.143z"/>
	</g>
</g>
<g>
	<g>
		<path fill="#B3B3B3" d="M44.874,26.847c1.836-4.81,2.563-9.884,3.065-14.967c0.057-0.311-0.438-0.24-0.447-0.016
			c-0.503,5.083-1.23,10.157-3.105,14.831C44.331,27.005,44.729,27.11,44.874,26.847L44.874,26.847z"/>
	</g>
</g>
<g>
	<g>
		<path fill="#B3B3B3" d="M41.271,28.637c1.498-2.943,1.982-6.326,2.283-9.582c0.445-3.519,0.579-7.094,0.664-10.582
			c0.009-0.224-0.438-0.24-0.446-0.017c-0.125,3.352-0.251,6.704-0.552,9.959c-0.348,3.344-0.842,6.95-2.299,10.029
			C40.776,28.708,41.127,28.899,41.271,28.637L41.271,28.637z"/>
	</g>
</g>
<g>
	<g>
		<path fill="#B3B3B3" d="M37.736,28.639c-0.269-5.962,2.143-11.824,1.155-17.724c-0.08-0.271-0.487-0.152-0.407,0.12
			c0.987,5.899-1.512,11.713-1.107,17.636C37.32,28.981,37.679,28.95,37.736,28.639L37.736,28.639z"/>
	</g>
</g>
<g>
	<g>
		<path fill="#B3B3B3" d="M34.115,22.55c0.827-2.967,0.457-6.248,0.662-9.329c0.056-0.311-0.439-0.24-0.447-0.016
			c-0.205,3.08,0.125,6.225-0.702,9.192C33.572,22.71,34.058,22.862,34.115,22.55L34.115,22.55z"/>
	</g>
</g>
<g display="none">
	<g display="inline">
		<path fill="#B3B3B3" d="M82.59,179.538c0,1.05,0.489,2.1,0.839,3.079c0.28,0.909,0.91,2.239-0.14,2.868
			c-0.84,0.56-1.959,0.631-2.869,0.771c-0.91,0.14-1.819,0.21-2.659,0.42c-0.28,0.069-0.14,0.489,0.14,0.419
			c0.979-0.279,1.959-0.35,3.008-0.489c0.91-0.14,2.099-0.28,2.869-0.91c0.7-0.56,0.56-1.469,0.35-2.309
			c-0.35-1.259-1.12-2.589-1.12-3.918C83.009,179.259,82.59,179.259,82.59,179.538L82.59,179.538z"/>
	</g>
</g>
<g>
	<g>
		<path fill="#B3B3B3" d="M40.836,142.621c-3.9-1.899-8.5-2.2-11.9,0.9c-2.8,2.6-3.9,6.8-3.4,10.5c0.5,3.899,3,7.2,6.8,8.3
			c2.7,0.8,6.1,0.6,8.3-1.2c2.4-1.899,2.4-5.5,2.3-8.3c0-1-0.1-1.9-0.1-2.9s0.2-2,0.2-3c0-1.699-0.3-3.5-1.9-4.399
			c-0.3-0.101-0.5,0.3-0.2,0.399c2.8,1.601,1.3,5.601,1.5,8.2c0.2,3,0.5,7.101-1.9,9.4c-2.2,2.2-6.2,2-8.9,1
			c-1.9-0.7-3.5-2.101-4.5-3.8c-2-3.4-1.7-7.9,0.1-11.4c0.9-1.7,2.3-3.1,4-4c2-1,4.3-1,6.4-0.4c1,0.2,1.9,0.601,2.8,1.101
			C40.836,143.121,41.136,142.722,40.836,142.621L40.836,142.621z"/>
	</g>
</g>
<g>
	<g>
		<path fill="#B3B3B3" d="M31.736,141.722c2.5-4.7,5.8-9.7,10.6-12.4c2.5-1.4,5.2-1.6,7.8-0.5c2.7,1.3,3.8,3.8,3.7,6.7
			c-0.1,4.3-2.1,8.3-3.3,12.3c0.2,0,0.3,0.1,0.5,0.1c0.5-3.899-0.8-8.8-4.8-10.3c-1.3-0.5-2.6-0.1-3.5,0.9c-1.1,1.3-1.2,3.2-1,4.899
			c0.1,0.301,0.5,0.301,0.5,0c-0.2-1.399-0.1-2.899,0.6-4.199c0.8-1.301,2.2-1.601,3.5-1c3.6,1.6,4.7,6.1,4.2,9.699
			c0,0.301,0.4,0.4,0.5,0.101c0.8-2.601,1.8-5.101,2.5-7.7c0.7-2.5,1.2-5.3,0.4-7.9c-0.8-2.5-3.1-4.1-5.5-4.699
			c-2.5-0.601-5,0.199-7.1,1.5c-4.5,2.8-7.6,7.6-10.1,12.1C31.136,141.722,31.536,141.921,31.736,141.722L31.736,141.722z"/>
	</g>
</g>
<g>
	<g>
		<path fill="#B3B3B3" d="M50.436,147.021c-1.3-0.101-2.6,0-3,1.399c0,0.101,0,0.2,0.1,0.301c0.6,0.3,1.1,0.899,1.8,1.199
			c0-0.1,0-0.3-0.1-0.399c-0.2,0.2-0.8,0.3-0.6,0.8c0.3,0.5,0.8,0.8,1.2,1.1c0.5,0.4,1.3,0.601,1.9,0.301
			c0.6-0.301,0.7-1.101,0.6-1.601c-0.1-1-0.8-1.899-1.5-2.6c-0.2-0.2-0.6,0.1-0.3,0.3c0.7,0.7,2,2.2,1.2,3.3
			c-0.3,0.4-0.9,0.3-1.3,0.101c-0.3-0.2-0.6-0.4-0.9-0.7c-0.1-0.101-0.6-0.4-0.3-0.5c0.1-0.101,0.2-0.101,0.3-0.2s0.1-0.3-0.1-0.4
			c-0.6-0.399-1.1-0.899-1.8-1.199c0,0.1,0.1,0.199,0.1,0.3c0.4-1.101,1.5-1.101,2.5-1
			C50.636,147.521,50.736,147.021,50.436,147.021L50.436,147.021z"/>
	</g>
</g>
<g>
	<g>
		<path fill="#B3B3B3" d="M30.236,143.421c-1.7,0.801-2.6,2.7-1.9,4.5c0.8,1.801,3.2,2.101,4.8,1.5c1.5-0.6,1.9-2.199,1.3-3.6
			c-0.7-1.7-2.4-2.8-4.2-2.9C29.936,142.921,29.936,143.421,30.236,143.421c1.5,0,2.8,0.9,3.5,2.2c0.7,1.101,0.6,2.601-0.6,3.3
			c-1.4,0.9-3.6,0.5-4.5-1c-0.9-1.6,0.2-3.3,1.6-4C30.736,143.722,30.536,143.321,30.236,143.421L30.236,143.421z"/>
	</g>
</g>
<g>
	<g>
		<path fill="#B3B3B3" d="M37.236,146.921c-2,0.801-3.4,2.5-2.4,4.601c0.8,1.7,2.9,3.1,4.9,2.7c2.2-0.4,3.5-2.7,2.6-4.7
			c-0.9-1.9-3.2-3.5-5.4-3.4c-0.3,0-0.3,0.5,0,0.5c1.9-0.1,3.7,1.101,4.7,2.601c1.2,1.8,0.2,4-1.9,4.5
			c-1.7,0.399-3.4-0.801-4.3-2.101c-0.4-0.7-0.6-1.5-0.4-2.3c0.3-1,1.4-1.6,2.3-2C37.636,147.222,37.536,146.821,37.236,146.921
			L37.236,146.921z"/>
	</g>
</g>
<g>
	<g>
		<path fill="#B3B3B3" d="M28.236,156.621c4.6,1.101,9.3,1.3,14,1.4c0.3,0,0.3-0.5,0-0.5c-4.7,0-9.3-0.3-13.9-1.4
			C28.036,156.121,27.936,156.621,28.236,156.621L28.236,156.621z"/>
	</g>
</g>
<g>
	<g>
		<path fill="#B3B3B3" d="M31.236,147.021c0.3,0.1,0.5-0.3,0.2-0.4C31.136,146.521,30.936,146.921,31.236,147.021L31.236,147.021z"
			/>
	</g>
</g>
<g>
	<g>
		<path fill="#B3B3B3" d="M31.236,147.021c0.3,0.1,0.5-0.3,0.2-0.4C31.136,146.521,30.936,146.921,31.236,147.021L31.236,147.021z"
			/>
	</g>
</g>
<g>
	<g>
		<path fill="#B3B3B3" d="M38.736,151.921c0.3,0.101,0.5-0.3,0.2-0.399C38.736,151.321,38.536,151.821,38.736,151.921
			L38.736,151.921z"/>
	</g>
</g>
<g>
	<g>
		<path fill="#B3B3B3" d="M38.736,151.921c0.3,0.101,0.5-0.3,0.2-0.399C38.736,151.321,38.536,151.821,38.736,151.921
			L38.736,151.921z"/>
	</g>
</g>
<g>
	<g>
		<path fill="#B3B3B3" d="M30.836,161.722c-3.4,2.1-5.1,6-6.7,9.5c-0.8,1.8-1.6,3.6-2.6,5.3c-0.8,1.2-1.8,2.6-1.5,4.1
			c0.2,1.101,1.3,1.5,2.2,1.9c1.4,0.6,2.8,1,4.2,1.3c2.2,0.6,4.7,1.3,6.9,0.6c4-1.3,6-6.199,7-9.899c1.2-4.2,1.7-9.2,0.6-13.5
			c-0.1-0.3-0.5-0.2-0.4,0.1c0.7,2.5,0.6,5.101,0.4,7.7c-0.3,3-0.9,6-2.1,8.8c-1,2.3-2.4,4.7-4.7,5.9c-2.2,1.2-4.8,0.399-7-0.101
			c-1.9-0.399-3.9-0.899-5.6-1.8c-2.4-1.2-0.2-3.899,0.7-5.5c2.8-4.7,4-10.899,8.9-14C31.336,161.921,31.136,161.521,30.836,161.722
			L30.836,161.722z"/>
	</g>
</g>
<g>
	<g>
		<path fill="#B3B3B3" d="M21.336,178.021c0.4,1.3,1,2.399,1.6,3.6c0.1,0.3,0.5,0,0.4-0.2c-0.5-1.1-1.2-2.3-1.5-3.5
			C21.636,177.621,21.236,177.722,21.336,178.021L21.336,178.021z"/>
	</g>
</g>
<g>
	<g>
		<path fill="#B3B3B3" d="M23.636,173.621c0.4,3,2,5.7,2.3,8.7c0,0.3,0.5,0.3,0.5,0c-0.3-3-1.8-5.7-2.3-8.7
			C24.036,173.321,23.636,173.321,23.636,173.621L23.636,173.621z"/>
	</g>
</g>
<g>
	<g>
		<path fill="#B3B3B3" d="M26.136,167.921c-0.4,5.101,1.1,10.101,1.7,15.101c0,0.3,0.5,0.3,0.5,0c-0.6-5-2.1-10-1.7-15.101
			C26.636,167.621,26.136,167.722,26.136,167.921L26.136,167.921z"/>
	</g>
</g>
<g>
	<g>
		<path fill="#B3B3B3" d="M28.036,164.421c-0.6,6.801,1.7,13.601,3.1,20.2c0.1,0.3,0.5,0.2,0.4-0.1c-1.4-6.5-3.7-13.3-3.1-20
			C28.536,164.121,28.036,164.121,28.036,164.421L28.036,164.421z"/>
	</g>
</g>
<g>
	<g>
		<path fill="#B3B3B3" d="M29.636,162.821c-0.8,3.3,0.1,6.9,1.1,10.1c1.1,3.4,2.5,6.801,4.3,9.9c0.2,0.3,0.6,0,0.4-0.2
			c-1.7-2.899-3.1-6.1-4.1-9.3s-2-6.9-1.2-10.2C30.236,162.722,29.736,162.521,29.636,162.821L29.636,162.821z"/>
	</g>
</g>
<g>
	<g>
		<path fill="#B3B3B3" d="M32.436,162.222c0.3,5.899,2.4,11.6,4.9,16.899c0.1,0.3,0.5,0,0.4-0.2c-2.5-5.199-4.5-10.899-4.8-16.699
			C32.836,161.921,32.436,162.021,32.436,162.222L32.436,162.222z"/>
	</g>
</g>
<g>
	<g>
		<path fill="#B3B3B3" d="M34.436,163.121c0.4,2.2,0.9,4.3,1.7,6.3s1.8,3.9,2.8,5.801c0.1,0.3,0.5,0,0.4-0.2c-1-1.8-2-3.7-2.8-5.7
			c-0.8-2-1.3-4.2-1.7-6.3C34.836,162.722,34.336,162.821,34.436,163.121L34.436,163.121z"/>
	</g>
</g>
<g>
	<g>
		<path fill="#B3B3B3" d="M37.336,163.121c0.9,2.4,1.1,5.101,3,7c0.2,0.2,0.5-0.1,0.3-0.3c-1.8-1.8-2-4.5-2.9-6.8
			C37.736,162.722,37.236,162.821,37.336,163.121L37.336,163.121z"/>
	</g>
</g>
<g>
	<g>
		<path fill="#B3B3B3" d="M23.036,183.121c-0.7,3.101-2.3,5.8-3.8,8.601c-0.1,0.3,0.3,0.5,0.4,0.199c1.5-2.8,3.2-5.5,3.9-8.699
			C23.536,182.921,23.036,182.821,23.036,183.121L23.036,183.121z"/>
	</g>
</g>
<g>
	<g>
		<path fill="#B3B3B3" d="M19.536,192.121c-0.9-0.5-1.8-1-2.7-1.5c-0.3-0.1-0.5,0.3-0.2,0.4c0.9,0.5,1.8,1,2.7,1.5
			C19.536,192.621,19.736,192.222,19.536,192.121L19.536,192.121z"/>
	</g>
</g>
<g>
	<g>
		<path fill="#B3B3B3" d="M30.036,185.021c-0.9,3.6-2.7,6.899-3.1,10.6c0,0.3,0.4,0.4,0.5,0.101c0.4-3.7,2.2-7.101,3.1-10.601
			C30.536,184.821,30.136,184.722,30.036,185.021L30.036,185.021z"/>
	</g>
</g>
<g>
	<g>
		<path fill="#B3B3B3" d="M27.036,195.921c-0.8-0.399-1.8-0.5-2.7-0.6c-0.3-0.1-0.4,0.4-0.1,0.5c0.9,0.1,1.8,0.2,2.6,0.6
			C27.136,196.421,27.336,196.021,27.036,195.921L27.036,195.921z"/>
	</g>
</g>
<g>
	<g>
		<path fill="#B3B3B3" d="M25.236,167.421c-4.3-1.199-8.2,1.7-12,3.2c-0.3,0.101-0.1,0.601,0.1,0.4c3.7-1.5,7.6-4.3,11.8-3.2
			C25.436,167.921,25.536,167.421,25.236,167.421L25.236,167.421z"/>
	</g>
</g>
<g>
	<g>
		<path fill="#B3B3B3" d="M40.536,171.621c3.2,5.3,3.4,11.8,3.9,17.8c0,0.301,0.5,0.301,0.5,0c-0.6-6.1-0.8-12.6-4-18
			C40.836,171.121,40.436,171.321,40.536,171.621L40.536,171.621z"/>
	</g>
</g>
<g>
	<g>
		<path fill="#B3B3B3" d="M43.636,189.021c-0.3,0.5-0.7,0.8-1.3,1c-0.3,0.1-0.2,0.5,0.1,0.399c0.7-0.199,1.2-0.6,1.5-1.199
			C44.136,189.021,43.736,188.722,43.636,189.021L43.636,189.021z"/>
	</g>
</g>
<g>
	<g>
		<path fill="#B3B3B3" d="M44.036,188.821c0.1,0.8,0.4,1.5,0.7,2.3c0.1,0.3,0.5,0.2,0.4-0.1c-0.2-0.7-0.6-1.4-0.7-2.2
			C44.436,188.521,43.936,188.521,44.036,188.821L44.036,188.821z"/>
	</g>
</g>
<g>
	<g>
		<path fill="#B3B3B3" d="M44.036,189.222c0.6,0.3,1.2,0.399,1.8,0.399c0.3,0,0.3-0.5,0-0.5c-0.6,0-1.1-0.1-1.5-0.3
			C43.936,188.722,43.736,189.121,44.036,189.222L44.036,189.222z"/>
	</g>
</g>
<g>
	<g>
		<path fill="#B3B3B3" d="M14.036,170.921c-0.3,0.601-0.4,1.2-0.4,1.801c0,0.3,0.5,0.3,0.5,0c0-0.601,0.1-1.101,0.3-1.5
			C14.636,170.921,14.236,170.722,14.036,170.921L14.036,170.921z"/>
	</g>
</g>
<g>
	<g>
		<path fill="#B3B3B3" d="M13.336,170.821c-0.7-0.4-1.4-0.5-2.2-0.3c-0.3,0.1-0.2,0.5,0.1,0.399c0.6-0.199,1.3,0,1.8,0.2
			C13.336,171.421,13.636,170.921,13.336,170.821L13.336,170.821z"/>
	</g>
</g>
<g>
	<g>
		<path fill="#B3B3B3" d="M13.236,170.521c0.3-0.601,0.5-1.2,0.4-1.9c-0.1-0.3-0.5-0.2-0.4,0.101c0.1,0.5-0.1,1-0.3,1.5
			C12.636,170.521,13.036,170.821,13.236,170.521L13.236,170.521z"/>
	</g>
</g>
<g>
	<g>
		<path fill="#B3B3B3" d="M44.536,188.722c0.2-0.301,0.4-0.7,0.6-1c0.1-0.301-0.3-0.5-0.4-0.2c-0.2,0.3-0.4,0.7-0.6,1
			C44.036,188.821,44.436,189.021,44.536,188.722L44.536,188.722z"/>
	</g>
</g>
<g>
	<g>
		<path fill="#B3B3B3" d="M13.036,170.921c-0.2,0.5-0.3,1.101-0.3,1.601c0,0.3,0.5,0.3,0.5,0c0-0.5,0-0.9,0.2-1.3
			C13.536,170.921,13.136,170.621,13.036,170.921L13.036,170.921z"/>
	</g>
</g>
<g>
	<g>
		<path fill="#B3B3B3" d="M193.064,99.741c-3.669-3.142-8.904-2.75-12.684,0.148c-1.614,1.155-2.858,2.914-3.324,4.859
			c-0.49,2.042,0.281,3.976,1.679,5.441c3.039,3.196,7.896,3.948,11.361,1.077c3.345-2.798,4.458-7.878,2.843-11.864
			c-0.125-0.339-0.583-0.14-0.458,0.198c1.988,5.002-0.514,12.011-6.203,13.013c-2.786,0.464-5.809-1.083-7.575-3.151
			c-1.351-1.661-1.541-3.865-0.64-5.912c1.115-2.509,3.596-4.279,6.136-5.008c2.998-0.928,6.254-0.354,8.651,1.661
			C193.021,100.348,193.332,99.908,193.064,99.741L193.064,99.741z"/>
	</g>
</g>
<g>
	<g>
		<path fill="#B3B3B3" d="M182.67,98.485c1.159-3.116,0.396-6.796-0.847-9.767c-1.191-2.754-3.397-5.133-6.621-4.98
			c-3.008,0.103-5.85,2.095-7.891,4.177c-1.922,2.008-3.061,4.614-3.884,7.193c-0.706,2.092-1.266,4.427-0.76,6.604
			c0.129,0.751,0.452,1.548,1.04,2.1c0.586,0.553,1.438,0.859,2.193,1.144c2.069,0.804,4.329,1.242,6.636,1.486
			c1.408,0.132,3.571,0.548,4.823-0.387c0.241-0.148-0.055-0.63-0.319-0.385c-0.77,0.638-2.178,0.507-3.076,0.394
			c-1.528-0.057-3.01-0.31-4.469-0.659s-2.82-0.676-4.21-1.316c-1.217-0.498-1.878-1.171-2.183-2.478
			c-0.611-3.025,0.616-6.433,1.875-9.113c1.26-2.682,3.056-5.026,5.611-6.677c1.469-0.984,3.184-1.705,4.931-1.697
			c1.964-0.044,3.552,1.056,4.73,2.572c1.253,1.637,1.88,3.741,2.336,5.701c0.382,1.84,0.476,4.021-0.259,5.8
			C182.114,98.66,182.601,98.776,182.67,98.485L182.67,98.485z"/>
	</g>
</g>
<g>
	<g>
		<path fill="#B3B3B3" d="M164.563,92.09c-1.447-1.684-2.941-3.174-4.63-4.709c-0.856-0.719-1.712-1.438-2.712-1.986
			c-0.635-0.357-1.366-0.739-2.019-0.587c-0.315,0.027-0.238,0.561,0.102,0.436c0.749-0.128,1.555,0.373,2.092,0.707
			c0.902,0.525,1.759,1.244,2.494,2.037c1.518,1.392,2.938,2.761,4.214,4.301C164.35,92.553,164.734,92.233,164.563,92.09
			L164.563,92.09z"/>
	</g>
</g>
<g>
	<g>
		<path fill="#B3B3B3" d="M154.447,84.524c-0.09,0.801-0.253,1.481-0.536,2.236c-0.069,0.292,0.296,0.482,0.463,0.213
			c0.283-0.754,0.47-1.532,0.56-2.333C154.905,84.326,154.419,84.209,154.447,84.524L154.447,84.524z"/>
	</g>
</g>
<g>
	<g>
		<path fill="#B3B3B3" d="M168.049,86.549c-1.977-3.764-4.172-7.478-6.993-10.725c-0.245-0.264-0.63,0.056-0.385,0.319
			c2.725,3.224,5.04,6.863,6.92,10.604C167.739,86.989,168.197,86.791,168.049,86.549L168.049,86.549z"/>
	</g>
</g>
<g>
	<g>
		<path fill="#B3B3B3" d="M164.136,73.271c-0.914,0.81-1.925,1.596-3.01,2.262c-0.241,0.147-0.019,0.51,0.319,0.385
			c1.084-0.666,2.096-1.452,3.009-2.262C164.719,73.411,164.4,73.027,164.136,73.271L164.136,73.271z"/>
	</g>
</g>
<g>
	<g>
		<path fill="#B3B3B3" d="M168.286,105.732c2.047,3.473,3.348,7.485,6.67,9.928c0.27,0.167,0.556-0.175,0.288-0.343
			c-3.322-2.441-4.549-6.334-6.597-9.807C168.523,105.173,168.138,105.491,168.286,105.732L168.286,105.732z"/>
	</g>
</g>
<g>
	<g>
		<path fill="#B3B3B3" d="M180.928,86.447c4.835,0.85,9.693,1.604,14.563,1.021c0.315-0.027,0.237-0.56-0.101-0.436
			c-4.869,0.581-9.729-0.171-14.466-0.998C180.729,85.988,180.636,86.378,180.928,86.447L180.928,86.447z"/>
	</g>
</g>
<g>
	<g>
		<path fill="#B3B3B3" d="M195.168,86.672c-0.443-0.724-0.865-1.544-1.09-2.318c-0.125-0.338-0.584-0.14-0.459,0.198
			c0.299,0.896,0.72,1.715,1.141,2.536C194.931,87.232,195.315,86.913,195.168,86.672L195.168,86.672z"/>
	</g>
</g>
<g>
	<g>
		<path fill="#B3B3B3" d="M194.639,87.162c0.343,0.287,0.686,0.575,0.907,0.937c0.147,0.241,0.583,0.14,0.458-0.198
			c-0.296-0.481-0.614-0.867-1.055-1.178C194.682,86.555,194.37,86.994,194.639,87.162L194.639,87.162z"/>
	</g>
</g>
<g>
	<g>
		<path fill="#B3B3B3" d="M194.561,86.63c-0.603,0.369-0.863,1.026-1.026,1.707c-0.069,0.291,0.417,0.408,0.486,0.116
			c0.116-0.486,0.256-1.069,0.716-1.268C195.001,86.939,194.802,86.481,194.561,86.63L194.561,86.63z"/>
	</g>
</g>
<g>
	<g>
		<path fill="#B3B3B3" d="M194.867,85.777c0.755,0.283,1.482,0.253,2.233,0.123c0.314-0.027,0.236-0.56-0.102-0.435
			c-0.63,0.055-1.261,0.108-1.941-0.055C194.789,85.244,194.576,85.707,194.867,85.777L194.867,85.777z"/>
	</g>
</g>
<g>
	<g>
		<path fill="#B3B3B3" d="M174.824,114.497c0.026,0.315-0.163,0.681-0.233,0.973s0.416,0.408,0.486,0.116
			c0.093-0.389,0.283-0.755,0.256-1.069C175.329,114.104,174.796,114.182,174.824,114.497L174.824,114.497z"/>
	</g>
</g>
<g>
	<g>
		<path fill="#B3B3B3" d="M174.952,115.248c0.583,0.14,1.19,0.183,1.82,0.127c0.314-0.026,0.237-0.56-0.102-0.436
			c-0.533,0.078-1.116-0.062-1.723-0.104C174.68,114.668,174.661,115.178,174.952,115.248L174.952,115.248z"/>
	</g>
</g>
<g>
	<g>
		<path fill="#B3B3B3" d="M175.186,114.275c0.287-0.342,0.478-0.708,0.475-1.121c-0.028-0.314-0.464-0.213-0.437,0.102
			c0.028,0.315-0.236,0.561-0.381,0.731C174.699,114.158,175.042,114.446,175.186,114.275L175.186,114.275z"/>
	</g>
</g>
<g>
	<g>
		<path fill="#B3B3B3" d="M174.648,113.94c-0.112,0.899-0.396,1.653-0.68,2.408c-0.07,0.292,0.296,0.482,0.463,0.214
			c0.308-0.852,0.613-1.703,0.727-2.603C175.13,113.646,174.621,113.626,174.648,113.94L174.648,113.94z"/>
	</g>
</g>
<g>
	<g>
		<path fill="#B3B3B3" d="M174.99,114.229c-0.015,0.922,0.188,1.793,0.512,2.591c0.123,0.338,0.583,0.14,0.458-0.198
			c-0.226-0.774-0.549-1.571-0.46-2.373C175.473,113.934,174.964,113.914,174.99,114.229L174.99,114.229z"/>
	</g>
</g>
<g>
	<g>
		<path fill="#B3B3B3" d="M193.559,100.683c3.003,2.056,3.359,6.152,3.415,9.353c0.09,1.77-0.038,3.59-0.263,5.388
			c-0.151,1.917-0.303,3.835-0.722,5.585c-1.096,4.571-3.991,8.505-7.97,10.944c-3.255,1.997-7.561,3.228-11.441,3.12
			c-1.627-0.081-3.303-0.38-4.813-0.947c-1.898-0.66-3.485-1.761-5.337-2.616c-3.972-1.877-8.278-3.217-11.8-6.117
			c-0.047,0.193-0.07,0.292-0.117,0.486c7.8-1.216,15.498,2.273,23.365,0.766c2.809-0.562,5.441-1.679,7.705-3.399
			c2.119-1.549,4.063-3.653,4.303-6.372c0.155-1.505-0.417-2.979-1.23-4.306c-0.148-0.241-0.533,0.078-0.385,0.32
			c3.841,5.855-3.143,10.969-8.171,12.643c-7.593,2.5-15.166-0.651-22.829-0.431c-0.921-0.015-1.89,0.164-2.835,0.247
			c-0.218,0.05-0.264,0.244-0.116,0.485c3.669,3.141,8.387,4.478,12.604,6.62c1.828,0.952,3.536,1.978,5.556,2.563
			c1.63,0.494,3.329,0.695,5.002,0.582c3.613-0.06,7.506-1.286,10.64-3.208c3.715-2.195,6.421-5.764,7.811-9.852
			c0.708-2.094,0.809-4.229,1.028-6.438c0.151-1.918,0.326-3.934,0.282-5.896c0.015-3.493-0.488-7.83-3.59-9.909
			C193.577,100.173,193.29,100.516,193.559,100.683L193.559,100.683z"/>
	</g>
</g>
<g>
	<g>
		<path fill="#B3B3B3" d="M155.671,125.332c-0.128-0.75-0.451-1.547-0.677-2.321c-0.074-0.12-0.147-0.241-0.366-0.19
			c-0.579,0.272-1.182,0.643-1.688,1.035c-0.24,0.148-0.82,0.421-0.89,0.713c0.03,0.727,0.498,1.354,0.553,1.983
			c-0.023,0.097,0.147,0.24,0.365,0.189c0.603-0.37,1.283-0.207,2.011-0.237c0.315-0.027,0.214-0.463-0.102-0.436
			c-0.728,0.031-1.408-0.132-2.107,0.215c0.097,0.023,0.171,0.144,0.366,0.189c-0.078-0.532-0.277-0.99-0.477-1.45
			c-0.175-0.556,0.14-0.583,0.623-0.879c0.506-0.394,0.987-0.689,1.566-0.961c-0.097-0.023-0.171-0.145-0.365-0.191
			c0.129,0.751,0.452,1.548,0.677,2.322C155.264,125.749,155.699,125.648,155.671,125.332L155.671,125.332z"/>
	</g>
</g>
<g>
	<g>
		<path fill="#B3B3B3" d="M181.188,88.361c-0.348,4.029-1.303,8.017-2.356,11.98c-0.069,0.292,0.417,0.408,0.486,0.116
			c1.054-3.964,1.985-7.854,2.356-11.98C181.648,88.163,181.162,88.046,181.188,88.361L181.188,88.361z"/>
	</g>
</g>
<g>
	<g>
		<path fill="#B3B3B3" d="M178.586,85.063c-1.97,6.932-4.208,13.697-5.788,20.722c-0.069,0.292,0.416,0.409,0.486,0.116
			c1.557-6.928,3.795-13.691,5.741-20.527C179.045,84.865,178.655,84.771,178.586,85.063L178.586,85.063z"/>
	</g>
</g>
<g>
	<g>
		<path fill="#B3B3B3" d="M174.524,83.987c-2.261,6.862-2.406,14.334-5.907,20.796c-0.168,0.269,0.295,0.482,0.462,0.214
			c3.502-6.462,3.647-13.934,5.908-20.796C174.961,83.886,174.595,83.696,174.524,83.987L174.524,83.987z"/>
	</g>
</g>
<g>
	<g>
		<path fill="#B3B3B3" d="M169.353,85.833c-1.106,5.905-3.745,11.34-5.533,17.081c-0.069,0.292,0.394,0.506,0.463,0.214
			c1.788-5.741,4.353-11.297,5.557-17.178C169.908,85.658,169.422,85.542,169.353,85.833L169.353,85.833z"/>
	</g>
</g>
<g>
	<g>
		<path fill="#B3B3B3" d="M171.336,85.28c0.063,6.597-3.274,12.378-5.813,18.247c-0.167,0.27,0.296,0.483,0.463,0.215
			c2.658-5.944,6.021-11.823,5.882-18.54C171.818,84.984,171.309,84.966,171.336,85.28L171.336,85.28z"/>
	</g>
</g>
<g>
	<g>
		<path fill="#B3B3B3" d="M191.609,99.805c-3.288-3.873-11.972,1.039-8.772,5.713c1.28,1.951,4.209,1.316,5.947,0.499
			c1.859-0.892,4.024-2.635,3.954-4.913c-0.004-0.413-0.203-0.872-0.401-1.331c-0.148-0.241-0.51-0.02-0.385,0.319
			c1.086,1.905-0.835,3.913-2.305,4.898c-1.493,1.081-4.079,2.004-5.765,0.88c-0.879-0.621-1.206-1.831-1.07-2.827
			c0.183-1.189,1.022-2.12,2.01-2.809c1.854-1.304,4.881-1.915,6.477,0.01C191.396,100.268,191.757,100.045,191.609,99.805
			L191.609,99.805z"/>
	</g>
</g>
<g>
	<g>
		<path fill="#B3B3B3" d="M186.394,109.557c-0.688-0.987-1.619-1.827-2.74-2.301c-1.143-0.377-2.154,0.409-2.41,1.479
			c-0.304,1.264,0.604,2.201,1.771,2.481c1.264,0.303,2.69-0.075,3.359-1.149c0.167-0.269-0.176-0.557-0.343-0.287
			c-0.622,0.879-1.734,1.229-2.707,0.996c-1.093-0.159-1.902-1.072-1.549-2.119c0.704-2.505,3.42-0.105,4.279,1.025
			C186.18,110.02,186.541,109.798,186.394,109.557L186.394,109.557z"/>
	</g>
</g>
<g>
	<g>
		<path fill="#B3B3B3" d="M181.819,100.748c-1.139,2.607-2.448,5.069-3.758,7.532c-0.167,0.269,0.295,0.482,0.463,0.215
			c1.31-2.463,2.619-4.926,3.758-7.532C182.353,100.671,181.987,100.48,181.819,100.748L181.819,100.748z"/>
	</g>
</g>
<g>
	<g>
		<path fill="#B3B3B3" d="M186.34,101.627c-0.023,0.097-0.046,0.193-0.069,0.291c0,0-0.047,0.195-0.023,0.098
			s0.144-0.172,0.24-0.148l0,0c-0.097-0.023-0.097-0.023-0.217,0.051c-0.316,0.027-0.238,0.56,0.101,0.436c0,0,0.098,0.023,0,0
			c0,0,0,0,0.098,0.023c0.097,0.022,0.218-0.051,0.241-0.147c0.023-0.098,0.023-0.098,0.047-0.194
			c0.023-0.098,0.046-0.195,0.069-0.292c0.023-0.098-0.051-0.218-0.246-0.265C186.483,101.455,186.363,101.529,186.34,101.627
			L186.34,101.627z"/>
	</g>
</g>
<g>
	<g>
		<path fill="#B3B3B3" d="M182.729,109.398c-0.168,0.269,0.175,0.557,0.342,0.288C183.336,109.441,182.896,109.131,182.729,109.398
			L182.729,109.398z"/>
	</g>
</g>
<g>
	<g>
		<path fill="#B3B3B3" d="M182.729,109.398c-0.168,0.269,0.175,0.557,0.342,0.288C183.336,109.441,182.896,109.131,182.729,109.398
			L182.729,109.398z"/>
	</g>
</g>
<g>
	<g>
		<path fill="#B3B3B3" d="M182.873,109.228c-0.167,0.27,0.175,0.556,0.343,0.288C183.48,109.271,183.041,108.959,182.873,109.228
			L182.873,109.228z"/>
	</g>
</g>
<g>
	<g>
		<path fill="#B3B3B3" d="M182.873,109.228c-0.167,0.27,0.175,0.556,0.343,0.288C183.48,109.271,183.041,108.959,182.873,109.228
			L182.873,109.228z"/>
	</g>
</g>
<g>
	<g>
		<path fill="#B3B3B3" d="M182.873,109.228c-0.167,0.27,0.175,0.556,0.343,0.288C183.48,109.271,183.041,108.959,182.873,109.228
			L182.873,109.228z"/>
	</g>
</g>
<g>
	<g>
		<path fill="#B3B3B3" d="M109.269,83.96c2.585-1.379,4.375-3.489,6.004-5.979c1.629-2.489,2.92-5.041,3.578-7.944
			c1.316-5.805-0.888-11.455-4.603-15.873c-6.491-7.613-17.458-10.591-27-7.484c-0.493,0.141-0.168,0.9,0.211,0.738
			c9.05-2.966,19.23-0.134,25.623,6.762c3.868,4.214,6.003,9.617,5.044,15.374c-0.545,2.923-1.857,5.588-3.465,7.965
			c-1.607,2.376-3.398,4.486-5.851,5.774C108.41,83.568,108.867,84.235,109.269,83.96L109.269,83.96z"/>
	</g>
</g>
<g>
	<g>
		<path fill="#B3B3B3" d="M88.71,46.953c-8.398-0.521-11.026,9.813-11.885,16.286c-0.615,4.541-0.568,9.903,1.55,14.14
			c1.753,3.702,5.465,6.258,9.142,7.758c0.429,0.196,0.801-0.549,0.372-0.745c-3.677-1.501-6.982-3.748-8.755-7.337
			c-2.069-3.878-1.912-9.086-1.473-13.31c0.529-5.954,2.974-16.554,10.922-16.117C89.034,47.712,89.181,46.925,88.71,46.953
			L88.71,46.953z"/>
	</g>
</g>
<g>
	<g>
		<path fill="#B3B3B3" d="M87.834,85.313c-4.575,0.193-7.966,5.263-10.324,8.548c-3.349,4.845-7.772,9.838-6.615,16.105
			c1.109,5.91,5.792,10.742,10.371,14.274c4.599,3.419,9.857,5.797,15.221,7.612c10.369,3.682,22.98,5.338,31.42-3.096
			c4.544-4.389,7.133-10.772,7.479-16.992c0.334-5.525-1.302-10.485-5.099-14.453c-5.978-6.004-14.533-8.184-20.688-13.871
			c-0.407-0.309-0.871,0.302-0.463,0.611c3.883,3.519,8.691,5.813,13.213,8.402c4.633,2.611,9.254,5.918,11.316,11.074
			c2.457,6.161,0.96,13.563-2.087,19.28c-3.046,5.715-8.354,9.846-14.735,10.981c-5.776,1.017-11.85-0.117-17.367-1.729
			c-5.61-1.746-11.228-4.075-16.093-7.312c-5.274-3.544-10.458-8.817-11.707-15.22c-0.748-4.098,1.427-7.647,3.674-10.953
			c1.412-1.948,2.73-4.029,4.142-5.977c2.008-2.651,4.809-6.435,8.555-6.55C88.383,86.114,88.305,85.284,87.834,85.313
			L87.834,85.313z"/>
	</g>
</g>
<g>
	<g>
		<path fill="#B3B3B3" d="M110.603,135.419c0.563,1.968,0.095,3.858-0.038,5.813c-0.083,0.447,0.703,0.595,0.786,0.146
			c0.154-2.067,0.666-4.182,0.01-6.283C111.199,134.717,110.461,134.928,110.603,135.419L110.603,135.419z"/>
	</g>
</g>
<g>
	<g>
		<path fill="#B3B3B3" d="M108.127,141.823c2.586,0.482,5.285,0.986,7.872,1.469c0.45,0.085,0.597-0.703,0.147-0.787
			c-2.587-0.482-5.286-0.987-7.872-1.47C107.823,140.951,107.677,141.738,108.127,141.823L108.127,141.823z"/>
	</g>
</g>
<g>
	<g>
		<path fill="#B3B3B3" d="M107.684,142.322c-0.354,3.774-0.105,7.43-1.024,11.099c-0.084,0.45,0.704,0.597,0.788,0.147
			c0.918-3.67,0.689-7.438,1.024-11.1C108.442,141.998,107.768,141.873,107.684,142.322L107.684,142.322z"/>
	</g>
</g>
<g>
	<g>
		<path fill="#B3B3B3" d="M115.887,143.271c-1.242,2.911-1.381,6.145-2.938,8.879c-0.177,0.316,0.12,0.605,0.365,0.534
			c3.03-0.017,6.747-0.603,8.317,2.834c0.993,2.163-3.857,1.956-4.891,1.879c-2.629-0.258-9.199,0.029-9.336-3.604
			c-0.029-0.472-0.746-0.372-0.83,0.078c0.163,2.241,2.196,3.202,4.199,3.693c2.454,0.574,5.215,0.741,7.774,0.753
			c1.75-0.023,4.749-0.511,3.934-2.991c-1.262-3.842-5.879-3.425-9.154-3.337c0.092,0.133,0.274,0.399,0.366,0.533
			c1.558-2.735,1.718-6.081,2.938-8.879C116.849,143.103,116.084,142.845,115.887,143.271L115.887,143.271z"/>
	</g>
</g>
<g>
	<g>
		<path fill="#B3B3B3" d="M90.969,130.241c-0.545,2.924-1.338,5.919-1.883,8.842c-0.084,0.45,0.703,0.598,0.787,0.146
			c0.546-2.922,1.338-5.917,1.884-8.842C91.84,129.938,91.053,129.791,90.969,130.241L90.969,130.241z"/>
	</g>
</g>
<g>
	<g>
		<path fill="#B3B3B3" d="M86.156,139.816c2.207,0.645,4.541,0.615,6.655,1.126c1.125,0.21,2.229,0.532,2.336,1.832
			c0.127,1.188-0.371,2.608-0.827,3.803c-0.624,2.096-1.015,4.816-3.109,6.054c-1.846,1.169-4.482,0.328-6.395-0.029
			c-2.136-0.398-4.428-0.594-6.565-0.993c-1.237-0.23-2.067-2.015-0.866-2.838c0.934-0.641,2.347-0.726,3.4-0.762
			c1.055-0.036,2.179,0.174,3.171,0.476c0.562,0.104,1.145,0.097,1.566-0.29c2.157-1.575,1.957-4.872,2.286-7.255
			c0.084-0.45-0.703-0.597-0.787-0.146c-0.294,1.574-0.159,3.345-0.812,4.97c-0.414,0.97-0.981,2.145-2.127,2.046
			c-2.137-0.398-4.07-0.643-6.171,0.012c-1.967,0.564-2.395,2.23-1.185,3.853c1.119,1.49,3.965,1.206,5.561,1.388
			c3.641,0.448,8.45,2.741,11.024-1.083c1.278-1.858,1.761-4.444,2.273-6.561c0.469-1.891,0.693-3.711-1.339-4.673
			c-2.594-1.065-5.439-0.782-8.097-1.512C85.852,138.945,85.726,139.62,86.156,139.816L86.156,139.816z"/>
	</g>
</g>
<g>
	<g>
		<path fill="#B3B3B3" d="M72.231,102.185c-0.122-2.466-2.386-4.053-3.955-5.626c-2.321-2.528-3.294-6.667-3.985-9.821
			c-0.811-3.76-1.06-7.415-0.796-11.322c0.223-3.683,0.915-7.395,1.587-10.993c0.084-0.45-0.704-0.597-0.787-0.147
			c-0.672,3.599-1.365,7.311-1.586,10.993c-0.243,3.795,0.006,7.449,0.725,11.075c0.579,3.135,1.516,6.219,3.079,9.071
			c1.288,2.452,4.852,3.932,4.981,6.981C71.543,102.755,72.259,102.656,72.231,102.185L72.231,102.185z"/>
	</g>
</g>
<g>
	<g>
		<path fill="#B3B3B3" d="M135.08,107.168c1.362-9.172,8.73-15.596,13.075-23.28c2.105-3.797,3.486-8.078,3.004-12.358
			c-0.601-4.884-3.415-9.134-4.129-14.039c-0.028-0.471-0.857-0.393-0.83,0.078c0.645,4.659,3.029,8.712,3.918,13.301
			c0.982,4.722-0.82,9.39-3.082,13.391c-4.322,7.572-11.311,13.833-12.766,22.871C134.188,107.583,134.974,107.73,135.08,107.168
			L135.08,107.168z"/>
	</g>
</g>
<g>
	<g>
		<path fill="#B3B3B3" d="M63.669,64.507c-2.207-0.645-3.354-2.605-3.518-4.846c-0.029-0.471-0.746-0.372-0.83,0.078
			c0.101,2.579,1.564,4.715,4.089,5.535C63.973,65.379,64.12,64.592,63.669,64.507L63.669,64.507z"/>
	</g>
</g>
<g>
	<g>
		<path fill="#B3B3B3" d="M64.12,64.592c1.454-0.311,2.719-1.471,3.103-2.912c0.084-0.45-0.702-0.597-0.786-0.147
			c-0.231,1.237-1.433,2.06-2.642,2.3C63.325,63.861,63.648,64.621,64.12,64.592L64.12,64.592z"/>
	</g>
</g>
<g>
	<g>
		<path fill="#B3B3B3" d="M64.253,64.5c0.195-2.292,0.369-4.47,0.676-6.741c0.084-0.45-0.703-0.597-0.787-0.147
			c-0.42,2.25-0.594,4.428-0.676,6.74C63.494,64.824,64.281,64.971,64.253,64.5L64.253,64.5z"/>
	</g>
</g>
<g>
	<g>
		<path fill="#B3B3B3" d="M145.168,57.493c-1.328,1.498-3.196,2.778-5.284,2.738c-0.469,0.029-0.369,0.745,0.079,0.829
			c2.313,0.083,4.334-1.402,5.816-3.104C146.067,57.661,145.456,57.198,145.168,57.493L145.168,57.493z"/>
	</g>
</g>
<g>
	<g>
		<path fill="#B3B3B3" d="M144.143,58c0.09-1.729-0.404-3.451-0.672-5.13c-0.029-0.471-0.856-0.393-0.83,0.078
			c0.269,1.68,0.65,3.38,0.672,5.13C143.454,58.57,144.171,58.47,144.143,58L144.143,58z"/>
	</g>
</g>
<g>
	<g>
		<path fill="#B3B3B3" d="M144.732,58.575c1.005-0.394,1.735-1.188,2.149-2.159c0.195-0.429-0.437-0.78-0.746-0.372
			c-0.372,0.745-0.968,1.448-1.728,1.771C144.029,57.979,144.241,58.717,144.732,58.575L144.732,58.575z"/>
	</g>
</g>
<g>
	<g>
		<path fill="#B3B3B3" d="M80.499,52.287c-1.787,5.835-3.855,12.548,0.408,17.767c2.828,3.554,7.988,5.215,11.992,2.471
			c2.268-1.555,3.869-4.515,4.485-7.193c0.658-2.903-0.208-5.742-1.609-8.215c-1.014-2.051-2.807-3.667-4.509-5.148
			c-1.702-1.482-3.917-2.709-6.187-3.017c-1.371-0.14-2.734,0.304-3.752,1.394c-0.309,0.408,0.19,0.851,0.612,0.463
			c3.322-3.454,8.926,1.434,11.135,3.941c1.843,1.974,3.019,4.405,3.59,6.955c0.579,3.135-0.797,6.136-2.762,8.563
			c-3.286,4.508-9.092,3.19-12.328-0.672c-4.305-4.994-2.013-11.665-0.288-17.162C81.392,51.871,80.717,51.745,80.499,52.287
			L80.499,52.287z"/>
	</g>
</g>
<g>
	<g>
		<path fill="#B3B3B3" d="M101.528,54.351c-2.718,3.333-2.348,7.592,0.163,10.971c2.167,2.732,6.075,4.858,9.42,3.155
			c3.857-1.956,4.998-7.446,2.979-10.966c-2.272-4.033-7.453-5.582-11.768-4.292c-0.113-0.021-0.246,0.071-0.246,0.071
			c-0.492,0.141-0.169,0.899,0.21,0.737c3.978-1.352,8.483,0.071,10.883,3.429c2.308,3.224,1.075,8.581-2.515,10.355
			c-2.964,1.541-6.515-0.635-8.295-2.945c-2.462-3.021-2.761-7.033-0.22-10.05C102.428,54.519,101.838,53.942,101.528,54.351
			L101.528,54.351z"/>
	</g>
</g>
<g>
	<g>
		<path fill="#B3B3B3" d="M107.979,62.189C107.979,62.189,108.205,62.231,107.979,62.189c0.226,0.042,0.226,0.042,0.337,0.063
			c0.225,0.042,0.337,0.063,0.583-0.008c0.604-0.12,0.688-0.569,0.906-1.11c0.042-0.226-0.141-0.493-0.388-0.422
			c-0.357,0.05-0.715,0.1-1.075,0.149c-0.244,0.07-0.47,0.028-0.646,0.345c-0.022,0.112-0.043,0.225,0.05,0.358
			c0.092,0.133,0.204,0.155,0.315,0.176c0.452,0.084,0.599-0.704,0.147-0.788c0.112,0.021,0.091,0.134,0.205,0.155
			c-0.021,0.112,0.068,0.246,0.048,0.358c-0.153,0.204-0.267,0.182-0.133,0.091c0.112,0.021,0.247-0.07,0.357-0.049
			c0.247-0.07,0.605-0.12,0.83-0.078c-0.092-0.133-0.295-0.288-0.387-0.421c-0.042,0.225-0.063,0.337-0.218,0.542l0,0
			c0,0-0.226-0.042-0.113-0.021c-0.337-0.063-0.562-0.104-0.919-0.055C107.276,61.592,107.486,62.33,107.979,62.189L107.979,62.189z
			"/>
	</g>
</g>
<g>
	<g>
		<path fill="#B3B3B3" d="M88.769,67.215c0.083-0.45,0.168-0.9-0.085-1.413c-0.154,0.204-0.309,0.408-0.351,0.633
			c0.225,0.042,0.563,0.105,0.787,0.147c0.042-0.225,0.105-0.562,0.147-0.787c-0.675-0.126-1.237-0.231-1.955-0.132
			c-0.245,0.07-0.421,0.387-0.35,0.632c0.183,0.268,0.478,0.556,0.661,0.822c0.204,0.155,0.408,0.309,0.632,0.351
			c0,0,0.317,0.176,0.113,0.021l0,0c0.408,0.309,0.871-0.303,0.463-0.612c-0.294-0.288-0.724-0.484-1.019-0.772
			c-0.408-0.309-0.871,0.303-0.463,0.612c0,0,0,0,0.112,0.021c0.042-0.226-0.05-0.359-0.007-0.583
			c-0.155,0.204-0.288,0.295-0.331,0.52c-0.042,0.225,0.142,0.492,0.5,0.442c0.246-0.071,0.492-0.141,0.646-0.345
			c0.401-0.273-0.057-0.941-0.457-0.667l-0.133,0.091l-0.134,0.092c-0.134,0.091,0,0,0.113,0.021
			c0.112,0.021,0.204,0.153,0.295,0.288c-0.042,0.225-0.063,0.337-0.042,0.225c0,0,0.133-0.091,0.154-0.204
			c0.155-0.204,0.084-0.45-0.008-0.583c0,0,0,0-0.112-0.021c-0.408-0.309-0.871,0.302-0.463,0.611
			c0.295,0.288,0.724,0.484,1.019,0.772c0.408,0.309,0.872-0.303,0.464-0.611c-0.204-0.155-0.542-0.218-0.745-0.372
			c-0.205-0.154-0.5-0.442-0.683-0.709c-0.042,0.224-0.197,0.429-0.351,0.632c0.604-0.12,1.167-0.014,1.729,0.091
			c0.45,0.084,0.597-0.704,0.147-0.788c-0.225-0.042-0.563-0.104-0.787-0.146c-0.338-0.063-0.534,0.366-0.351,0.633
			c0.07,0.246,0.008,0.583-0.034,0.809C87.897,67.518,88.685,67.665,88.769,67.215L88.769,67.215z"/>
	</g>
</g>
<g>
	<g>
		<path fill="#B3B3B3" d="M82.079,49.439c1.784-9.56,5.992-20.878,15.223-25.44c4.883-2.464,10.61-1.977,15.616-0.11
			c4.984,1.978,9.05,5.763,11.935,10.259c3.8,5.83,5.795,12.604,7.093,19.364c0.579,3.133,1.023,6.359,1.47,9.584
			c0.48,4.28,0.604,8.609-0.869,12.756c0.225,0.042,0.451,0.084,0.696,0.014c-1.853-4.419-3.079-9.071-4.909-13.602
			c-1.762-4.287-4.21-8.002-7.438-11.281c-4.979-5.12-13.198-10.961-19.879-5.108c-0.4,0.274,0.058,0.941,0.457,0.667
			c6.681-5.853,14.774,0.664,19.528,5.741c3.096,3.371,5.277,7.27,6.947,11.422c1.668,4.152,2.753,8.312,4.423,12.464
			c0.07,0.246,0.633,0.351,0.695,0.013c2.013-5.792,1.264-11.751,0.4-17.731c-0.742-5.375-1.863-10.59-3.723-15.593
			c-1.769-4.868-4.161-9.505-7.734-13.431c-3.461-3.905-8.227-6.424-13.268-7.481c-7.29-1.477-13.985,1.347-18.738,6.861
			c-4.909,5.717-7.369,13.289-8.826,20.465C81.207,49.742,81.994,49.889,82.079,49.439L82.079,49.439z"/>
	</g>
</g>
<g>
	<g>
		<path fill="#B3B3B3" d="M131.526,75.081c-2.122,0.768-3.878,2.069-4.951,4.08c-0.021,0.113-0.063,0.337,0.142,0.492
			c1.427,1.082,3.331,0.855,4.869,0.095c-0.202-0.154-0.295-0.288-0.478-0.555c-0.28,0.879-0.604,1.983,0.191,2.713
			c0.795,0.73,2.109-0.072,2.686-0.663c-0.113-0.021-0.339-0.063-0.45-0.084c2.658,2.591,5.037-0.805,3.792-3.482
			c-0.253-0.513-0.899-0.168-0.738,0.211c0.556,1.384,1.597,2.044,2.904,2.521c0.225,0.042,0.45,0.084,0.491-0.141
			c2.148-4.022-6.469-5.864-8.88-6.663c-0.45-0.083-0.576,0.591-0.147,0.788c1.87,0.582,10.037,2.339,8.396,5.524
			c0.133-0.091,0.379-0.162,0.491-0.141c-1.082-0.435-2.032-0.961-2.517-2.099c-0.246,0.07-0.492,0.141-0.738,0.211
			c0.809,1.897-0.522,4.675-2.591,2.659c-0.091-0.134-0.316-0.176-0.449-0.084c-0.288,0.295-0.688,0.57-1.181,0.71
			c-1.251,0.465-0.823-1.201-0.605-1.743c0.042-0.224-0.1-0.717-0.479-0.555c-1.271,0.578-2.859,0.979-4.084,0.053
			c-0.021,0.112,0.071,0.246,0.142,0.492c0.919-1.807,2.541-3.017,4.416-3.714C132.229,75.678,131.906,74.918,131.526,75.081
			L131.526,75.081z"/>
	</g>
</g>
<g>
	<g>
		<path fill="#B3B3B3" d="M102.127,72.968c-2.98,0.374-7.914,0.617-9.739,3.536c-1.958,3.01,1.606,4.489,4.081,4.951
			c3.261,0.609,6.886-0.11,9.576-2.052c1.356-1.027,2.121-2.63,1.382-4.281c-0.738-1.652-3.107-2.676-4.879-2.541
			c-0.471,0.028-0.393,0.857,0.078,0.829c1.904-0.226,4.547,1.198,4.262,3.356c-0.182,1.595-2.121,2.63-3.505,3.186
			c-2.389,0.951-4.743,1.094-7.217,0.631c-1.012-0.189-2.116-0.511-3.023-1.263c-1.09-1.018-0.101-2.579,0.855-3.332
			c2.177-1.688,5.606-1.979,8.227-2.305C102.696,73.656,102.598,72.939,102.127,72.968L102.127,72.968z"/>
	</g>
</g>
<g>
	<g>
		<path fill="#B3B3B3" d="M94.349,75.356c0.007,0.583,0.085,1.413,0.472,1.834c0.682,0.709,1.258,0.119,2.087,0.041
			c0.717-0.099,1.3-0.106,1.559-0.873c0.126-0.675-0.311-1.455-0.43-2.059c-0.141-0.492-0.899-0.168-0.737,0.212
			c0.161,0.379,0.19,0.85,0.352,1.229c0.12,0.604-0.126,0.674-0.709,0.682c-0.358,0.05-1.138,0.486-1.434,0.198
			s-0.281-0.984-0.331-1.342C95.149,74.807,94.32,74.885,94.349,75.356L94.349,75.356z"/>
	</g>
</g>
<g>
	<g>
		<path fill="#B3B3B3" d="M99.112,74.15c-0.027,1.392,0.374,2.98,2.076,2.599c1.566-0.289,0.869-2.166,0.588-3.148
			c-0.141-0.493-0.9-0.168-0.739,0.211c0.142,0.492,0.789,2.01-0.061,2.2c-1.097,0.261-1.069-1.13-1.035-1.939
			C99.913,73.602,99.196,73.701,99.112,74.15L99.112,74.15z"/>
	</g>
</g>
<g>
	<g>
		<path fill="#B3B3B3" d="M102.829,80.431c0.042-0.225-0.12-0.604-0.19-0.85c-0.072-0.246-0.304-0.871-0.15-1.076
			c0.155-0.203,0.851-0.19,1.098-0.26c0.358-0.05,0.718-0.099,0.94-0.057c-0.111-0.021-0.202-0.154-0.406-0.309
			c0.184,0.268,0.231,0.625,0.394,1.005c0.143,0.492,0.899,0.167,0.736-0.211c-0.162-0.379-0.231-0.625-0.393-1.004
			c-0.091-0.134-0.185-0.268-0.407-0.309c-0.83,0.078-1.975-0.02-2.552,0.571c-0.709,0.683,0.115,1.884,0.101,2.58
			C102.027,80.979,102.856,80.901,102.829,80.431L102.829,80.431z"/>
	</g>
</g>
<g>
	<g>
		<path fill="#B3B3B3" d="M81.756,78.592c0.465,1.25,0.396,2.866,1.486,3.884c1.09,1.019,2.867-0.396,3.851-0.677
			c-0.225-0.042-0.316-0.176-0.541-0.217c0.24,1.208,0.03,2.333,0.516,3.471c0.091,0.134,0.295,0.288,0.542,0.217
			c0.267-0.183,0.646-0.345,0.913-0.528c-0.204-0.155-0.316-0.176-0.521-0.33c0.036,1.054-0.378,2.024-0.342,3.079
			c-0.042,0.225,0.183,0.267,0.408,0.309c0.336,0.063-0.181,3.458-0.152,3.929c0.07,0.246,0.162,0.379,0.408,0.309
			c0.358-0.05,0.696,0.014,1.054-0.036c-0.091-0.134-0.295-0.288-0.408-0.309c0.156,1.659-0.496,3.283-0.677,4.878
			c-0.063,0.336,0.253,0.512,0.499,0.442c1.968-0.563,3.196-2.778,5.213-2.983c-0.091-0.134-0.296-0.288-0.408-0.309
			c0.304,2.734-0.425,5.39-0.592,8.153c-0.042,0.225,0.345,0.646,0.633,0.351c0.555-0.479,0.976-0.865,1.672-0.852
			c-0.112-0.021-0.204-0.154-0.408-0.309c0.613,2.325-0.903,4.837,0.294,7.153c0.071,0.247,0.408,0.31,0.541,0.218
			c0.802-0.549,1.532-1.343,2.445-1.871c1.179-0.711,1.125,2.071,1.45,2.831c0.069,0.245,0.521,0.33,0.674,0.126
			c1.039-1.203,1.875-2.561,2.597-3.938c0.724-1.378,1.018-2.953,1.853-4.311c-0.226-0.042-0.45-0.083-0.695-0.013
			c0.401,1.588-0.139,3.232,0.375,4.842c0.185,0.267,0.521,0.329,0.695,0.014c0.703-1.266,0.977-2.728,1.249-4.19
			c0.469-1.89,1.164-3.739,1.611-5.518c-0.225-0.042-0.583,0.008-0.808-0.034c0.028,0.471-0.034,0.808-0.007,1.279
			c0.05,0.358,0.612,0.463,0.788,0.147c1.15-3.043,0.368-6.333,1.385-9.285c-0.226-0.042-0.45-0.084-0.788-0.147
			c0.007,0.583,0.016,1.167,0.156,1.659c0.162,0.379,0.654,0.238,0.717-0.099c0.624-2.095-0.032-4.196-0.104-6.304
			c-0.009-2.446,1.895-4.535,2.854-6.567c-0.225-0.042-0.541-0.218-0.766-0.26c-0.034,0.809-0.09,1.729-0.012,2.559
			c0.07,0.246,0.479,0.555,0.653,0.238c0.97-1.449,1.285-3.136,1.803-4.668c-0.224-0.042-0.449-0.084-0.695-0.013
			c0.303,0.871,0.493,1.721,1.176,2.431c0.203,0.154,0.429,0.196,0.583-0.008c0.947-1.336,0.7-3.127,0.615-4.541
			c0.042-0.224-0.366-0.533-0.633-0.351c-0.689,0.57-2.1,2.519-2.797,0.642c-0.416-0.893-0.697-1.876-1.38-2.585
			c-1.322-1.644-2.306,0.5-3.168,1.386c0.225,0.042,0.449,0.084,0.583-0.007c-0.57-0.688-0.803-1.314-1.766-1.145
			c-1.186,0.127-1.48,1.703-2.774,0.529c-0.591-0.575-1.041-0.66-1.779-0.449c-0.604,0.12-1.089,0.845-1.721,0.494
			c-0.316-0.176-0.696-0.013-1.055,0.037c-0.759,0.324-2.401,1.646-2.979,0.374c-0.232-0.625-1.371-0.139-1.75,0.023
			c-1.25,0.464-2.431,1.176-3.498,1.908c-1.222,0.936-2.149,2.159-3.555,2.828c0.226,0.042,0.316,0.176,0.542,0.218
			c-0.543-2.08-2.16-2.149-3.782-0.939c0.225,0.042,0.45,0.084,0.542,0.218c-0.345-0.647-0.718-1.764-1.682-1.595
			c-0.829,0.079-1.214,1.52-1.544,2.04c0.226,0.042,0.471-0.029,0.717-0.099c-0.091-0.134-0.091-0.134-0.183-0.267
			c-0.091-0.134-0.316-0.175-0.45-0.084c-2.03,0.901,0.072,2.108,0.558,3.247c0.141,0.491,0.9,0.168,0.738-0.212
			c-0.141-0.492-1.864-1.861-0.972-2.276c-0.112-0.021-0.337-0.063-0.449-0.084c0.091,0.133,0.091,0.133,0.183,0.267
			c0.183,0.267,0.541,0.217,0.716-0.099c0.175-0.317,0.238-0.654,0.414-0.97c0.547-1.062,0.963-0.169,1.308,0.477
			c0.07,0.247,0.408,0.309,0.541,0.218c1.088-0.844,2.164-0.993,2.678,0.616c0.071,0.246,0.295,0.288,0.541,0.218
			c2.186-1.105,3.73-3.145,6.027-4.229c0.646-0.344,1.25-0.464,1.897-0.81c0.042-0.225,0.042-0.225,0.112,0.021
			c0.091,0.133,0.183,0.267,0.162,0.379c0.366,0.534,1.083,0.436,1.687,0.315c0.984-0.282,1.714-1.076,2.839-0.867
			c1.104,0.322,2.002-1.372,2.979-0.375c0.387,0.421,1.202,1.04,1.85,0.695c0.245-0.071,0.513-0.254,0.666-0.458
			c0.709-0.683,1.25-0.465,1.821,0.223c0.182,0.267,0.429,0.196,0.583-0.007c0.267-0.184,0.442-0.5,0.618-0.816
			c0.504-0.837,1.384-0.557,1.82,0.224c0.437,0.78,0.605,1.742,1.153,2.543c0.986,1.581,2.776-0.529,3.465-1.099
			c-0.225-0.042-0.429-0.196-0.633-0.351c-0.006,1.28,0.375,2.98-0.397,4c0.225,0.042,0.45,0.083,0.583-0.008
			c-0.569-0.689-0.76-1.539-0.972-2.276c-0.069-0.246-0.633-0.351-0.695-0.014c-0.52,1.533-0.834,3.22-1.67,4.577
			c0.227,0.042,0.451,0.084,0.654,0.239c-0.078-0.83-0.064-1.525-0.029-2.333c0.084-0.45-0.569-0.688-0.767-0.26
			c-0.961,2.032-2.464,3.847-2.884,6.096c-0.441,2.362,0.756,4.68,0.089,7c0.247-0.07,0.472-0.029,0.717-0.099
			c-0.14-0.492-0.034-1.054-0.176-1.546c-0.05-0.358-0.592-0.576-0.787-0.147c-1.038,3.065-0.256,6.354-1.386,9.286
			c0.227,0.042,0.451,0.084,0.788,0.147c-0.027-0.471-0.078-0.83,0.006-1.279c-0.027-0.471-0.611-0.463-0.808-0.034
			c-0.407,1.553-0.946,3.198-1.466,4.73c-0.428,1.666-0.63,3.374-1.486,4.844c0.225,0.042,0.451,0.084,0.696,0.013
			c-0.535-1.496,0.025-3.254-0.377-4.842c-0.049-0.358-0.52-0.33-0.695-0.014c-0.702,1.266-1.066,2.595-1.655,3.881
			c-0.631,1.512-1.691,2.827-2.752,4.143c0.227,0.042,0.451,0.084,0.674,0.125c-0.232-0.625-0.155-3.521-1.302-3.618
			c-1.504-0.047-2.606,1.492-3.673,2.224c0.225,0.042,0.45,0.084,0.541,0.218c-1.105-2.186,0.298-4.716-0.293-7.154
			c-0.092-0.134-0.184-0.267-0.409-0.309c-0.829,0.078-1.383,0.557-2.05,1.014c0.203,0.154,0.407,0.309,0.632,0.351
			c0.167-2.763,0.917-5.532,0.633-8.378c0.042-0.225-0.162-0.379-0.408-0.308c-2.242,0.163-3.358,2.398-5.458,3.054
			c0.204,0.154,0.296,0.287,0.499,0.442c0.203-1.708,0.855-3.333,0.721-5.104c0.042-0.225-0.163-0.379-0.408-0.309
			c-0.358,0.05-0.696-0.014-1.054,0.037c0.091,0.133,0.295,0.288,0.408,0.309c-0.261-1.097,1.198-4.548-0.755-4.681
			c0.091,0.134,0.295,0.288,0.408,0.31c-0.036-1.055,0.378-2.024,0.342-3.079c0.042-0.225-0.275-0.4-0.52-0.33
			c-0.267,0.183-0.646,0.345-0.914,0.528c0.225,0.042,0.317,0.175,0.541,0.217c-0.373-1.117-0.163-2.241-0.516-3.471
			c-0.071-0.246-0.295-0.288-0.541-0.218c-1.118,0.374-2.782,1.809-3.542,0.27c-0.416-0.892-0.451-1.946-0.866-2.838
			C82.374,77.776,81.615,78.1,81.756,78.592L81.756,78.592z"/>
	</g>
</g>
<g>
	<g>
		<path fill="#B3B3B3" d="M87.356,67.3c0.162,0.379,0.458,0.667,0.795,0.73c0.225,0.042,0.512-0.254,0.442-0.5
			c-0.071-0.246-0.141-0.492-0.211-0.738c-0.071-0.246-0.253-0.512-0.458-0.667c-0.183-0.267-0.541-0.218-0.717,0.099
			c-0.154,0.204,0.028,0.471,0.12,0.604c0.316,0.175,0.633,0.351,0.949,0.526c0.45,0.084,0.872-0.303,0.597-0.704
			c-0.021,0.113,0.071,0.247,0.071,0.247c0.083-0.45,0.097-1.146-0.311-1.455s-0.899-0.168-1.167,0.015
			c-0.4,0.274-0.484,0.725-0.344,1.216c0.233,0.625,0.978,0.997,1.653,1.123c0.225,0.042,0.379-0.162,0.4-0.274
			c0.042-0.226-0.162-0.379-0.275-0.4c-0.225-0.042-0.541-0.217-0.745-0.372c-0.112-0.021-0.204-0.154-0.204-0.154l0,0l0,0
			c0,0,0.021-0.113,0,0l0.021-0.113c-0.021,0.113,0,0,0,0c0.021-0.112-0.021,0.113,0,0c0,0,0,0,0.021-0.112c-0.021,0.112,0,0,0,0
			s0.134-0.091,0,0c0,0,0,0,0.134-0.091s0.134-0.091,0,0c0,0,0,0,0.113,0.021c0,0,0.112,0.021,0,0c0,0,0,0,0.112,0.021
			c0.113,0.021-0.112-0.021,0,0c0,0,0.113,0.021,0,0c0,0,0.113,0.021,0,0c0,0,0,0,0.113,0.021c-0.113-0.021,0,0,0,0l0,0
			c0,0-0.021,0.113,0.071,0.246c-0.021,0.112-0.042,0.225-0.042,0.225c-0.021,0.113-0.042,0.226,0.049,0.359l0,0l0.021-0.112
			c0.021-0.113,0.021-0.113,0.042-0.225c0.245-0.071,0.267-0.184,0.245-0.071c0.113,0.021,0.113,0.021,0,0l0,0
			c-0.112-0.021,0.113,0.021,0,0c-0.112-0.021-0.224-0.042-0.315-0.175c-0.113-0.021-0.205-0.154-0.316-0.175c-0.113-0.021,0,0,0,0
			l0,0c0,0,0.091,0.133,0.07,0.246s-0.021,0.112-0.042,0.226l0,0c0,0-0.133,0.091-0.154,0.203l0,0c0,0-0.133,0.092-0.246,0.071
			c0,0-0.112-0.021,0,0c-0.112-0.021-0.112-0.021-0.225-0.042c0.295,0.288,0.324,0.759,0.464,1.25
			c0.155-0.204,0.288-0.295,0.443-0.499c-0.112-0.021-0.204-0.155-0.183-0.267C87.953,66.597,87.215,66.809,87.356,67.3L87.356,67.3
			z"/>
	</g>
</g>
<g>
	<g>
		<path fill="#B3B3B3" d="M107.27,61.009c0.07,0.246,0.078,0.83,0.527,0.914c0.337,0.063,0.513-0.253,0.687-0.57
			c0.042-0.225,0.084-0.45,0.016-0.695c-0.184-0.268-0.541-0.218-0.697-0.014c-0.175,0.316-0.35,0.633-0.412,0.971
			c-0.021,0.112-0.063,0.337-0.084,0.45c0.181,0.267,0.521,0.331,0.674,0.126c-0.226-0.042-0.451-0.084-0.583,0.008
			c0.184,0.267,0.499,0.441,0.745,0.372c0.246-0.07,0.512-0.253,0.554-0.479c0.084-0.45-0.056-0.942,0.028-1.391
			c0.042-0.226-0.141-0.492-0.388-0.421c-0.357,0.049-0.736,0.211-0.597,0.703c0.071,0.247,0.499,0.443,0.724,0.485
			c0.45,0.084,0.598-0.704,0.147-0.788l-0.111-0.021c-0.226-0.043-0.311,0.407-0.063,0.337c-0.094-0.133-0.296-0.288-0.388-0.421
			c-0.084,0.45,0.035,1.054-0.049,1.504c0.021-0.112,0.154-0.204,0.154-0.204s0,0-0.112-0.021c-0.203-0.155-0.43-0.197-0.582,0.008
			c-0.154,0.204,0.042-0.225,0.358-0.05c0.112,0.021,0.091,0.134,0.182,0.267c0,0-0.042,0.225-0.021,0.113c0,0,0,0,0.021-0.113
			c0.021-0.112-0.021,0.113,0,0c0.021-0.112,0.063-0.337,0.196-0.429l0.021-0.112c0,0,0.021-0.112,0,0
			c0.156-0.203-0.61-0.462-0.652-0.238c0.021-0.112,0,0,0,0c-0.021,0.112-0.021,0.112-0.042,0.225
			c-0.042,0.225,0.54,0.218,0.45,0.084c0.021-0.112-0.092-0.133-0.071-0.245C107.958,60.439,107.24,60.538,107.27,61.009
			L107.27,61.009z"/>
	</g>
</g>
<g>
	<g>
		<path fill="#B3B3B3" d="M146.263,57.232c0.598-0.703,1.104-1.54,1.608-2.376c0.197-0.429-0.437-0.78-0.744-0.372
			c-0.373,0.746-0.856,1.47-1.454,2.173C145.343,57.177,145.842,57.619,146.263,57.232L146.263,57.232z"/>
	</g>
</g>
<g>
	<g>
		<path fill="#B3B3B3" d="M90.216,48.863c1.828,0.807,3.501,1.817,4.999,3.145c0.408,0.308,0.872-0.303,0.464-0.612
			c-1.477-1.439-3.242-2.584-5.204-3.299C90.159,47.922,89.788,48.667,90.216,48.863L90.216,48.863z"/>
	</g>
</g>
<g>
	<g>
		<path fill="#B3B3B3" d="M99.475,51.639c0.701-1.266,1.678-2.13,3.041-2.574c0.492-0.141,0.168-0.9-0.212-0.738
			c-1.496,0.536-2.74,1.583-3.462,2.961C98.532,51.696,99.278,52.068,99.475,51.639L99.475,51.639z"/>
	</g>
</g>
<g>
	<g>
		<path fill="#B3B3B3" d="M98.63,111.652c-0.528,0.948-0.288,2.157,0.62,2.909c1.02,0.771,2.249,0.42,3.07-0.242
			c0.8-0.548,0.631-1.512,0.041-2.088c-0.795-0.729-2.012-1.073-3.043-1.148c-0.452-0.085-0.599,0.702-0.146,0.786
			c0.562,0.105,3.688,0.807,2.804,1.804c-0.464,0.613-1.539,0.761-2.172,0.41c-0.745-0.372-0.915-1.335-0.543-2.079
			C99.57,111.595,98.938,111.244,98.63,111.652L98.63,111.652z"/>
	</g>
</g>
<g>
	<g>
		<path fill="#B3B3B3" d="M98.717,116.79c-0.848,2.053,1.438,5.39,3.566,3.342c1.973-1.843-1.712-3.928-3.326-3.995
			c-0.452-0.084-0.599,0.702-0.147,0.786c0.92,0.056,3.513,1.122,3.037,2.43c-0.414,0.971-1.448,0.894-2.017,0.205
			c-0.592-0.576-0.853-1.672-0.479-2.417C99.679,116.62,98.936,116.249,98.717,116.79L98.717,116.79z"/>
	</g>
</g>
<g>
	<g>
		<path fill="#B3B3B3" d="M99.621,122.544c-0.196,0.43-0.28,0.881-0.273,1.464c-0.042,0.224,0.12,0.604,0.304,0.87
			c0.386,0.422,1.082,0.436,1.595,0.182c0.625-0.232,1.159-0.598,1.603-1.098c0.309-0.407,0.66-1.041,0.405-1.553
			c-0.161-0.381-0.569-0.688-1.02-0.772c-0.653-0.238-1.258-0.118-1.953-0.133c-0.471,0.028-0.506,0.838,0.077,0.83
			c0.358-0.05,0.584-0.008,0.942-0.058c0.112,0.021-0.113-0.021,0,0c0,0,0,0,0.112,0.021c0,0,0.112,0.021,0.226,0.041
			c0.111,0.021,0.225,0.042,0.337,0.063c0.111,0.021,0.225,0.042,0.225,0.042c-0.113-0.021,0,0,0,0l0.112,0.021c0,0,0,0,0.112,0.021
			c0.113,0.021-0.112-0.021,0,0c0,0,0,0,0.113,0.021c0,0,0.091,0.134,0,0l0.091,0.134c-0.091-0.134,0,0,0,0s-0.021,0.113,0,0
			l-0.021,0.113c-0.021,0.113,0.021-0.113,0,0c0,0,0,0-0.021,0.113c0,0,0,0-0.021,0.111c-0.021,0.112,0.021-0.111,0,0
			c0,0-0.021,0.112-0.042,0.226c0,0,0,0-0.021,0.111c-0.021,0.113,0,0,0,0s0.021-0.111,0,0c0,0-0.021,0.113-0.154,0.204
			c-0.133,0.092-0.154,0.205-0.288,0.295c-0.134,0.093,0,0,0,0s0,0-0.134,0.093c0,0-0.134,0.092-0.154,0.203
			c-0.133,0.092-0.267,0.183-0.4,0.275c0,0,0,0-0.133,0.091c0.133-0.091,0,0,0,0s-0.134,0.091-0.246,0.07l-0.134,0.092
			c0,0,0,0-0.112-0.021l0,0c0,0,0.112,0.021,0,0l-0.112-0.021c0,0,0,0-0.113-0.021l0,0c-0.111-0.021,0.113,0.021,0,0
			c-0.111-0.021-0.111-0.021-0.111-0.021c-0.113-0.022,0.111,0.021,0,0c0,0,0,0-0.113-0.022c-0.113-0.021,0,0,0,0l0,0
			c0,0-0.091-0.133,0,0l0,0c0,0-0.091-0.133,0,0l0,0c0,0-0.07-0.246,0.021-0.112c0.021-0.112-0.07-0.246-0.05-0.358
			c-0.021,0.112,0,0,0,0l0.021-0.112c0.021-0.113,0.041-0.225,0.041-0.225c0.021-0.112,0.042-0.226,0.042-0.226l0.021-0.111
			c0,0,0,0,0.021-0.114c-0.021,0.114,0,0,0,0c0.042-0.224,0.084-0.448-0.141-0.491C99.909,122.25,99.662,122.32,99.621,122.544
			L99.621,122.544z"/>
	</g>
</g>
<g>
	<g>
		<path fill="#B3B3B3" d="M88.374,66.21c-0.042,0.225,0.008,0.583-0.034,0.809c0.07,0.246-0.105,0.563,0.19,0.85
			c0.499,0.442,0.779-0.437,0.955-0.753c0.155-0.204,0.084-0.449-0.008-0.583c-0.204-0.154-0.45-0.083-0.583,0.008
			s-0.175,0.316-0.309,0.408c-0.021,0.113-0.021,0.113-0.042,0.225s0,0,0.113,0.021c0.112,0.021,0.112,0.021,0.224,0.042l0,0
			c0.113,0.021,0.113,0.021,0.225,0.042c0,0,0.092,0.134,0,0c-0.021,0.112-0.021,0.112-0.042,0.226
			c0.063-0.337-0.099-0.717-0.037-1.054C89.246,65.907,88.458,65.76,88.374,66.21L88.374,66.21z"/>
	</g>
</g>
<g>
	<g>
		<path fill="#B3B3B3" d="M107.873,60.889c0.184,0.267,0.479,0.555,0.857,0.393c0.379-0.163,0.351-0.633,0.28-0.879
			s-0.296-0.288-0.542-0.218c-0.244,0.071-0.286,0.296-0.218,0.542l0,0c0,0,0,0-0.021,0.112c0.021-0.112,0,0,0,0
			c0.021-0.112,0.021-0.112,0.154-0.204c0.135-0.091,0.135-0.091,0.247-0.071c-0.112-0.021,0.113,0.021,0,0c0,0-0.112-0.021,0,0
			c0,0-0.112-0.021-0.091-0.133c-0.094-0.133-0.316-0.175-0.563-0.105C107.711,60.509,107.669,60.735,107.873,60.889L107.873,60.889
			z"/>
	</g>
</g>
<g>
	<g>
		<path fill="#B3B3B3" d="M97.422,188.024c2-0.301,3.899-0.2,5.899-0.4c1.102-0.1,2.301-0.1,3.4-0.2c0.801-0.1,1.4-0.5,1.5-1.399
			c0.1-1.101-0.299-2.301-0.5-3.301c-0.299-1.5-0.4-3-0.4-4.5c0-1.199-0.199-2.399-0.299-3.6c-0.1-0.6-0.201-1.9-0.9-2.1
			c-0.801-0.301-1.9,0.1-2.699,0.3c-0.801,0.2-1.602,0.5-2.4,0.7c-1.301,0.3-2.5,0.9-3.801,1.3c-0.699,0.2-1.799,0.101-2.399,0.601
			c-0.7,0.6-0.7,1.899-0.7,2.699c0.1,2.5,1.1,4.9,1.5,7.3c0.1,0.8,0.2,1.601,0.7,2.2c0.601,0.7,1.5,0.6,2.3,0.5
			c0.2,0,0.1-0.4-0.1-0.4c-0.6,0.101-1.301,0.101-1.801-0.3c-0.399-0.3-0.5-0.899-0.6-1.399c-0.3-1.301-0.5-2.601-0.9-4
			c-0.399-1.5-0.799-3.1-0.799-4.7c0-0.601,0.1-1.399,0.6-1.8c0.4-0.301,1.1-0.301,1.6-0.4c1.5-0.3,2.901-1.1,4.401-1.5
			c1-0.3,2-0.6,3-0.8c0.5-0.101,1-0.2,1.5-0.2c0.6,0,0.699,0.2,0.799,0.7c0.301,1,0.4,2,0.5,3c0.301,1.899,0,3.899,0.4,5.8
			c0.301,1.3,0.9,2.8,0.6,4.1c-0.1,0.601-1.199,0.7-1.699,0.7c-0.699,0.101-1.4,0-2,0.101c-1,0-2.1,0.199-3.1,0.199
			c-1.2,0.101-2.4,0.101-3.5,0.301C97.122,187.624,97.122,188.024,97.422,188.024L97.422,188.024z"/>
	</g>
</g>
<g>
	<g>
		<path fill="#B3B3B3" d="M95.221,183.124c0.9,0,1.801-0.4,2.701-0.7c0.799-0.3,1.9-0.8,2.5,0.101c0.5,0.699,0.6,1.699,0.699,2.5
			c0.1,0.8,0.199,1.5,0.4,2.3c0.1,0.2,0.4,0.1,0.4-0.101c-0.201-0.8-0.301-1.699-0.4-2.6c-0.1-0.8-0.301-1.8-0.801-2.5
			c-0.5-0.6-1.299-0.5-2-0.3c-1.1,0.3-2.2,0.899-3.299,1C95.022,182.724,95.022,183.124,95.221,183.124L95.221,183.124z"/>
	</g>
</g>
<g>
	<g>
		<path fill="#B3B3B3" d="M103.923,187.324c0-1.101-0.102-2.101-0.201-3.2c-0.1-0.8-0.1-1.7-0.299-2.5c-0.102-0.5,0.699-0.9,1.199-1
			c0.699-0.199,1.5-0.3,2.199-0.4c0.201,0,0.201-0.399,0-0.399c-0.799,0.101-1.6,0.2-2.398,0.5c-0.4,0.101-1.102,0.5-1.301,0.899
			c0,0.201,0,0.301,0,0.5c0.1,0.601,0.1,1.2,0.199,1.801c0.102,1.3,0.301,2.6,0.301,3.899
			C103.622,187.524,103.923,187.524,103.923,187.324L103.923,187.324z"/>
	</g>
</g>
<g>
	<g>
		<path fill="#B3B3B3" d="M106.821,177.824c-1.398,0-2.699,0.601-4.1,1c0.1,0,0.1,0.101,0.201,0.101
			c-0.602-1.601-1.102-3.301-1.301-5c0-0.201-0.4-0.201-0.4,0c0.1,1.699,0.701,3.399,1.301,5.1c0,0.1,0.1,0.199,0.199,0.1
			c1.301-0.3,2.6-0.9,4-1C107.022,178.224,107.022,177.824,106.821,177.824L106.821,177.824z"/>
	</g>
</g>
<g>
	<g>
		<path fill="#B3B3B3" d="M94.822,181.124c0.8,0.1,1.601-0.199,2.399-0.4c0.901-0.199,1.801-0.5,2.601-0.899
			c0.601-0.3,0.5-1,0.399-1.601c-0.199-1.1-0.6-2.199-0.699-3.299c0-0.201-0.4-0.201-0.4,0c0.1,0.899,0.4,1.699,0.6,2.5
			c0.101,0.5,0.201,0.899,0.201,1.399c0,0.399,0,0.5-0.4,0.7c-0.801,0.4-1.6,0.6-2.5,0.8c-0.7,0.2-1.5,0.5-2.301,0.399
			C94.622,180.724,94.622,181.124,94.822,181.124L94.822,181.124z"/>
	</g>
</g>
<g>
	<g>
		<path fill="#B3B3B3" d="M-37.4,88c0.1,0,0.3,0,0.4,0c0.2,0,0.2-0.4,0-0.4c-0.1,0-0.3,0-0.4,0C-37.6,87.6-37.6,88-37.4,88L-37.4,88
			z"/>
	</g>
</g>
<g>
	<g>
		<path fill="#B3B3B3" d="M-38.6,85.8c0.2,0,0.5,0,0.7,0c0.2,0,0.2-0.4,0-0.4c-0.2,0-0.5,0-0.7,0C-38.8,85.4-38.8,85.8-38.6,85.8
			L-38.6,85.8z"/>
	</g>
</g>
<g>
	<g>
		<path fill="#B3B3B3" d="M-37.4,85.3c-0.1,0-0.3,0-0.4,0c-0.2,0-0.2,0.4,0,0.4c0.1,0,0.3,0,0.4,0C-37.2,85.6-37.2,85.3-37.4,85.3
			L-37.4,85.3z"/>
	</g>
</g>
<g>
	<g>
		<path fill="#B3B3B3" d="M94.522,180.925c-1.9-0.801-3.801,1.499-3,3.299c0.8,1.801,2.4-0.699,3.3-1.1c0.2-0.1,0-0.4-0.2-0.3
			c-0.6,0.3-1.699,2-2.4,1.7c-0.299-0.2-0.399-0.801-0.5-1.101c0-0.399,0.201-0.8,0.4-1.2c0.5-0.799,1.5-1.299,2.4-0.899
			C94.622,181.425,94.721,181.024,94.522,180.925L94.522,180.925z"/>
	</g>
</g>
<g>
	<g>
		<path fill="#B3B3B3" d="M91.721,182.524c-0.1-0.4-0.399-0.7-0.6-1c-0.4-0.6-0.8-1.1-1.199-1.7c-0.4-0.601-0.801-1.2-1.101-1.899
			c-0.2-0.5-0.601-1.201-0.3-1.701c0.3-0.6,1.3-0.5,1.9-0.5c1,0.101,1.6,0.701,2,1.601c0.5,1.2,0.5,3,1.899,3.601
			c0.2,0.1,0.3-0.301,0.101-0.4c-0.801-0.301-1-1.301-1.201-2c-0.199-0.7-0.399-1.6-0.899-2.2c-0.601-0.7-1.399-0.899-2.2-1
			c-0.6,0-1.3,0.101-1.699,0.601c-0.701,1,0.399,2.699,0.899,3.5c0.399,0.699,0.899,1.299,1.399,2
			c0.201,0.299,0.701,0.799,0.801,1.299C91.422,182.924,91.822,182.824,91.721,182.524L91.721,182.524z"/>
	</g>
</g>
<g>
	<g>
		<path fill="#B3B3B3" d="M91.822,184.324c-1.101,0.8-2,2.2-2.601,3.3c-0.5,0.8-1.5,2.6-0.399,3.3c0.601,0.4,1.5,0.101,2.101-0.1
			c0.899-0.3,1.6-1,2.1-1.7c1.199-1.6,1.5-3.9,1.5-5.8c0-0.2-0.4-0.2-0.4,0c0,1.7-0.3,3.5-1.1,5c-0.4,0.8-1,1.5-1.801,1.899
			c-0.5,0.4-1.5,0.7-2.199,0.4c-1-0.5,0.3-2.6,0.699-3.1c0.601-1,1.301-2.2,2.301-2.9C92.122,184.524,92.022,184.224,91.822,184.324
			L91.822,184.324z"/>
	</g>
</g>
<g>
	<g>
		<path fill="#B3B3B3" d="M176.926,18.975c-1.908-3.141-3.254-6.619-5.16-9.76c-1.011-1.795-1.796-3.813-2.919-5.608
			c-0.896-1.348-1.906-2.021-3.477-1.459c-1.907,0.673-3.702,2.244-5.385,3.366c-2.357,1.683-4.824,2.917-7.404,4.039
			c-2.021,0.898-4.039,2.02-5.946,3.253c-1.01,0.673-3.141,1.795-3.029,3.142c0.112,1.571,1.683,3.253,2.579,4.375
			c1.011,1.234,2.021,2.469,2.919,3.702c1.568,2.02,3.478,3.702,5.048,5.498c0.896,1.122,1.57,2.917,2.806,3.589
			c1.568,0.786,3.701-0.112,5.16-0.785c4.149-2.02,7.516-5.385,11.331-7.966c1.233-0.785,2.467-1.57,3.141-2.917
			c0.673-1.458-0.113-3.141-0.897-4.375c-0.225-0.337-0.785,0.112-0.561,0.449c0.561,1.009,1.233,2.131,0.897,3.253
			c-0.226,0.898-1.122,1.571-1.908,2.131c-2.019,1.458-4.15,2.805-6.17,4.376c-2.355,1.794-4.712,3.702-7.517,4.824
			c-1.01,0.449-2.469,0.897-3.477,0.225c-0.786-0.561-1.235-1.683-1.796-2.356c-1.684-2.356-4.039-4.264-5.833-6.507
			c-1.235-1.57-2.469-3.029-3.59-4.487c-0.563-0.785-1.123-1.571-1.571-2.468c-0.449-0.897-0.112-1.346,0.56-2.019
			c1.458-1.234,3.142-2.132,4.824-3.029c3.143-1.908,6.62-2.917,9.649-5.049c2.018-1.346,4.15-3.59,6.507-4.039
			c1.233-0.225,2.019,1.458,2.469,2.356c0.56,1.122,1.121,2.244,1.682,3.478c0.897,1.683,1.908,3.366,2.692,5.161
			c1.011,2.02,1.907,3.926,3.028,5.833C176.589,19.648,177.15,19.424,176.926,18.975L176.926,18.975z"/>
	</g>
</g>
<g>
	<g>
		<path fill="#B3B3B3" d="M170.194,26.379c-0.673-1.571-2.133-2.804-3.254-4.039c-1.009-1.122-2.692-2.692-1.684-4.263
			c0.898-1.346,2.469-2.131,3.703-3.029c1.234-0.785,2.468-1.458,3.59-2.355c0.337-0.225-0.113-0.785-0.448-0.561
			c-1.234,1.01-2.693,1.794-4.04,2.692c-1.345,0.785-2.916,1.796-3.589,3.253c-0.674,1.347,0.111,2.58,0.897,3.59
			c1.347,1.683,3.252,3.029,4.151,5.048C169.744,27.052,170.306,26.828,170.194,26.379L170.194,26.379z"/>
	</g>
</g>
<g>
	<g>
		<path fill="#B3B3B3" d="M170.979,8.316c-1.795,0.786-3.59,1.795-5.385,2.805c-1.347,0.786-2.805,1.458-4.15,2.356
			c-0.897,0.561-2.021-0.673-2.581-1.234c-0.898-1.01-1.683-2.244-2.356-3.478c-0.224-0.336-0.896-0.112-0.673,0.224
			c0.785,1.347,1.569,2.692,2.691,3.814c0.562,0.561,1.684,1.571,2.581,1.571c0.338,0,0.562-0.224,0.897-0.449
			c0.897-0.561,1.908-1.122,2.917-1.683c2.132-1.122,4.152-2.468,6.396-3.365C171.651,8.766,171.316,8.093,170.979,8.316
			L170.979,8.316z"/>
	</g>
</g>
<g>
	<g>
		<path fill="#B3B3B3" d="M152.581,10.449c1.121,2.355,3.141,4.151,4.711,6.282c0-0.111,0-0.336,0-0.449
			c-2.244,2.244-4.711,4.375-7.517,5.833c-0.336,0.225-0.111,0.785,0.226,0.674c2.916-1.459,5.385-3.703,7.741-5.946
			c0.111-0.112,0.223-0.337,0-0.449c-1.571-2.02-3.591-3.702-4.601-6.058C153.029,9.775,152.355,10.112,152.581,10.449
			L152.581,10.449z"/>
	</g>
</g>
<g>
	<g>
		<path fill="#B3B3B3" d="M167.053,28.51c-0.448-1.346-1.571-2.58-2.469-3.702c-1.01-1.346-2.131-2.692-3.478-3.814
			c-1.009-0.785-2.131-0.112-3.028,0.449c-1.795,1.122-3.254,2.58-5.049,3.702c-0.336,0.225-0.112,0.898,0.225,0.674
			c1.346-0.785,2.58-1.907,3.927-2.805c0.673-0.561,1.458-1.009,2.243-1.458c0.674-0.337,0.897-0.337,1.459,0.112
			c1.234,1.009,2.244,2.355,3.253,3.589c0.785,1.01,1.907,2.244,2.356,3.59C166.604,29.184,167.278,28.959,167.053,28.51
			L167.053,28.51z"/>
	</g>
</g>
<g>
	<g>
		<path fill="#B3B3B3" d="M150.112,21.892c-0.225,0.112-0.448,0.224-0.673,0.336c-0.449,0.225-0.111,0.785,0.225,0.673
			c0.224-0.111,0.448-0.224,0.673-0.336C150.785,22.34,150.561,21.779,150.112,21.892L150.112,21.892z"/>
	</g>
</g>
<g>
	<g>
		<path fill="#B3B3B3" d="M153.702,24.696c-0.448,0.225-0.785,0.337-1.121,0.561c-0.449,0.225-0.112,0.786,0.224,0.673
			c0.449-0.225,0.786-0.336,1.122-0.561C154.376,25.145,154.151,24.584,153.702,24.696L153.702,24.696z"/>
	</g>
</g>
<g>
	<g>
		<path fill="#B3B3B3" d="M152.132,26.604c0.224-0.112,0.449-0.225,0.673-0.337c0.449-0.224,0.112-0.785-0.224-0.673
			c-0.226,0.112-0.449,0.225-0.674,0.336C151.458,26.155,151.684,26.716,152.132,26.604L152.132,26.604z"/>
	</g>
</g>
<g>
	<g>
		<path fill="#B3B3B3" d="M167.053,29.184c0.111,3.814,5.497,5.385,7.854,2.692c2.468-2.692-2.918-3.59-4.264-4.711
			c-0.337-0.225-0.785,0.224-0.448,0.561c1.01,0.785,4.712,1.458,4.712,2.917c0,0.672-1.011,1.346-1.572,1.683
			c-0.671,0.336-1.568,0.336-2.242,0.224c-1.684-0.224-3.254-1.57-3.366-3.366C167.726,28.623,167.053,28.735,167.053,29.184
			L167.053,29.184z"/>
	</g>
</g>
<g>
	<g>
		<path fill="#B3B3B3" d="M171.877,32.661c-0.561,0.337-0.897,1.122-1.234,1.683c-0.673,1.122-1.346,2.244-2.021,3.253
			c-0.784,1.122-1.569,2.356-2.467,3.366c-0.674,0.785-1.683,1.795-2.805,1.795c-1.347,0-1.906-1.907-2.244-2.805
			c-0.56-1.683,0-3.365,1.347-4.6c1.795-1.683,4.825-3.029,4.711-5.833c0-0.449-0.672-0.337-0.672,0.112
			c0,1.683-1.458,2.693-2.58,3.59s-2.356,1.795-3.142,3.141c-0.785,1.458-0.562,3.029,0,4.6c0.447,1.122,1.12,2.244,2.244,2.468
			c2.242,0.561,4.264-2.805,5.272-4.264c0.786-1.233,1.57-2.468,2.355-3.814c0.449-0.673,0.897-1.795,1.57-2.244
			C172.663,32.998,172.213,32.437,171.877,32.661L171.877,32.661z"/>
	</g>
</g>
<g>
	<g>
		<path fill="#B3B3B3" d="M174.793,31.315c2.244,1.346,5.161,1.795,7.63,2.02c1.683,0.224,5.608,0.561,5.946-1.907
			c0.225-1.346-1.011-2.693-1.797-3.59c-1.233-1.234-2.805-2.019-4.486-2.356c-3.703-0.785-7.74,0.224-11.106,1.683
			c-0.449,0.224-0.112,0.785,0.225,0.673c2.916-1.234,6.281-2.132,9.423-1.795c1.684,0.113,3.255,0.673,4.601,1.683
			c1.009,0.785,2.355,2.356,2.355,3.703c-0.111,2.019-4.599,1.346-5.834,1.233c-2.131-0.336-4.712-0.673-6.618-1.795
			C174.906,30.53,174.457,31.091,174.793,31.315L174.793,31.315z"/>
	</g>
</g>
<g>
	<g>
		<path fill="#B3B3B3" d="M165.161,175.405c0.413,3.407,0.413,6.711,0.723,10.118c0.207,1.96,0.104,3.923,0.413,5.885
			c0.207,1.444,0.826,2.374,2.375,2.477c1.857,0.104,3.923-0.516,5.781-0.928c2.581-0.62,5.162-0.724,7.743-0.724
			c2.064,0,4.13-0.309,6.194-0.619c1.033-0.206,3.304-0.31,3.718-1.549c0.412-1.342-0.207-3.303-0.62-4.646
			c-0.31-1.444-0.826-2.787-1.136-4.232c-0.619-2.271-1.548-4.337-2.271-6.504c-0.412-1.239-0.207-2.994-1.032-4.13
			c-1.032-1.239-3.2-1.239-4.646-1.239c-4.232,0.206-8.363,1.858-12.493,2.581c-1.341,0.207-2.685,0.413-3.717,1.239
			c-1.135,0.929-1.032,2.684-0.825,4.025c0.104,0.414,0.723,0.208,0.619-0.205c-0.104-1.033-0.206-2.271,0.413-3.098
			c0.516-0.723,1.549-0.93,2.374-1.136c2.271-0.517,4.543-0.929,6.814-1.445c2.685-0.723,5.369-1.446,8.156-1.343
			c1.032,0,2.478,0.206,3.097,1.137c0.517,0.723,0.413,1.857,0.62,2.684c0.517,2.686,1.858,5.06,2.478,7.641
			c0.413,1.755,0.93,3.406,1.344,5.162c0.205,0.826,0.411,1.755,0.411,2.581c0,0.929-0.411,1.135-1.238,1.444
			c-1.651,0.517-3.407,0.62-5.163,0.827c-3.303,0.412-6.606,0-10.014,0.722c-2.168,0.413-4.75,1.445-7.021,1.032
			c-1.136-0.205-1.136-1.961-1.238-2.891c-0.104-1.135-0.104-2.374-0.104-3.509c-0.103-1.756-0.31-3.512-0.412-5.369
			c-0.104-2.065-0.207-4.026-0.413-6.092C165.678,174.992,165.059,174.992,165.161,175.405L165.161,175.405z"/>
	</g>
</g>
<g>
	<g>
		<path fill="#B3B3B3" d="M173.524,171.688c0,1.548,0.723,3.097,1.239,4.542c0.412,1.343,1.342,3.305-0.207,4.232
			c-1.239,0.827-2.891,0.931-4.233,1.137c-1.342,0.206-2.684,0.31-3.923,0.619c-0.413,0.104-0.207,0.723,0.206,0.619
			c1.446-0.412,2.891-0.516,4.439-0.722c1.343-0.207,3.098-0.413,4.233-1.344c1.032-0.825,0.826-2.167,0.517-3.405
			c-0.517-1.859-1.652-3.821-1.652-5.782C174.144,171.275,173.524,171.275,173.524,171.688L173.524,171.688z"/>
	</g>
</g>
<g>
	<g>
		<path fill="#B3B3B3" d="M166.297,186.658c1.858,0,3.717-0.207,5.473-0.412c1.445-0.104,2.89-0.207,4.336-0.414
			c0.929-0.206,1.444,1.24,1.756,1.963c0.412,1.238,0.619,2.477,0.722,3.819c0,0.413,0.723,0.413,0.62,0
			c-0.207-1.445-0.31-2.787-0.826-4.131c-0.206-0.619-0.827-1.96-1.549-2.167c-0.311-0.103-0.62,0-0.826,0
			c-1.032,0.207-2.065,0.207-2.994,0.31c-2.169,0.206-4.438,0.516-6.607,0.516C165.884,186.039,165.884,186.658,166.297,186.658
			L166.297,186.658z"/>
	</g>
</g>
<g>
	<g>
		<path fill="#B3B3B3" d="M182.609,191.614c-0.103-2.375-1.135-4.646-1.756-7.021c-0.103,0.104-0.103,0.206-0.206,0.413
			c2.685-1.032,5.575-1.962,8.467-2.169c0.413,0,0.413-0.619,0-0.619c-2.994,0.207-5.886,1.136-8.673,2.168
			c-0.206,0.104-0.311,0.207-0.206,0.413c0.618,2.272,1.651,4.439,1.651,6.814C181.99,192.027,182.609,192.027,182.609,191.614
			L182.609,191.614z"/>
	</g>
</g>
<g>
	<g>
		<path fill="#B3B3B3" d="M176.931,171.069c-0.103,1.342,0.414,2.787,0.724,4.025c0.412,1.549,0.826,3.098,1.444,4.543
			c0.517,1.033,1.755,0.825,2.788,0.724c1.858-0.31,3.718-0.93,5.575-1.239c0.412,0,0.412-0.723,0-0.619
			c-1.445,0.205-2.89,0.619-4.336,0.929c-0.826,0.206-1.651,0.309-2.375,0.309c-0.62,0-0.929-0.103-1.136-0.618
			c-0.619-1.342-1.032-2.788-1.342-4.233c-0.31-1.238-0.826-2.581-0.724-3.923C177.55,170.656,176.931,170.656,176.931,171.069
			L176.931,171.069z"/>
	</g>
</g>
<g>
	<g>
		<path fill="#B3B3B3" d="M188.907,182.838c0.207,0,0.413,0,0.723,0c0.413,0,0.413-0.619,0-0.619c-0.206,0-0.412,0-0.723,0
			C188.495,182.219,188.495,182.838,188.907,182.838L188.907,182.838z"/>
	</g>
</g>
<g>
	<g>
		<path fill="#B3B3B3" d="M186.842,179.122c0.413,0,0.827,0,1.137,0c0.309,0,0.412-0.619,0-0.619c-0.414,0-0.826,0-1.137,0
			C186.43,178.503,186.43,179.122,186.842,179.122L186.842,179.122z"/>
	</g>
</g>
<g>
	<g>
		<path fill="#B3B3B3" d="M188.907,178.09c-0.206,0-0.412,0-0.722,0c-0.414,0-0.414,0.618,0,0.618c0.205,0,0.411,0,0.722,0
			C189.218,178.813,189.218,178.09,188.907,178.09L188.907,178.09z"/>
	</g>
</g>
<g>
	<g>
		<path fill="#B3B3B3" d="M177.24,170.448c1.343-3.199-2.684-6.503-5.678-5.161c-3.098,1.343,1.136,4.129,1.858,5.575
			c0.206,0.31,0.723,0,0.516-0.31c-0.516-1.033-3.51-2.891-2.891-4.233c0.31-0.619,1.343-0.723,1.962-0.826
			c0.723,0,1.445,0.31,2.065,0.621c1.342,0.825,2.167,2.477,1.548,4.129C176.415,170.656,177.034,170.76,177.24,170.448
			L177.24,170.448z"/>
	</g>
</g>
<g>
	<g>
		<path fill="#B3B3B3" d="M174.453,165.803c0.62-0.103,1.239-0.619,1.755-0.929c0.93-0.723,1.963-1.342,2.891-2.064
			c1.032-0.724,2.169-1.342,3.305-1.962c0.825-0.412,2.064-0.929,2.994-0.517c1.032,0.517,0.929,2.271,0.825,3.201
			c-0.103,1.651-1.239,2.787-2.787,3.407c-2.065,0.825-5.162,0.825-6.195,3.199c-0.103,0.414,0.414,0.518,0.621,0.208
			c0.619-1.343,2.167-1.756,3.509-2.168c1.239-0.311,2.685-0.62,3.821-1.446c1.238-0.93,1.65-2.374,1.65-3.82
			c0-1.032-0.103-2.271-1.032-2.993c-1.651-1.239-4.646,0.722-5.987,1.651c-1.136,0.723-2.272,1.549-3.407,2.375
			c-0.619,0.413-1.445,1.238-2.168,1.342C173.937,165.184,174.04,165.803,174.453,165.803L174.453,165.803z"/>
	</g>
</g>
<g>
	<g>
		<path fill="#B3B3B3" d="M171.46,165.803c-1.343-1.961-3.718-3.407-5.679-4.542c-1.342-0.825-4.439-2.479-5.679-0.62
			c-0.62,1.032-0.207,2.686,0.207,3.718c0.517,1.548,1.651,2.684,2.993,3.613c2.788,1.961,6.607,2.581,10.015,2.685
			c0.413,0,0.413-0.619,0-0.619c-2.994,0-5.987-0.518-8.672-1.963c-1.343-0.723-2.478-1.755-3.304-3.097
			c-0.62-1.032-1.137-2.892-0.62-4.026c0.826-1.652,4.439,0.517,5.369,1.135c1.755,1.033,3.819,2.272,4.955,4.028
			C171.15,166.423,171.666,166.114,171.46,165.803L171.46,165.803z"/>
	</g>
</g>
<g>
	<g>
		<path fill="#B3B3B3" d="M31.668,99.113c2.688-3.322,5.79-5.874,8.621-9.04c1.575-1.728,3.443-3.438,5.016-5.163
			c1.104-1.299,1.469-2.777,0.339-4.322c-1.414-1.856-3.749-3.16-5.49-4.431c-2.605-1.912-4.904-4.104-7.045-6.442
			c-1.711-1.869-3.734-3.455-5.602-5.184c-1.011-0.792-3.025-2.674-4.399-1.987c-1.677,0.673-2.82,2.867-3.779,4.318
			c-0.963,1.455-1.783,3.065-2.742,4.516c-1.6,2.324-2.611,4.971-4.069,7.45c-0.804,1.31-2.66,2.723-2.882,4.359
			c-0.236,1.934,1.619,3.959,2.76,5.206c3.723,3.754,8.706,6.068,12.755,9.238c1.295,1.103,2.594,2.207,4.229,2.428
			c1.935,0.234,3.193-1.205,4.298-2.502c0.312-0.286-0.417-0.766-0.727-0.481c-0.791,1.012-1.884,2.013-3.232,2.104
			c-1.052,0.102-2.064-0.689-2.933-1.327c-2.323-1.6-4.489-3.338-7.111-4.949c-2.763-1.768-5.668-3.69-7.952-6.186
			c-0.857-0.936-1.841-2.323-1.634-3.661c0.195-1.04,1.285-2.038,1.922-2.906c1.91-2.608,2.951-5.853,4.717-8.617
			c1.131-1.894,2.261-3.788,3.534-5.527c0.636-0.87,1.273-1.739,2.053-2.453c0.934-0.855,1.375-0.686,2.244-0.048
			c1.896,1.129,3.478,2.545,5.06,3.962c3.179,2.53,5.564,6.077,8.9,8.467c2.324,1.599,5.399,3.08,6.784,5.534
			c0.702,1.079-0.869,2.804-1.648,3.518c-0.948,1.153-2.182,1.998-2.975,3.008c-1.559,1.428-2.987,3.307-4.546,4.734
			c-1.727,1.869-3.598,3.582-5.026,5.463C30.628,98.918,31.199,99.542,31.668,99.113L31.668,99.113z"/>
	</g>
</g>
<g>
	<g>
		<path fill="#B3B3B3" d="M21.245,94.617c1.403-1.285,2.235-3.193,3.212-4.944c0.815-1.608,1.817-3.958,4.038-3.412
			c1.777,0.376,3.359,1.792,4.657,2.898c1.297,1.104,2.451,2.055,3.906,3.013c0.44,0.171,0.768-0.414,0.48-0.728
			c-1.453-0.958-2.894-2.219-4.333-3.48c-1.297-1.104-3.037-2.375-4.816-2.753c-1.635-0.221-2.737,1.074-3.545,2.387
			c-1.286,2.036-2.145,4.539-3.714,6.266C20.363,94.277,20.935,94.901,21.245,94.617L21.245,94.617z"/>
	</g>
</g>
<g>
	<g>
		<path fill="#B3B3B3" d="M40.8,88.747c-1.57-1.715-3.156-3.129-4.88-4.7c-1.296-1.104-2.58-2.506-4.033-3.47
			c-0.872-0.634-0.195-2.401,0.442-3.27c0.806-1.308,1.91-2.607,2.856-3.761c0.314-0.288-0.256-0.91-0.57-0.623
			c-1.101,1.296-2.208,2.594-3.024,4.201c-0.481,0.729-1.004,2.352-0.744,3.258c0.287,0.314,0.429,0.469,0.713,0.779
			c1.012,0.794,1.869,1.73,2.88,2.522c2.013,1.881,4.178,3.622,6.035,5.649C40.617,89.488,41.085,89.058,40.8,88.747L40.8,88.747z"
			/>
	</g>
</g>
<g>
	<g>
		<path fill="#B3B3B3" d="M31.761,69.805c-2.179,1.996-3.349,4.787-4.962,7.408c0.155-0.142,0.299,0.015,0.457-0.13
			c-3.222-1.636-6.427-3.572-9.162-5.936c-0.287-0.314-0.911,0.257-0.624,0.571c2.58,2.506,5.943,4.298,9.304,6.092
			c0.142,0.155,0.44,0.168,0.453-0.13c1.599-2.323,2.767-5.113,4.807-7.266C32.645,70.14,32.075,69.518,31.761,69.805L31.761,69.805
			z"/>
	</g>
</g>
<g>
	<g>
		<path fill="#B3B3B3" d="M17.769,92.07c1.389-0.986,2.21-2.595,3.168-4.048c1.119-1.596,2.093-3.349,2.77-5.113
			c0.508-1.324-0.648-2.272-1.662-3.064c-1.879-1.429-4.072-2.572-5.797-4.144c-0.287-0.313-0.911,0.258-0.624,0.571
			c1.438,1.26,3.048,2.078,4.501,3.041c0.871,0.636,1.597,1.115,2.31,1.894c0.57,0.623,0.713,0.78,0.375,1.663
			c-0.677,1.767-1.637,3.216-2.755,4.814c-0.806,1.311-1.624,2.919-3.016,3.905C16.885,91.731,17.457,92.355,17.769,92.07
			L17.769,92.07z"/>
	</g>
</g>
<g>
	<g>
		<path fill="#B3B3B3" d="M17.017,92.187c-4.104,1.464-3.783,7.761,0.032,9.422c3.816,1.664,2.743-4.515,3.573-6.423
			c0.17-0.44-0.571-0.624-0.74-0.181c-0.506,1.322,0.206,5.542-1.314,6.075c-0.752,0.115-1.766-0.678-2.349-1
			c-0.571-0.624-0.83-1.535-1.09-2.443c-0.36-1.958,0.485-4.165,2.458-4.827C17.886,92.824,17.47,92.058,17.017,92.187
			L17.017,92.187z"/>
	</g>
</g>
<g>
	<g>
		<path fill="#B3B3B3" d="M14.935,98.676c-0.727-0.481-1.622-0.521-2.361-0.703c-1.48-0.362-2.816-0.572-4.295-0.938
			c-1.481-0.364-2.96-0.728-4.426-1.39c-1.025-0.494-2.65-1.015-2.895-2.224c-0.389-1.362,1.313-2.634,2.248-3.491
			c1.702-1.27,3.494-1.189,5.401-0.359c2.492,1.157,5.06,3.963,8.098,2.901c0.454-0.13,0.038-0.896-0.415-0.768
			c-1.677,0.675-3.414-0.6-4.726-1.402c-1.31-0.808-2.905-1.924-4.541-2.146c-1.936-0.235-3.465,0.595-4.856,1.581
			c-0.935,0.855-1.882,2.011-1.791,3.36c0.334,2.56,4.474,3.637,6.396,4.172c1.62,0.519,3.255,0.74,5.035,1.12
			c0.74,0.178,2.233,0.244,3.102,0.881C15.04,99.727,15.52,99,14.935,98.676L14.935,98.676z"/>
	</g>
</g>
<g>
	<g>
		<path fill="#B3B3B3" d="M17.66,101.338c-0.574,2.816,0.023,6.283,0.656,8.854c0.363,1.961,1.371,6.191,4.087,5.715
			c1.506-0.234,2.48-1.986,3.13-3.154c0.974-1.75,1.066-3.842,0.846-5.646c-0.414-4.203-3.228-8.219-5.938-11.179
			c-0.286-0.312-0.91,0.259-0.624,0.571c2.426,2.649,4.527,5.883,5.42,9.362c0.518,1.818,0.582,3.766-0.096,5.529
			c-0.208,1.338-1.337,3.234-2.856,3.762c-2.272,0.648-3.242-4.479-3.333-5.828c-0.491-2.414-1.112-5.285-0.553-7.803
			C18.413,101.223,17.828,100.896,17.66,101.338L17.66,101.338z"/>
	</g>
</g>
</svg>
