<?xml version="1.0" encoding="utf-8"?>
<!-- Generator: Adobe Illustrator 16.0.0, SVG Export Plug-In . SVG Version: 6.00 Build 0)  -->
<!DOCTYPE svg PUBLIC "-//W3C//DTD SVG 1.1//EN" "http://www.w3.org/Graphics/SVG/1.1/DTD/svg11.dtd">
<svg version="1.1" id="Layer_1" xmlns="http://www.w3.org/2000/svg" xmlns:xlink="http://www.w3.org/1999/xlink" x="0px" y="0px"
	 width="200px" height="200px" viewBox="0 0 200 200" style="enable-background:new 0 0 200 200;" xml:space="preserve">
<style type="text/css">
<![CDATA[
	.st0{fill:#B3B3B3;}
]]>
</style>
<g>
	<g>
		<path class="st0" d="M22.8,26.9c-1.1,2.8-0.2,5.9,1.1,8.4c1.3,2.3,3.3,4.8,6,5.4c2.5,0.6,5.1-0.7,7-2.3c1.9-1.7,3.7-4.1,3.8-6.7
			c0.2-3.7-2.7-7.1-5.8-8.9c-1.7-1-3.7-1.5-5.7-1.3c-2.6,0.3-4.4,2.6-6.5,3.8c-0.2,0.1,0,0.5,0.2,0.4c1.6-0.9,2.8-2.1,4.4-3
			c1.5-0.9,3.3-0.9,4.9-0.5c2.7,0.7,5.1,2.5,6.6,4.8c1.6,2.4,1.9,5.1,0.5,7.6c-1.4,2.5-3.7,4.7-6.5,5.5c-1.4,0.4-2.9,0.3-4.3-0.4
			c-1.4-0.7-2.5-2-3.4-3.3c-1.9-2.7-3.2-6.3-2-9.5C23.3,26.8,22.9,26.7,22.8,26.9L22.8,26.9z"/>
	</g>
</g>
<g>
	<g>
		<path class="st0" d="M34.5,40.1c-1.6,2.2-2.1,4.6-0.6,6.9c1.6,2.3,4.4,4.2,7.2,4.7c2.7,0.5,5.5-0.3,7.8-1.8
			c2.4-1.5,4.6-3.9,5.6-6.6c1.1-3.3-1-5.9-3.7-7.5c-3.1-1.8-6.8-2.7-10.3-3.3c-0.3-0.1-0.4,0.4-0.1,0.4c2.4,0.4,4.7,1,7,1.8
			c2.2,0.8,4.6,1.9,6.1,3.8c1.6,2.1,1,4.6-0.3,6.7c-1.7,2.6-4.4,4.8-7.4,5.8c-3.5,1.1-6.8-0.1-9.5-2.3c-1.2-1-2.3-2.3-2.6-3.8
			c-0.3-1.7,0.5-3.3,1.4-4.6C35,40.1,34.6,39.8,34.5,40.1L34.5,40.1z"/>
	</g>
</g>
<g>
	<g>
		<path class="st0" d="M52.9,46.1c1.8,1.5,3.8,2.9,5.7,4.2c0.2,0.2,0.4-0.2,0.2-0.4c-1.9-1.3-3.8-2.6-5.6-4.1
			C53,45.7,52.7,46,52.9,46.1L52.9,46.1z"/>
	</g>
</g>
<g>
	<g>
		<path class="st0" d="M59.5,50.2c1-1.3,1.9-2.6,2.8-4c0.1-0.2-0.2-0.5-0.4-0.2c-0.8,1.4-1.8,2.7-2.8,4
			C58.9,50.2,59.3,50.5,59.5,50.2L59.5,50.2z"/>
	</g>
</g>
<g>
	<g>
		<path class="st0" d="M47.5,50.9c2,2,4.1,3.8,6.1,5.8c0.2,0.2,0.5-0.1,0.3-0.3c-2-2-4.1-3.8-6.1-5.8C47.6,50.4,47.3,50.7,47.5,50.9
			L47.5,50.9z"/>
	</g>
</g>
<g>
	<g>
		<path class="st0" d="M53.5,56.6c-1.1,1.5-2.3,2.9-3.2,4.5c-0.1,0.2,0.2,0.4,0.4,0.2c0.9-1.6,2.1-3,3.2-4.4
			C54,56.6,53.7,56.3,53.5,56.6L53.5,56.6z"/>
	</g>
</g>
<g>
	<g>
		<path class="st0" d="M45.5,34.1c4.6,0.2,9,1.7,13.6,2c0.3,0,0.3-0.4,0-0.4c-4.6-0.3-9-1.8-13.6-2C45.3,33.7,45.3,34.1,45.5,34.1
			L45.5,34.1z"/>
	</g>
</g>
<g>
	<g>
		<path class="st0" d="M33.4,46.7C32.5,52,35,57,37.2,61.7c0.1,0.3,0.5,0,0.4-0.2c-2.1-4.6-4.7-9.5-3.8-14.7
			C33.8,46.5,33.4,46.4,33.4,46.7L33.4,46.7z"/>
	</g>
</g>
<g>
	<g>
		<path class="st0" d="M37.6,61.7c0.3-0.1,0.7-0.2,1-0.1c0.3,0,0.3-0.4,0-0.4c-0.4,0-0.8,0-1.1,0.2C37.2,61.3,37.3,61.8,37.6,61.7
			L37.6,61.7z"/>
	</g>
</g>
<g>
	<g>
		<path class="st0" d="M37.4,62.2c0.3,0.3,0.4,0.8,0.4,1.2c0,0.3,0.4,0.3,0.4,0c0-0.6-0.1-1.1-0.5-1.5C37.5,61.7,37.2,62,37.4,62.2
			L37.4,62.2z"/>
	</g>
</g>
<g>
	<g>
		<path class="st0" d="M37.7,61.7c-0.6,0-1.3,0.1-1.9,0.3c-0.3,0.1-0.2,0.5,0.1,0.4c0.6-0.2,1.2-0.3,1.8-0.3
			C38,62.1,38,61.7,37.7,61.7L37.7,61.7z"/>
	</g>
</g>
<g>
	<g>
		<path class="st0" d="M37.6,62.1c0.5-0.5,0.7-1.1,0.8-1.8c0.1-0.3-0.4-0.4-0.4-0.1c-0.1,0.6-0.3,1.1-0.7,1.6
			C37.1,62,37.4,62.3,37.6,62.1L37.6,62.1z"/>
	</g>
</g>
<g>
	<g>
		<path class="st0" d="M58.5,36.1c0.2,0.8,0.1,1.7,0.1,2.6c0,0.3,0.4,0.3,0.4,0c0-0.9,0-1.8-0.2-2.7C58.9,35.7,58.4,35.8,58.5,36.1
			L58.5,36.1z"/>
	</g>
</g>
<g>
	<g>
		<path class="st0" d="M58.8,37.1c0.3-0.3,0.8-0.2,1.2-0.1c0.3,0.1,0.4-0.3,0.1-0.4c-0.5-0.2-1.2-0.2-1.6,0.2
			C58.3,37,58.6,37.3,58.8,37.1L58.8,37.1z"/>
	</g>
</g>
<g>
	<g>
		<path class="st0" d="M58.7,36.7c0.4-0.4,0.6-0.9,0.8-1.4c0.1-0.2-0.3-0.5-0.4-0.2c-0.2,0.4-0.4,1-0.7,1.3
			C58.2,36.5,58.5,36.9,58.7,36.7L58.7,36.7z"/>
	</g>
</g>
<g>
	<g>
		<path class="st0" d="M58.8,36.8c0.5-0.5,0.8-1.1,1.1-1.7c0.1-0.2-0.3-0.5-0.4-0.2c-0.3,0.6-0.6,1.2-1,1.6
			C58.4,36.7,58.7,37,58.8,36.8L58.8,36.8z"/>
	</g>
</g>
<g>
	<g>
		<path class="st0" d="M22.7,25.8c-0.5,0.5-0.8,1.1-0.8,1.8c0,0.3,0.4,0.3,0.4,0c0-0.6,0.3-1.1,0.7-1.5
			C23.2,25.9,22.9,25.6,22.7,25.8L22.7,25.8z"/>
	</g>
</g>
<g>
	<g>
		<path class="st0" d="M30.1,21.8c-4-5.2-11.9-5.7-17.7-3.9c-3,1-5.6,2.8-7.5,5.4c-1.6,2.3-2.1,5-1.6,7.7c0.5,3.2,2.3,6.2,4.3,8.7
			c0.1,0.2,0.4,0,0.4-0.2c-0.4-1.7-0.6-3.4-0.1-5.1c0.6-1.7,2-3.1,3.4-4.2c1.5-1.2,3.3-1.7,5.2-1.7c1.8,0,3.6,0.2,5.4-0.1
			c0.3,0,0.2-0.4-0.1-0.4c-2,0.3-4,0-6,0.1c-2,0.1-3.7,0.8-5.2,2.1c-1.3,1.1-2.6,2.5-3.2,4.1c-0.6,1.7-0.4,3.6,0.1,5.3
			c0.1-0.1,0.2-0.1,0.4-0.2c-1.9-2.4-3.4-5.1-4.1-8c-0.6-3,0.1-5.9,1.8-8.3c4.2-5.6,12.7-6.9,18.9-4.6c2,0.7,3.9,2,5.2,3.7
			C29.9,22.3,30.2,22,30.1,21.8L30.1,21.8z"/>
	</g>
</g>
<g>
	<g>
		<path class="st0" d="M7.5,39.9c1,0.2,2.1,0.3,3.1,0.6c-0.1-0.1-0.1-0.2-0.2-0.3c-0.2,0.7-0.4,1.4-0.6,2.1c0.1-0.1,0.2-0.1,0.3-0.2
			c-0.6-0.2-1.1-0.3-1.7-0.5c-0.1,0-0.2,0-0.2,0.1c0,0.1-0.1,0.2,0,0.3c0,0.1,0,0.1,0.1,0.2c0.1,0.2,0.3,0-0.1,0.1
			c-0.8,0.3-1.6,0.5-2.4,0.7c-0.2,0.1-0.2,0.4,0.1,0.4c0.8-0.1,1.7-0.2,1.8-1.1c0.1-0.9-0.5-1.7-0.2-2.6c0.1-0.3-0.3-0.4-0.4-0.1
			c-0.2,0.6-0.1,1.2,0.1,1.9C7,42,7.1,42.3,7,42.6c-0.1,0.5-1,0.5-1.3,0.5c0,0.1,0,0.3,0.1,0.4c0.9-0.2,1.7-0.5,2.6-0.8
			c0.1-0.1,0.2-0.1,0.3-0.2c0-0.1-0.2-0.4-0.1-0.5c-0.1,0-0.2,0.1-0.2,0.1c0.6,0.2,1.1,0.3,1.7,0.5c0.1,0,0.2-0.1,0.3-0.2
			c0.2-0.7,0.4-1.4,0.6-2.1c0-0.1-0.1-0.2-0.2-0.3c-1-0.3-2-0.5-3.1-0.6C7.3,39.5,7.2,39.9,7.5,39.9L7.5,39.9z"/>
	</g>
</g>
<g>
	<g>
		<path class="st0" d="M24.5,32.7c0.3,2.4,2.2,3.9,4.5,4.1c2,0.2,4.3-0.8,4.7-3c0.8-5.7-7.5-4.1-9.7-1.3c-0.2,0.2,0.1,0.5,0.3,0.3
			c1.9-2.5,8.9-4.3,9,0.4c0.1,2.2-2,3.2-4,3.2c-2.2-0.1-4.1-1.5-4.3-3.7C24.9,32.4,24.5,32.4,24.5,32.7L24.5,32.7z"/>
	</g>
</g>
<g>
	<g>
		<path class="st0" d="M32,26.3c-0.9,2.5,3,4.6,4.6,2.6c0.9-1.1,0.7-2.4-0.6-3.1c-1.3-0.7-3.1-0.6-4.3,0.1
			C31.6,26.1,31.8,26.4,32,26.3c1-0.7,2.3-0.7,3.4-0.4c0.5,0.2,1,0.4,1.3,0.9c0.3,0.6,0,1.4-0.4,1.8c-1.4,1.7-4.5-0.3-3.8-2.3
			C32.5,26.2,32.1,26.1,32,26.3L32,26.3z"/>
	</g>
</g>
<g>
	<g>
		<path class="st0" d="M32.1,30.8c0.5-0.5,0.9-0.9,1.4-1.4c0.2-0.2-0.1-0.5-0.3-0.3c-0.5,0.5-0.9,0.9-1.4,1.4
			C31.6,30.7,31.9,31,32.1,30.8L32.1,30.8z"/>
	</g>
</g>
<g>
	<g>
		<path class="st0" d="M35.6,25.8c-0.4-0.8-0.7-1.6-0.7-2.5c0-0.3-0.4-0.3-0.4,0c0,1,0.3,1.9,0.8,2.7C35.4,26.3,35.8,26.1,35.6,25.8
			L35.6,25.8z"/>
	</g>
</g>
<g>
	<g>
		<path class="st0" d="M26.5,36.1c-0.6,0-1.2,0-1.8,0c-0.3,0-0.3,0.4,0,0.4c0.6,0,1.2,0,1.8,0C26.8,36.6,26.8,36.1,26.5,36.1
			L26.5,36.1z"/>
	</g>
</g>
<g>
	<g>
		<path class="st0" d="M32.1,39.4c2.7-2.7,5.3-5.5,7.2-8.8c0.1-0.2-0.2-0.5-0.4-0.2c-1.9,3.2-4.5,6-7.2,8.7
			C31.6,39.3,31.9,39.6,32.1,39.4L32.1,39.4z"/>
	</g>
</g>
<g>
	<g>
		<path class="st0" d="M30.1,33.4c0.2-0.2-0.1-0.5-0.3-0.3C29.6,33.3,29.9,33.6,30.1,33.4L30.1,33.4z"/>
	</g>
</g>
<g>
	<g>
		<path class="st0" d="M35,28.2c0.2-0.2-0.1-0.5-0.3-0.3C34.5,28.1,34.8,28.4,35,28.2L35,28.2z"/>
	</g>
</g>
<g>
	<g>
		<path class="st0" d="M38.1,49.9c5.1-0.7,9.9-2.5,14.6-4.5c0.3-0.1,0-0.5-0.2-0.4C47.8,47,43,48.8,38,49.4
			C37.7,49.5,37.8,49.9,38.1,49.9L38.1,49.9z"/>
	</g>
</g>
<g>
	<g>
		<path class="st0" d="M34.8,47.6c3.3-0.1,6.5-1.3,9.5-2.6c3.3-1.3,6.5-2.9,9.6-4.5c0.2-0.1,0-0.5-0.2-0.4c-3,1.5-6,3-9,4.3
			c-3.1,1.3-6.5,2.6-9.9,2.8C34.5,47.2,34.5,47.6,34.8,47.6L34.8,47.6z"/>
	</g>
</g>
<g>
	<g>
		<path class="st0" d="M33.1,44.5c5.1-3.1,11.4-3.8,16.1-7.5c0.2-0.2-0.1-0.5-0.3-0.3c-4.7,3.7-11,4.3-16,7.5
			C32.6,44.3,32.8,44.6,33.1,44.5L33.1,44.5z"/>
	</g>
</g>
<g>
	<g>
		<path class="st0" d="M36.7,38.4c3-0.7,5.7-2.6,8.5-3.9c0.3-0.1,0-0.5-0.2-0.4c-2.8,1.3-5.4,3.1-8.4,3.8
			C36.3,38,36.4,38.5,36.7,38.4L36.7,38.4z"/>
	</g>
</g>
<g>
	<g>
		<path class="st0" d="M78.1,173.9c0.4,3.3,0.4,6.5,0.7,9.8c0.2,1.9,0.1,3.8,0.4,5.7c0.2,1.4,0.8,2.3,2.3,2.4
			c1.8,0.1,3.8-0.5,5.6-0.9c2.5-0.6,5-0.7,7.5-0.7c2,0,4-0.3,6-0.6c1-0.2,3.2-0.3,3.6-1.5c0.4-1.3-0.2-3.2-0.6-4.5
			c-0.3-1.4-0.8-2.7-1.1-4.1c-0.6-2.2-1.5-4.2-2.2-6.3c-0.4-1.2-0.2-2.9-1-4c-1-1.2-3.1-1.2-4.5-1.2c-4.1,0.2-8.1,1.8-12.1,2.5
			c-1.3,0.2-2.6,0.4-3.6,1.2c-1.1,0.9-1,2.6-0.8,3.9c0.1,0.4,0.7,0.2,0.6-0.2c-0.1-1-0.2-2.2,0.4-3c0.5-0.7,1.5-0.9,2.3-1.1
			c2.2-0.5,4.4-0.9,6.6-1.4c2.6-0.7,5.2-1.4,7.9-1.3c1,0,2.4,0.2,3,1.1c0.5,0.7,0.4,1.8,0.6,2.6c0.5,2.6,1.8,4.9,2.4,7.4
			c0.4,1.7,0.9,3.3,1.3,5c0.2,0.8,0.4,1.7,0.4,2.5c0,0.9-0.4,1.1-1.2,1.4c-1.6,0.5-3.3,0.6-5,0.8c-3.2,0.4-6.4,0-9.7,0.7
			c-2.1,0.4-4.6,1.4-6.8,1c-1.1-0.2-1.1-1.9-1.2-2.8c-0.1-1.1-0.1-2.3-0.1-3.4c-0.1-1.7-0.3-3.4-0.4-5.2c-0.1-2-0.2-3.9-0.4-5.9
			C78.6,173.5,78,173.5,78.1,173.9L78.1,173.9z"/>
	</g>
</g>
<g>
	<g>
		<path class="st0" d="M86.2,170.3c0,1.5,0.7,3,1.2,4.4c0.4,1.3,1.3,3.2-0.2,4.1c-1.2,0.8-2.8,0.9-4.1,1.1c-1.3,0.2-2.6,0.3-3.8,0.6
			c-0.4,0.1-0.2,0.7,0.2,0.6c1.4-0.4,2.8-0.5,4.3-0.7c1.3-0.2,3-0.4,4.1-1.3c1-0.8,0.8-2.1,0.5-3.3c-0.5-1.8-1.6-3.7-1.6-5.6
			C86.8,169.9,86.2,169.9,86.2,170.3L86.2,170.3z"/>
	</g>
</g>
<g>
	<g>
		<path class="st0" d="M79.2,184.8c1.8,0,3.6-0.2,5.3-0.4c1.4-0.1,2.8-0.2,4.2-0.4c0.9-0.2,1.4,1.2,1.7,1.9c0.4,1.2,0.6,2.4,0.7,3.7
			c0,0.4,0.7,0.4,0.6,0c-0.2-1.4-0.3-2.7-0.8-4c-0.2-0.6-0.8-1.9-1.5-2.1c-0.3-0.1-0.6,0-0.8,0c-1,0.2-2,0.2-2.9,0.3
			c-2.1,0.2-4.3,0.5-6.4,0.5C78.8,184.2,78.8,184.8,79.2,184.8L79.2,184.8z"/>
	</g>
</g>
<g>
	<g>
		<path class="st0" d="M95,189.6c-0.1-2.3-1.1-4.5-1.7-6.8c-0.1,0.1-0.1,0.2-0.2,0.4c2.6-1,5.4-1.9,8.2-2.1c0.4,0,0.4-0.6,0-0.6
			c-2.9,0.2-5.7,1.1-8.4,2.1c-0.2,0.1-0.3,0.2-0.2,0.4c0.6,2.2,1.6,4.3,1.6,6.6C94.4,190,95,190,95,189.6L95,189.6z"/>
	</g>
</g>
<g>
	<g>
		<path class="st0" d="M89.5,169.7c-0.1,1.3,0.4,2.7,0.7,3.9c0.4,1.5,0.8,3,1.4,4.4c0.5,1,1.7,0.8,2.7,0.7c1.8-0.3,3.6-0.9,5.4-1.2
			c0.4,0,0.4-0.7,0-0.6c-1.4,0.2-2.8,0.6-4.2,0.9c-0.8,0.2-1.6,0.3-2.3,0.3c-0.6,0-0.9-0.1-1.1-0.6c-0.6-1.3-1-2.7-1.3-4.1
			c-0.3-1.2-0.8-2.5-0.7-3.8C90.1,169.3,89.5,169.3,89.5,169.7L89.5,169.7z"/>
	</g>
</g>
<g>
	<g>
		<path class="st0" d="M101.1,181.1c0.2,0,0.4,0,0.7,0c0.4,0,0.4-0.6,0-0.6c-0.2,0-0.4,0-0.7,0C100.7,180.5,100.7,181.1,101.1,181.1
			L101.1,181.1z"/>
	</g>
</g>
<g>
	<g>
		<path class="st0" d="M99.1,177.5c0.4,0,0.8,0,1.1,0s0.4-0.6,0-0.6s-0.8,0-1.1,0C98.7,176.9,98.7,177.5,99.1,177.5L99.1,177.5z"/>
	</g>
</g>
<g>
	<g>
		<path class="st0" d="M101.1,176.5c-0.2,0-0.4,0-0.7,0c-0.4,0-0.4,0.6,0,0.6c0.2,0,0.4,0,0.7,0
			C101.4,177.2,101.4,176.5,101.1,176.5L101.1,176.5z"/>
	</g>
</g>
<g>
	<g>
		<path class="st0" d="M89.8,169.1c1.3-3.1-2.6-6.3-5.5-5c-3,1.3,1.1,4,1.8,5.4c0.2,0.3,0.7,0,0.5-0.3c-0.5-1-3.4-2.8-2.8-4.1
			c0.3-0.6,1.3-0.7,1.9-0.8c0.7,0,1.4,0.3,2,0.6c1.3,0.8,2.1,2.4,1.5,4C89,169.3,89.6,169.4,89.8,169.1L89.8,169.1z"/>
	</g>
</g>
<g>
	<g>
		<path class="st0" d="M87.1,164.6c0.6-0.1,1.2-0.6,1.7-0.9c0.9-0.7,1.9-1.3,2.8-2c1-0.7,2.1-1.3,3.2-1.9c0.8-0.4,2-0.9,2.9-0.5
			c1,0.5,0.9,2.2,0.8,3.1c-0.1,1.6-1.2,2.7-2.7,3.3c-2,0.8-5,0.8-6,3.1c-0.1,0.4,0.4,0.5,0.6,0.2c0.6-1.3,2.1-1.7,3.4-2.1
			c1.2-0.3,2.6-0.6,3.7-1.4c1.2-0.9,1.6-2.3,1.6-3.7c0-1-0.1-2.2-1-2.9c-1.6-1.2-4.5,0.7-5.8,1.6c-1.1,0.7-2.2,1.5-3.3,2.3
			c-0.6,0.4-1.4,1.2-2.1,1.3C86.6,164,86.7,164.6,87.1,164.6L87.1,164.6z"/>
	</g>
</g>
<g>
	<g>
		<path class="st0" d="M84.2,164.6c-1.3-1.9-3.6-3.3-5.5-4.4c-1.3-0.8-4.3-2.4-5.5-0.6c-0.6,1-0.2,2.6,0.2,3.6
			c0.5,1.5,1.6,2.6,2.9,3.5c2.7,1.9,6.4,2.5,9.7,2.6c0.4,0,0.4-0.6,0-0.6c-2.9,0-5.8-0.5-8.4-1.9c-1.3-0.7-2.4-1.7-3.2-3
			c-0.6-1-1.1-2.8-0.6-3.9c0.8-1.6,4.3,0.5,5.2,1.1c1.7,1,3.7,2.2,4.8,3.9C83.9,165.2,84.4,164.9,84.2,164.6L84.2,164.6z"/>
	</g>
</g>
<g>
	<g>
		<path class="st0" d="M39.7,127.8c-3.9-1.9-8.5-2.2-11.9,0.9c-2.8,2.6-3.9,6.8-3.4,10.5c0.5,3.9,3,7.2,6.8,8.3
			c2.7,0.8,6.1,0.6,8.3-1.2c2.4-1.9,2.4-5.5,2.3-8.3c0-1-0.1-1.9-0.1-2.9c0-1,0.2-2,0.2-3c0-1.7-0.3-3.5-1.9-4.4
			c-0.3-0.1-0.5,0.3-0.2,0.4c2.8,1.6,1.3,5.6,1.5,8.2c0.2,3,0.5,7.1-1.9,9.4c-2.2,2.2-6.2,2-8.9,1c-1.9-0.7-3.5-2.1-4.5-3.8
			c-2-3.4-1.7-7.9,0.1-11.4c0.9-1.7,2.3-3.1,4-4c2-1,4.3-1,6.4-0.4c1,0.2,1.9,0.6,2.8,1.1C39.7,128.3,40,127.9,39.7,127.8
			L39.7,127.8z"/>
	</g>
</g>
<g>
	<g>
		<path class="st0" d="M30.6,126.9c2.5-4.7,5.8-9.7,10.6-12.4c2.5-1.4,5.2-1.6,7.8-0.5c2.7,1.3,3.8,3.8,3.7,6.7
			c-0.1,4.3-2.1,8.3-3.3,12.3c0.2,0,0.3,0.1,0.5,0.1c0.5-3.9-0.8-8.8-4.8-10.3c-1.3-0.5-2.6-0.1-3.5,0.9c-1.1,1.3-1.2,3.2-1,4.9
			c0.1,0.3,0.5,0.3,0.5,0c-0.2-1.4-0.1-2.9,0.6-4.2c0.8-1.3,2.2-1.6,3.5-1c3.6,1.6,4.7,6.1,4.2,9.7c0,0.3,0.4,0.4,0.5,0.1
			c0.8-2.6,1.8-5.1,2.5-7.7c0.7-2.5,1.2-5.3,0.4-7.9c-0.8-2.5-3.1-4.1-5.5-4.7c-2.5-0.6-5,0.2-7.1,1.5c-4.5,2.8-7.6,7.6-10.1,12.1
			C30,126.9,30.4,127.1,30.6,126.9L30.6,126.9z"/>
	</g>
</g>
<g>
	<g>
		<path class="st0" d="M49.3,132.2c-1.3-0.1-2.6,0-3,1.4c0,0.1,0,0.2,0.1,0.3c0.6,0.3,1.1,0.9,1.8,1.2c0-0.1,0-0.3-0.1-0.4
			c-0.2,0.2-0.8,0.3-0.6,0.8c0.3,0.5,0.8,0.8,1.2,1.1c0.5,0.4,1.3,0.6,1.9,0.3c0.6-0.3,0.7-1.1,0.6-1.6c-0.1-1-0.8-1.9-1.5-2.6
			c-0.2-0.2-0.6,0.1-0.3,0.3c0.7,0.7,2,2.2,1.2,3.3c-0.3,0.4-0.9,0.3-1.3,0.1c-0.3-0.2-0.6-0.4-0.9-0.7c-0.1-0.1-0.6-0.4-0.3-0.5
			c0.1-0.1,0.2-0.1,0.3-0.2c0.1-0.1,0.1-0.3-0.1-0.4c-0.6-0.4-1.1-0.9-1.8-1.2c0,0.1,0.1,0.2,0.1,0.3c0.4-1.1,1.5-1.1,2.5-1
			C49.5,132.7,49.6,132.2,49.3,132.2L49.3,132.2z"/>
	</g>
</g>
<g>
	<g>
		<path class="st0" d="M29.1,128.6c-1.7,0.8-2.6,2.7-1.9,4.5c0.8,1.8,3.2,2.1,4.8,1.5c1.5-0.6,1.9-2.2,1.3-3.6
			c-0.7-1.7-2.4-2.8-4.2-2.9c-0.3,0-0.3,0.5,0,0.5c1.5,0,2.8,0.9,3.5,2.2c0.7,1.1,0.6,2.6-0.6,3.3c-1.4,0.9-3.6,0.5-4.5-1
			c-0.9-1.6,0.2-3.3,1.6-4C29.6,128.9,29.4,128.5,29.1,128.6L29.1,128.6z"/>
	</g>
</g>
<g>
	<g>
		<path class="st0" d="M36.1,132.1c-2,0.8-3.4,2.5-2.4,4.6c0.8,1.7,2.9,3.1,4.9,2.7c2.2-0.4,3.5-2.7,2.6-4.7
			c-0.9-1.9-3.2-3.5-5.4-3.4c-0.3,0-0.3,0.5,0,0.5c1.9-0.1,3.7,1.1,4.7,2.6c1.2,1.8,0.2,4-1.9,4.5c-1.7,0.4-3.4-0.8-4.3-2.1
			c-0.4-0.7-0.6-1.5-0.4-2.3c0.3-1,1.4-1.6,2.3-2C36.5,132.4,36.4,132,36.1,132.1L36.1,132.1z"/>
	</g>
</g>
<g>
	<g>
		<path class="st0" d="M27.1,141.8c4.6,1.1,9.3,1.3,14,1.4c0.3,0,0.3-0.5,0-0.5c-4.7,0-9.3-0.3-13.9-1.4
			C26.9,141.3,26.8,141.8,27.1,141.8L27.1,141.8z"/>
	</g>
</g>
<g>
	<g>
		<path class="st0" d="M30.1,132.2c0.3,0.1,0.5-0.3,0.2-0.4C30,131.7,29.8,132.1,30.1,132.2L30.1,132.2z"/>
	</g>
</g>
<g>
	<g>
		<path class="st0" d="M30.1,132.2c0.3,0.1,0.5-0.3,0.2-0.4C30,131.7,29.8,132.1,30.1,132.2L30.1,132.2z"/>
	</g>
</g>
<g>
	<g>
		<path class="st0" d="M37.6,137.1c0.3,0.1,0.5-0.3,0.2-0.4C37.6,136.5,37.4,137,37.6,137.1L37.6,137.1z"/>
	</g>
</g>
<g>
	<g>
		<path class="st0" d="M37.6,137.1c0.3,0.1,0.5-0.3,0.2-0.4C37.6,136.5,37.4,137,37.6,137.1L37.6,137.1z"/>
	</g>
</g>
<g>
	<g>
		<path class="st0" d="M29.7,146.9c-3.4,2.1-5.1,6-6.7,9.5c-0.8,1.8-1.6,3.6-2.6,5.3c-0.8,1.2-1.8,2.6-1.5,4.1
			c0.2,1.1,1.3,1.5,2.2,1.9c1.4,0.6,2.8,1,4.2,1.3c2.2,0.6,4.7,1.3,6.9,0.6c4-1.3,6-6.2,7-9.9c1.2-4.2,1.7-9.2,0.6-13.5
			c-0.1-0.3-0.5-0.2-0.4,0.1c0.7,2.5,0.6,5.1,0.4,7.7c-0.3,3-0.9,6-2.1,8.8c-1,2.3-2.4,4.7-4.7,5.9c-2.2,1.2-4.8,0.4-7-0.1
			c-1.9-0.4-3.9-0.9-5.6-1.8c-2.4-1.2-0.2-3.9,0.7-5.5c2.8-4.7,4-10.9,8.9-14C30.2,147.1,30,146.7,29.7,146.9L29.7,146.9z"/>
	</g>
</g>
<g>
	<g>
		<path class="st0" d="M20.2,163.2c0.4,1.3,1,2.4,1.6,3.6c0.1,0.3,0.5,0,0.4-0.2c-0.5-1.1-1.2-2.3-1.5-3.5
			C20.5,162.8,20.1,162.9,20.2,163.2L20.2,163.2z"/>
	</g>
</g>
<g>
	<g>
		<path class="st0" d="M22.5,158.8c0.4,3,2,5.7,2.3,8.7c0,0.3,0.5,0.3,0.5,0c-0.3-3-1.8-5.7-2.3-8.7
			C22.9,158.5,22.5,158.5,22.5,158.8L22.5,158.8z"/>
	</g>
</g>
<g>
	<g>
		<path class="st0" d="M25,153.1c-0.4,5.1,1.1,10.1,1.7,15.1c0,0.3,0.5,0.3,0.5,0c-0.6-5-2.1-10-1.7-15.1
			C25.5,152.8,25,152.9,25,153.1L25,153.1z"/>
	</g>
</g>
<g>
	<g>
		<path class="st0" d="M26.9,149.6c-0.6,6.8,1.7,13.6,3.1,20.2c0.1,0.3,0.5,0.2,0.4-0.1c-1.4-6.5-3.7-13.3-3.1-20
			C27.4,149.3,26.9,149.3,26.9,149.6L26.9,149.6z"/>
	</g>
</g>
<g>
	<g>
		<path class="st0" d="M28.5,148c-0.8,3.3,0.1,6.9,1.1,10.1c1.1,3.4,2.5,6.8,4.3,9.9c0.2,0.3,0.6,0,0.4-0.2
			c-1.7-2.9-3.1-6.1-4.1-9.3c-1-3.2-2-6.9-1.2-10.2C29.1,147.9,28.6,147.7,28.5,148L28.5,148z"/>
	</g>
</g>
<g>
	<g>
		<path class="st0" d="M31.3,147.4c0.3,5.9,2.4,11.6,4.9,16.9c0.1,0.3,0.5,0,0.4-0.2c-2.5-5.2-4.5-10.9-4.8-16.7
			C31.7,147.1,31.3,147.2,31.3,147.4L31.3,147.4z"/>
	</g>
</g>
<g>
	<g>
		<path class="st0" d="M33.3,148.3c0.4,2.2,0.9,4.3,1.7,6.3c0.8,2,1.8,3.9,2.8,5.8c0.1,0.3,0.5,0,0.4-0.2c-1-1.8-2-3.7-2.8-5.7
			c-0.8-2-1.3-4.2-1.7-6.3C33.7,147.9,33.2,148,33.3,148.3L33.3,148.3z"/>
	</g>
</g>
<g>
	<g>
		<path class="st0" d="M36.2,148.3c0.9,2.4,1.1,5.1,3,7c0.2,0.2,0.5-0.1,0.3-0.3c-1.8-1.8-2-4.5-2.9-6.8
			C36.6,147.9,36.1,148,36.2,148.3L36.2,148.3z"/>
	</g>
</g>
<g>
	<g>
		<path class="st0" d="M21.9,168.3c-0.7,3.1-2.3,5.8-3.8,8.6c-0.1,0.3,0.3,0.5,0.4,0.2c1.5-2.8,3.2-5.5,3.9-8.7
			C22.4,168.1,21.9,168,21.9,168.3L21.9,168.3z"/>
	</g>
</g>
<g>
	<g>
		<path class="st0" d="M18.4,177.3c-0.9-0.5-1.8-1-2.7-1.5c-0.3-0.1-0.5,0.3-0.2,0.4c0.9,0.5,1.8,1,2.7,1.5
			C18.4,177.8,18.6,177.4,18.4,177.3L18.4,177.3z"/>
	</g>
</g>
<g>
	<g>
		<path class="st0" d="M28.9,170.2c-0.9,3.6-2.7,6.9-3.1,10.6c0,0.3,0.4,0.4,0.5,0.1c0.4-3.7,2.2-7.1,3.1-10.6
			C29.4,170,29,169.9,28.9,170.2L28.9,170.2z"/>
	</g>
</g>
<g>
	<g>
		<path class="st0" d="M25.9,181.1c-0.8-0.4-1.8-0.5-2.7-0.6c-0.3-0.1-0.4,0.4-0.1,0.5c0.9,0.1,1.8,0.2,2.6,0.6
			C26,181.6,26.2,181.2,25.9,181.1L25.9,181.1z"/>
	</g>
</g>
<g>
	<g>
		<path class="st0" d="M24.1,152.6c-4.3-1.2-8.2,1.7-12,3.2c-0.3,0.1-0.1,0.6,0.1,0.4c3.7-1.5,7.6-4.3,11.8-3.2
			C24.3,153.1,24.4,152.6,24.1,152.6L24.1,152.6z"/>
	</g>
</g>
<g>
	<g>
		<path class="st0" d="M39.4,156.8c3.2,5.3,3.4,11.8,3.9,17.8c0,0.3,0.5,0.3,0.5,0c-0.6-6.1-0.8-12.6-4-18
			C39.7,156.3,39.3,156.5,39.4,156.8L39.4,156.8z"/>
	</g>
</g>
<g>
	<g>
		<path class="st0" d="M42.5,174.2c-0.3,0.5-0.7,0.8-1.3,1c-0.3,0.1-0.2,0.5,0.1,0.4c0.7-0.2,1.2-0.6,1.5-1.2
			C43,174.2,42.6,173.9,42.5,174.2L42.5,174.2z"/>
	</g>
</g>
<g>
	<g>
		<path class="st0" d="M42.9,174c0.1,0.8,0.4,1.5,0.7,2.3c0.1,0.3,0.5,0.2,0.4-0.1c-0.2-0.7-0.6-1.4-0.7-2.2
			C43.3,173.7,42.8,173.7,42.9,174L42.9,174z"/>
	</g>
</g>
<g>
	<g>
		<path class="st0" d="M42.9,174.4c0.6,0.3,1.2,0.4,1.8,0.4c0.3,0,0.3-0.5,0-0.5c-0.6,0-1.1-0.1-1.5-0.3
			C42.8,173.9,42.6,174.3,42.9,174.4L42.9,174.4z"/>
	</g>
</g>
<g>
	<g>
		<path class="st0" d="M12.9,156.1c-0.3,0.6-0.4,1.2-0.4,1.8c0,0.3,0.5,0.3,0.5,0c0-0.6,0.1-1.1,0.3-1.5
			C13.5,156.1,13.1,155.9,12.9,156.1L12.9,156.1z"/>
	</g>
</g>
<g>
	<g>
		<path class="st0" d="M12.2,156c-0.7-0.4-1.4-0.5-2.2-0.3c-0.3,0.1-0.2,0.5,0.1,0.4c0.6-0.2,1.3,0,1.8,0.2
			C12.2,156.6,12.5,156.1,12.2,156L12.2,156z"/>
	</g>
</g>
<g>
	<g>
		<path class="st0" d="M12.1,155.7c0.3-0.6,0.5-1.2,0.4-1.9c-0.1-0.3-0.5-0.2-0.4,0.1c0.1,0.5-0.1,1-0.3,1.5
			C11.5,155.7,11.9,156,12.1,155.7L12.1,155.7z"/>
	</g>
</g>
<g>
	<g>
		<path class="st0" d="M43.4,173.9c0.2-0.3,0.4-0.7,0.6-1c0.1-0.3-0.3-0.5-0.4-0.2c-0.2,0.3-0.4,0.7-0.6,1
			C42.9,174,43.3,174.2,43.4,173.9L43.4,173.9z"/>
	</g>
</g>
<g>
	<g>
		<path class="st0" d="M11.9,156.1c-0.2,0.5-0.3,1.1-0.3,1.6c0,0.3,0.5,0.3,0.5,0c0-0.5,0-0.9,0.2-1.3
			C12.4,156.1,12,155.8,11.9,156.1L11.9,156.1z"/>
	</g>
</g>
<g>
	<g>
		<path class="st0" d="M182,153c-4.3-2.2-9.3-0.6-12.3,3.1c-1.3,1.5-2.1,3.5-2.1,5.5c0,2.1,1.2,3.8,2.9,4.9c3.7,2.4,8.6,2,11.3-1.6
			c2.6-3.5,2.5-8.7,0-12.2c-0.2-0.3-0.6,0-0.4,0.3c3.1,4.4,2.3,11.8-3,14.1c-2.6,1.1-5.9,0.3-8.1-1.3c-1.7-1.3-2.4-3.4-2-5.6
			c0.5-2.7,2.5-5,4.8-6.3c2.7-1.6,6-1.8,8.8-0.4C182.1,153.6,182.3,153.1,182,153L182,153z"/>
	</g>
</g>
<g>
	<g>
		<path class="st0" d="M171.6,154.2c0.4-3.3-1.2-6.7-3.1-9.3c-1.8-2.4-4.5-4.2-7.6-3.3c-2.9,0.8-5.2,3.4-6.7,5.9
			c-1.4,2.4-1.9,5.2-2.1,7.9c-0.2,2.2-0.2,4.6,0.8,6.6c0.3,0.7,0.8,1.4,1.5,1.8c0.7,0.4,1.6,0.5,2.4,0.6c2.2,0.3,4.5,0.2,6.8-0.1
			c1.4-0.2,3.6-0.3,4.6-1.5c0.2-0.2-0.2-0.6-0.4-0.3c-0.6,0.8-2,1-2.9,1.1c-1.5,0.3-3,0.4-4.5,0.4c-1.5,0-2.9,0-4.4-0.3
			c-1.3-0.2-2.1-0.7-2.7-1.9c-1.3-2.8-0.9-6.4-0.3-9.3c0.6-2.9,1.8-5.6,3.9-7.8c1.2-1.3,2.7-2.4,4.4-2.8c1.9-0.5,3.7,0.2,5.2,1.4
			c1.6,1.3,2.7,3.2,3.6,5c0.8,1.7,1.4,3.8,1.1,5.7C171.1,154.5,171.6,154.5,171.6,154.2L171.6,154.2z"/>
	</g>
</g>
<g>
	<g>
		<path class="st0" d="M152.5,152.2c-1.8-1.3-3.6-2.4-5.6-3.5c-1-0.5-2-1-3.1-1.3c-0.7-0.2-1.5-0.4-2.1-0.1
			c-0.3,0.1-0.1,0.6,0.2,0.4c0.7-0.3,1.6,0,2.2,0.2c1,0.3,2,0.8,2.9,1.4c1.8,1,3.5,2,5.1,3.2C152.4,152.7,152.7,152.3,152.5,152.2
			L152.5,152.2z"/>
	</g>
</g>
<g>
	<g>
		<path class="st0" d="M140.9,147.2c0.1,0.8,0.1,1.5,0,2.3c0,0.3,0.4,0.4,0.5,0.1c0.1-0.8,0.1-1.6,0-2.4
			C141.3,146.9,140.8,146.9,140.9,147.2L140.9,147.2z"/>
	</g>
</g>
<g>
	<g>
		<path class="st0" d="M154.6,146c-2.8-3.2-5.8-6.3-9.3-8.8c-0.3-0.2-0.6,0.2-0.3,0.4c3.4,2.5,6.5,5.5,9.2,8.7
			C154.4,146.5,154.8,146.2,154.6,146L154.6,146z"/>
	</g>
</g>
<g>
	<g>
		<path class="st0" d="M147.7,134c-0.7,1-1.5,2-2.4,2.9c-0.2,0.2,0.1,0.5,0.4,0.3c0.9-0.9,1.7-1.9,2.4-2.9
			C148.3,134,147.9,133.7,147.7,134L147.7,134z"/>
	</g>
</g>
<g>
	<g>
		<path class="st0" d="M159.3,164.6c2.8,2.9,5,6.5,8.8,8.1c0.3,0.1,0.5-0.3,0.2-0.4c-3.8-1.6-5.9-5.1-8.7-8
			C159.4,164,159.1,164.4,159.3,164.6L159.3,164.6z"/>
	</g>
</g>
<g>
	<g>
		<path class="st0" d="M167.1,142.9c4.9-0.3,9.8-0.7,14.4-2.4c0.3-0.1,0.1-0.6-0.2-0.4c-4.6,1.7-9.5,2.1-14.3,2.4
			C166.8,142.5,166.8,142.9,167.1,142.9L167.1,142.9z"/>
	</g>
</g>
<g>
	<g>
		<path class="st0" d="M181,139.8c-0.6-0.6-1.2-1.3-1.6-2c-0.2-0.3-0.6,0-0.4,0.3c0.5,0.8,1.1,1.5,1.7,2.2
			C180.9,140.4,181.2,140,181,139.8L181,139.8z"/>
	</g>
</g>
<g>
	<g>
		<path class="st0" d="M180.6,140.4c0.4,0.2,0.8,0.4,1.1,0.7c0.2,0.2,0.6,0,0.4-0.3c-0.4-0.4-0.8-0.7-1.3-0.9
			C180.5,139.8,180.3,140.3,180.6,140.4L180.6,140.4z"/>
	</g>
</g>
<g>
	<g>
		<path class="st0" d="M180.4,139.9c-0.5,0.5-0.6,1.2-0.6,1.9c0,0.3,0.5,0.3,0.5,0c0-0.5,0-1.1,0.4-1.4
			C180.9,140.1,180.6,139.7,180.4,139.9L180.4,139.9z"/>
	</g>
</g>
<g>
	<g>
		<path class="st0" d="M180.5,139c0.8,0.1,1.5-0.1,2.2-0.4c0.3-0.1,0.1-0.6-0.2-0.4c-0.6,0.2-1.2,0.4-1.9,0.4
			C180.3,138.5,180.2,139,180.5,139L180.5,139z"/>
	</g>
</g>
<g>
	<g>
		<path class="st0" d="M167.7,171.6c0.1,0.3,0,0.7,0,1c0,0.3,0.5,0.3,0.5,0c0-0.4,0.1-0.8,0-1.1
			C168.1,171.1,167.6,171.3,167.7,171.6L167.7,171.6z"/>
	</g>
</g>
<g>
	<g>
		<path class="st0" d="M168,172.3c0.6,0,1.2-0.1,1.8-0.3c0.3-0.1,0.1-0.6-0.2-0.4c-0.5,0.2-1.1,0.2-1.7,0.3
			C167.6,171.8,167.7,172.3,168,172.3L168,172.3z"/>
	</g>
</g>
<g>
	<g>
		<path class="st0" d="M168,171.3c0.2-0.4,0.3-0.8,0.2-1.2c-0.1-0.3-0.5-0.1-0.4,0.2c0.1,0.3-0.1,0.6-0.2,0.8
			C167.5,171.3,167.9,171.5,168,171.3L168,171.3z"/>
	</g>
</g>
<g>
	<g>
		<path class="st0" d="M167.4,171.1c0.1,0.9,0,1.7-0.1,2.5c0,0.3,0.4,0.4,0.5,0.1c0.1-0.9,0.2-1.8,0.1-2.7
			C167.8,170.7,167.3,170.8,167.4,171.1L167.4,171.1z"/>
	</g>
</g>
<g>
	<g>
		<path class="st0" d="M167.8,171.3c0.2,0.9,0.6,1.7,1.1,2.4c0.2,0.3,0.6,0,0.4-0.3c-0.4-0.7-0.9-1.4-1-2.2
			C168.2,170.9,167.7,171,167.8,171.3L167.8,171.3z"/>
	</g>
</g>
<g>
	<g>
		<path class="st0" d="M182.7,153.8c3.4,1.3,4.7,5.2,5.5,8.3c0.5,1.7,0.8,3.5,1,5.3c0.3,1.9,0.6,3.8,0.6,5.6c0,4.7-1.9,9.2-5.2,12.5
			c-2.7,2.7-6.6,4.9-10.4,5.7c-1.6,0.3-3.3,0.4-4.9,0.2c-2-0.2-3.8-0.9-5.8-1.3c-4.3-0.9-8.8-1.2-12.9-3.2c0,0.2,0,0.3,0,0.5
			c7.3-3,15.6-1.4,22.9-4.7c2.6-1.2,4.9-2.9,6.7-5.1c1.7-2,3.1-4.5,2.7-7.2c-0.2-1.5-1.1-2.8-2.2-3.9c-0.2-0.2-0.5,0.2-0.3,0.4
			c5.1,4.8-0.5,11.4-5,14.2c-6.8,4.2-14.9,2.9-22.3,4.9c-0.9,0.2-1.8,0.6-2.7,0.9c-0.2,0.1-0.2,0.3,0,0.5c4.3,2.2,9.2,2.4,13.8,3.5
			c2,0.5,3.9,1.1,6,1.2c1.7,0.1,3.4-0.1,5-0.6c3.5-0.9,7-3,9.6-5.6c3.1-3,4.9-7.1,5.3-11.4c0.2-2.2-0.2-4.3-0.5-6.5
			c-0.3-1.9-0.6-3.9-1.1-5.8c-0.8-3.4-2.3-7.5-5.8-8.8C182.6,153.3,182.4,153.7,182.7,153.8L182.7,153.8z"/>
	</g>
</g>
<g>
	<g>
		<path class="st0" d="M151.6,186.6c-0.3-0.7-0.8-1.4-1.2-2.1c-0.1-0.1-0.2-0.2-0.4-0.1c-0.5,0.4-1,0.9-1.4,1.4
			c-0.2,0.2-0.7,0.6-0.7,0.9c0.2,0.7,0.8,1.2,1,1.8c0,0.1,0.2,0.2,0.4,0.1c0.5-0.5,1.2-0.5,1.9-0.7c0.3-0.1,0.1-0.5-0.2-0.4
			c-0.7,0.2-1.4,0.2-2,0.7c0.1,0,0.2,0.1,0.4,0.1c-0.2-0.5-0.5-0.9-0.8-1.3c-0.3-0.5,0-0.6,0.4-1c0.4-0.5,0.8-0.9,1.3-1.3
			c-0.1,0-0.2-0.1-0.4-0.1c0.3,0.7,0.8,1.4,1.2,2.1C151.3,187.1,151.7,186.9,151.6,186.6L151.6,186.6z"/>
	</g>
</g>
<g>
	<g>
		<path class="st0" d="M167.8,144.7c0.6,4,0.6,8.1,0.5,12.2c0,0.3,0.5,0.3,0.5,0c0.1-4.1,0.1-8.1-0.5-12.2
			C168.2,144.4,167.7,144.4,167.8,144.7L167.8,144.7z"/>
	</g>
</g>
<g>
	<g>
		<path class="st0" d="M164.5,142.1c-0.3,7.2-0.9,14.3-0.8,21.5c0,0.3,0.5,0.3,0.5,0c-0.1-7.1,0.5-14.2,0.8-21.3
			C164.9,141.8,164.5,141.8,164.5,142.1L164.5,142.1z"/>
	</g>
</g>
<g>
	<g>
		<path class="st0" d="M160.3,142c-0.6,7.2,1,14.5-0.9,21.6c-0.1,0.3,0.4,0.4,0.5,0.1c1.9-7.1,0.3-14.4,0.9-21.6
			C160.7,141.8,160.3,141.7,160.3,142L160.3,142z"/>
	</g>
</g>
<g>
	<g>
		<path class="st0" d="M155.7,145c0.3,6-1,11.9-1.4,17.9c0,0.3,0.5,0.4,0.5,0.1c0.4-6,1.6-12,1.4-18
			C156.2,144.7,155.7,144.7,155.7,145L155.7,145z"/>
	</g>
</g>
<g>
	<g>
		<path class="st0" d="M157.5,144c1.6,6.4-0.3,12.8-1.4,19.1c-0.1,0.3,0.4,0.4,0.5,0.1c1.2-6.4,3.1-12.9,1.4-19.4
			C157.9,143.6,157.4,143.7,157.5,144L157.5,144z"/>
	</g>
</g>
<g>
	<g>
		<path class="st0" d="M180.6,153.4c-4.1-3-11.4,3.8-7.2,7.6c1.7,1.6,4.4,0.3,5.9-0.9c1.6-1.3,3.3-3.5,2.7-5.7
			c-0.1-0.4-0.4-0.8-0.7-1.2c-0.2-0.2-0.5,0.1-0.3,0.4c1.5,1.6,0.1,4-1.1,5.3c-1.2,1.4-3.5,2.9-5.4,2.2c-1-0.4-1.6-1.5-1.7-2.5
			c-0.1-1.2,0.5-2.3,1.3-3.2c1.5-1.7,4.3-3,6.3-1.5C180.5,153.9,180.8,153.6,180.6,153.4L180.6,153.4z"/>
	</g>
</g>
<g>
	<g>
		<path class="st0" d="M177.8,164.1c-0.9-0.8-2-1.4-3.2-1.6c-1.2-0.1-2,0.9-2,2c0,1.3,1.1,2,2.3,2c1.3,0,2.6-0.7,3-1.9
			c0.1-0.3-0.3-0.5-0.4-0.2c-0.4,1-1.4,1.6-2.4,1.6c-1.1,0.1-2.1-0.6-2-1.7c0.1-2.6,3.3-0.9,4.4,0
			C177.7,164.6,178,164.3,177.8,164.1L177.8,164.1z"/>
	</g>
</g>
<g>
	<g>
		<path class="st0" d="M171.3,156.6c-0.5,2.8-1.2,5.5-1.9,8.2c-0.1,0.3,0.4,0.4,0.5,0.1c0.7-2.7,1.4-5.4,1.9-8.2
			C171.8,156.4,171.4,156.3,171.3,156.6L171.3,156.6z"/>
	</g>
</g>
<g>
	<g>
		<path class="st0" d="M175.9,156.4c0,0.1,0,0.2,0,0.3c0,0,0,0.2,0,0.1c0-0.1,0.1-0.2,0.2-0.2c0,0,0,0,0,0c-0.1,0-0.1,0-0.2,0.1
			c-0.3,0.1-0.1,0.6,0.2,0.4c0,0,0.1,0,0,0c0,0,0,0,0.1,0c0.1,0,0.2-0.1,0.2-0.2c0-0.1,0-0.1,0-0.2c0-0.1,0-0.2,0-0.3
			c0-0.1-0.1-0.2-0.3-0.2C176,156.2,175.9,156.3,175.9,156.4L175.9,156.4z"/>
	</g>
</g>
<g>
	<g>
		<path class="st0" d="M174.2,164.8c-0.1,0.3,0.3,0.5,0.4,0.2C174.8,164.7,174.3,164.5,174.2,164.8L174.2,164.8z"/>
	</g>
</g>
<g>
	<g>
		<path class="st0" d="M174.2,164.8c-0.1,0.3,0.3,0.5,0.4,0.2C174.8,164.7,174.3,164.5,174.2,164.8L174.2,164.8z"/>
	</g>
</g>
<g>
	<g>
		<path class="st0" d="M174.3,164.6c-0.1,0.3,0.3,0.5,0.4,0.2C174.9,164.5,174.4,164.3,174.3,164.6L174.3,164.6z"/>
	</g>
</g>
<g>
	<g>
		<path class="st0" d="M174.3,164.6c-0.1,0.3,0.3,0.5,0.4,0.2C174.9,164.5,174.4,164.3,174.3,164.6L174.3,164.6z"/>
	</g>
</g>
<g>
	<g>
		<path class="st0" d="M174.3,164.6c-0.1,0.3,0.3,0.5,0.4,0.2C174.9,164.5,174.4,164.3,174.3,164.6L174.3,164.6z"/>
	</g>
</g>
<g>
	<g>
		<path class="st0" d="M106.1,73.9c2-1.6,3.2-3.7,4.2-6.1c1-2.4,1.7-4.8,1.8-7.4c0.2-5.2-2.6-9.7-6.5-12.9
			c-6.8-5.5-16.7-6.3-24.4-2.1c-0.4,0.2,0,0.8,0.3,0.6c7.3-4,16.5-3.2,23.1,1.7c4,3,6.7,7.3,6.8,12.4c0,2.6-0.7,5.1-1.7,7.4
			c-1,2.3-2.2,4.4-4.1,5.9C105.3,73.7,105.8,74.2,106.1,73.9L106.1,73.9z"/>
	</g>
</g>
<g>
	<g>
		<path class="st0" d="M82.5,45.4c-7.3,0.9-7.9,10.2-7.6,15.9c0.2,4,1.1,8.6,3.6,11.9c2.1,2.9,5.7,4.5,9.1,5.2
			c0.4,0.1,0.6-0.6,0.2-0.7c-3.4-0.7-6.6-2.1-8.7-4.9c-2.4-3-3.1-7.5-3.4-11.2c-0.5-5.2-0.1-14.7,6.8-15.6
			C82.9,46,82.9,45.3,82.5,45.4L82.5,45.4z"/>
	</g>
</g>
<g>
	<g>
		<path class="st0" d="M87.9,78.5c-3.9,0.9-6,5.8-7.5,9c-2.1,4.7-5.1,9.7-3.1,14.9c1.9,4.9,6.7,8.3,11.2,10.6
			c4.5,2.2,9.4,3.4,14.3,4.1c9.5,1.5,20.6,0.9,26.5-7.7c3.2-4.5,4.4-10.4,3.7-15.8c-0.6-4.8-2.8-8.8-6.7-11.6
			c-6.1-4.2-13.8-4.7-20-8.6c-0.4-0.2-0.7,0.4-0.3,0.6c3.9,2.4,8.4,3.6,12.7,5.1c4.4,1.5,8.9,3.6,11.5,7.7c3.1,4.9,3,11.5,1.3,16.9
			c-1.7,5.4-5.6,9.8-10.9,11.8c-4.8,1.8-10.2,1.8-15.2,1.3c-5.1-0.6-10.3-1.7-15-3.7c-5.1-2.2-10.4-5.9-12.5-11.2
			c-1.3-3.4,0-6.8,1.4-10c0.9-1.9,1.7-3.9,2.6-5.8c1.3-2.6,3.1-6.3,6.3-7C88.5,79.1,88.3,78.4,87.9,78.5L87.9,78.5z"/>
	</g>
</g>
<g>
	<g>
		<path class="st0" d="M115.5,117.9c0.8,1.6,0.7,3.3,0.9,5c0,0.4,0.7,0.4,0.7,0c-0.2-1.8-0.1-3.7-1-5.4
			C115.9,117.2,115.3,117.5,115.5,117.9L115.5,117.9z"/>
	</g>
</g>
<g>
	<g>
		<path class="st0" d="M114.4,123.8c2.3,0,4.7,0,7,0c0.4,0,0.4-0.7,0-0.7c-2.3,0-4.7,0-7,0C114,123.1,114,123.8,114.4,123.8
			L114.4,123.8z"/>
	</g>
</g>
<g>
	<g>
		<path class="st0" d="M114.1,124.3c0.3,3.3,1.1,6.4,0.9,9.7c0,0.4,0.7,0.4,0.7,0c0.2-3.3-0.6-6.5-0.9-9.7
			C114.7,123.9,114.1,123.9,114.1,124.3L114.1,124.3z"/>
	</g>
</g>
<g>
	<g>
		<path class="st0" d="M121.3,123.8c-0.6,2.7-0.2,5.5-1.1,8.1c-0.1,0.3,0.2,0.5,0.4,0.4c2.6-0.5,5.7-1.6,7.6,1.1
			c1.2,1.7-3,2.3-3.9,2.4c-2.3,0.2-7.9,1.5-8.6-1.6c-0.1-0.4-0.7-0.2-0.7,0.2c0.5,1.9,2.4,2.4,4.2,2.5c2.2,0.1,4.6-0.2,6.8-0.6
			c1.5-0.3,4-1.2,2.9-3.2c-1.7-3.1-5.6-2-8.4-1.4c0.1,0.1,0.3,0.3,0.4,0.4c0.9-2.6,0.5-5.5,1.1-8.1
			C122.1,123.5,121.4,123.4,121.3,123.8L121.3,123.8z"/>
	</g>
</g>
<g>
	<g>
		<path class="st0" d="M97.8,116.6c0,2.6-0.2,5.3-0.2,7.9c0,0.4,0.7,0.4,0.7,0c0-2.6,0.2-5.3,0.2-7.9
			C98.5,116.2,97.8,116.2,97.8,116.6L97.8,116.6z"/>
	</g>
</g>
<g>
	<g>
		<path class="st0" d="M95.2,125.6c2,0.2,4-0.2,5.9-0.1c1,0,2,0.1,2.3,1.2c0.3,1,0.1,2.3-0.1,3.4c-0.2,1.9-0.1,4.3-1.7,5.7
			c-1.4,1.3-3.8,1-5.5,1c-1.9,0-3.9,0.2-5.8,0.2c-1.1,0-2.1-1.4-1.2-2.3c0.7-0.7,1.9-1,2.8-1.2s1.9-0.2,2.8-0.1c0.5,0,1-0.1,1.3-0.5
			c1.6-1.7,0.9-4.5,0.8-6.6c0-0.4-0.7-0.4-0.7,0c0,1.4,0.4,2.9,0.1,4.4c-0.2,0.9-0.5,2-1.5,2.1c-1.9,0-3.6,0.1-5.3,1
			c-1.6,0.8-1.7,2.3-0.4,3.5c1.2,1.1,3.6,0.4,5,0.3c3.2-0.2,7.7,1,9.3-2.7c0.8-1.8,0.8-4.1,0.9-6c0.1-1.7,0-3.3-1.9-3.8
			c-2.4-0.5-4.8,0.2-7.2,0C94.8,124.9,94.8,125.5,95.2,125.6L95.2,125.6z"/>
	</g>
</g>
<g>
	<g>
		<path class="st0" d="M77.2,95.5c-0.5-2.1-2.7-3.1-4.3-4.2c-2.4-1.8-3.9-5.2-5-7.8c-1.3-3.1-2.1-6.2-2.5-9.6
			C65,70.7,65,67.4,65,64.2c0-0.4-0.7-0.4-0.7,0c0,3.2,0,6.5,0.4,9.7c0.4,3.3,1.2,6.4,2.4,9.4c1,2.6,2.3,5.1,4.1,7.3
			c1.5,1.9,4.8,2.6,5.4,5.2C76.7,96.1,77.3,95.9,77.2,95.5L77.2,95.5z"/>
	</g>
</g>
<g>
	<g>
		<path class="st0" d="M132,89.7c-0.3-8.1,5-14.8,7.5-22.1c1.2-3.6,1.7-7.5,0.6-11.1c-1.3-4.1-4.4-7.3-5.8-11.4
			c-0.1-0.4-0.8-0.2-0.7,0.2c1.3,3.9,4,7,5.5,10.8c1.6,3.9,0.8,8.2-0.5,12c-2.5,7.2-7.5,13.7-7.3,21.7C131.3,90.2,132,90.2,132,89.7
			L132,89.7z"/>
	</g>
</g>
<g>
	<g>
		<path class="st0" d="M63.8,64.5c-2-0.2-3.3-1.7-3.8-3.6c-0.1-0.4-0.7-0.2-0.7,0.2c0.5,2.2,2.1,3.8,4.4,4.1
			C64.2,65.2,64.2,64.5,63.8,64.5L63.8,64.5z"/>
	</g>
</g>
<g>
	<g>
		<path class="st0" d="M64.2,64.5c1.2-0.5,2.1-1.7,2.2-3c0-0.4-0.7-0.4-0.7,0c0,1.1-0.9,2-1.9,2.4C63.4,64,63.8,64.6,64.2,64.5
			L64.2,64.5z"/>
	</g>
</g>
<g>
	<g>
		<path class="st0" d="M64.3,64.4c-0.2-2-0.4-3.9-0.5-5.9c0-0.4-0.7-0.4-0.7,0c0,2,0.2,3.9,0.5,5.9C63.7,64.8,64.4,64.8,64.3,64.4
			L64.3,64.4z"/>
	</g>
</g>
<g>
	<g>
		<path class="st0" d="M132.7,45.4c-0.9,1.5-2.3,2.9-4.1,3.2c-0.4,0.1-0.2,0.7,0.2,0.7c2-0.3,3.5-1.9,4.5-3.6
			C133.5,45.4,132.9,45.1,132.7,45.4L132.7,45.4z"/>
	</g>
</g>
<g>
	<g>
		<path class="st0" d="M131.9,46c-0.2-1.5-0.9-2.9-1.4-4.3c-0.1-0.4-0.8-0.2-0.7,0.2c0.5,1.4,1.1,2.8,1.4,4.3
			C131.4,46.6,132,46.4,131.9,46L131.9,46z"/>
	</g>
</g>
<g>
	<g>
		<path class="st0" d="M132.5,46.4c0.8-0.5,1.3-1.3,1.5-2.2c0.1-0.4-0.5-0.6-0.7-0.2c-0.2,0.7-0.6,1.4-1.2,1.8
			C131.8,46,132.1,46.6,132.5,46.4L132.5,46.4z"/>
	</g>
</g>
<g>
	<g>
		<path class="st0" d="M76.3,51.3c-0.6,5.3-1.3,11.4,3.2,15.2c3,2.6,7.7,3.2,10.7,0.2c1.7-1.7,2.6-4.5,2.7-6.9
			c0.1-2.6-1.1-4.9-2.7-6.8c-1.2-1.6-3-2.7-4.7-3.7c-1.7-1-3.8-1.7-5.8-1.6c-1.2,0.1-2.3,0.7-3,1.8c-0.2,0.4,0.3,0.7,0.6,0.3
			c2.3-3.5,7.9-0.2,10.2,1.6c1.9,1.4,3.3,3.3,4.2,5.4c1,2.6,0.3,5.4-1,7.8C88.6,69,83.4,68.8,80,66c-4.5-3.6-3.6-9.7-3-14.7
			C77,50.8,76.4,50.8,76.3,51.3L76.3,51.3z"/>
	</g>
</g>
<g>
	<g>
		<path class="st0" d="M94.7,49.7c-1.8,3.3-0.8,6.9,1.9,9.4c2.3,2,6,3.2,8.6,1.2c3-2.3,3.1-7.2,0.8-9.9c-2.6-3.1-7.3-3.6-10.8-1.8
			c-0.1,0-0.2,0.1-0.2,0.1c-0.4,0.2,0,0.8,0.3,0.6c3.2-1.8,7.3-1.3,9.9,1.2c2.5,2.4,2.3,7.2-0.5,9.3c-2.3,1.8-5.7,0.5-7.6-1.2
			c-2.6-2.2-3.5-5.6-1.8-8.6C95.5,49.7,94.9,49.3,94.7,49.7L94.7,49.7z"/>
	</g>
</g>
<g>
	<g>
		<path class="st0" d="M101.5,55.4C101.5,55.4,101.7,55.4,101.5,55.4c0.2,0,0.2,0,0.3,0c0.2,0,0.3,0,0.5-0.1
			c0.5-0.2,0.5-0.6,0.6-1.1c0-0.2-0.2-0.4-0.4-0.3c-0.3,0.1-0.6,0.2-0.9,0.3c-0.2,0.1-0.4,0.1-0.5,0.4c0,0.1,0,0.2,0.1,0.3
			c0.1,0.1,0.2,0.1,0.3,0.1c0.4,0,0.4-0.7,0-0.7c0.1,0,0.1,0.1,0.2,0.1c0,0.1,0.1,0.2,0.1,0.3c-0.1,0.2-0.2,0.2-0.1,0.1
			c0.1,0,0.2-0.1,0.3-0.1c0.2-0.1,0.5-0.2,0.7-0.2c-0.1-0.1-0.3-0.2-0.4-0.3c0,0.2,0,0.3-0.1,0.5c0,0,0,0,0,0c0,0-0.2,0-0.1,0
			c-0.3,0-0.5,0-0.8,0.1C100.8,55,101.1,55.6,101.5,55.4L101.5,55.4z"/>
	</g>
</g>
<g>
	<g>
		<path class="st0" d="M85.8,62.8c0-0.4,0-0.8-0.3-1.2c-0.1,0.2-0.2,0.4-0.2,0.6c0.2,0,0.5,0,0.7,0c0-0.2,0-0.5,0-0.7
			c-0.6,0-1.1,0-1.7,0.2c-0.2,0.1-0.3,0.4-0.2,0.6c0.2,0.2,0.5,0.4,0.7,0.6c0.2,0.1,0.4,0.2,0.6,0.2c0,0,0.3,0.1,0.1,0c0,0,0,0,0,0
			c0.4,0.2,0.7-0.4,0.3-0.6c-0.3-0.2-0.7-0.3-1-0.5c-0.4-0.2-0.7,0.4-0.3,0.6c0,0,0,0,0.1,0c0-0.2-0.1-0.3-0.1-0.5
			c-0.1,0.2-0.2,0.3-0.2,0.5c0,0.2,0.2,0.4,0.5,0.3c0.2-0.1,0.4-0.2,0.5-0.4c0.3-0.3-0.2-0.8-0.5-0.5c0,0-0.1,0.1-0.1,0.1
			c0,0-0.1,0.1-0.1,0.1c-0.1,0.1,0,0,0.1,0c0.1,0,0.2,0.1,0.3,0.2c0,0.2,0,0.3,0,0.2c0,0,0.1-0.1,0.1-0.2c0.1-0.2,0-0.4-0.1-0.5
			c0,0,0,0-0.1,0c-0.4-0.2-0.7,0.4-0.3,0.6c0.3,0.2,0.7,0.3,1,0.5c0.4,0.2,0.7-0.4,0.3-0.6c-0.2-0.1-0.5-0.1-0.7-0.2
			c-0.2-0.1-0.5-0.3-0.7-0.5c0,0.2-0.1,0.4-0.2,0.6c0.5-0.2,1-0.2,1.5-0.2c0.4,0,0.4-0.7,0-0.7c-0.2,0-0.5,0-0.7,0
			c-0.3,0-0.4,0.4-0.2,0.6c0.1,0.2,0.1,0.5,0.1,0.7C85.1,63.2,85.8,63.2,85.8,62.8L85.8,62.8z"/>
	</g>
</g>
<g>
	<g>
		<path class="st0" d="M77.2,48.6c0-8.5,1.8-18.9,9-24.3c3.8-2.9,8.8-3.4,13.4-2.6c4.6,0.9,8.7,3.5,11.9,6.9c4.2,4.4,7,9.9,9.2,15.5
			c1,2.6,1.9,5.3,2.8,8c1.1,3.6,1.9,7.3,1.3,11.1c0.2,0,0.4,0,0.6-0.1c-2.3-3.5-4.1-7.3-6.4-10.9c-2.2-3.4-4.9-6.2-8.2-8.5
			c-5.1-3.6-13.1-7.3-17.9-1.2c-0.3,0.3,0.2,0.8,0.5,0.5c4.8-6.1,12.8-1.8,17.7,1.8c3.2,2.4,5.7,5.4,7.8,8.7c2.1,3.3,3.7,6.7,5.8,10
			c0.1,0.2,0.6,0.2,0.6-0.1c0.8-5.3-0.8-10.3-2.5-15.3c-1.5-4.5-3.3-8.8-5.7-12.8c-2.3-3.9-5.1-7.5-8.8-10.3
			c-3.6-2.8-8.1-4.2-12.6-4.3c-6.5-0.1-11.8,3.4-15,8.9c-3.3,5.7-4.2,12.6-4.3,19C76.5,49,77.2,49,77.2,48.6L77.2,48.6z"/>
	</g>
</g>
<g>
	<g>
		<path class="st0" d="M123.8,62.7c-1.7,1-3,2.4-3.6,4.3c0,0.1,0,0.3,0.2,0.4c1.4,0.7,3,0.2,4.2-0.7c-0.2-0.1-0.3-0.2-0.5-0.4
			c-0.1,0.8-0.2,1.8,0.6,2.3c0.8,0.5,1.8-0.4,2.2-1c-0.1,0-0.3,0-0.4,0c2.7,1.8,4.2-1.5,2.7-3.6c-0.3-0.4-0.8,0-0.6,0.3
			c0.7,1.1,1.7,1.5,2.9,1.7c0.2,0,0.4,0,0.4-0.2c1.2-3.8-6.5-4-8.7-4.3c-0.4,0-0.4,0.6,0,0.7c1.7,0.2,9,0.4,8.1,3.4
			c0.1-0.1,0.3-0.2,0.4-0.2c-1-0.2-1.9-0.5-2.5-1.4c-0.2,0.1-0.4,0.2-0.6,0.3c1,1.5,0.3,4.1-1.8,2.7c-0.1-0.1-0.3-0.1-0.4,0
			c-0.2,0.3-0.5,0.6-0.9,0.8c-1,0.6-0.9-0.9-0.8-1.4c0-0.2-0.2-0.6-0.5-0.4c-1,0.7-2.3,1.3-3.5,0.7c0,0.1,0.1,0.2,0.2,0.4
			c0.5-1.7,1.7-3,3.2-3.9C124.5,63.1,124.1,62.5,123.8,62.7L123.8,62.7z"/>
	</g>
</g>
<g>
	<g>
		<path class="st0" d="M98.2,65.6c-2.5,0.8-6.7,1.8-7.8,4.6c-1.2,2.9,2.1,3.6,4.3,3.6c2.9,0,5.9-1.2,7.9-3.3c1-1.1,1.4-2.6,0.5-3.9
			c-0.9-1.3-3.1-1.8-4.6-1.4c-0.4,0.1-0.2,0.8,0.2,0.7c1.6-0.5,4.1,0.3,4.2,2.2c0.1,1.4-1.4,2.6-2.5,3.3c-1.9,1.2-3.9,1.7-6.1,1.7
			c-0.9,0-1.9-0.1-2.8-0.6c-1.1-0.7-0.5-2.2,0.2-3c1.6-1.8,4.5-2.6,6.7-3.3C98.8,66.1,98.6,65.5,98.2,65.6L98.2,65.6z"/>
	</g>
</g>
<g>
	<g>
		<path class="st0" d="M91.9,68.9c0.1,0.5,0.3,1.2,0.7,1.5c0.7,0.5,1.1-0.1,1.8-0.3c0.6-0.2,1.1-0.3,1.2-1c0-0.6-0.5-1.2-0.7-1.7
			c-0.2-0.4-0.8,0-0.6,0.3c0.2,0.3,0.3,0.7,0.5,1c0.2,0.5,0,0.6-0.5,0.7c-0.3,0.1-0.9,0.6-1.2,0.4c-0.3-0.2-0.4-0.8-0.5-1.1
			C92.5,68.3,91.8,68.5,91.9,68.9L91.9,68.9z"/>
	</g>
</g>
<g>
	<g>
		<path class="st0" d="M95.8,67.1c0.2,1.2,0.8,2.5,2.2,1.9c1.3-0.5,0.4-2,0-2.8c-0.2-0.4-0.8,0-0.6,0.3c0.2,0.4,1,1.6,0.3,1.9
			c-0.9,0.4-1.1-0.8-1.2-1.5C96.4,66.5,95.8,66.7,95.8,67.1L95.8,67.1z"/>
	</g>
</g>
<g>
	<g>
		<path class="st0" d="M100,71.9c0-0.2-0.2-0.5-0.3-0.7c-0.1-0.2-0.4-0.7-0.3-0.9c0.1-0.2,0.7-0.3,0.9-0.4c0.3-0.1,0.6-0.2,0.8-0.2
			c-0.1,0-0.2-0.1-0.4-0.2c0.2,0.2,0.3,0.5,0.5,0.8c0.2,0.4,0.8,0,0.6-0.3c-0.2-0.3-0.3-0.5-0.5-0.8c-0.1-0.1-0.2-0.2-0.4-0.2
			c-0.7,0.2-1.7,0.3-2.1,0.9c-0.5,0.7,0.4,1.6,0.5,2.2C99.4,72.5,100.1,72.3,100,71.9L100,71.9z"/>
	</g>
</g>
<g>
	<g>
		<path class="st0" d="M81.6,73.7c0.6,1,0.8,2.4,1.9,3.1c1.1,0.7,2.4-0.8,3.2-1.2c-0.2,0-0.3-0.1-0.5-0.1c0.4,1,0.4,2,1,2.9
			c0.1,0.1,0.3,0.2,0.5,0.1c0.2-0.2,0.5-0.4,0.7-0.6c-0.2-0.1-0.3-0.1-0.5-0.2c0.2,0.9,0,1.8,0.2,2.7c0,0.2,0.2,0.2,0.4,0.2
			c0.3,0,0.4,3,0.5,3.4c0.1,0.2,0.2,0.3,0.4,0.2c0.3-0.1,0.6-0.1,0.9-0.2c-0.1-0.1-0.3-0.2-0.4-0.2c0.4,1.4,0.1,2.9,0.2,4.3
			c0,0.3,0.3,0.4,0.5,0.3c1.6-0.8,2.3-2.9,4-3.4c-0.1-0.1-0.3-0.2-0.4-0.2c0.7,2.3,0.5,4.7,0.8,7.1c0,0.2,0.4,0.5,0.6,0.2
			c0.4-0.5,0.7-0.9,1.3-1c-0.1,0-0.2-0.1-0.4-0.2c0.9,1.9,0,4.3,1.4,6.1c0.1,0.2,0.4,0.2,0.5,0.1c0.6-0.6,1.1-1.4,1.8-2
			c0.9-0.8,1.3,1.6,1.7,2.2c0.1,0.2,0.5,0.2,0.6,0c0.7-1.2,1.2-2.5,1.6-3.8c0.4-1.3,0.4-2.7,0.9-4c-0.2,0-0.4,0-0.6,0.1
			c0.6,1.3,0.4,2.8,1.1,4.1c0.2,0.2,0.5,0.2,0.6-0.1c0.4-1.2,0.4-2.5,0.4-3.8c0.1-1.7,0.4-3.4,0.5-5c-0.2,0-0.5,0.1-0.7,0.1
			c0.1,0.4,0.1,0.7,0.2,1.1c0.1,0.3,0.6,0.3,0.7,0c0.5-2.8-0.7-5.5-0.3-8.2c-0.2,0-0.4,0-0.7,0c0.1,0.5,0.2,1,0.4,1.4
			c0.2,0.3,0.6,0.1,0.6-0.2c0.2-1.9-0.7-3.6-1.1-5.4c-0.4-2.1,0.9-4.2,1.4-6.1c-0.2,0-0.5-0.1-0.7-0.1c0.1,0.7,0.2,1.5,0.4,2.2
			c0.1,0.2,0.5,0.4,0.6,0.1c0.6-1.4,0.6-2.9,0.8-4.3c-0.2,0-0.4,0-0.6,0.1c0.4,0.7,0.7,1.4,1.4,1.9c0.2,0.1,0.4,0.1,0.5-0.1
			c0.6-1.3,0.1-2.8-0.2-4c0-0.2-0.4-0.4-0.6-0.2c-0.5,0.6-1.4,2.5-2.3,1c-0.5-0.7-0.9-1.5-1.6-2c-1.4-1.2-1.9,0.8-2.5,1.7
			c0.2,0,0.4,0,0.5-0.1c-0.6-0.5-0.9-1-1.7-0.7c-1,0.3-1,1.7-2.3,0.9c-0.6-0.4-1-0.4-1.6-0.1c-0.5,0.2-0.8,0.9-1.4,0.7
			c-0.3-0.1-0.6,0.1-0.9,0.2c-0.6,0.4-1.8,1.8-2.5,0.8c-0.3-0.5-1.2,0.1-1.5,0.3c-1,0.6-1.9,1.4-2.7,2.2c-0.9,1-1.5,2.2-2.6,3
			c0.2,0,0.3,0.1,0.5,0.1c-0.8-1.7-2.2-1.5-3.4-0.2c0.2,0,0.4,0,0.5,0.1c-0.4-0.5-0.9-1.4-1.7-1.1c-0.7,0.2-0.8,1.5-1,2
			c0.2,0,0.4-0.1,0.6-0.2c-0.1-0.1-0.1-0.1-0.2-0.2c-0.1-0.1-0.3-0.1-0.4,0c-1.6,1.1,0.4,1.8,1,2.7c0.2,0.4,0.8,0,0.6-0.3
			c-0.2-0.4-1.9-1.3-1.2-1.8c-0.1,0-0.3,0-0.4,0c0.1,0.1,0.1,0.1,0.2,0.2c0.2,0.2,0.5,0.1,0.6-0.2c0.1-0.3,0.1-0.6,0.2-0.9
			c0.3-1,0.8-0.3,1.2,0.2c0.1,0.2,0.4,0.2,0.5,0.1c0.8-0.9,1.7-1.2,2.4,0.1c0.1,0.2,0.3,0.2,0.5,0.1c1.7-1.3,2.7-3.3,4.5-4.6
			c0.5-0.4,1-0.6,1.5-1c0-0.2,0-0.2,0.1,0c0.1,0.1,0.2,0.2,0.2,0.3c0.4,0.4,1,0.2,1.5,0c0.8-0.4,1.3-1.2,2.3-1.2
			c1,0.1,1.5-1.5,2.5-0.8c0.4,0.3,1.2,0.7,1.7,0.3c0.2-0.1,0.4-0.3,0.5-0.5c0.5-0.7,1-0.6,1.6-0.1c0.2,0.2,0.4,0.1,0.5-0.1
			c0.2-0.2,0.3-0.5,0.4-0.8c0.3-0.8,1.1-0.7,1.6-0.1c0.5,0.6,0.8,1.4,1.4,2c1.1,1.2,2.3-0.9,2.8-1.5c-0.2,0-0.4-0.1-0.6-0.2
			c0.2,1.1,0.8,2.5,0.3,3.5c0.2,0,0.4,0,0.5-0.1c-0.6-0.5-0.9-1.2-1.2-1.8c-0.1-0.2-0.6-0.2-0.6,0.1c-0.2,1.4-0.2,2.9-0.7,4.2
			c0.2,0,0.4,0,0.6,0.1c-0.2-0.7-0.3-1.3-0.4-2c0-0.4-0.6-0.5-0.7-0.1c-0.5,1.9-1.5,3.7-1.5,5.7c0,2.1,1.4,3.9,1.2,6
			c0.2-0.1,0.4-0.1,0.6-0.2c-0.2-0.4-0.2-0.9-0.4-1.3c-0.1-0.3-0.6-0.4-0.7,0c-0.4,2.8,0.8,5.5,0.3,8.2c0.2,0,0.4,0,0.7,0
			c-0.1-0.4-0.2-0.7-0.2-1.1c-0.1-0.4-0.6-0.3-0.7,0.1c-0.1,1.4-0.3,2.9-0.5,4.3c-0.1,1.5,0,3-0.5,4.4c0.2,0,0.4,0,0.6-0.1
			c-0.7-1.2-0.5-2.8-1.1-4.1c-0.1-0.3-0.5-0.2-0.6,0.1c-0.4,1.2-0.5,2.4-0.8,3.6c-0.3,1.4-1,2.7-1.7,4c0.2,0,0.4,0,0.6,0
			c-0.3-0.5-0.7-3-1.7-2.9c-1.3,0.2-2,1.7-2.8,2.5c0.2,0,0.4,0,0.5,0.1c-1.3-1.7-0.5-4.1-1.4-6.1c-0.1-0.1-0.2-0.2-0.4-0.2
			c-0.7,0.2-1.1,0.7-1.6,1.2c0.2,0.1,0.4,0.2,0.6,0.2c-0.3-2.4-0.1-4.9-0.8-7.3c0-0.2-0.2-0.3-0.4-0.2c-1.9,0.5-2.5,2.6-4.2,3.5
			c0.2,0.1,0.3,0.2,0.5,0.3c-0.1-1.5,0.2-3-0.2-4.5c0-0.2-0.2-0.3-0.4-0.2c-0.3,0.1-0.6,0.1-0.9,0.2c0.1,0.1,0.3,0.2,0.4,0.2
			c-0.4-0.9,0.3-4.1-1.4-3.9c0.1,0.1,0.3,0.2,0.4,0.2c-0.2-0.9,0-1.8-0.2-2.7c0-0.2-0.3-0.3-0.5-0.2c-0.2,0.2-0.5,0.4-0.7,0.6
			c0.2,0,0.3,0.1,0.5,0.1c-0.5-0.9-0.5-1.9-1-2.9c-0.1-0.2-0.3-0.2-0.5-0.1c-0.9,0.5-2.1,2-3,0.8c-0.5-0.7-0.7-1.6-1.2-2.3
			C82,72.9,81.4,73.3,81.6,73.7L81.6,73.7z"/>
	</g>
</g>
<g>
	<g>
		<path class="st0" d="M84.6,63.1c0.2,0.3,0.5,0.5,0.8,0.5c0.2,0,0.4-0.3,0.3-0.5c-0.1-0.2-0.2-0.4-0.3-0.6
			c-0.1-0.2-0.3-0.4-0.5-0.5c-0.2-0.2-0.5-0.1-0.6,0.2c-0.1,0.2,0.1,0.4,0.2,0.5c0.3,0.1,0.6,0.2,0.9,0.3c0.4,0,0.7-0.4,0.4-0.7
			c0,0.1,0.1,0.2,0.1,0.2c0-0.4-0.1-1-0.5-1.2c-0.4-0.2-0.8,0-1,0.2c-0.3,0.3-0.3,0.7-0.1,1.1c0.3,0.5,1,0.7,1.6,0.7
			c0.2,0,0.3-0.2,0.3-0.3c0-0.2-0.2-0.3-0.3-0.3c-0.2,0-0.5-0.1-0.7-0.2c-0.1,0-0.2-0.1-0.2-0.1c0,0,0,0,0,0c0,0,0,0,0,0
			c0,0,0-0.1,0,0c0,0,0-0.1,0-0.1c0,0.1,0,0,0,0c0-0.1,0,0.1,0,0c0,0,0,0,0-0.1c0,0.1,0,0,0,0c0,0,0.1-0.1,0,0c0,0,0,0,0.1-0.1
			s0.1-0.1,0,0c0,0,0,0,0.1,0c0,0,0.1,0,0,0c0,0,0,0,0.1,0c0.1,0-0.1,0,0,0c0,0,0.1,0,0,0c0,0,0.1,0,0,0c0,0,0,0,0.1,0
			c-0.1,0,0,0,0,0c0,0,0,0,0,0c0,0,0,0.1,0.1,0.2c0,0.1,0,0.2,0,0.2c0,0.1,0,0.2,0.1,0.3c0,0,0,0,0,0c0,0,0-0.1,0-0.1
			c0-0.1,0-0.1,0-0.2c0.2-0.1,0.2-0.2,0.2-0.1c0.1,0,0.1,0,0,0c0,0,0,0,0,0c-0.1,0,0.1,0,0,0c-0.1,0-0.2,0-0.3-0.1
			c-0.1,0-0.2-0.1-0.3-0.1c-0.1,0,0,0,0,0c0,0,0,0,0,0c0,0,0.1,0.1,0.1,0.2c0,0.1,0,0.1,0,0.2l0,0c0,0-0.1,0.1-0.1,0.2l0,0
			c0,0-0.1,0.1-0.2,0.1c0,0-0.1,0,0,0c-0.1,0-0.1,0-0.2,0c0.3,0.2,0.4,0.6,0.6,1c0.1-0.2,0.2-0.3,0.3-0.5c-0.1,0-0.2-0.1-0.2-0.2
			C85,62.4,84.4,62.7,84.6,63.1L84.6,63.1z"/>
	</g>
</g>
<g>
	<g>
		<path class="st0" d="M100.7,54.5c0.1,0.2,0.2,0.7,0.6,0.7c0.3,0,0.4-0.3,0.5-0.6c0-0.2,0-0.4-0.1-0.6c-0.2-0.2-0.5-0.1-0.6,0.1
			c-0.1,0.3-0.2,0.6-0.2,0.9c0,0.1,0,0.3,0,0.4c0.2,0.2,0.5,0.2,0.6,0c-0.2,0-0.4,0-0.5,0.1c0.2,0.2,0.5,0.3,0.7,0.2
			c0.2-0.1,0.4-0.3,0.4-0.5c0-0.4-0.2-0.8-0.2-1.2c0-0.2-0.2-0.4-0.4-0.3c-0.3,0.1-0.6,0.3-0.4,0.7c0.1,0.2,0.5,0.3,0.7,0.3
			c0.4,0,0.4-0.7,0-0.7c0,0-0.1,0-0.1,0c-0.2,0-0.2,0.4,0,0.3c-0.1-0.1-0.3-0.2-0.4-0.3c0,0.4,0.2,0.9,0.2,1.3
			c0-0.1,0.1-0.2,0.1-0.2c0,0,0,0-0.1,0c-0.2-0.1-0.4-0.1-0.5,0.1c-0.1,0.2,0-0.2,0.3-0.1c0.1,0,0.1,0.1,0.2,0.2c0,0,0,0.2,0,0.1
			c0,0,0,0,0-0.1c0-0.1,0,0.1,0,0c0-0.1,0-0.3,0.1-0.4c0,0,0-0.1,0-0.1c0,0,0-0.1,0,0c0.1-0.2-0.6-0.3-0.6-0.1c0-0.1,0,0,0,0
			c0,0.1,0,0.1,0,0.2c0,0.2,0.5,0.1,0.4,0c0-0.1-0.1-0.1-0.1-0.2C101.2,53.9,100.6,54.1,100.7,54.5L100.7,54.5z"/>
	</g>
</g>
<g>
	<g>
		<path class="st0" d="M133.6,45c0.4-0.7,0.7-1.5,1-2.3c0.1-0.4-0.5-0.6-0.7-0.2c-0.2,0.7-0.5,1.4-0.9,2.1
			C132.8,45.1,133.3,45.4,133.6,45L133.6,45z"/>
	</g>
</g>
<g>
	<g>
		<path class="st0" d="M84.1,46.8c1.7,0.4,3.3,1,4.8,1.9c0.4,0.2,0.7-0.4,0.3-0.6c-1.5-1-3.2-1.7-5-2C83.9,46,83.7,46.7,84.1,46.8
			L84.1,46.8z"/>
	</g>
</g>
<g>
	<g>
		<path class="st0" d="M92.5,47.7c0.4-1.2,1.1-2.1,2.2-2.7c0.4-0.2,0-0.8-0.3-0.6c-1.2,0.7-2.1,1.8-2.5,3.1
			C91.7,47.9,92.4,48.1,92.5,47.7L92.5,47.7z"/>
	</g>
</g>
<g>
	<g>
		<path class="st0" d="M101.4,99.4c-0.3,0.9,0.1,1.9,1,2.4c1,0.5,2,0,2.6-0.7c0.6-0.6,0.3-1.4-0.3-1.8c-0.8-0.5-1.9-0.6-2.8-0.5
			c-0.4,0-0.4,0.7,0,0.7c0.5,0,3.3,0.1,2.7,1.1c-0.3,0.6-1.2,0.9-1.8,0.7c-0.7-0.2-1-1-0.8-1.7C102.2,99.2,101.6,99,101.4,99.4
			L101.4,99.4z"/>
	</g>
</g>
<g>
	<g>
		<path class="st0" d="M102.3,103.8c-0.4,1.9,2.1,4.4,3.6,2.3c1.4-1.9-2.1-3.1-3.5-2.9c-0.4,0-0.4,0.7,0,0.7c0.8-0.1,3.2,0.4,3,1.6
			c-0.2,0.9-1.1,1-1.7,0.5c-0.6-0.4-1-1.3-0.8-2C103.1,103.5,102.4,103.3,102.3,103.8L102.3,103.8z"/>
	</g>
</g>
<g>
	<g>
		<path class="st0" d="M104,108.6c-0.1,0.4-0.1,0.8,0,1.3c0,0.2,0.2,0.5,0.4,0.7c0.4,0.3,1,0.2,1.4-0.1c0.5-0.3,0.9-0.7,1.2-1.2
			c0.2-0.4,0.4-1,0.1-1.4c-0.2-0.3-0.6-0.5-1-0.5c-0.6-0.1-1.1,0.1-1.7,0.2c-0.4,0.1-0.3,0.8,0.2,0.7c0.3-0.1,0.5-0.1,0.8-0.2
			c0.1,0-0.1,0,0,0c0,0,0,0,0.1,0c0,0,0.1,0,0.2,0c0.1,0,0.2,0,0.3,0c0.1,0,0.2,0,0.2,0c-0.1,0,0,0,0,0c0,0,0.1,0,0.1,0
			c0,0,0,0,0.1,0c0.1,0-0.1,0,0,0c0,0,0,0,0.1,0c0,0,0.1,0.1,0,0c0,0,0.1,0.1,0.1,0.1c-0.1-0.1,0,0,0,0c0,0,0,0.1,0,0
			c0,0,0,0.1,0,0.1c0,0.1,0-0.1,0,0c0,0,0,0,0,0.1c0,0,0,0,0,0.1s0-0.1,0,0c0,0,0,0.1,0,0.2c0,0,0,0,0,0.1s0,0,0,0c0,0,0-0.1,0,0
			c0,0,0,0.1-0.1,0.2c-0.1,0.1-0.1,0.2-0.2,0.3c-0.1,0.1,0,0,0,0c0,0,0,0-0.1,0.1c0,0-0.1,0.1-0.1,0.2c-0.1,0.1-0.2,0.2-0.3,0.3
			c0,0,0,0-0.1,0.1c0.1-0.1,0,0,0,0c0,0-0.1,0.1-0.2,0.1c0,0-0.1,0.1-0.1,0.1c0,0,0,0-0.1,0c0,0,0,0,0,0c0,0,0.1,0,0,0
			c0,0-0.1,0-0.1,0c0,0,0,0-0.1,0c0,0,0,0,0,0c-0.1,0,0.1,0,0,0s-0.1,0-0.1,0c-0.1,0,0.1,0,0,0c0,0,0,0-0.1,0c-0.1,0,0,0,0,0
			c0,0,0,0,0,0c0,0-0.1-0.1,0,0c0,0,0,0,0,0c0,0-0.1-0.1,0,0c0,0,0,0,0,0c0,0-0.1-0.2,0-0.1c0-0.1-0.1-0.2-0.1-0.3c0,0.1,0,0,0,0
			s0-0.1,0-0.1c0-0.1,0-0.2,0-0.2c0-0.1,0-0.2,0-0.2c0,0,0-0.1,0-0.1c0,0,0,0,0-0.1c0,0.1,0,0,0,0c0-0.2,0-0.4-0.2-0.4
			C104.2,108.3,104,108.4,104,108.6L104,108.6z"/>
	</g>
</g>
<g>
	<g>
		<path class="st0" d="M85.3,62c0,0.2,0.1,0.5,0.1,0.7c0.1,0.2,0,0.5,0.3,0.7c0.5,0.3,0.6-0.5,0.7-0.8c0.1-0.2,0-0.4-0.1-0.5
			c-0.2-0.1-0.4,0-0.5,0.1c-0.1,0.1-0.1,0.3-0.2,0.4c0,0.1,0,0.1,0,0.2c0,0.1,0,0,0.1,0c0.1,0,0.1,0,0.2,0c0,0,0,0,0,0
			c0.1,0,0.1,0,0.2,0c0,0,0.1,0.1,0,0c0,0.1,0,0.1,0,0.2c0-0.3-0.2-0.6-0.2-0.9C86,61.6,85.3,61.6,85.3,62L85.3,62z"/>
	</g>
</g>
<g>
	<g>
		<path class="st0" d="M101.2,54.3c0.2,0.2,0.5,0.4,0.8,0.2c0.3-0.2,0.2-0.6,0.1-0.8c-0.1-0.2-0.3-0.2-0.5-0.1s-0.2,0.3-0.1,0.5
			c0,0,0,0,0,0c0,0,0,0,0,0.1c0-0.1,0,0,0,0c0-0.1,0-0.1,0.1-0.2c0.1-0.1,0.1-0.1,0.2-0.1c-0.1,0,0.1,0,0,0c0,0-0.1,0,0,0
			c0,0-0.1,0-0.1-0.1c-0.1-0.1-0.3-0.1-0.5,0C101,54,101,54.2,101.2,54.3L101.2,54.3z"/>
	</g>
</g>
<g>
	<g>
		<path class="st0" d="M10.3,96.7c0.3,2,0.2,3.9,0.4,5.9c0.1,1.1,0.1,2.3,0.2,3.4c0.1,0.8,0.5,1.4,1.4,1.5c1.1,0.1,2.3-0.3,3.3-0.5
			c1.5-0.3,3-0.4,4.5-0.4c1.2,0,2.4-0.2,3.6-0.3c0.6-0.1,1.9-0.2,2.1-0.9c0.3-0.8-0.1-1.9-0.3-2.7c-0.2-0.8-0.5-1.6-0.7-2.4
			c-0.3-1.3-0.9-2.5-1.3-3.8c-0.2-0.7-0.1-1.8-0.6-2.4c-0.6-0.7-1.9-0.7-2.7-0.7c-2.5,0.1-4.9,1.1-7.3,1.5c-0.8,0.1-1.6,0.2-2.2,0.7
			c-0.7,0.6-0.6,1.5-0.5,2.3c0,0.2,0.4,0.1,0.4-0.1c-0.1-0.6-0.1-1.3,0.3-1.8c0.3-0.4,0.9-0.5,1.4-0.6c1.3-0.3,2.6-0.5,4-0.9
			c1.5-0.4,3.1-0.8,4.7-0.8c0.6,0,1.4,0.1,1.8,0.6c0.3,0.4,0.3,1.1,0.4,1.6c0.3,1.5,1.1,2.9,1.5,4.4c0.3,1,0.6,2,0.8,3
			c0.1,0.5,0.2,1,0.2,1.5c0,0.6-0.2,0.7-0.7,0.8c-1,0.3-2,0.4-3,0.5c-1.9,0.3-3.9,0-5.8,0.4c-1.3,0.3-2.8,0.9-4.1,0.6
			c-0.6-0.1-0.7-1.2-0.7-1.7c-0.1-0.7,0-1.4-0.1-2c0-1-0.2-2.1-0.2-3.1c-0.1-1.2-0.1-2.4-0.3-3.5C10.7,96.4,10.3,96.4,10.3,96.7
			L10.3,96.7z"/>
	</g>
</g>
<g>
	<g>
		<path class="st0" d="M15.2,94.5c0,0.9,0.4,1.8,0.7,2.7c0.3,0.8,0.8,1.9-0.1,2.5c-0.7,0.5-1.7,0.6-2.5,0.7
			c-0.8,0.1-1.5,0.2-2.3,0.4c-0.2,0.1-0.1,0.4,0.1,0.4c0.8-0.2,1.7-0.3,2.6-0.4c0.8-0.1,1.8-0.3,2.5-0.8c0.6-0.5,0.5-1.3,0.3-2
			c-0.3-1.1-0.9-2.2-1-3.3C15.6,94.3,15.2,94.3,15.2,94.5L15.2,94.5z"/>
	</g>
</g>
<g>
	<g>
		<path class="st0" d="M11,103.2c1.1,0,2.1-0.1,3.2-0.2c0.8-0.1,1.7-0.1,2.5-0.3c0.5-0.1,0.9,0.7,1,1.2c0.2,0.7,0.3,1.5,0.4,2.2
			c0,0.2,0.4,0.2,0.4,0c-0.1-0.8-0.2-1.6-0.5-2.4c-0.1-0.4-0.5-1.1-0.9-1.3c-0.2,0-0.3,0-0.5,0c-0.6,0.1-1.2,0.1-1.8,0.2
			c-1.3,0.1-2.6,0.3-3.9,0.3C10.8,102.9,10.8,103.2,11,103.2L11,103.2z"/>
	</g>
</g>
<g>
	<g>
		<path class="st0" d="M20.5,106.1c0-1.4-0.6-2.7-1-4.1c0,0.1-0.1,0.1-0.1,0.2c1.6-0.6,3.3-1.1,5-1.3c0.2,0,0.2-0.4,0-0.4
			c-1.7,0.1-3.4,0.7-5.1,1.3c-0.1,0-0.2,0.1-0.1,0.2c0.3,1.3,0.9,2.6,1,4C20.1,106.3,20.5,106.3,20.5,106.1L20.5,106.1z"/>
	</g>
</g>
<g>
	<g>
		<path class="st0" d="M17.2,94.1c-0.1,0.8,0.2,1.6,0.4,2.4c0.2,0.9,0.5,1.8,0.9,2.6c0.3,0.6,1,0.5,1.6,0.4c1.1-0.2,2.2-0.6,3.3-0.7
			c0.2,0,0.2-0.4,0-0.4c-0.9,0.1-1.7,0.4-2.5,0.6c-0.5,0.1-0.9,0.2-1.4,0.2c-0.4,0-0.5,0-0.7-0.4c-0.4-0.8-0.6-1.6-0.8-2.5
			c-0.2-0.7-0.5-1.5-0.4-2.3C17.6,93.9,17.2,93.9,17.2,94.1L17.2,94.1z"/>
	</g>
</g>
<g>
	<g>
		<path class="st0" d="M-37.4,88c0.1,0,0.3,0,0.4,0c0.2,0,0.2-0.4,0-0.4c-0.1,0-0.3,0-0.4,0C-37.6,87.6-37.6,88-37.4,88L-37.4,88z"
			/>
	</g>
</g>
<g>
	<g>
		<path class="st0" d="M-38.6,85.8c0.2,0,0.5,0,0.7,0s0.2-0.4,0-0.4s-0.5,0-0.7,0S-38.8,85.8-38.6,85.8L-38.6,85.8z"/>
	</g>
</g>
<g>
	<g>
		<path class="st0" d="M-37.4,85.3c-0.1,0-0.3,0-0.4,0c-0.2,0-0.2,0.4,0,0.4c0.1,0,0.3,0,0.4,0C-37.2,85.6-37.2,85.3-37.4,85.3
			L-37.4,85.3z"/>
	</g>
</g>
<g>
	<g>
		<path class="st0" d="M17.4,93.8c0.8-1.9-1.5-3.8-3.3-3c-1.8,0.8,0.7,2.4,1.1,3.3c0.1,0.2,0.4,0,0.3-0.2c-0.3-0.6-2-1.7-1.7-2.4
			c0.2-0.3,0.8-0.4,1.1-0.5c0.4,0,0.8,0.2,1.2,0.4c0.8,0.5,1.3,1.5,0.9,2.4C16.9,93.9,17.3,94,17.4,93.8L17.4,93.8z"/>
	</g>
</g>
<g>
	<g>
		<path class="st0" d="M15.8,91c0.4-0.1,0.7-0.4,1-0.6c0.6-0.4,1.1-0.8,1.7-1.2c0.6-0.4,1.2-0.8,1.9-1.1c0.5-0.2,1.2-0.6,1.7-0.3
			c0.6,0.3,0.5,1.3,0.5,1.9c-0.1,1-0.7,1.6-1.6,2c-1.2,0.5-3,0.5-3.6,1.9c-0.1,0.2,0.3,0.3,0.4,0.1c0.3-0.8,1.3-1,2-1.2
			c0.7-0.2,1.6-0.4,2.2-0.9c0.7-0.6,0.9-1.4,1-2.2c0-0.6-0.1-1.3-0.6-1.7c-1-0.7-2.7,0.4-3.5,0.9c-0.7,0.4-1.3,0.9-2,1.4
			c-0.3,0.2-0.8,0.7-1.3,0.8C15.4,90.7,15.5,91.1,15.8,91L15.8,91z"/>
	</g>
</g>
<g>
	<g>
		<path class="st0" d="M14,91.1c-0.8-1.1-2.2-2-3.3-2.6C9.9,88,8.1,87,7.4,88.1c-0.4,0.6-0.1,1.5,0.1,2.1c0.3,0.9,1,1.6,1.7,2.1
			c1.6,1.2,3.9,1.5,5.8,1.5c0.2,0,0.2-0.4,0-0.4c-1.7,0-3.5-0.3-5-1.1c-0.8-0.4-1.5-1-1.9-1.8C7.7,90,7.4,89,7.7,88.3
			c0.5-1,2.6,0.3,3.1,0.7c1,0.6,2.2,1.3,2.9,2.3C13.8,91.4,14.1,91.3,14,91.1L14,91.1z"/>
	</g>
</g>
<g>
	<g>
		<path class="st0" d="M178,37.8c-1.7-2.8-2.9-5.9-4.6-8.7c-0.9-1.6-1.6-3.4-2.6-5c-0.8-1.2-1.7-1.8-3.1-1.3c-1.7,0.6-3.3,2-4.8,3
			c-2.1,1.5-4.3,2.6-6.6,3.6c-1.8,0.8-3.6,1.8-5.3,2.9c-0.9,0.6-2.8,1.6-2.7,2.8c0.1,1.4,1.5,2.9,2.3,3.9c0.9,1.1,1.8,2.2,2.6,3.3
			c1.4,1.8,3.1,3.3,4.5,4.9c0.8,1,1.4,2.6,2.5,3.2c1.4,0.7,3.3-0.1,4.6-0.7c3.7-1.8,6.7-4.8,10.1-7.1c1.1-0.7,2.2-1.4,2.8-2.6
			c0.6-1.3-0.1-2.8-0.8-3.9c-0.2-0.3-0.7,0.1-0.5,0.4c0.5,0.9,1.1,1.9,0.8,2.9c-0.2,0.8-1,1.4-1.7,1.9c-1.8,1.3-3.7,2.5-5.5,3.9
			c-2.1,1.6-4.2,3.3-6.7,4.3c-0.9,0.4-2.2,0.8-3.1,0.2c-0.7-0.5-1.1-1.5-1.6-2.1c-1.5-2.1-3.6-3.8-5.2-5.8c-1.1-1.4-2.2-2.7-3.2-4
			c-0.5-0.7-1-1.4-1.4-2.2c-0.4-0.8-0.1-1.2,0.5-1.8c1.3-1.1,2.8-1.9,4.3-2.7c2.8-1.7,5.9-2.6,8.6-4.5c1.8-1.2,3.7-3.2,5.8-3.6
			c1.1-0.2,1.8,1.3,2.2,2.1c0.5,1,1,2,1.5,3.1c0.8,1.5,1.7,3,2.4,4.6c0.9,1.8,1.7,3.5,2.7,5.2C177.7,38.4,178.2,38.2,178,37.8
			L178,37.8z"/>
	</g>
</g>
<g>
	<g>
		<path class="st0" d="M172,44.4c-0.6-1.4-1.9-2.5-2.9-3.6c-0.9-1-2.4-2.4-1.5-3.8c0.8-1.2,2.2-1.9,3.3-2.7c1.1-0.7,2.2-1.3,3.2-2.1
			c0.3-0.2-0.1-0.7-0.4-0.5c-1.1,0.9-2.4,1.6-3.6,2.4c-1.2,0.7-2.6,1.6-3.2,2.9c-0.6,1.2,0.1,2.3,0.8,3.2c1.2,1.5,2.9,2.7,3.7,4.5
			C171.6,45,172.1,44.8,172,44.4L172,44.4z"/>
	</g>
</g>
<g>
	<g>
		<path class="st0" d="M172.7,28.3c-1.6,0.7-3.2,1.6-4.8,2.5c-1.2,0.7-2.5,1.3-3.7,2.1c-0.8,0.5-1.8-0.6-2.3-1.1
			c-0.8-0.9-1.5-2-2.1-3.1c-0.2-0.3-0.8-0.1-0.6,0.2c0.7,1.2,1.4,2.4,2.4,3.4c0.5,0.5,1.5,1.4,2.3,1.4c0.3,0,0.5-0.2,0.8-0.4
			c0.8-0.5,1.7-1,2.6-1.5c1.9-1,3.7-2.2,5.7-3C173.3,28.7,173,28.1,172.7,28.3L172.7,28.3z"/>
	</g>
</g>
<g>
	<g>
		<path class="st0" d="M156.3,30.2c1,2.1,2.8,3.7,4.2,5.6c0-0.1,0-0.3,0-0.4c-2,2-4.2,3.9-6.7,5.2c-0.3,0.2-0.1,0.7,0.2,0.6
			c2.6-1.3,4.8-3.3,6.9-5.3c0.1-0.1,0.2-0.3,0-0.4c-1.4-1.8-3.2-3.3-4.1-5.4C156.7,29.6,156.1,29.9,156.3,30.2L156.3,30.2z"/>
	</g>
</g>
<g>
	<g>
		<path class="st0" d="M169.2,46.3c-0.4-1.2-1.4-2.3-2.2-3.3c-0.9-1.2-1.9-2.4-3.1-3.4c-0.9-0.7-1.9-0.1-2.7,0.4
			c-1.6,1-2.9,2.3-4.5,3.3c-0.3,0.2-0.1,0.8,0.2,0.6c1.2-0.7,2.3-1.7,3.5-2.5c0.6-0.5,1.3-0.9,2-1.3c0.6-0.3,0.8-0.3,1.3,0.1
			c1.1,0.9,2,2.1,2.9,3.2c0.7,0.9,1.7,2,2.1,3.2C168.8,46.9,169.4,46.7,169.2,46.3L169.2,46.3z"/>
	</g>
</g>
<g>
	<g>
		<path class="st0" d="M154.1,40.4c-0.2,0.1-0.4,0.2-0.6,0.3c-0.4,0.2-0.1,0.7,0.2,0.6c0.2-0.1,0.4-0.2,0.6-0.3
			C154.7,40.8,154.5,40.3,154.1,40.4L154.1,40.4z"/>
	</g>
</g>
<g>
	<g>
		<path class="st0" d="M157.3,42.9c-0.4,0.2-0.7,0.3-1,0.5c-0.4,0.2-0.1,0.7,0.2,0.6c0.4-0.2,0.7-0.3,1-0.5
			C157.9,43.3,157.7,42.8,157.3,42.9L157.3,42.9z"/>
	</g>
</g>
<g>
	<g>
		<path class="st0" d="M155.9,44.6c0.2-0.1,0.4-0.2,0.6-0.3c0.4-0.2,0.1-0.7-0.2-0.6c-0.2,0.1-0.4,0.2-0.6,0.3
			C155.3,44.2,155.5,44.7,155.9,44.6L155.9,44.6z"/>
	</g>
</g>
<g>
	<g>
		<path class="st0" d="M169.2,46.9c0.1,3.4,4.9,4.8,7,2.4c2.2-2.4-2.6-3.2-3.8-4.2c-0.3-0.2-0.7,0.2-0.4,0.5
			c0.9,0.7,4.2,1.3,4.2,2.6c0,0.6-0.9,1.2-1.4,1.5c-0.6,0.3-1.4,0.3-2,0.2c-1.5-0.2-2.9-1.4-3-3C169.8,46.4,169.2,46.5,169.2,46.9
			L169.2,46.9z"/>
	</g>
</g>
<g>
	<g>
		<path class="st0" d="M173.5,50c-0.5,0.3-0.8,1-1.1,1.5c-0.6,1-1.2,2-1.8,2.9c-0.7,1-1.4,2.1-2.2,3c-0.6,0.7-1.5,1.6-2.5,1.6
			c-1.2,0-1.7-1.7-2-2.5c-0.5-1.5,0-3,1.2-4.1c1.6-1.5,4.3-2.7,4.2-5.2c0-0.4-0.6-0.3-0.6,0.1c0,1.5-1.3,2.4-2.3,3.2
			c-1,0.8-2.1,1.6-2.8,2.8c-0.7,1.3-0.5,2.7,0,4.1c0.4,1,1,2,2,2.2c2,0.5,3.8-2.5,4.7-3.8c0.7-1.1,1.4-2.2,2.1-3.4
			c0.4-0.6,0.8-1.6,1.4-2C174.2,50.3,173.8,49.8,173.5,50L173.5,50z"/>
	</g>
</g>
<g>
	<g>
		<path class="st0" d="M176.1,48.8c2,1.2,4.6,1.6,6.8,1.8c1.5,0.2,5,0.5,5.3-1.7c0.2-1.2-0.9-2.4-1.6-3.2c-1.1-1.1-2.5-1.8-4-2.1
			c-3.3-0.7-6.9,0.2-9.9,1.5c-0.4,0.2-0.1,0.7,0.2,0.6c2.6-1.1,5.6-1.9,8.4-1.6c1.5,0.1,2.9,0.6,4.1,1.5c0.9,0.7,2.1,2.1,2.1,3.3
			c-0.1,1.8-4.1,1.2-5.2,1.1c-1.9-0.3-4.2-0.6-5.9-1.6C176.2,48.1,175.8,48.6,176.1,48.8L176.1,48.8z"/>
	</g>
</g>
</svg>
